<svg xmlns="http://www.w3.org/2000/svg" xmlns:xlink="http://www.w3.org/1999/xlink" width="1080" zoomAndPan="magnify" viewBox="0 0 810 1439.999935" height="1920" preserveAspectRatio="xMidYMid meet" version="1.0"><defs><clipPath id="b8b6bdfd85"><path d="M 549.851562 615.382812 L 611.757812 615.382812 L 611.757812 665.683594 L 549.851562 665.683594 Z M 549.851562 615.382812 " clip-rule="nonzero"/></clipPath><clipPath id="fef86fb012"><path d="M 551.304688 648.90625 C 550.429688 646.335938 549.851562 643.398438 549.851562 640.519531 C 549.851562 637.644531 550.347656 634.875 551.222656 632.324219 C 551.25 632.269531 551.25 632.214844 551.277344 632.160156 C 554.785156 622.578125 564.046875 615.519531 574.871094 615.382812 L 611.757812 615.382812 L 611.757812 665.683594 L 574.898438 665.683594 C 563.992188 665.546875 554.730469 658.597656 551.304688 648.90625 " clip-rule="nonzero"/></clipPath><clipPath id="5bd6d30fe9"><path d="M 608.550781 615.382812 L 658.847656 615.382812 L 658.847656 677.289062 L 608.550781 677.289062 Z M 608.550781 615.382812 " clip-rule="nonzero"/></clipPath><clipPath id="e36220653f"><path d="M 642.074219 675.835938 C 639.503906 676.714844 636.5625 677.289062 633.6875 677.289062 C 630.808594 677.289062 628.039062 676.796875 625.488281 675.917969 C 625.433594 675.890625 625.382812 675.890625 625.328125 675.863281 C 615.746094 672.355469 608.6875 663.09375 608.550781 652.269531 L 608.550781 615.382812 L 658.847656 615.382812 L 658.847656 652.242188 C 658.714844 663.148438 651.765625 672.410156 642.074219 675.835938 " clip-rule="nonzero"/></clipPath><clipPath id="8098c1724b"><path d="M 557.464844 633.578125 L 658.851562 633.578125 L 658.851562 715.953125 L 557.464844 715.953125 Z M 557.464844 633.578125 " clip-rule="nonzero"/></clipPath><clipPath id="77e168e532"><path d="M 559.84375 661.050781 C 558.410156 665.273438 557.464844 670.074219 557.464844 674.789062 C 557.464844 679.5 558.273438 684.035156 559.710938 688.214844 C 559.753906 688.300781 559.753906 688.390625 559.800781 688.480469 C 565.542969 704.171875 580.714844 715.730469 598.441406 715.953125 L 658.851562 715.953125 L 658.851562 633.578125 L 598.488281 633.578125 C 580.625 633.800781 565.453125 645.179688 559.84375 661.050781 " clip-rule="nonzero"/></clipPath><clipPath id="19f3b90f0d"><path d="M 525.539062 633.578125 L 626.925781 633.578125 L 626.925781 715.953125 L 525.539062 715.953125 Z M 525.539062 633.578125 " clip-rule="nonzero"/></clipPath><clipPath id="15fcba27fe"><path d="M 550.886719 633.578125 L 626.925781 633.578125 L 601.578125 715.953125 L 525.539062 715.953125 L 550.886719 633.578125 " clip-rule="nonzero"/></clipPath><clipPath id="e5481e7cac"><path d="M 566.140625 629.40625 L 640.859375 629.40625 L 640.859375 704.128906 L 566.140625 704.128906 Z M 566.140625 629.40625 " clip-rule="nonzero"/></clipPath></defs><g clip-path="url(#b8b6bdfd85)"><g clip-path="url(#fef86fb012)"><path fill="#203e5f" d="M 549.851562 665.683594 L 549.851562 615.382812 L 611.757812 615.382812 L 611.757812 665.683594 Z M 549.851562 665.683594 " fill-opacity="1" fill-rule="nonzero"/></g></g><g clip-path="url(#5bd6d30fe9)"><g clip-path="url(#e36220653f)"><path fill="#203e5f" d="M 658.847656 677.289062 L 608.550781 677.289062 L 608.550781 615.382812 L 658.847656 615.382812 Z M 658.847656 677.289062 " fill-opacity="1" fill-rule="nonzero"/></g></g><g clip-path="url(#8098c1724b)"><g clip-path="url(#77e168e532)"><path fill="#203e5f" d="M 658.851562 633.578125 L 658.851562 715.953125 L 557.464844 715.953125 L 557.464844 633.578125 Z M 658.851562 633.578125 " fill-opacity="1" fill-rule="nonzero"/></g></g><g clip-path="url(#19f3b90f0d)"><g clip-path="url(#15fcba27fe)"><path fill="#203e5f" d="M 525.539062 633.578125 L 626.925781 633.578125 L 626.925781 715.953125 L 525.539062 715.953125 Z M 525.539062 633.578125 " fill-opacity="1" fill-rule="nonzero"/></g></g><path stroke-linecap="butt" transform="matrix(0.622302, -0.00314221, 0.00314406, 0.622667, 81.004055, 713.461862)" fill="none" stroke-linejoin="miter" d="M -0.00162211 4.000945 L 746.445234 3.997474 " stroke="#203e5f" stroke-width="8" stroke-opacity="1" stroke-miterlimit="4"/><g clip-path="url(#e5481e7cac)"><path fill="#203e5f" d="M 640.859375 666.765625 C 640.859375 687.398438 624.148438 704.109375 603.515625 704.109375 C 582.886719 704.109375 566.140625 687.433594 566.140625 666.765625 C 566.140625 646.101562 582.851562 629.421875 603.484375 629.421875 C 624.113281 629.421875 640.859375 646.136719 640.859375 666.765625 Z M 640.859375 666.765625 " fill-opacity="1" fill-rule="nonzero"/></g><path fill="#ffffff" d="M 593.636719 686.730469 L 593.636719 646.839844 L 628.167969 666.765625 Z M 593.636719 686.730469 " fill-opacity="1" fill-rule="nonzero"/><path fill="#eb3455" d="M 602.546875 666.765625 C 602.546875 671.65625 598.558594 675.644531 593.667969 675.644531 C 588.78125 675.644531 584.792969 671.65625 584.792969 666.765625 C 584.792969 661.878906 588.746094 657.890625 593.636719 657.890625 C 598.527344 657.890625 602.546875 661.878906 602.546875 666.765625 Z M 602.546875 666.765625 " fill-opacity="1" fill-rule="nonzero"/><path stroke-linecap="butt" transform="matrix(0.622663, -0.00161632, 0.00161635, 0.622673, 81.000011, 716.886542)" fill="none" stroke-linejoin="miter" d="M -0.000226677 2.497079 L 928.020288 2.497042 " stroke="#203e5f" stroke-width="5" stroke-opacity="1" stroke-miterlimit="4"/></svg>