<svg xmlns="http://www.w3.org/2000/svg" xmlns:xlink="http://www.w3.org/1999/xlink" width="1080" zoomAndPan="magnify" viewBox="0 0 810 1439.999935" height="1920" preserveAspectRatio="xMidYMid meet" version="1.0"><defs><clipPath id="09b23359fa"><path d="M 560.855469 695.734375 L 677.664062 695.734375 L 677.664062 790.640625 L 560.855469 790.640625 Z M 560.855469 695.734375 " clip-rule="nonzero"/></clipPath><clipPath id="0b9b5b1382"><path d="M 563.597656 727.386719 C 561.941406 732.253906 560.855469 737.785156 560.855469 743.214844 C 560.855469 748.644531 561.789062 753.867188 563.441406 758.683594 C 563.492188 758.785156 563.492188 758.886719 563.546875 758.988281 C 570.164062 777.070312 587.640625 790.386719 608.066406 790.640625 L 677.664062 790.640625 L 677.664062 695.734375 L 608.117188 695.734375 C 587.539062 695.992188 570.0625 709.105469 563.597656 727.386719 " clip-rule="nonzero"/></clipPath><clipPath id="ba8c9b2316"><path d="M 537.925781 695.734375 L 654.730469 695.734375 L 654.730469 790.640625 L 537.925781 790.640625 Z M 537.925781 695.734375 " clip-rule="nonzero"/></clipPath><clipPath id="36baabbbb3"><path d="M 567.125 695.734375 L 654.730469 695.734375 L 625.53125 790.640625 L 537.925781 790.640625 L 567.125 695.734375 " clip-rule="nonzero"/></clipPath><clipPath id="20c04577a4"><path d="M 573.714844 702.679688 L 654.714844 702.679688 L 654.714844 783.679688 L 573.714844 783.679688 Z M 573.714844 702.679688 " clip-rule="nonzero"/></clipPath></defs><g clip-path="url(#09b23359fa)"><g clip-path="url(#0b9b5b1382)"><path fill="#203e5f" d="M 677.664062 695.734375 L 677.664062 790.640625 L 560.855469 790.640625 L 560.855469 695.734375 Z M 677.664062 695.734375 " fill-opacity="1" fill-rule="nonzero"/></g></g><g clip-path="url(#ba8c9b2316)"><g clip-path="url(#36baabbbb3)"><path fill="#203e5f" d="M 537.925781 695.734375 L 654.730469 695.734375 L 654.730469 790.640625 L 537.925781 790.640625 Z M 537.925781 695.734375 " fill-opacity="1" fill-rule="nonzero"/></g></g><g clip-path="url(#20c04577a4)"><path fill="#203e5f" d="M 654.714844 743.179688 C 654.714844 765.546875 636.597656 783.664062 614.234375 783.664062 C 591.871094 783.664062 573.714844 765.582031 573.714844 743.179688 C 573.714844 720.78125 591.832031 702.699219 614.199219 702.699219 C 636.5625 702.699219 654.714844 720.816406 654.714844 743.179688 Z M 654.714844 743.179688 " fill-opacity="1" fill-rule="nonzero"/></g><path fill="#ffffff" d="M 603.523438 764.820312 L 603.523438 721.578125 L 640.957031 743.179688 Z M 603.523438 764.820312 " fill-opacity="1" fill-rule="nonzero"/><path fill="#eb3455" d="M 613.183594 743.179688 C 613.183594 748.480469 608.863281 752.800781 603.5625 752.800781 C 598.261719 752.800781 593.9375 748.480469 593.9375 743.179688 C 593.9375 737.878906 598.222656 733.558594 603.523438 733.558594 C 608.824219 733.558594 613.183594 737.878906 613.183594 743.179688 Z M 613.183594 743.179688 " fill-opacity="1" fill-rule="nonzero"/><path stroke-linecap="butt" transform="matrix(0.749846, -0.0046123, 0.00461316, 0.749986, 107.820419, 788.016704)" fill="none" stroke-linejoin="miter" d="M -0.000828876 3.498623 L 586.119689 3.49894 " stroke="#203e5f" stroke-width="7" stroke-opacity="1" stroke-miterlimit="4"/></svg>