<?xml version="1.0" encoding="UTF-8"?><svg id="Layer_1" xmlns="http://www.w3.org/2000/svg" xmlns:xlink="http://www.w3.org/1999/xlink" viewBox="0 0 172.63 112.85"><defs><style>.cls-1{clip-path:url(#clippath);}.cls-2{fill:none;}.cls-2,.cls-3,.cls-4{stroke-width:0px;}.cls-5{clip-path:url(#clippath-1);}.cls-6{clip-path:url(#clippath-3);}.cls-7{clip-path:url(#clippath-2);}.cls-3{fill:#fff;}.cls-4{fill:#eb3455;}</style><clipPath id="clippath"><rect class="cls-2" y="58.86" width="39.63" height="20.41"/></clipPath><clipPath id="clippath-1"><path class="cls-2" d="m2,58.86h35.63c.53,0,1.04.21,1.42.58s.58.89.58,1.42v16.41c0,.53-.21,1.04-.58,1.41s-.89.59-1.42.59H2c-.53,0-1.04-.21-1.42-.59s-.58-.89-.58-1.41v-16.41c0-.53.21-1.04.58-1.42s.89-.58,1.42-.58"/></clipPath><clipPath id="clippath-2"><rect class="cls-2" x="152.04" y="91.2" width="20.58" height="20.58"/></clipPath><clipPath id="clippath-3"><path class="cls-2" d="m162.33,91.2c-5.68,0-10.29,4.61-10.29,10.29s4.61,10.29,10.29,10.29,10.29-4.61,10.29-10.29-4.6-10.29-10.29-10.29"/></clipPath></defs><path class="cls-3" d="m99.48,0c13.94,0,25.41,2.83,34.4,8.48,8.98,5.66,13.58,14.03,13.79,25.13v1.9h-32.81v-.63c0-3.18-1.17-5.82-3.5-7.94-2.32-2.11-5.85-3.17-10.6-3.17s-8.22.69-10.71,2.06c-2.47,1.38-3.71,3.06-3.71,5.06,0,2.86,1.69,4.98,5.06,6.35s8.82,2.8,16.33,4.27c8.76,1.81,15.97,3.69,21.63,5.65,5.65,1.95,10.59,5.14,14.81,9.58,4.23,4.43,6.41,10.45,6.52,18.06,0,12.89-4.36,22.45-13.08,28.69-8.72,6.24-20.38,9.35-34.96,9.35-17.02,0-30.25-2.84-39.71-8.54-9.46-5.71-14.19-15.8-14.19-30.29h33.13c0,5.5,1.42,9.18,4.27,11.02,2.86,1.85,7.3,2.77,13.33,2.77,4.44,0,8.11-.47,11.02-1.42,2.9-.96,4.35-2.92,4.35-5.88,0-2.64-1.61-4.61-4.83-5.94-3.22-1.32-8.48-2.72-15.77-4.21-8.88-1.9-16.22-3.88-22.04-5.94-5.81-2.07-10.88-5.48-15.21-10.23s-6.5-11.19-6.5-19.33c0-11.94,4.61-20.74,13.85-26.4C73.61,2.83,85.31,0,99.48,0Z"/><g class="cls-1"><g class="cls-5"><path class="cls-3" d="m0,58.86h39.63v20.41H0v-20.41Z"/></g></g><g class="cls-7"><g class="cls-6"><path class="cls-4" d="m152.04,91.2h20.58v20.58h-20.58v-20.58Z"/></g></g></svg>