<?xml version="1.0" encoding="UTF-8"?><svg id="Layer_1" xmlns="http://www.w3.org/2000/svg" xmlns:xlink="http://www.w3.org/1999/xlink" viewBox="0 0 214.93 274.99"><defs><style>.cls-1{clip-path:url(#clippath);}.cls-2{fill:none;}.cls-2,.cls-3,.cls-4,.cls-5{stroke-width:0px;}.cls-6{clip-path:url(#clippath-1);}.cls-7{clip-path:url(#clippath-3);}.cls-8{clip-path:url(#clippath-2);}.cls-3{fill:#203e5f;}.cls-4{fill:#fff;}.cls-5{fill:#eb3455;}</style><clipPath id="clippath"><rect class="cls-2" x="0" y="195.95" width="214.87" height="79.04"/></clipPath><clipPath id="clippath-1"><rect class="cls-2" x="104.31" y="219.94" width="5.78" height="55.06"/></clipPath><clipPath id="clippath-2"><rect class="cls-2" x="32.82" width="129.33" height="91.01"/></clipPath><clipPath id="clippath-3"><rect class="cls-2" x="79.49" y="69.67" width="135.44" height="133.33"/></clipPath></defs><path class="cls-3" d="m2.85,272.15c6.3-39.47,39.39-71.64,79.83-73.29l47.88-.02c40.05,1.63,74.6,34.36,81.45,73.3H2.85"/><g class="cls-1"><path class="cls-4" d="m212.02,274.99c-1.36,0-2.56-.97-2.81-2.35-6.84-38.89-40.67-69.38-78.71-70.95l-47.76.02c-37.75,1.56-70.88,32.03-77.08,70.89-.24,1.55-1.71,2.61-3.26,2.36-1.56-.24-2.61-1.7-2.36-3.26,3.18-19.95,13.12-38.58,27.98-52.46,7.41-6.93,15.79-12.44,24.88-16.4,9.46-4.11,19.45-6.41,29.67-6.83h.11l47.88-.02h0s.07,0,.11,0c10.12.41,20.1,2.73,29.68,6.9,9.18,3.99,17.69,9.55,25.31,16.51,15.34,14.03,25.7,32.58,29.16,52.26.28,1.55-.76,3.03-2.31,3.3-.17.03-.33.04-.49.04"/></g><g class="cls-6"><path class="cls-4" d="m107.18,274.99c-1.57,0-2.85-1.27-2.85-2.85v-49.35c0-1.57,1.28-2.85,2.85-2.85s2.85,1.28,2.85,2.85v49.35c0,1.58-1.28,2.85-2.85,2.85"/></g><path class="cls-5" d="m130.56,170.05v28.51c0,13.21-10.72,23.92-23.94,23.92s-23.94-10.71-23.94-23.92v-28.38l47.88-.13"/><path class="cls-4" d="m106.63,225.33c-3.62,0-7.13-.71-10.43-2.1-3.19-1.35-6.05-3.28-8.51-5.73-2.46-2.46-4.39-5.32-5.74-8.51-1.4-3.3-2.1-6.81-2.1-10.42v-28.38c0-1.57,1.28-2.84,2.85-2.84s2.85,1.27,2.85,2.84v28.38c0,11.62,9.46,21.07,21.09,21.07s21.09-9.45,21.09-21.07v-28.51c0-1.57,1.28-2.85,2.85-2.85s2.85,1.28,2.85,2.85v28.51c0,3.61-.71,7.11-2.1,10.42-1.35,3.19-3.28,6.05-5.74,8.51-2.46,2.46-5.33,4.39-8.52,5.73-3.31,1.4-6.81,2.1-10.43,2.1"/><path class="cls-5" d="m155.69,15.71c11.86,3.72,20.9,14.95,20.9,30.98v40.1l-51.48-.36-27.15-69.53,57.73-1.18"/><path class="cls-4" d="m127.05,83.59l46.68.33v-37.23c0-13.6-7.06-24.34-18.46-28.13l-53.18,1.09,24.96,63.94Zm49.53,6.05h-.02l-51.48-.36c-1.17-.01-2.21-.73-2.63-1.81l-27.15-69.54c-.34-.86-.23-1.84.29-2.61.52-.78,1.38-1.24,2.31-1.27l57.73-1.18c.31,0,.62.04.91.13,6.65,2.08,12.3,6.21,16.36,11.95,4.27,6.02,6.53,13.54,6.53,21.75v40.1c0,.76-.3,1.48-.84,2.02-.54.53-1.26.83-2.01.83"/><path class="cls-5" d="m103.52,29.13h29.23c14.53,0,26.3-11.77,26.3-26.28h-78.74c-24.31,0-44.02,19.69-44.02,43.98v40.4L103.52,29.13"/><g class="cls-8"><path class="cls-4" d="m36.29,90.07c-1.57,0-2.85-1.28-2.85-2.85v-40.4c0-6.32,1.24-12.45,3.68-18.23,2.36-5.58,5.74-10.58,10.04-14.89,4.31-4.3,9.32-7.68,14.9-10.03,5.78-2.44,11.92-3.68,18.24-3.68h78.74c1.57,0,2.85,1.28,2.85,2.84,0,3.93-.77,7.75-2.29,11.34-1.47,3.47-3.57,6.58-6.24,9.26-2.68,2.67-5.8,4.78-9.27,6.24-3.6,1.52-7.42,2.29-11.35,2.29h-29.23c-1.57,0-2.85-1.28-2.85-2.85s1.28-2.85,2.85-2.85h29.23c11.97,0,21.87-9,23.28-20.59h-75.72c-22.7,0-41.17,18.45-41.17,41.14v40.4c0,1.57-1.27,2.85-2.85,2.85"/></g><path class="cls-5" d="m159.9,79.27v-5.91c0-24.45-19.83-44.27-44.3-44.27h-18.28c-24.46,0-44.3,19.82-44.3,44.27v5.93c-12.16.17-21.96,10.05-21.96,22.23s9.8,22.07,21.96,22.24v1.81c0,26.72,21.67,48.38,48.41,48.38h10.05c26.74,0,48.41-21.66,48.41-48.38v-1.8c12.3,0,22.27-9.96,22.27-22.26s-9.97-22.25-22.27-22.25"/><path class="cls-4" d="m97.33,31.94c-22.85,0-41.45,18.58-41.45,41.42v5.93c0,1.56-1.25,2.82-2.81,2.85-10.55.15-19.14,8.84-19.14,19.39s8.59,19.24,19.14,19.39c1.56.02,2.81,1.29,2.81,2.85v1.81c0,25.1,20.44,45.53,45.56,45.53h10.05c25.13,0,45.56-20.43,45.56-45.53v-1.8c0-1.58,1.28-2.85,2.85-2.85,10.71,0,19.42-8.71,19.42-19.41s-8.71-19.4-19.42-19.4c-1.57,0-2.85-1.28-2.85-2.85v-5.91c0-22.84-18.59-41.42-41.45-41.42h-18.28Zm14.16,144.85h-10.05c-6.92,0-13.63-1.35-19.95-4.03-6.1-2.58-11.59-6.27-16.3-10.98s-8.4-10.18-10.98-16.28c-2.56-6.06-3.92-12.48-4.02-19.1-5.57-.69-10.72-3.22-14.72-7.27-4.67-4.72-7.24-10.98-7.24-17.63s2.57-12.9,7.24-17.63c4-4.04,9.14-6.57,14.71-7.26v-3.28c0-6.36,1.24-12.53,3.7-18.34,2.38-5.61,5.78-10.65,10.1-14.97,4.33-4.33,9.37-7.72,14.98-10.1,5.82-2.45,11.99-3.7,18.35-3.7h18.28c6.36,0,12.54,1.25,18.35,3.7,5.61,2.38,10.66,5.77,14.98,10.1,4.33,4.32,7.73,9.36,10.1,14.97,2.46,5.81,3.71,11.98,3.71,18.34v3.22c5.63.63,10.84,3.13,14.91,7.19,4.74,4.74,7.35,11.04,7.35,17.74s-2.61,13.01-7.35,17.75c-4.07,4.06-9.29,6.56-14.92,7.19-.11,6.6-1.46,13.01-4.02,19.05-2.58,6.1-6.28,11.58-10.98,16.28s-10.19,8.4-16.3,10.98c-6.32,2.67-13.04,4.03-19.95,4.03"/><path class="cls-3" d="m211.46,97.23c0,40.95-20.56,101.76-64.07,101.76s-64.06-60.81-64.06-101.76,14.23-15.34,64.06-15.72c48.9-.38,64.07-25.22,64.07,15.72"/><g class="cls-7"><path class="cls-4" d="m93.73,76.8c-1.68,0-2.99.3-3.9,1.02-1.16.92-2.02,2.69-2.61,5.44-.7,3.2-1.04,7.77-1.04,13.97,0,21.39,6.16,46.26,16.07,64.9,8.26,15.52,22.79,34.02,45.14,34.02s37.75-18.48,45.82-33.99c9.49-18.24,15.4-43.13,15.4-64.92,0-11.27-1.22-17.48-3.83-19.56-2.81-2.23-9.04-.77-17.65,1.24-9.56,2.24-22.67,5.31-39.71,5.44h-1.13c-17.33,0-30.33-3.05-39.88-5.3-5.27-1.24-9.59-2.26-12.68-2.26Zm53.66,125.04c-10.52,0-20.4-3.62-29.36-10.77-7.87-6.27-14.87-15.11-20.81-26.27-5.27-9.9-9.59-21.56-12.51-33.73-2.77-11.53-4.23-23.22-4.23-33.84,0-13.87,1.63-20.56,5.81-23.88,3.03-2.4,6.82-2.38,9.42-2.16,3.34.28,7.35,1.22,12.01,2.32,9.47,2.23,22.45,5.28,39.66,5.15,16.41-.13,29.16-3.11,38.46-5.29,4.89-1.15,9.12-2.14,12.64-2.43,2.71-.23,6.68-.24,9.84,2.27,2.28,1.81,3.84,4.68,4.77,8.77.84,3.71,1.23,8.56,1.23,15.25,0,10.72-1.38,22.41-3.96,33.81-2.79,12.25-6.97,23.92-12.08,33.74-5.83,11.2-12.81,20.05-20.74,26.31-9.05,7.14-19.19,10.76-30.13,10.76"/></g><path class="cls-5" d="m139.21,122.17c-.64-5.99-7.47-10.71-15.82-10.71s-15.18,4.72-15.82,10.71h31.64"/><path class="cls-4" d="m111.67,119.32h23.45c-.64-.88-1.48-1.69-2.53-2.41-2.47-1.69-5.74-2.61-9.19-2.61s-6.72.93-9.2,2.61c-1.05.71-1.9,1.53-2.53,2.41Zm27.55,5.69h-31.64c-.81,0-1.58-.34-2.12-.94-.54-.6-.8-1.4-.71-2.21.4-3.76,2.62-7.18,6.24-9.65,3.41-2.33,7.82-3.6,12.41-3.6s8.99,1.28,12.41,3.6c3.63,2.47,5.84,5.9,6.24,9.65.09.81-.17,1.61-.71,2.21-.54.6-1.31.94-2.12.94"/><path class="cls-5" d="m187.22,122.17c-.64-5.99-7.47-10.71-15.82-10.71s-15.18,4.72-15.82,10.71h31.64"/><path class="cls-4" d="m159.68,119.32h23.45c-.64-.88-1.48-1.69-2.53-2.41-2.47-1.69-5.74-2.61-9.19-2.61s-6.72.93-9.2,2.61c-1.05.71-1.9,1.53-2.53,2.41Zm27.55,5.69h-31.64c-.81,0-1.58-.34-2.12-.94-.54-.6-.8-1.4-.71-2.21.4-3.75,2.62-7.18,6.25-9.65,3.41-2.33,7.81-3.6,12.41-3.6s8.99,1.28,12.41,3.6c3.63,2.47,5.84,5.9,6.24,9.65.09.81-.17,1.61-.71,2.21-.54.6-1.31.94-2.12.94"/><path class="cls-5" d="m175.49,151.04c-1.14,10.65-13.27,19.03-28.1,19.03s-26.95-8.39-28.09-19.03h56.19"/><path class="cls-4" d="m122.89,153.89c2.86,7.69,12.88,13.33,24.52,13.33s21.65-5.65,24.51-13.33h-49.03Zm24.52,19.03c-7.71,0-15.09-2.14-20.79-6.02-5.9-4.02-9.5-9.54-10.15-15.55-.09-.81.17-1.61.71-2.21.54-.6,1.31-.95,2.12-.95h56.19c.81,0,1.58.34,2.12.95.54.6.8,1.4.72,2.2-.65,6.02-4.25,11.54-10.15,15.56-5.7,3.88-13.08,6.02-20.79,6.02"/></svg>