<?xml version="1.0" encoding="UTF-8"?><svg id="Layer_1" xmlns="http://www.w3.org/2000/svg" xmlns:xlink="http://www.w3.org/1999/xlink" viewBox="0 0 432 445.71"><defs><style>.cls-1{clip-path:url(#clippath);}.cls-2{fill:none;}.cls-2,.cls-3,.cls-4,.cls-5{stroke-width:0px;}.cls-6{clip-path:url(#clippath-1);}.cls-7{clip-path:url(#clippath-4);}.cls-8{clip-path:url(#clippath-3);}.cls-9{clip-path:url(#clippath-2);}.cls-10{clip-path:url(#clippath-7);}.cls-11{clip-path:url(#clippath-8);}.cls-12{clip-path:url(#clippath-6);}.cls-13{clip-path:url(#clippath-5);}.cls-14{clip-path:url(#clippath-9);}.cls-15{clip-path:url(#clippath-20);}.cls-16{clip-path:url(#clippath-21);}.cls-17{clip-path:url(#clippath-24);}.cls-18{clip-path:url(#clippath-23);}.cls-19{clip-path:url(#clippath-22);}.cls-20{clip-path:url(#clippath-25);}.cls-21{clip-path:url(#clippath-26);}.cls-22{clip-path:url(#clippath-14);}.cls-23{clip-path:url(#clippath-13);}.cls-24{clip-path:url(#clippath-12);}.cls-25{clip-path:url(#clippath-10);}.cls-26{clip-path:url(#clippath-15);}.cls-27{clip-path:url(#clippath-17);}.cls-28{clip-path:url(#clippath-16);}.cls-29{clip-path:url(#clippath-19);}.cls-30{clip-path:url(#clippath-11);}.cls-31{clip-path:url(#clippath-18);}.cls-3{fill:#fff;}.cls-3,.cls-4{fill-rule:evenodd;}.cls-4{fill:#eb3455;}.cls-5{fill:#203e5f;}</style><clipPath id="clippath"><rect class="cls-2" width="432" height="445.7"/></clipPath><clipPath id="clippath-1"><rect class="cls-2" x="159.48" y="174.91" width="124.84" height="124.85"/></clipPath><clipPath id="clippath-2"><path class="cls-2" d="m221.9,174.91c-34.47,0-62.42,27.95-62.42,62.43s27.95,62.42,62.42,62.42,62.42-27.95,62.42-62.42-27.95-62.43-62.42-62.43"/></clipPath><clipPath id="clippath-3"><rect class="cls-2" x="158.67" y="174.67" width="110.67" height="110.67"/></clipPath><clipPath id="clippath-4"><rect class="cls-2" x="159.77" y="183.87" width="112" height="89" transform="translate(-98.29 219.46) rotate(-45)"/></clipPath><clipPath id="clippath-5"><rect class="cls-2" x="159.77" y="183.87" width="112" height="89" transform="translate(-98.29 219.46) rotate(-45)"/></clipPath><clipPath id="clippath-6"><rect class="cls-2" x="202.67" y="188" width="25.33" height="32"/></clipPath><clipPath id="clippath-7"><rect class="cls-2" x="159.77" y="183.87" width="112" height="89" transform="translate(-98.29 219.46) rotate(-45)"/></clipPath><clipPath id="clippath-8"><rect class="cls-2" x="159.77" y="183.87" width="112" height="89" transform="translate(-98.29 219.46) rotate(-45)"/></clipPath><clipPath id="clippath-9"><rect class="cls-2" x="224" y="216" width="30.67" height="25.33"/></clipPath><clipPath id="clippath-10"><rect class="cls-2" x="159.77" y="183.87" width="112" height="89" transform="translate(-98.29 219.46) rotate(-45)"/></clipPath><clipPath id="clippath-11"><rect class="cls-2" x="159.77" y="183.87" width="112" height="89" transform="translate(-98.29 219.46) rotate(-45)"/></clipPath><clipPath id="clippath-12"><rect class="cls-2" x="182.67" y="254.67" width="24" height="24"/></clipPath><clipPath id="clippath-13"><rect class="cls-2" x="159.77" y="183.87" width="112" height="89" transform="translate(-98.29 219.46) rotate(-45)"/></clipPath><clipPath id="clippath-14"><rect class="cls-2" x="159.77" y="183.87" width="112" height="89" transform="translate(-98.29 219.46) rotate(-45)"/></clipPath><clipPath id="clippath-15"><rect class="cls-2" x="174.67" y="246.67" width="22.67" height="22.67"/></clipPath><clipPath id="clippath-16"><rect class="cls-2" x="159.77" y="183.87" width="112" height="89" transform="translate(-98.29 219.46) rotate(-45)"/></clipPath><clipPath id="clippath-17"><rect class="cls-2" x="159.77" y="183.87" width="112" height="89" transform="translate(-98.29 219.46) rotate(-45)"/></clipPath><clipPath id="clippath-18"><rect class="cls-2" x="165.33" y="237.33" width="24" height="24"/></clipPath><clipPath id="clippath-19"><rect class="cls-2" x="159.77" y="183.87" width="112" height="89" transform="translate(-98.29 219.46) rotate(-45)"/></clipPath><clipPath id="clippath-20"><rect class="cls-2" x="159.77" y="183.87" width="112" height="89" transform="translate(-98.29 219.46) rotate(-45)"/></clipPath><clipPath id="clippath-21"><rect class="cls-2" x="200" y="221.33" width="14.67" height="10.67"/></clipPath><clipPath id="clippath-22"><rect class="cls-2" x="159.77" y="183.87" width="112" height="89" transform="translate(-98.29 219.46) rotate(-45)"/></clipPath><clipPath id="clippath-23"><rect class="cls-2" x="159.77" y="183.87" width="112" height="89" transform="translate(-98.29 219.46) rotate(-45)"/></clipPath><clipPath id="clippath-24"><rect class="cls-2" x="212" y="229.33" width="10.67" height="14.67"/></clipPath><clipPath id="clippath-25"><rect class="cls-2" x="159.77" y="183.87" width="112" height="89" transform="translate(-98.29 219.46) rotate(-45)"/></clipPath><clipPath id="clippath-26"><rect class="cls-2" x="159.77" y="183.87" width="112" height="89" transform="translate(-98.29 219.46) rotate(-45)"/></clipPath></defs><path class="cls-5" d="m383.66,283.32c0-.94-.38-1.84-1.04-2.5L165.31,63.73c-1.38-1.38-3.61-1.38-5,0-3.57,3.57-8.33,5.54-13.4,5.54s-9.82-1.97-13.39-5.54c-1.39-1.39-3.62-1.38-5,0l-82.15,82.05c-.67.67-1.04,1.56-1.04,2.5s.37,1.84,1.04,2.51c6.56,6.56,7.41,16.8,2.03,24.34-1.01,1.41-.84,3.33.38,4.56l179.22,179.07h0s38.55,38.48,38.55,38.48c1.22,1.22,3.14,1.38,4.54.38,7.58-5.35,17.83-4.5,24.39,2.03.69.69,1.59,1.03,2.49,1.03s1.81-.35,2.5-1.04l82.15-82.05c.67-.66,1.04-1.56,1.04-2.51s-.37-1.84-1.04-2.5c-7.38-7.38-7.38-19.38,0-26.76.67-.66,1.04-1.56,1.04-2.5Zm-107.55-46.38c0,15.14-5.9,29.36-16.6,40.05t0,.01c-10.69,10.7-24.91,16.6-40.04,16.6s-29.36-5.9-40.07-16.6c-22.07-22.07-22.07-58.02,0-80.13,11.05-11.05,25.57-16.56,40.07-16.56s29.01,5.52,40.04,16.56c10.7,10.71,16.6,24.94,16.6,40.08Z"/><g class="cls-1"><path class="cls-5" d="m431.25,64.27c-.46-.82-1.23-1.42-2.14-1.67l-159.39-43.83-4.75-16.18c-.55-1.87-2.51-2.95-4.39-2.4l-98.21,28.8-12.95-12.95c-1.38-1.39-3.61-1.39-5,0l-25.72,25.73-41.79,12.24c-.9.26-1.66.88-2.11,1.7-.45.82-.55,1.79-.29,2.69l6.23,21.26L1.32,159.04c-.66.67-1.04,1.57-1.04,2.51s.38,1.84,1.04,2.5l147.43,147.29,17.77,60.55s0,.01.01.02l13.76,46.75c.45,1.54,1.86,2.54,3.39,2.54.33,0,.67-.05.99-.15l57.1-16.77,40.43,40.39c.69.69,1.59,1.04,2.5,1.04s1.81-.35,2.5-1.04l143.11-142.96c.67-.67,1.04-1.56,1.04-2.51s-.37-1.84-1.04-2.51l-48.65-48.6,49.91-181.14c.25-.91.13-1.88-.33-2.69ZM259.18,7.98l48.9,166.58-20.91-20.89-30.65-104.32c-.55-1.87-2.5-2.94-4.38-2.4-4.55,1.33-9.33.81-13.49-1.46-4.16-2.27-7.18-6.01-8.5-10.54-.27-.9-.88-1.66-1.7-2.11-.83-.45-1.8-.56-2.69-.29l-46.26,13.57-11.43-11.43,91.1-26.72ZM82.3,59.82l25.93-7.6-21.77,21.76-4.16-14.16Zm103.78,353.44l-12.76-43.35h0s-14.14-48.16-14.14-48.16l76.89,76.82-50,14.68Zm98.64,23.91L8.83,161.55,122.96,47.51s.07-.04.1-.07l23.88-23.88,29.04,29.05s.08.04.11.07l246.73,246.53-138.11,137.96Zm91.93-197.37l-.7,2.56-10.95-10.94,35.91-130.32c.24-.91.13-1.88-.34-2.69-.46-.82-1.23-1.42-2.14-1.67-4.37-1.2-8.02-4.04-10.27-7.99-2.24-3.94-2.82-8.52-1.62-12.88.25-.91.13-1.87-.33-2.69s-1.23-1.42-2.14-1.67l-102.27-28.16c-1.77-.48-3.56.5-4.2,2.18l-5.52-18.79,151.76,41.73-47.19,171.31Z"/></g><path class="cls-5" d="m242.47,208.94l-6.21,6.34c-2.48-1.56-5.32-2.42-8.31-2.42-4.1,0-8.1,1.66-10.98,4.54s-4.57,6.93-4.57,11.03,1.67,8.12,4.57,11.03c1.59,1.59,2.5,3.77,2.5,5.98s-.9,4.39-2.52,6.04c-3.16,3.2-8.85,3.2-12.01,0-1.6-1.63-2.48-3.77-2.48-6.04s.9-4.42,2.46-5.98c1.39-1.39,1.39-3.62,0-5.01s-3.62-1.38-5.01,0c-2.88,2.89-4.54,6.89-4.54,10.99,0,2.94.85,5.75,2.36,8.2l-6.32,6.35c-1.38,1.39-1.38,3.63.01,5.01.69.69,1.59,1.03,2.49,1.03s1.81-.35,2.51-1.04l6.3-6.32c2.43,1.52,5.24,2.37,8.21,2.37,4.2,0,8.13-1.63,11.05-4.59,2.93-2.98,4.55-6.89,4.55-11s-1.67-8.08-4.57-10.99c-1.59-1.58-2.5-3.78-2.5-6.02s.91-4.44,2.5-6.03c3.14-3.16,8.73-3.22,12.08.08,3.24,3.32,3.21,8.69-.07,11.97-1.39,1.39-1.39,3.62,0,5.01s3.61,1.38,5,0c5.13-5.13,5.88-13.03,2.22-19.1l6.32-6.46c1.36-1.4,1.34-3.64-.06-5-1.39-1.36-3.63-1.35-5.01.05Z"/><g class="cls-6"><g class="cls-9"><path class="cls-5" d="m159.48,174.91h124.84v124.85h-124.84v-124.85Z"/></g></g><g class="cls-8"><g class="cls-7"><g class="cls-13"><path class="cls-3" d="m248.51,195.64c-13.52-13.52-35.5-13.44-49.11.16-6.33,6.33-9.72,14.46-10.2,22.71-.06,1-.41,1.96-1.02,2.75l-19.21,25.07,28.84,28.84,25.07-19.21c.79-.61,1.76-.96,2.75-1.02,8.26-.47,16.39-3.87,22.71-10.2,13.6-13.61,13.68-35.59.16-49.11Zm-56.1-6.83c17.49-17.49,45.77-17.59,63.14-.21,17.38,17.38,17.28,45.65-.21,63.15-7.73,7.72-17.57,12.06-27.64,12.99l-23.89,18.3c-3.96,3.03-9.54,2.68-13.04-.82l-28.84-28.84c-3.51-3.51-3.85-9.08-.82-13.04l18.3-23.89c.93-10.07,5.27-19.91,12.99-27.64Z"/></g></g></g><g class="cls-12"><g class="cls-10"><g class="cls-11"><path class="cls-4" d="m214.61,201.13c-1.07,2.25-1.61,4.7-1.61,5.72,0,1.18.95,2.13,2.12,2.12s2.13-.96,2.14-2.13c0-1.02-.52-3.47-1.58-5.71-.18-.38-.36-.72-.53-1.01-.17.29-.35.63-.54,1.01Zm1.56-2.35s-.01,0-.03.02c.02-.02.03-.03.03-.02Zm-2,.03s-.03-.02-.03-.02c0,0,.01,0,.03.02Zm-5.34-6.68c1.29-1.35,3.44-2.99,6.36-3.01,2.92-.01,5.06,1.61,6.34,2.96,1.34,1.4,2.36,3.14,3.13,4.75,1.49,3.15,2.54,7.07,2.53,9.96-.03,6.66-5.44,12.07-12.09,12.09-6.66.03-12.03-5.35-12.01-12.01.01-2.9,1.08-6.83,2.59-9.98.78-1.62,1.81-3.36,3.16-4.77Z"/></g></g></g><g class="cls-14"><g class="cls-25"><g class="cls-30"><path class="cls-4" d="m242.49,229c-2.26,1.08-4.71,1.61-5.72,1.61-1.17,0-2.12-.94-2.12-2.12,0-1.17.96-2.13,2.14-2.13,1.02,0,3.46.52,5.71,1.57.38.18.71.36,1.01.53-.29.17-.63.35-1.01.53Zm2.35-1.55s-.01.01-.03.03c.02-.02.03-.03.03-.03Zm-.03,2s.02.03.03.03c0,0-.01-.01-.03-.03Zm6.68,5.34c1.35-1.29,2.99-3.44,3-6.36.01-2.92-1.61-5.06-2.96-6.34-1.41-1.34-3.14-2.36-4.75-3.13-3.15-1.48-7.07-2.53-9.97-2.52-6.65.02-12.06,5.43-12.09,12.09-.02,6.65,5.35,12.03,12.01,12.01,2.9-.01,6.83-1.08,9.98-2.59,1.62-.78,3.35-1.81,4.77-3.16Z"/></g></g></g><g class="cls-24"><g class="cls-23"><g class="cls-22"><path class="cls-3" d="m204.45,257.18c1.93,1.93,1.92,5.07-.03,7.02l-12.32,12.32c-1.95,1.94-5.09,1.95-7.02.03s-1.92-5.07.02-7.02l12.32-12.32c1.95-1.94,5.09-1.95,7.02-.02Z"/></g></g></g><g class="cls-26"><g class="cls-28"><g class="cls-27"><path class="cls-3" d="m195.71,248.44c1.93,1.93,1.92,5.07-.02,7.02l-12.32,12.32c-1.95,1.94-5.09,1.95-7.02.03-1.93-1.93-1.92-5.07.03-7.02l12.32-12.32c1.95-1.94,5.09-1.95,7.02-.02Z"/></g></g></g><g class="cls-31"><g class="cls-29"><g class="cls-15"><path class="cls-3" d="m186.97,239.7c1.93,1.93,1.92,5.07-.02,7.02l-12.32,12.32c-1.94,1.94-5.08,1.95-7.02.02s-1.92-5.07.03-7.02l12.32-12.32c1.94-1.94,5.09-1.95,7.02-.02Z"/></g></g></g><g class="cls-16"><g class="cls-19"><g class="cls-18"><path class="cls-4" d="m213.9,226.45c-.01,2.74-2.24,4.97-4.98,4.98h-3.51c-2.74.02-4.95-2.19-4.95-4.93.01-2.74,2.24-4.97,4.98-4.98h3.51c2.74-.02,4.95,2.19,4.94,4.93Z"/></g></g></g><g class="cls-17"><g class="cls-20"><g class="cls-21"><path class="cls-4" d="m217.7,230.24c-2.74.01-4.97,2.24-4.98,4.98v3.51c-.02,2.74,2.19,4.96,4.93,4.95s4.97-2.24,4.98-4.98v-3.51c.02-2.74-2.19-4.95-4.93-4.94Z"/></g></g></g></svg>