<?xml version="1.0" encoding="utf-8"?>
<!-- Generator: Adobe Illustrator 27.8.1, SVG Export Plug-In . SVG Version: 6.00 Build 0)  -->
<svg version="1.1" id="Layer_1" xmlns="http://www.w3.org/2000/svg" xmlns:xlink="http://www.w3.org/1999/xlink" x="0px" y="0px"
	 viewBox="0 0 356.6 355.7" style="enable-background:new 0 0 356.6 355.7;" xml:space="preserve">
<style type="text/css">
	.st0{clip-path:url(#SVGID_00000158742476770266011030000006973575521526321818_);}
	.st1{clip-path:url(#SVGID_00000070819408313462092730000007177483344550358409_);}
	.st2{fill:#EB3455;}
	.st3{clip-path:url(#SVGID_00000148656772359509946620000008950613434742243506_);}
	.st4{fill:#203E5F;}
</style>
<g>
	<defs>
		<rect id="SVGID_1_" x="243.3" y="214.1" width="57.4" height="57.4"/>
	</defs>
	<clipPath id="SVGID_00000168075463739129398880000013342762056335736764_">
		<use xlink:href="#SVGID_1_"  style="overflow:visible;"/>
	</clipPath>
	<g style="clip-path:url(#SVGID_00000168075463739129398880000013342762056335736764_);">
		<g>
			<defs>
				<path id="SVGID_00000116917105644000189900000017764080492707696803_" d="M272,214.1c-15.9,0-28.7,12.9-28.7,28.7
					s12.9,28.7,28.7,28.7c15.9,0,28.7-12.9,28.7-28.7S287.8,214.1,272,214.1"/>
			</defs>
			<clipPath id="SVGID_00000162339386447008855070000001001571885679796661_">
				<use xlink:href="#SVGID_00000116917105644000189900000017764080492707696803_"  style="overflow:visible;"/>
			</clipPath>
			<g style="clip-path:url(#SVGID_00000162339386447008855070000001001571885679796661_);">
				<path class="st2" d="M243.3,214.1h57.4v57.4h-57.4V214.1z"/>
			</g>
		</g>
	</g>
</g>
<g>
	<defs>
		<rect id="SVGID_00000083090255712370776220000004911536746002509743_" width="356.6" height="355.7"/>
	</defs>
	<clipPath id="SVGID_00000010990741137067288720000003074888397687404464_">
		<use xlink:href="#SVGID_00000083090255712370776220000004911536746002509743_"  style="overflow:visible;"/>
	</clipPath>
	<g style="clip-path:url(#SVGID_00000010990741137067288720000003074888397687404464_);">
		<path class="st4" d="M270.1,178.5c-3,0-6,0.1-8.9,0.4V14.9c0-8.2-6.7-14.9-14.9-14.9h-131c-8.2,0-14.9,6.7-14.9,14.9v117.8
			l-28.9,28.9c-0.4,0.4-0.7,1-0.8,1.6l-11.8,76.5L0,298.5l4.2,4.2l59.5-59.5c0.4-0.4,0.7-1,0.8-1.6l11.8-76.4l43.8-43.7l3,7.4
			c4,10,1.6,21.3-6,28.9l-15.8,15.8c-0.6,0.6-0.9,1.3-0.9,2.1v89.3c0,8.2,6.7,14.9,14.9,14.9h46.4l-6.8,6.8c-3.3,3.3-7.7,5.4-12.4,6
			l-45.2,5.1c-0.9,0.1-1.6,0.6-2.2,1.3l-35.7,53.6l5,3.3l35-52.4l43.9-4.9c6-0.7,11.7-3.4,16-7.7l11.1-11.1h15
			c7.1,40.5,42.5,71.4,85.1,71.4c47.6,0,86.3-38.7,86.3-86.3C356.5,217.2,317.7,178.5,270.1,178.5z M184.2,255.9h-68.9
			c-4.9,0-8.9-4-8.9-8.9v-70.2l14.9-14.9v7.7l11.9-11.9h104.2c1.6,0,3-1.3,3-3v-47.6c0-1.6-1.3-3-3-3H124.2c-1.6,0-3,1.3-3,3v5.9
			c-0.8,0-1.6,0.3-2.1,0.9l-12.8,12.7V14.9c0-4.9,4-8.9,8.9-8.9h20.8v3c0,8.2,6.7,14.9,14.9,14.9h59.5c8.2,0,14.9-6.7,14.9-14.9v-3
			h20.8c4.9,0,8.9,4,8.9,8.9v164.9c-4.2,0.7-8.4,1.8-12.5,3.1l-43-16.1c-1-0.4-2.2-0.2-3,0.5c-0.8,0.7-1.2,1.9-1,2.9l1.2,5.3h-72.7
			c-1.6,0-3,1.3-3,3V241l11.9-11.9h58.3C187.7,237.5,185.2,246.6,184.2,255.9z M224.5,143.7l-4.2,4.2l-3.9-3.9l-3.9,3.9l-4.2-4.2
			l3.9-3.9l-3.9-3.9l4.2-4.2l3.9,3.9l3.9-3.9l4.2,4.2l-3.9,3.9L224.5,143.7z M222.4,125h-83.3v-6h83.3V125z M206.7,143.7l-4.2,4.2
			l-3.9-3.9l-3.9,3.9l-4.2-4.2l3.9-3.9l-3.9-3.9l4.2-4.2l3.9,3.9l3.9-3.9l4.2,4.2l-3.9,3.9L206.7,143.7z M188.8,143.7l-4.2,4.2
			l-3.9-3.9l-3.9,3.9l-4.2-4.2l3.9-3.9l-3.9-3.9l4.2-4.2l3.9,3.9l3.9-3.9l4.2,4.2l-3.9,3.9L188.8,143.7z M168.9,136.9v6h-29.8v-6
			H168.9z M204.3,208.9c-1.2,1.4-2.3,2.8-3.3,4.2l-6.2,6.2l-4.2-4.2l3.9-3.9l-3.9-3.9l4.2-4.2l3.9,3.9l3.9-3.9l0.7,0.7L204.3,208.9z
			 M139.1,196.4v-6h61.1l1.3,6H139.1z M188.8,215.1l-4.2,4.2l-3.9-3.9l-3.9,3.9l-4.2-4.2l3.9-3.9l-3.9-3.9l4.2-4.2l3.9,3.9l3.9-3.9
			l4.2,4.2l-3.9,3.9L188.8,215.1z M168.9,208.3v6h-29.8v-6H168.9z M308.8,335.2c-11.5,6.3-24.7,10-38.7,10c-14,0-27.2-3.6-38.7-10
			v-34.7c0-4.9,4-8.9,8.9-8.9h59.5c4.9,0,8.9,4,8.9,8.9V335.2z M263,263.8l-13.4-24.1c-3-5.4-1.2-12,4-15.1
			c10.1-6.1,22.7-6.1,32.8,0c5.2,3.1,7,9.8,4,15.1l-13.4,24.1c-1.5,2.6-4.1,4.2-7.1,4.2C267,268,264.4,266.4,263,263.8z M334.7,301
			c-1.5-9.1-7.4-16.6-15.8-20.2L290,268.4l14.7-18.3c4.5-5.7,6.5-12.9,5.7-20.1c-0.9-7.3-4.6-13.7-10.5-18.1l-13.7-10.3
			c-9.4-7.1-22.7-7.1-32.1,0L240.3,212c-5.9,4.4-9.6,10.8-10.5,18.1c-0.9,7.3,1.1,14.4,5.7,20.1l14.7,18.3l-28.8,12.3
			c-8.4,3.6-14.4,11.2-15.8,20.2l-1.6,9.4c-8.9-12.9-14.2-28.6-14.2-45.5c0-19.6,7.1-38.5,20.1-53.1c0.6-0.7,0.9-1.7,0.7-2.6
			l-7.7-34.7l38.9,14.6c0.7,0.2,1.3,0.2,2,0c8.5-3,17.3-4.5,26.4-4.5c44.3,0,80.4,36,80.4,80.3c0,16.9-5.3,32.6-14.2,45.5L334.7,301
			z"/>
	</g>
</g>
<path class="st4" d="M264.1,315.4H276v6h-11.9V315.4z"/>
<path class="st4" d="M253.9,234l2.7-5.3l11.9,6l-2.7,5.3L253.9,234z"/>
<path class="st4" d="M271.7,234.6l11.9-6l2.7,5.3l-11.9,6L271.7,234.6z"/>
<path class="st4" d="M260.2,250.1l17.9-6l1.9,5.6l-17.9,6L260.2,250.1z"/>
<path class="st4" d="M180.8,29.8c-18.1,0-32.7,14.7-32.7,32.7c0,18.1,14.7,32.7,32.7,32.7c18.1,0,32.7-14.7,32.7-32.7
	C213.5,44.4,198.9,29.8,180.8,29.8z M180.8,89.3c-6.7,0-12.8-2.5-17.5-6.5l0.9-2.8c0.7-2.2,2.4-4.1,4.5-5.1l7.5-3.7
	c0.8-0.4,1.5-1.3,1.6-2.2c0.2-0.9-0.1-1.9-0.8-2.6l-2.5-2.5c-1.7-1.7-2.6-3.9-2.6-6.3v-1c0-4.9,4-8.9,8.9-8.9s8.9,4,8.9,8.9v1
	c0,2.4-0.9,4.6-2.6,6.3l-2.5,2.5c-0.7,0.7-1,1.6-0.8,2.6c0.1,1,0.7,1.8,1.6,2.2l7.5,3.7c2.2,1,3.7,2.9,4.5,5.1l0.9,2.8
	C193.6,86.8,187.5,89.3,180.8,89.3z"/>
</svg>
