<?xml version="1.0" encoding="utf-8"?>
<!-- Generator: Adobe Illustrator 27.8.1, SVG Export Plug-In . SVG Version: 6.00 Build 0)  -->
<svg version="1.1" id="Layer_1" xmlns="http://www.w3.org/2000/svg" xmlns:xlink="http://www.w3.org/1999/xlink" x="0px" y="0px"
	 viewBox="0 0 317 304.4" style="enable-background:new 0 0 317 304.4;" xml:space="preserve">
<style type="text/css">
	.st0{fill:#203E5F;}
	.st1{clip-path:url(#SVGID_00000011028703474996012600000017050378751824671633_);}
	.st2{fill:#FFFFFF;}
	.st3{clip-path:url(#SVGID_00000055675509818756385980000001216162122345951634_);}
	.st4{clip-path:url(#SVGID_00000069394056175743962540000013964944831745062833_);}
	.st5{fill:#EB3455;}
</style>
<path class="st0" d="M174.4,100.9V75.3c0-25.6-15.8-48.5-39.6-57.6L101.5,5c-5.2-2-10.9-2-16.1,0L52.3,17.7
	c-23.8,9.1-39.6,32-39.6,57.6v25.7H174.4"/>
<path class="st0" d="M174.4,104.3c-1.8,0-3.3-1.5-3.3-3.3V75.3c0-24-15.1-45.9-37.5-54.5L100.3,8.1c-4.4-1.7-9.3-1.7-13.8,0
	L53.5,20.8c-22.4,8.6-37.5,30.5-37.5,54.5v25.7c0,1.8-1.5,3.3-3.3,3.3c-1.8,0-3.3-1.5-3.3-3.3V75.3c0-26.8,16.8-51.2,41.7-60.7
	L84.2,1.9c6-2.3,12.5-2.3,18.5,0l33.2,12.7c25,9.6,41.8,34,41.8,60.7v25.6C177.7,102.8,176.2,104.3,174.4,104.3"/>
<path class="st0" d="M58,167.5c-8.5,1.8-16.7,5.4-24.2,10.3c-19.3,12.8-30.5,34.8-30.5,58v49.7c0,8.6,6.9,15.5,15.5,15.5h148.9
	c8.6,0,15.5-6.9,15.5-15.5v-50.2c0-26.5-14.6-51.3-38.4-62.7c-4.9-2.4-10.1-4.1-15.4-5.2L58,167.5"/>
<g>
	<defs>
		<rect id="SVGID_1_" y="164" width="186.6" height="140.3"/>
	</defs>
	<clipPath id="SVGID_00000014592621227900369790000005824283696888038048_">
		<use xlink:href="#SVGID_1_"  style="overflow:visible;"/>
	</clipPath>
	<g style="clip-path:url(#SVGID_00000014592621227900369790000005824283696888038048_);">
		<path class="st0" d="M167.8,304.4H18.8C8.4,304.4,0,295.9,0,285.5v-49.7C0,211,12,188.3,32,175c7.9-5.2,16.7-9,25.3-10.8
			c1.8-0.4,3.6,0.8,4,2.6c0.4,1.8-0.8,3.6-2.6,4c-7.9,1.7-15.8,5.1-23,9.8c-18.2,12-29,32.7-29,55.2v49.7c0,6.7,5.5,12.2,12.2,12.2
			h148.9c6.7,0,12.2-5.5,12.2-12.2v-50.2c0-25.6-14.3-49.1-36.6-59.7c-4.7-2.3-9.6-3.9-14.6-5c-1.8-0.4-3-2.1-2.6-3.9
			c0.4-1.8,2.1-3,3.9-2.6c5.5,1.1,11,3,16.2,5.5c24.5,11.8,40.3,37.6,40.3,65.7v50.2C186.6,295.9,178.2,304.4,167.8,304.4"/>
	</g>
</g>
<path class="st0" d="M154.4,145.6c12.4-11.9,19.9-27.5,19.9-44.6c0-37.5-36.2-67.9-80.8-67.9s-80.8,30.4-80.8,67.9
	c0,17.1,7.5,32.7,19.9,44.6L82.9,189c6.2,5.3,15.3,5.3,21.5,0L154.4,145.6"/>
<path class="st0" d="M93.6,36.3c-42.7,0-77.5,29-77.5,64.6c0,15.5,6.7,30.5,18.9,42.2l50.1,43.3c4.9,4.2,12.3,4.2,17.2,0l49.9-43.4
	c12.1-11.7,18.8-26.7,18.8-42.2C171,65.3,136.3,36.3,93.6,36.3z M93.7,196.3c-4.6,0-9.2-1.6-12.9-4.8l-50.2-43.5
	C16.9,135,9.4,118.2,9.4,100.9c0-39.3,37.7-71.3,84.1-71.3c46.4,0,84.1,32,84.1,71.3c0,17.3-7.4,34-20.9,47c0,0-0.1,0.1-0.1,0.1
	l-50,43.4C102.9,194.7,98.3,196.3,93.7,196.3"/>
<path class="st2" d="M114.2,180.5v-37.4H72.9v37.3l12.1,10.2c4.8,3.3,10.7,4.1,15.5,0.9L114.2,180.5"/>
<path class="st0" d="M87.1,187.9c3.9,2.7,8.2,3,11.5,0.9l12.2-9.9v-32.5H76.3v32.4L87.1,187.9z M93.8,196.9c-3.5,0-7.2-1.2-10.6-3.6
	c-0.1-0.1-0.2-0.1-0.2-0.2l-12.1-10.2c-0.8-0.6-1.2-1.6-1.2-2.6v-37.3c0-1.8,1.5-3.3,3.3-3.3h41.2c1.8,0,3.3,1.5,3.3,3.3v37.4
	c0,1-0.5,2-1.2,2.6l-13.6,11c-0.1,0.1-0.2,0.1-0.2,0.2C99.8,196,96.8,196.9,93.8,196.9"/>
<path class="st2" d="M139.4,45v23.8c10.6,0,19.2,8.6,19.2,19.2c0,10.6-8.6,19.2-19.2,19.2v1.5c0,23.1-18.7,41.7-41.7,41.7h-8.7
	c-23,0-41.7-18.7-41.7-41.7v-1.6C36.9,107,28.5,98.5,28.5,88s8.4-19,18.9-19.2V45.3c0,0,16.8-13,48-12.2
	C126.6,33.9,139.4,45,139.4,45"/>
<path class="st0" d="M50.7,47.1v21.7c0,1.8-1.5,3.3-3.3,3.3c-8.6,0.1-15.6,7.2-15.6,15.8c0,8.6,7,15.7,15.6,15.8
	c1.8,0,3.3,1.5,3.3,3.3v1.6c0,21.2,17.2,38.4,38.4,38.4h8.7c21.2,0,38.4-17.2,38.4-38.4v-1.6c0-1.8,1.5-3.3,3.3-3.3
	c8.7,0,15.8-7.1,15.8-15.9c0-8.7-7.1-15.9-15.8-15.9c-1.8,0-3.3-1.5-3.3-3.3V46.7c-3.7-2.5-16.5-9.6-40.8-10.3
	C70.6,35.7,55.1,44.3,50.7,47.1z M97.7,153.8h-8.7c-24.3,0-44.2-19.4-45-43.6C33.4,108.5,25.2,99.1,25.2,88
	c0-11.1,8.2-20.5,18.9-22.2V45.3c0-1,0.5-2,1.3-2.6c0.7-0.6,18.2-13.7,50.1-12.9c32,0.8,45.6,12.2,46.1,12.7
	c0.7,0.6,1.2,1.6,1.2,2.5v20.7c10.8,1.6,19.2,11,19.2,22.3c0,11.3-8.3,20.7-19.2,22.3C141.9,134.4,122.1,153.8,97.7,153.8"/>
<path class="st2" d="M255.6,133.2h41.4c5,0,9.1,4.1,9.1,9.1v149.6c0,5-4.1,9.1-9.1,9.1h-79.4c-5,0-9.1-4.1-9.1-9.1V142.3
	c0-5,4.1-9.1,9.1-9.1H255.6"/>
<g>
	<defs>
		<rect id="SVGID_00000036973047021587398900000003218403434950992528_" x="205" y="129.8" width="104.4" height="174.5"/>
	</defs>
	<clipPath id="SVGID_00000149352806041559206160000017299010999071438263_">
		<use xlink:href="#SVGID_00000036973047021587398900000003218403434950992528_"  style="overflow:visible;"/>
	</clipPath>
	<g style="clip-path:url(#SVGID_00000149352806041559206160000017299010999071438263_);">
		<path class="st0" d="M296.9,304.4h-79.4c-6.9,0-12.5-5.6-12.5-12.5V142.3c0-6.9,5.6-12.5,12.5-12.5h17c1.8,0,3.3,1.5,3.3,3.3
			c0,1.8-1.5,3.3-3.3,3.3h-17c-3.2,0-5.8,2.6-5.8,5.8v149.6c0,3.2,2.6,5.8,5.8,5.8h79.4c3.2,0,5.8-2.6,5.8-5.8V142.3
			c0-3.2-2.6-5.8-5.8-5.8h-41.4c-1.8,0-3.3-1.5-3.3-3.3c0-1.8,1.5-3.3,3.3-3.3h41.4c6.9,0,12.5,5.6,12.5,12.5v149.6
			C309.4,298.8,303.8,304.4,296.9,304.4"/>
	</g>
</g>
<path class="st2" d="M303.4,3.5h-92.3c-5.7,0-10.3,4.6-10.3,10.3v92.4c0,5.7,4.6,10.3,10.3,10.3h23.5v23.6c0,4.4,5.2,6.8,8.5,3.9
	l32-27.5h28.4c5.7,0,10.3-4.6,10.3-10.3V13.8C313.7,8.1,309.1,3.5,303.4,3.5"/>
<g>
	<defs>
		<rect id="SVGID_00000098902058707358647680000013146807195540569765_" x="197.3" width="119.7" height="149.3"/>
	</defs>
	<clipPath id="SVGID_00000034792116379043639860000008709277042419784365_">
		<use xlink:href="#SVGID_00000098902058707358647680000013146807195540569765_"  style="overflow:visible;"/>
	</clipPath>
	<g style="clip-path:url(#SVGID_00000034792116379043639860000008709277042419784365_);">
		<path class="st0" d="M211.1,6.8c-3.8,0-6.9,3.1-6.9,6.9v92.4c0,3.8,3.1,6.9,6.9,6.9h23.5c1.8,0,3.3,1.5,3.3,3.3v23.6
			c0,1,0.7,1.5,1,1.6c0.3,0.1,1.1,0.4,1.9-0.3l32-27.5c0.6-0.5,1.4-0.8,2.2-0.8h28.4c3.8,0,6.9-3.1,6.9-6.9V13.8
			c0-3.8-3.1-6.9-6.9-6.9H211.1z M239.7,148.6c-1.2,0-2.4-0.3-3.6-0.8c-3-1.4-4.9-4.3-4.9-7.7v-20.3h-20.2
			c-7.5,0-13.6-6.1-13.6-13.6V13.8c0-7.5,6.1-13.6,13.6-13.6h92.3c7.5,0,13.6,6.1,13.6,13.6v92.4c0,7.5-6.1,13.6-13.6,13.6h-27.1
			l-31,26.7C243.6,147.9,241.7,148.6,239.7,148.6"/>
	</g>
</g>
<path class="st0" d="M306.1,284.3h-97.7c-1.8,0-3.3-1.5-3.3-3.3c0-1.8,1.5-3.3,3.3-3.3h97.7c1.8,0,3.3,1.5,3.3,3.3
	C309.4,282.8,307.9,284.3,306.1,284.3"/>
<path class="st0" d="M230.6,173.5c-8.9,11.4-7.7,33,4,52.6c11.7,19.6,30.1,31,44.3,28.6c4.3-1.1,8-4.1,9.6-8.3
	c1.8-4.7,1.6-10.2-1.2-14.9L287,231c-2.4-4-7.1-5.9-11.7-5c-8.9,1.7-18.3-2.1-23.2-10.4c-4.9-8.2-3.8-18.4,1.9-25.4
	c3-3.6,3.5-8.6,1.1-12.7l-0.1-0.1c-3-5-8.1-8.1-13.5-8.6C237.5,168.5,233.4,170.4,230.6,173.5L230.6,173.5"/>
<path class="st0" d="M233.2,175.7c-8.1,10.5-6.3,31,4.3,48.8c10.6,17.8,27.7,29.1,40.7,27c3.3-0.9,6-3.2,7.2-6.2c1.6-4,1.2-8.3-1-12
	l-0.3-0.5c-1.6-2.8-4.8-4.1-8.2-3.5c-10.5,2.1-21.2-2.7-26.7-12c-5.5-9.2-4.6-21,2.2-29.2c2.2-2.6,2.5-6.1,0.9-8.8
	c-2.4-4.1-6.5-6.7-11-7.1C238.3,172,235.3,173.2,233.2,175.7z M275.1,258.4c-15,0-32.2-11.9-43.3-30.5
	c-12.2-20.4-13.7-43.6-3.8-56.4c3.7-4.2,8.8-6.4,13.9-5.9c6.6,0.6,12.6,4.4,16.1,10.2c3.1,5.2,2.5,11.8-1.4,16.6
	c-5,6.1-5.7,14.8-1.6,21.6c4,6.8,12,10.3,19.7,8.8c6-1.2,12.1,1.5,15.2,6.6l0.3,0.5c3.2,5.4,3.8,11.9,1.4,17.8
	c-2,5.1-6.4,8.9-11.9,10.3c-0.1,0-0.2,0-0.3,0.1C278,258.3,276.6,258.4,275.1,258.4"/>
<path class="st0" d="M227.8,51V33.9c0-10.3,8.3-18.6,18.6-18.6h31.9c0,2.9,1.5,5.6,3.8,7.4c3,2.3,5,6.2,5,11.1v17L227.8,51"/>
<path class="st0" d="M227.8,54.3c-1.8,0-3.3-1.5-3.3-3.3V33.9c0-12.1,9.8-22,21.9-22h31.9c1.8,0,3.3,1.5,3.3,3.3
	c0,1.8,0.9,3.6,2.5,4.8c4,3.1,6.3,8.1,6.3,13.8v17c0,1.8-1.5,3.3-3.3,3.3c-1.8,0-3.3-1.5-3.3-3.3v-17c0-3.6-1.3-6.6-3.8-8.5
	c-2.3-1.8-3.9-4.1-4.6-6.7h-29c-8.4,0-15.3,6.9-15.3,15.3V51C231.2,52.8,229.7,54.3,227.8,54.3"/>
<path class="st2" d="M267.7,86v12.1c0,5.6-4.5,10.1-10.1,10.1c-5.6,0-10.1-4.5-10.1-10.1v-12L267.7,86"/>
<path class="st0" d="M257.5,111.6c-7.4,0-13.4-6-13.4-13.5v-12c0-1.8,1.5-3.3,3.3-3.3c1.8,0,3.3,1.5,3.3,3.3v12c0,3.7,3,6.8,6.8,6.8
	c3.7,0,6.8-3,6.8-6.8V86c0-1.8,1.5-3.3,3.3-3.3s3.3,1.5,3.3,3.3v12.1C271,105.5,265,111.6,257.5,111.6"/>
<path class="st0" d="M224.5,109.4c-0.8,0-1.7-0.3-2.3-1c-1.3-1.3-1.3-3.4,0-4.7c3.7-3.7,7.9-6.5,12.7-8.3c3.8-1.5,7.8-2.3,11.8-2.5
	c1.8-0.1,3.4,1.4,3.5,3.2c0.1,1.8-1.4,3.4-3.2,3.5c-3.3,0.1-6.6,0.8-9.7,2c-3.9,1.5-7.3,3.8-10.3,6.8
	C226.3,109.1,225.4,109.4,224.5,109.4"/>
<path class="st0" d="M289.9,109.4c-0.9,0-1.7-0.3-2.4-1c-3-3-6.5-5.3-10.3-6.8c-3.1-1.2-6.4-1.9-9.7-2c-1.8-0.1-3.3-1.6-3.2-3.5
	c0.1-1.8,1.6-3.3,3.5-3.2c4,0.2,8,1,11.8,2.5c4.7,1.8,9,4.6,12.7,8.3c1.3,1.3,1.3,3.4,0,4.7C291.6,109.1,290.8,109.4,289.9,109.4"/>
<path class="st5" d="M139.5,65.7v20.8c0,9.2-7.2,16.7-16.1,16.7c-9,0-17.6-3.6-24.1-10.1l-0.1-0.1c-3.1-3.1-8.1-3.1-11.2,0
	c-6.5,6.5-15.3,10.2-24.3,10.2c-8.9,0-16.1-7.5-16.1-16.7V65.7C47.6,65.7,83.2,46.8,139.5,65.7"/>
<path class="st0" d="M93.6,87.4c2.9,0,5.7,1.1,8,3.3c6,6,13.7,9.2,21.8,9.2c7,0,12.8-6,12.8-13.4V68.1C90,53.3,58.5,64.6,50.9,67.8
	v18.7c0,7.4,5.7,13.4,12.8,13.4c8.2,0,16-3.3,22-9.2C87.9,88.5,90.8,87.4,93.6,87.4z M123.4,106.6c-9.9,0-19.3-3.9-26.4-11
	c-1.9-1.9-4.8-1.9-6.6-0.1c-7.2,7.2-16.7,11.2-26.7,11.2c-10.7,0-19.4-9-19.4-20.1V65.7c0-1.2,0.7-2.4,1.8-2.9
	c1.5-0.8,37.5-19.3,94.5-0.2c1.4,0.5,2.3,1.7,2.3,3.2v20.8C142.9,97.6,134.1,106.6,123.4,106.6"/>
<path class="st0" d="M95.4,136.5c-10.7,0-19.3-8.9-19.3-19.8c0-1.8,1.5-3.3,3.3-3.3c1.8,0,3.3,1.5,3.3,3.3c0,7.2,5.7,13.1,12.7,13.1
	c1.8,0,3.3,1.5,3.3,3.3C98.7,135,97.2,136.5,95.4,136.5"/>
<path class="st0" d="M86,81.1c-0.6,0-1.3-0.2-1.9-0.6l-11.3-7.6c-1.5-1-1.9-3.1-0.9-4.6c1-1.5,3.1-1.9,4.6-0.9l11.3,7.6
	c1.5,1,1.9,3.1,0.9,4.6C88.1,80.5,87.1,81.1,86,81.1"/>
<path class="st0" d="M101.1,81.1c-1.1,0-2.1-0.5-2.8-1.5c-1-1.5-0.6-3.6,0.9-4.6l11.3-7.6c1.5-1,3.6-0.6,4.6,0.9
	c1,1.5,0.6,3.6-0.9,4.6L103,80.5C102.4,80.9,101.8,81.1,101.1,81.1"/>
<path class="st0" d="M93.3,226.9c-1.8,0-3.3-1.5-3.3-3.3v-27.9c0-1.8,1.5-3.3,3.3-3.3c1.8,0,3.3,1.5,3.3,3.3v27.9
	C96.6,225.4,95.1,226.9,93.3,226.9"/>
<path class="st2" d="M280.1,50.4v-2.5c0-10.4-8.4-18.7-18.7-18.7h-7.7c-10.3,0-18.7,8.4-18.7,18.7v2.5c-5.1,0.1-9.3,4.3-9.3,9.4
	c0,5.2,4.1,9.3,9.3,9.4V70c0,11.3,9.2,20.5,20.5,20.5h4.2c11.3,0,20.5-9.2,20.5-20.5v-0.8c5.2,0,9.4-4.2,9.4-9.4
	S285.3,50.4,280.1,50.4"/>
<path class="st0" d="M253.6,32.5c-8.5,0-15.4,6.9-15.4,15.4v2.5c0,1.8-1.5,3.3-3.3,3.3c-3.3,0-6,2.8-6,6.1c0,3.3,2.7,6,6,6.1
	c1.8,0,3.3,1.5,3.3,3.3V70c0,9.5,7.7,17.2,17.1,17.2h4.2c9.4,0,17.1-7.7,17.1-17.2v-0.8c0-1.8,1.5-3.3,3.3-3.3
	c3.3,0,6.1-2.7,6.1-6.1c0-3.4-2.7-6.1-6.1-6.1c-1.8,0-3.3-1.5-3.3-3.3v-2.5c0-8.5-6.9-15.4-15.4-15.4H253.6z M259.6,93.8h-4.2
	c-12.4,0-22.6-9.6-23.7-21.7c-5.4-1.5-9.4-6.5-9.4-12.3c0-5.8,3.9-10.7,9.3-12.3c0.2-12,10-21.7,22.1-21.7h7.7
	c12,0,21.8,9.7,22.1,21.7c5.4,1.5,9.4,6.4,9.4,12.3c0,5.9-4,10.9-9.5,12.3C282.2,84.3,272,93.8,259.6,93.8"/>
</svg>
