<?xml version="1.0" encoding="utf-8"?>
<!-- Generator: Adobe Illustrator 27.8.1, SVG Export Plug-In . SVG Version: 6.00 Build 0)  -->
<svg version="1.1" id="Layer_1" xmlns="http://www.w3.org/2000/svg" xmlns:xlink="http://www.w3.org/1999/xlink" x="0px" y="0px"
	 viewBox="0 0 457.9 411.6" style="enable-background:new 0 0 457.9 411.6;" xml:space="preserve">
<style type="text/css">
	.st0{fill:#203E5F;}
	.st1{fill:#EB3455;}
	.st2{fill:#FFFFFF;}
	.st3{clip-path:url(#SVGID_00000069383950084732030950000002981947093532246408_);}
</style>
<path class="st0" d="M306.9,170.7c1.6-1.2,2.4-3,2.4-5.4c0-2.6-0.8-4.5-2.4-5.7c-1.6-1.2-4-1.8-7.3-1.8l-7.1,0l0,14.7l7.5,0
	C303,172.5,305.3,171.9,306.9,170.7"/>
<path class="st0" d="M256,160.6c-2.2-2.8-5.2-4.2-9-4.1c-3.8,0-6.7,1.4-8.8,4.2c-2.1,2.8-3.1,6.4-3.1,10.7l0,10.1
	c0,4.4,1.1,8,3.2,10.8c2.1,2.8,5.1,4.2,8.9,4.2c3.8,0,6.8-1.4,9-4.2c2.1-2.8,3.2-6.4,3.2-10.8l0-10.1
	C259.3,166.9,258.2,163.4,256,160.6"/>
<path class="st0" d="M302.8,180.3l-10.3,0l0,16.1l10.4,0c3,0,5.2-0.7,6.8-2c1.5-1.3,2.3-3.2,2.3-5.7c0-2.7-0.8-4.8-2.3-6.2
	C308.2,181,305.9,180.2,302.8,180.3"/>
<path class="st0" d="M318,200.8c-3.5,2.8-8.5,4.1-15,4.2l-21.6,0.1l-0.2-55.8l18.3-0.1c6.6,0,11.7,1.3,15.4,3.8
	c3.7,2.6,5.5,6.4,5.5,11.4c0,2.6-0.7,4.8-2,6.9c-1.3,2-3.2,3.5-5.8,4.6c3.5,0.6,6.1,2.1,7.9,4.5c1.8,2.4,2.7,5.1,2.7,8.3
	C323.2,194,321.5,198,318,200.8z M264.1,198.3c-4.3,4.5-9.9,6.7-16.8,6.7c-6.9,0-12.5-2.2-16.8-6.6c-4.3-4.5-6.5-10.1-6.5-17l0-10
	c0-6.8,2.1-12.5,6.4-17c4.3-4.5,9.8-6.8,16.7-6.8c6.9,0,12.5,2.2,16.9,6.7c4.3,4.5,6.5,10.1,6.6,16.9l0,10
	C270.5,188.2,268.4,193.9,264.1,198.3z M233,94.1l32.8-0.1c1.3,0,2.4,1.1,2.4,2.4l0,12l-37.5,0.1l0-12
	C230.6,95.2,231.7,94.1,233,94.1z M208.1,200.3c-3.4,3.3-7.7,4.9-13,4.9c-5.9,0-10.6-1.4-14-4.3c-3.5-2.9-5.1-7.1-5-12.7l0.1-0.2
	l10.9,0c0,3,0.7,5.1,2.2,6.6c1.5,1.4,3.4,2.1,5.9,2.1c2,0,3.7-0.9,5-2.6c1.3-1.7,1.9-4,1.9-7l-0.1-38.5l11.1,0l0.1,38.5
	C213.2,192.6,211.5,197,208.1,200.3z M325.6,108.3l-46.5,0.1l0-12c0-7.3-6-13.3-13.4-13.3L233,83.2c-7.4,0-13.3,6-13.3,13.4l0,12
	l-46.6,0.1c-8.3,0-14.9,6.7-14.9,15l0.3,105.1c0,8.3,6.7,14.9,15,14.9l152.5-0.4c8.3,0,15-6.7,15-15l-0.3-105.1
	C340.6,114.9,333.9,108.3,325.6,108.3"/>
<path class="st0" d="M346.7,261.4c-54,53.7-141.6,53.4-195.2-0.6S98,119.3,152,65.6s141.6-53.4,195.2,0.6
	C400.9,120.1,400.7,207.7,346.7,261.4z M365.3,48.2C301.7-15.8,198-16.1,134,47.5c-61.2,60.8-64.1,158.4-8.5,222.8l-34,33.8
	c-11.4-4.9-25.2-2.8-34.5,6.5L9.2,358c-12.3,12.2-12.3,32-0.1,44.3c12.2,12.3,32,12.3,44.3,0.1l47.7-47.4
	c9.4-9.3,11.6-23.1,6.7-34.5l34-33.8c64,55.9,161.6,53.6,222.8-7.2C428.6,215.9,428.9,112.1,365.3,48.2"/>
<path class="st1" d="M438,367.7l-54.1-7.4v-20.4h0c22.6-9,38.6-31,38.6-56.8v-54.7c0-14.2-11.5-25.7-25.7-25.7H326
	c-14.2,0-25.7,11.5-25.7,25.7v54.7c0,25.8,16,47.8,38.6,56.8h0v20.4l-54.1,7.4c-9.6,1.3-16.7,9.5-16.7,19.1v2.5h186.6v-2.5
	C454.7,377.1,447.6,369,438,367.7z"/>
<path class="st2" d="M393.3,272.2c10.2-3.2,16.7-11.3,14.6-18l-36.8,11.5C373.2,272.4,383.2,275.4,393.3,272.2z"/>
<path class="st2" d="M351.8,265.7l-36.8-11.5c-2.1,6.8,4.4,14.9,14.6,18C339.7,275.4,349.6,272.4,351.8,265.7z"/>
<path class="st2" d="M390.4,302.4c0-0.1,0-0.3,0-0.4c-6.4,4.1-17,6.8-28.9,6.8c-12,0-22.5-2.7-28.9-6.8c0,0.1,0,0.3,0,0.4
	c0,8.9,13,16.1,29,16.1C377.4,318.5,390.4,311.3,390.4,302.4z"/>
<path class="st1" d="M368.2,264.2c-0.4,0.8-0.5,1.6-0.2,2.5c2,6.3,8.8,10.1,17.1,10.1c2.9,0,6.1-0.5,9.2-1.5
	c12-3.8,19.4-13.5,16.7-22.1c-0.2-0.8-0.8-1.5-1.6-1.9c-0.8-0.4-1.6-0.5-2.4-0.2l-36.8,11.5C369.3,262.8,368.6,263.4,368.2,264.2z
	 M404.9,258.4c-1.1,4.2-6,8.6-12.5,10.7c-6.5,2-13.1,1.2-16.4-1.6L404.9,258.4z"/>
<path class="st1" d="M354.8,266.6c0.3-0.8,0.2-1.7-0.2-2.5c-0.4-0.8-1.1-1.3-1.9-1.6L315.9,251c-0.8-0.2-1.7-0.2-2.4,0.2
	c-0.8,0.4-1.3,1.1-1.6,1.9c-2.7,8.6,4.6,18.3,16.7,22.1c3.2,1,6.3,1.5,9.2,1.5C346,276.7,352.8,273,354.8,266.6z M330.5,269.1
	c-6.5-2-11.5-6.5-12.5-10.7l28.9,9C343.5,270.3,337,271.1,330.5,269.1z"/>
<path class="st1" d="M351.8,254.2h3.2v3.2h6.4v-3.2h4.8c6.2,0,11.3-5,11.3-11.3c0-4-2.2-7.6-5.3-9.5c1.3-1.8,2.1-4.1,2.1-6.5
	c0-6.2-5.1-11.3-11.3-11.3h-1.6v-3.2H355v3.2h-3.2c-1.8,0-3.2,1.4-3.2,3.2v32.2C348.5,252.7,350,254.2,351.8,254.2z M366.2,247.7
	H355v-9.7h11.3c2.7,0,4.8,2.2,4.8,4.8C371.1,245.6,368.9,247.7,366.2,247.7z M355,222h8c2.7,0,4.8,2.2,4.8,4.8
	c0,2.7-2.2,4.8-4.8,4.8h-8V222z"/>
<path class="st1" d="M393.6,302.4c0-0.2,0-0.4,0-0.5c-0.1-1.1-0.7-2.2-1.7-2.7c-1-0.5-2.2-0.5-3.2,0.2c-6.1,4-16.3,6.3-27.2,6.3
	s-21-2.4-27.2-6.3c-1-0.6-2.2-0.7-3.2-0.2c-1,0.5-1.7,1.5-1.7,2.7c0,0.1,0,0.5,0,0.6c0,10.8,14.1,19.3,32.2,19.3
	C379.5,321.7,393.6,313.2,393.6,302.4z M361.4,312.1c8.1,0,15.8-1.2,22.1-3.3c-4.3,3.7-12.2,6.6-22.1,6.6c-10,0-17.9-2.9-22.2-6.6
	C345.6,310.9,353.2,312.1,361.4,312.1z"/>
<path class="st1" d="M403.2,286.3h-9.6v6.4h6.4v6.4h6.4v-9.7C406.4,287.8,405,286.3,403.2,286.3z"/>
<g>
	<defs>
		<rect id="SVGID_1_" x="264.9" y="199.5" width="193" height="193"/>
	</defs>
	<clipPath id="SVGID_00000093888228133257460790000013126806026518722205_">
		<use xlink:href="#SVGID_1_"  style="overflow:visible;"/>
	</clipPath>
	<g style="clip-path:url(#SVGID_00000093888228133257460790000013126806026518722205_);">
		<path class="st1" d="M438.4,364.5l-51.3-7v-15.4c2.8-1.2,5.5-2.6,8.1-4.3l0,0c18.8-11.6,30.5-32,30.5-54.7v-54.7
			c0-16-13-28.9-29-28.9H326c-16,0-28.9,13-28.9,28.9v54.7c0,25.8,15.1,48.7,38.6,58.9v15.5l-51.3,7c-11.1,1.5-19.5,11.1-19.5,22.3
			v2.5c0,1.8,1.4,3.2,3.2,3.2h186.6c1.8,0,3.2-1.4,3.2-3.2v-2.5C457.9,375.6,449.5,366,438.4,364.5z M271.4,386
			c0.4-7.7,6.2-14.1,13.9-15.2l54.1-7.4c1.6-0.2,2.8-1.6,2.8-3.2v-20.2c0.1-1.2-0.6-2.4-1.6-3c-0.2-0.1-0.3-0.2-0.5-0.2
			c-22.2-8.8-36.5-29.9-36.5-53.8v-54.7c0-12.4,10.1-22.5,22.5-22.5h70.8c12.4,0,22.5,10.1,22.5,22.5v54.7
			c0,23.8-14.3,44.9-36.5,53.8c-0.1,0-0.2,0.1-0.3,0.1c-6.7,2.6-13.9,4-21.1,4c-2,0-4.1-0.1-6.1-0.3l-0.7,6.4
			c2.2,0.2,4.5,0.4,6.8,0.4c6.6,0,13.1-1,19.3-3v15.9c0,1.6,1.2,3,2.8,3.2l54.1,7.4c7.7,1,13.5,7.5,13.9,15.2H271.4z"/>
	</g>
</g>
<path class="st1" d="M358.3,279.3l-3.2,16.1c-0.2,0.9,0.1,1.9,0.7,2.7c0.6,0.7,1.5,1.2,2.5,1.2h6.4v-6.4h-2.5l2.4-12.2L358.3,279.3z
	"/>
</svg>
