<?xml version="1.0" encoding="UTF-8"?><svg id="Layer_1" xmlns="http://www.w3.org/2000/svg" xmlns:xlink="http://www.w3.org/1999/xlink" viewBox="0 0 301.99 378.4"><defs><style>.cls-1{clip-path:url(#clippath);}.cls-2{fill:none;}.cls-2,.cls-3,.cls-4{stroke-width:0px;}.cls-5{clip-path:url(#clippath-1);}.cls-6{clip-path:url(#clippath-4);}.cls-7{clip-path:url(#clippath-3);}.cls-8{clip-path:url(#clippath-2);}.cls-9{clip-path:url(#clippath-7);}.cls-10{clip-path:url(#clippath-6);}.cls-11{clip-path:url(#clippath-5);}.cls-3{fill:#203e5f;}.cls-4{fill:#eb3455;}</style><clipPath id="clippath"><rect class="cls-2" x="40.47" width="130.67" height="150.56"/></clipPath><clipPath id="clippath-1"><rect class="cls-2" x="43.14" y="10.56" width="250.59" height="234.67"/></clipPath><clipPath id="clippath-2"><rect class="cls-2" x="87.14" y="137.23" width="133.33" height="193.9"/></clipPath><clipPath id="clippath-3"><rect class="cls-2" y="197.23" width="101.81" height="52"/></clipPath><clipPath id="clippath-4"><rect class="cls-2" x="69.84" y="313.88" width="171.04" height="64.52"/></clipPath><clipPath id="clippath-5"><rect class="cls-2" x="121.81" y="226.09" width="68" height="92.47"/></clipPath><clipPath id="clippath-6"><rect class="cls-2" x="228.99" y="326.91" width="73" height="50.99"/></clipPath><clipPath id="clippath-7"><rect class="cls-2" x="8.55" y="326.56" width="73.26" height="51.83"/></clipPath></defs><path class="cls-3" d="m35.72,16.56L6.9,191.93,95.71,26.41l-59.99-9.84Z"/><path class="cls-3" d="m18.28,192.95l81.31,43.55-67.22-69.81-14.09,26.26Z"/><g class="cls-1"><path class="cls-3" d="m170.35,26.03L121.79.02,41.28,150.07,170.35,26.03Z"/></g><g class="cls-5"><path class="cls-3" d="m125.24,244.76c.58-1.3,1.24-2.77,2.11-4.66,7.67-16.8,3.22-38.42-7.66-72.44-6.95-21.73,1.83-32.75,7.68-37.38.55-.44,1.18-.76,1.79-1.1-3.66-16.32.75-34.08,13.46-46.79,19.74-19.73,51.77-19.74,71.53,0s19.74,51.74,0,71.46c-10.51,10.51-24.49,15.23-38.26,14.56.43.98,11.42,37.18,11.42,37.18l106.28-102.14L201.1,11.05,43.2,162.79l82.04,81.97"/></g><g class="cls-8"><path class="cls-3" d="m178.8,213.78l-11.56-39.02c-1.07-2.64-2.47-5.61-4.03-8.67h0c-5.34-10.52-12.8-22.17-17.69-25.97-3.26-2.55-9.34-3.41-11.64-1.61-.83.66-1.64,1.5-2.41,2.44-.1.13-.2.24-.3.37-.35.45-.67.94-.98,1.46-.15.25-.3.51-.44.77-.25.48-.48.98-.7,1.51-.16.38-.29.79-.42,1.2-.16.51-.31,1.01-.44,1.56-.12.53-.2,1.1-.28,1.67-.07.54-.16,1.05-.19,1.63-.05.68-.03,1.43-.02,2.18.01.55,0,1.07.04,1.66.07.91.23,1.91.39,2.91.08.52.13.99.23,1.53.32,1.58.75,3.26,1.32,5.06,11.68,36.53,16.29,60.09,7.21,79.99-1.02,2.22-1.77,3.86-2.34,5.18-.01.04-.02.06-.04.09-.55,1.27-.94,2.23-1.23,3.08h0c-.57,1.71-.77,3.01-1.14,5.56l-.73,5.05-43.58-5.05c.06,8.64,1.93,26.83,15.06,44.36l1.05,1.4v26.96l86.83-1.53h-5.1v-26.58l.58-1.14c.26-.49,25.7-50.15,30.98-88.62,1.04-7.55,1.88-16.23,2.47-23.29l-37.26,36.27-3.68-12.42"/></g><path class="cls-3" d="m188.26,119.23c2.3-1.15,4.36-1.64,6.29-1.55,2.58.16,5.2,1.67,8.01,4.59.01,0,.02.02.02.02.2.2.6.69,1.17,1.8.42.78.67,1.7.78,2.83.13,1.07-.05,2.38-.49,3.85-.26.87-.72,1.8-1.4,2.82l-14.38-14.36Zm-6.75,4.67s.02-.02.03-.03c.02,0,.03-.01.05-.02-.03.02-.06.03-.08.05Zm-10.96-3.07c-1.85.6-3.52.93-4.96.95-1.18.04-2.36-.16-3.27-.57-.99-.48-1.96-1.08-2.85-1.79-2.44-2.24-3.67-4.94-3.73-8.28-.05-2.7.94-5.45,2.96-8.19l15.87,15.86c-1.47.96-2.81,1.64-4.02,2.02Zm8.68,22.14c-1.34-.98-3.5-1.32-5.57.55-1.28,1.19-1.47,2.4-1.4,3.21.06.8.44,1.95,1.81,2.85,3.41,2.33,7.03,3.5,10.81,3.5,1.43,0,2.88-.17,4.34-.49,4.36-.97,8.61-3.15,12.67-6.48l1.79,1.8c1.26,1.25,2.59,1.7,3.68,1.45,1.18-.13,2.17-.59,2.94-1.36.75-.74,1.22-1.72,1.42-3.05.13-1.37-.38-2.69-1.4-3.68l-1.86-1.87c3.01-4.04,4.44-8.02,4.26-11.85-.21-4.35-1.61-8.04-4.08-10.89-1.29-1.56-2.82-2.94-4.67-4.2-1.95-1.34-4.05-2.24-6.41-2.76-2.33-.48-4.96-.41-7.83.22-2.33.52-4.85,1.61-7.51,3.26l-16.24-16.22c.47-.17.94-.31,1.4-.39,1.53-.31,2.99-.37,4.36-.22,1.32.12,2.55.46,3.68,1.04,1.27.65,2.34,1.35,3.32,2.16,1.22,1.01,2.34,1.14,3.15,1.06.71-.08,1.74-.4,2.63-1.53.59-.77,1.74-2.83-.42-6-3.94-3.78-8.29-5.69-13.11-5.63-3.89.03-7.6,1.19-11.07,3.45l-2.37-2.37c-1.02-1-2.36-1.47-3.77-1.34-1.18.15-2.18.62-2.95,1.39-.79.79-1.25,1.8-1.38,3.14-.03.88.2,2.2,1.46,3.46l1.98,1.98c-1.54,1.91-2.77,3.9-3.69,5.92-1.28,2.81-1.95,5.6-2.03,8.32-.07,2.72.45,5.38,1.52,7.9,1.11,2.57,2.79,4.8,4.98,6.6,4.08,3.31,8.59,4.82,13.7,4.38,4.28-.33,8.61-2.12,13.11-5.55l15.64,15.63c-3.01,2.39-5.87,3.8-8.54,4.17-3.27.45-6.06-.1-8.35-1.54"/><g class="cls-7"><path class="cls-3" d="m5.84,198.4L.22,232.57l100.61,16.51L5.84,198.4Z"/></g><g class="cls-6"><path class="cls-4" d="m237.62,350.05c-.73-3.99-17.8-11.26-30.51-17.42-8.6-4.17-20.19-13.15-26.81-18.54-5.77,5.57-13.96,10.57-24.88,10.57s-19.1-5-24.88-10.57c-6.62,5.39-18.22,14.36-26.81,18.54-12.71,6.17-29.78,13.43-30.51,17.42l-3.21,28.35h170.81l-3.21-28.35"/></g><g class="cls-11"><path class="cls-4" d="m137.7,256c.99-.38,2.12-.53,3.32-.53,6.28,0,14.41,4.38,14.41,4.38,0,0,8.13-4.38,14.41-4.38,1.2,0,2.32.16,3.32.53,6.2,2.36,8.27,6.8,4.14,15.06-1.69,3.39-4.23,4.59-6.88,4.59-3.82,0-7.86-2.5-9.96-4.59,0,0-2.66-3.84-5.02-3.84s-5.02,3.84-5.02,3.84c-2.09,2.09-6.14,4.59-9.96,4.59-2.65,0-5.19-1.21-6.88-4.59-4.14-8.27-2.07-12.7,4.14-15.06Zm5.71,36.62c.82-4.35,8.34-4.74,11.05-4.74.6,0,.96.02.96.02,0,0,.36-.02.96-.02,2.71,0,10.23.39,11.04,4.74.99,5.31-12.01,7.08-12.01,7.08,0,0-13-1.77-12.01-7.08Zm-7.66,16.94c4.73,4.41,11.24,8.24,19.67,8.24s14.94-3.83,19.67-8.24c6.45-6.01,9.57-13.1,9.57-13.1,0,0,11.22-41.64-2.95-56.99-11.17-12.1-21.06-13.38-24.76-13.38-.99,0-1.54.09-1.54.09,0,0-.55-.09-1.54-.09-3.69,0-13.58,1.28-24.75,13.38-14.18,15.35-2.95,56.99-2.95,56.99,0,0,3.13,7.09,9.57,13.1"/></g><path class="cls-4" d="m219.1,323.57c3.73,3.48,8.87,6.49,15.52,6.49s11.79-3.02,15.52-6.49c5.09-4.74,7.55-10.34,7.55-10.34,0,0,8.85-32.84-2.33-44.96-8.81-9.54-16.61-10.56-19.53-10.56-.79,0-1.22.07-1.22.07,0,0-.43-.07-1.21-.07-2.91,0-10.71,1.02-19.53,10.56-11.18,12.11-2.33,44.96-2.33,44.96,0,0,2.46,5.59,7.55,10.34"/><g class="cls-10"><path class="cls-4" d="m301.99,377.88l-2.54-22.37c-.58-3.15-14.04-8.88-24.06-13.74-6.78-3.29-15.93-10.38-21.16-14.62-4.55,4.39-11.01,8.33-19.63,8.33-1.97,0-3.82-.22-5.57-.6,10.56,5.36,14.8,8.67,15.66,13.41l.04.23.03.23,3.22,28.36.09.77h53.91"/></g><path class="cls-4" d="m99.31,313.23s8.85-32.84-2.33-44.96c-8.81-9.54-16.61-10.56-19.53-10.56-.78,0-1.21.07-1.21.07,0,0-.43-.07-1.21-.07-2.91,0-10.71,1.02-19.53,10.56-11.19,12.11-2.33,44.96-2.33,44.96,0,0,2.47,5.59,7.56,10.34,3.73,3.47,8.87,6.49,15.52,6.49s11.79-3.02,15.52-6.49c5.09-4.74,7.55-10.34,7.55-10.34"/><g class="cls-9"><path class="cls-4" d="m8.86,377.88l2.54-22.37c.57-3.15,14.04-8.88,24.06-13.74,6.78-3.29,15.93-10.38,21.15-14.62,4.55,4.39,11.02,8.33,19.63,8.33,1.97,0,3.82-.22,5.57-.6-10.57,5.36-14.8,8.67-15.67,13.41l-.04.23-.03.23-3.21,28.36-.09.77H8.86"/></g></svg>