<?xml version="1.0" encoding="utf-8"?>
<!-- Generator: Adobe Illustrator 27.8.1, SVG Export Plug-In . SVG Version: 6.00 Build 0)  -->
<svg version="1.1" id="Layer_1" xmlns="http://www.w3.org/2000/svg" xmlns:xlink="http://www.w3.org/1999/xlink" x="0px" y="0px"
	 viewBox="0 0 449.3 354.1" style="enable-background:new 0 0 449.3 354.1;" xml:space="preserve">
<style type="text/css">
	.st0{clip-path:url(#SVGID_00000047742234049314192790000017897576900397001359_);}
	.st1{clip-path:url(#SVGID_00000121997544178423252410000016585701014053736068_);}
	.st2{fill:#203E5F;}
	.st3{clip-path:url(#SVGID_00000030462980800104661300000012709506303759151274_);}
	.st4{clip-path:url(#SVGID_00000000925250318194701290000003062119188361287356_);}
	.st5{fill:#EB3455;}
</style>
<g>
	<defs>
		<rect id="SVGID_1_" x="160.3" y="69.8" width="77.6" height="95.5"/>
	</defs>
	<clipPath id="SVGID_00000002354495167638099100000000978437451026069679_">
		<use xlink:href="#SVGID_1_"  style="overflow:visible;"/>
	</clipPath>
	<g style="clip-path:url(#SVGID_00000002354495167638099100000000978437451026069679_);">
		<g>
			<defs>
				<path id="SVGID_00000125600878091663140460000005786682646322933693_" d="M186.2,72.1c4-1.4,8.5-2.2,12.9-2.2
					c4.4,0,8.7,0.8,12.7,2.1c0.1,0,0.2,0,0.2,0.1c14.8,5.4,25.7,19.7,25.9,36.4v56.9h-77.6v-56.9C160.5,91.6,171.2,77.4,186.2,72.1"
					/>
			</defs>
			<clipPath id="SVGID_00000156560618227342023480000004468904643573533315_">
				<use xlink:href="#SVGID_00000125600878091663140460000005786682646322933693_"  style="overflow:visible;"/>
			</clipPath>
			<g style="clip-path:url(#SVGID_00000156560618227342023480000004468904643573533315_);">
				<path class="st2" d="M160.3,69.8h77.6v95.5h-77.6V69.8z"/>
			</g>
		</g>
	</g>
</g>
<g>
	<defs>
		<rect id="SVGID_00000004512688893183634140000013221630771137241267_" x="160.3" y="91.6" width="100.1" height="256.1"/>
	</defs>
	<clipPath id="SVGID_00000098221231739417934670000009560790605796405951_">
		<use xlink:href="#SVGID_00000004512688893183634140000013221630771137241267_"  style="overflow:visible;"/>
	</clipPath>
	<g style="clip-path:url(#SVGID_00000098221231739417934670000009560790605796405951_);">
		<path class="st2" d="M260.3,91.6v256.1H160.3V91.6H260.3z"/>
	</g>
</g>
<g>
	<defs>
		<rect id="SVGID_00000154387441704298538320000018240191856970435515_" width="449.3" height="354"/>
	</defs>
	<clipPath id="SVGID_00000098216512196682487260000012387050509766794133_">
		<use xlink:href="#SVGID_00000154387441704298538320000018240191856970435515_"  style="overflow:visible;"/>
	</clipPath>
	<g style="clip-path:url(#SVGID_00000098216512196682487260000012387050509766794133_);">
		<path class="st5" d="M282.4,353.3H17.3c-6.1,0-11.8-3.3-14.9-8.7s-3.1-12,0-17.3L185,8.7c3.1-5.4,8.8-8.7,14.9-8.7
			c6.1,0,11.8,3.3,14.9,8.7L319.4,191l27.7-28.7c0.2-0.2,0.3-0.3,0.5-0.5c7.8-7.5,20.2-7.3,27.7,0.5l68.6,71.1
			c3.5,3.7,5.5,8.5,5.5,13.6V340c0,7.8-6.3,14.1-14.1,14.1H287.2C285.5,354.1,283.9,353.8,282.4,353.3z M200.4,75.7
			c-1.1,0-2.1,0.1-3.2,0.2c-15.6,1.8-26.8,15.8-25.1,31.4l12.7,113.1c0.9,7.9,7.6,13.9,15.6,13.9c8,0,14.7-6,15.6-13.9l12.7-113.1
			c0.1-1,0.2-2.1,0.2-3.2C228.8,88.4,216.1,75.7,200.4,75.7z M199.3,253.2c-19.2,0-34.8,15.6-34.8,34.8v0.5
			c0,19.2,15.6,34.8,34.8,34.8c19.2,0,34.8-15.6,34.8-34.8v-0.5C234.2,268.8,218.6,253.2,199.3,253.2z M352.4,167.4l-68.5,71.1
			c-2.2,2.3-3.4,5.3-3.4,8.5V340c0,3.7,3,6.7,6.7,6.7h148.1c3.7,0,6.7-3,6.7-6.7V247c0-3.2-1.2-6.2-3.4-8.5L370,167.4
			c-4.7-4.9-12.4-5-17.3-0.3C352.6,167.2,352.5,167.3,352.4,167.4z M385.8,295.7c12.5,8.4,44.8,33.4,44.8,33.4
			c1.3,0.9,1.4,3.1,0.7,4.4c-0.6,1.3-2.7,2.1-3.9,1.3c0,0-34.4-24.8-47.5-33.8c-0.7-0.5-1.4,0.1-1.4,0.1l-14.4,11.5
			c-0.8,0.6-1.8,1-2.9,1s-2.1-0.4-2.9-1L343.7,301c0,0-0.5-0.4-1.1,0c-13,9-47.2,33.9-47.2,33.9c-1.3,0.9-3.7,0.1-4.4-1.3
			c-0.6-1.3-0.5-3.6,0.7-4.4c0,0,32.3-24.9,44.6-33.3c0.7-0.5,0-1.2,0-1.2l-45.6-41c-1.7-1.4-2.2-3.8-1.1-5.5c0.6-1,1.7-1.7,2.9-1.7
			c0.8,0,1.7,0.3,2.4,0.9l64.8,56.8c0.4,0.3,0.9,0.5,1.5,0.5s1.1-0.2,1.5-0.5l64.8-56.8c0.7-0.6,1.5-0.9,2.4-0.9
			c1.2,0,2.3,0.6,2.9,1.7c1,1.8,0.5,4.2-1.1,5.5l-45.7,41.2C385.9,294.8,385.2,295.3,385.8,295.7z"/>
	</g>
</g>
</svg>
