<?xml version="1.0" encoding="utf-8"?>
<!-- Generator: Adobe Illustrator 27.8.1, SVG Export Plug-In . SVG Version: 6.00 Build 0)  -->
<svg version="1.1" id="Layer_1" xmlns="http://www.w3.org/2000/svg" xmlns:xlink="http://www.w3.org/1999/xlink" x="0px" y="0px"
	 viewBox="0 0 297.9 397.9" style="enable-background:new 0 0 297.9 397.9;" xml:space="preserve">
<style type="text/css">
	.st0{clip-path:url(#SVGID_00000021829210478190321640000005702003734914654902_);}
	.st1{fill:#203E5F;}
	.st2{clip-path:url(#SVGID_00000036954082699148557940000006505667701613405342_);}
	.st3{clip-path:url(#SVGID_00000181802936896851928250000008623281973676637601_);}
	.st4{clip-path:url(#SVGID_00000176039272212907058270000014089963241975992731_);}
	.st5{clip-path:url(#SVGID_00000142856998804145476950000003268365953071400357_);}
	.st6{clip-path:url(#SVGID_00000103264864032358479990000014184104555862498696_);}
	.st7{fill:#EB3455;}
	.st8{clip-path:url(#SVGID_00000104664327276752724680000010269486312813888932_);}
</style>
<g>
	<g>
		<defs>
			<rect id="SVGID_1_" x="197.2" y="196.8" width="100.7" height="176"/>
		</defs>
		<clipPath id="SVGID_00000031207231679620272330000003352517571426916244_">
			<use xlink:href="#SVGID_1_"  style="overflow:visible;"/>
		</clipPath>
		<g style="clip-path:url(#SVGID_00000031207231679620272330000003352517571426916244_);">
			<path class="st1" d="M219.6,197.5c-6.4,7-13.8,13-22,17.8c5,2.8,9.7,5.9,14.2,9.5c4.5,3.6,8.6,7.5,12.4,11.7
				c3.8,4.3,7.2,8.8,10.3,13.7c3,4.8,5.6,9.9,7.8,15.2c10.6,3,19.7,17.4,20.7,19.2c0.3,0.5,0.5,1.1,0.5,1.7
				c0,5.2-0.6,49.4-20.2,53.1c-4.6,12.1-11.3,23-20,32.5c47.9-12.9,74.5-34.3,74.5-34.3l-24.4-105.9L219.6,197.5z"/>
		</g>
	</g>
	<g>
		<defs>
			<rect id="SVGID_00000052811639457650173170000016994936614773946789_" y="196.8" width="101.2" height="176"/>
		</defs>
		<clipPath id="SVGID_00000167374329550092743040000017141547410064194432_">
			<use xlink:href="#SVGID_00000052811639457650173170000016994936614773946789_"  style="overflow:visible;"/>
		</clipPath>
		<g style="clip-path:url(#SVGID_00000167374329550092743040000017141547410064194432_);">
			<path class="st1" d="M34.5,286.2c0-0.6,0.2-1.2,0.5-1.7c1.1-1.8,10.2-16.3,20.8-19.3c2.2-5.2,4.8-10.3,7.8-15.1
				c3-4.8,6.4-9.3,10.2-13.6c3.8-4.2,7.9-8.1,12.3-11.7s9.1-6.7,14.1-9.5c-8.2-4.8-15.5-10.8-22-17.8l-53.6,34L0.1,337.5
				c0,0,26.7,21.3,74.5,34.3c-8.8-9.5-15.5-20.4-20.1-32.5C35,335.6,34.5,291.4,34.5,286.2z"/>
		</g>
	</g>
	<path class="st1" d="M107.3,211.8c6.5-2.9,13.2-5.2,20.2-6.7c7-1.5,14-2.2,21.2-2.2h0.3c7.2,0,14.3,0.7,21.3,2.2
		c7,1.5,13.8,3.7,20.3,6.7c5.3-2.8,10.3-6.1,14.9-10c4.6-3.8,8.9-8.1,12.6-12.8c3.8-4.7,7-9.7,9.8-15.1c2.8-5.4,5-10.9,6.6-16.7
		c-6.2,1.7-12.8,3.3-19.5,4.4c-2.4,10.8-10.1,25.3-27.5,25.3c-10.8,0-23.5-5.7-38.5-17.3c-15,11.6-27.7,17.3-38.6,17.3
		c-17.4,0-25-14.5-27.4-25.3c-6.9-1.4-13.3-2.9-19.6-4.4c1.6,5.8,3.8,11.4,6.6,16.7c2.8,5.3,6,10.4,9.8,15s8,8.9,12.6,12.8
		C97,205.7,102,209,107.3,211.8z"/>
	<path class="st1" d="M110.4,180.6c7.3,0,17.1-3.5,30-12.7c-16.8-0.3-33.5-1.7-50.2-4.4C92.4,170.5,97.7,180.6,110.4,180.6z"/>
	<path class="st1" d="M207.6,163.3c-16.6,2.8-33.3,4.3-50.1,4.7c12.9,9.2,22.6,12.6,29.9,12.6C200.2,180.6,205.5,170.5,207.6,163.3z
		"/>
	<path class="st1" d="M149,161.4c73.7,0,133.4-21.2,133.4-47.4c0-14.2-17.5-26.9-45.2-35.6l7.1,22.8c0.2,0.6,0.3,1.3,0.3,2
		c0,0.7-0.1,1.3-0.3,2c-0.2,0.6-0.5,1.2-0.9,1.8c-0.4,0.6-0.8,1-1.3,1.5c-1,0.8-25.6,20.1-93.1,20.1s-92.1-19.3-93.1-20.1
		c-0.5-0.4-1-0.9-1.4-1.5c-0.4-0.6-0.7-1.1-0.9-1.8c-0.2-0.6-0.3-1.3-0.3-2c0-0.7,0.1-1.3,0.3-2l7.1-22.8
		C33.1,87.1,15.6,99.8,15.6,114c0,18.5,29.7,34.6,73.2,42.4C108.7,159.8,128.8,161.5,149,161.4z"/>
	<path class="st1" d="M149,121.8c65.9,0,88.9-18.6,88.9-18.6l-26.7-86.1c-0.4-1.2-0.8-2.4-1.4-3.6s-1.2-2.3-2-3.3
		c-0.8-1.1-1.6-2-2.5-3c-0.9-0.9-1.9-1.8-2.9-2.5c-1-0.8-2.1-1.4-3.3-2c-1.2-0.6-2.3-1.1-3.6-1.5c-1.2-0.4-2.5-0.7-3.8-0.9
		c-1.3-0.2-2.6-0.3-3.9-0.3c-3.2,0-6.2,0.6-9.2,1.8L149,14.2L119.2,2c-2.9-1.2-6-1.9-9.2-2c-1.3,0-2.5,0.1-3.8,0.3
		c-1.3,0.2-2.5,0.5-3.7,0.9c-1.2,0.4-2.4,0.9-3.5,1.5c-1.1,0.6-2.2,1.3-3.3,2s-2,1.6-2.9,2.5c-0.9,0.9-1.7,1.9-2.5,2.9
		c-0.7,1-1.4,2.1-2,3.3c-0.6,1.1-1.1,2.3-1.4,3.6L60,103.2C60,103.2,83.1,121.8,149,121.8z"/>
	<path class="st1" d="M225.4,328.4c-8.3-16.1-7.2-45.1,2-57.5c0.9-1.3,2-2.5,3.3-3.4c1.3-1,2.7-1.7,4.2-2.2
		c-4.8-10.6-11.3-20.1-19.5-28.3c-4.4-4.4-9.1-8.3-14.2-11.7c-5.1-3.4-10.5-6.3-16.2-8.7c-5.7-2.4-11.6-4.1-17.6-5.3
		s-12.2-1.8-18.3-1.7c-2.3,0-4.5,0.1-6.8,0.2c-2.3,0.2-4.5,0.4-6.7,0.7c-2.2,0.3-4.4,0.7-6.7,1.2c-2.2,0.5-4.4,1-6.5,1.7
		c-2.2,0.6-4.3,1.4-6.4,2.2c-2.1,0.8-4.2,1.7-6.2,2.6c-2,0.9-4.1,2-6,3.1c-2,1.1-3.9,2.2-5.8,3.5c-1.9,1.2-3.7,2.5-5.5,3.9
		c-1.8,1.4-3.5,2.8-5.2,4.3c-1.7,1.5-3.3,3-4.9,4.6c-1.6,1.6-3.1,3.3-4.6,5c-1.5,1.7-2.9,3.5-4.2,5.3c-1.3,1.8-2.6,3.7-3.8,5.6
		c-1.2,1.9-2.3,3.9-3.4,5.8c-1.1,2-2.1,4-3,6.1c1.5,0.5,2.9,1.2,4.2,2.2c1.3,1,2.4,2.1,3.3,3.4c9.3,12.5,10.3,41.5,2,57.5
		c-1,2.4-2.5,4.5-4.4,6.3c-1.9,1.8-4,3.2-6.5,4.1c0.9,2.2,1.8,4.3,2.8,6.4c1,2.1,2.1,4.1,3.3,6.2c1.2,2,2.4,4,3.8,5.9
		c1.3,1.9,2.7,3.8,4.2,5.6c1.5,1.8,3,3.6,4.6,5.3c1.6,1.7,3.2,3.3,5,4.9c1.7,1.6,3.5,3.1,5.3,4.5c1.8,1.4,3.7,2.8,5.6,4.1
		c1.9,1.3,3.9,2.5,5.9,3.7c2,1.2,4.1,2.2,6.2,3.2c2.1,1,4.2,1.9,6.4,2.8c2.2,0.8,4.4,1.6,6.6,2.3c2.2,0.7,4.5,1.3,6.8,1.8
		c2.3,0.5,4.6,0.9,6.9,1.3c2.3,0.3,4.6,0.6,6.9,0.8c2.3,0.2,4.7,0.3,7,0.3c2.3,0,4.7-0.1,7-0.3c2.3-0.2,4.6-0.4,6.9-0.8
		c2.3-0.3,4.6-0.8,6.9-1.3c2.3-0.5,4.5-1.1,6.8-1.8c2.2-0.7,4.4-1.5,6.6-2.3c2.2-0.8,4.3-1.8,6.4-2.8c2.1-1,4.2-2.1,6.2-3.2
		c2-1.2,4-2.4,5.9-3.7c1.9-1.3,3.8-2.7,5.6-4.1c1.8-1.4,3.6-3,5.3-4.5s3.4-3.2,5-4.9c1.6-1.7,3.1-3.5,4.6-5.3
		c1.5-1.8,2.9-3.7,4.2-5.6c1.3-1.9,2.6-3.9,3.8-5.9c1.2-2,2.3-4.1,3.3-6.2c1-2.1,2-4.2,2.9-6.4c-2.5-0.9-4.6-2.2-6.5-4.1
		C227.9,332.9,226.4,330.8,225.4,328.4z M153,355.8v8.9c0,0.4-0.1,0.9-0.2,1.3c-0.2,0.4-0.4,0.8-0.7,1.1c-0.3,0.3-0.7,0.6-1.1,0.7
		c-0.4,0.2-0.8,0.3-1.3,0.3c-0.4,0-0.9-0.1-1.3-0.3c-0.4-0.2-0.8-0.4-1.1-0.7c-0.3-0.3-0.6-0.7-0.7-1.1s-0.3-0.8-0.3-1.3v-8.9
		c-1.6-0.2-3.3-0.5-4.8-1c-1.6-0.5-3.1-1.1-4.6-1.9c-1.5-0.8-2.9-1.7-4.2-2.7c-1.3-1-2.5-2.1-3.6-3.4c-1.1-1.2-2.1-2.6-2.9-4
		c-0.9-1.4-1.6-2.9-2.2-4.4c-0.6-1.5-1-3.1-1.3-4.8c-0.3-1.6-0.5-3.3-0.5-4.9c0-0.4,0.1-0.9,0.2-1.3c0.2-0.4,0.4-0.8,0.7-1.1
		s0.7-0.6,1.1-0.7c0.4-0.2,0.8-0.3,1.3-0.3c0.4,0,0.9,0.1,1.3,0.3c0.4,0.2,0.8,0.4,1.1,0.7s0.6,0.7,0.7,1.1c0.2,0.4,0.3,0.8,0.3,1.3
		c0,1.2,0.1,2.4,0.3,3.6c0.2,1.2,0.5,2.4,1,3.5c0.4,1.1,0.9,2.2,1.6,3.3c0.6,1,1.3,2,2.1,2.9c0.8,0.9,1.7,1.8,2.6,2.5
		c0.9,0.8,1.9,1.4,3,2c1.1,0.6,2.2,1.1,3.3,1.5c1.1,0.4,2.3,0.7,3.5,0.9v-41.2c-1.6-0.2-3.2-0.6-4.8-1.1c-1.6-0.5-3.1-1.1-4.5-1.9
		c-1.5-0.8-2.8-1.7-4.1-2.7c-1.3-1-2.5-2.2-3.6-3.4c-1.1-1.2-2.1-2.6-2.9-4c-0.8-1.4-1.6-2.9-2.1-4.4c-0.6-1.5-1-3.1-1.3-4.8
		c-0.3-1.6-0.4-3.3-0.4-4.9c0-1.7,0.1-3.3,0.4-4.9c0.3-1.6,0.7-3.2,1.3-4.7c0.6-1.5,1.3-3,2.1-4.4c0.8-1.4,1.8-2.7,2.9-4
		c1.1-1.2,2.3-2.4,3.6-3.4c1.3-1,2.7-1.9,4.1-2.7c1.5-0.8,3-1.4,4.5-1.9c1.6-0.5,3.2-0.9,4.8-1.1v-8.9c0-0.4,0.1-0.9,0.3-1.3
		c0.2-0.4,0.4-0.8,0.7-1.1c0.3-0.3,0.7-0.6,1.1-0.7c0.4-0.2,0.8-0.3,1.3-0.3c0.4,0,0.9,0.1,1.3,0.3c0.4,0.2,0.8,0.4,1.1,0.7
		s0.6,0.7,0.7,1.1c0.2,0.4,0.2,0.8,0.3,1.3v8.9c1.6,0.2,3.3,0.5,4.8,1c1.6,0.5,3.1,1.1,4.6,1.9c1.5,0.8,2.9,1.7,4.2,2.7
		c1.3,1,2.5,2.1,3.6,3.4c1.1,1.2,2.1,2.6,2.9,4c0.9,1.4,1.6,2.9,2.2,4.4c0.6,1.5,1,3.1,1.3,4.8c0.3,1.6,0.5,3.3,0.5,4.9
		c0,0.4-0.1,0.9-0.2,1.3c-0.2,0.4-0.4,0.8-0.7,1.1s-0.7,0.6-1.1,0.7c-0.4,0.2-0.8,0.3-1.3,0.3c-0.4,0-0.9-0.1-1.3-0.2
		c-0.4-0.2-0.8-0.4-1.1-0.7c-0.3-0.3-0.6-0.7-0.7-1.1c-0.2-0.4-0.3-0.8-0.3-1.3c0-1.2-0.1-2.4-0.3-3.6c-0.2-1.2-0.5-2.4-1-3.5
		s-0.9-2.2-1.6-3.3c-0.6-1.1-1.3-2-2.1-3c-0.8-0.9-1.7-1.8-2.6-2.5c-0.9-0.8-1.9-1.5-3-2c-1.1-0.6-2.2-1.1-3.3-1.5
		c-1.2-0.4-2.3-0.7-3.5-0.9v41.2c1.6,0.2,3.2,0.6,4.8,1.1c1.6,0.5,3.1,1.1,4.5,1.9c1.5,0.8,2.8,1.7,4.1,2.7c1.3,1,2.5,2.2,3.6,3.4
		c1.1,1.2,2.1,2.6,2.9,4c0.8,1.4,1.6,2.9,2.1,4.4c0.6,1.5,1,3.1,1.3,4.8c0.3,1.6,0.4,3.3,0.4,4.9c0,1.7-0.1,3.3-0.4,4.9
		c-0.3,1.6-0.7,3.2-1.3,4.8c-0.6,1.5-1.3,3-2.1,4.4c-0.8,1.4-1.8,2.7-2.9,4c-1.1,1.2-2.3,2.4-3.6,3.4c-1.3,1-2.7,1.9-4.1,2.7
		c-1.5,0.8-3,1.4-4.5,1.9C156.3,355.2,154.7,355.5,153,355.8L153,355.8z"/>
	<path class="st1" d="M152.9,308.3v40.6c1.2-0.2,2.4-0.5,3.5-0.9c1.1-0.4,2.2-0.9,3.3-1.5c1.1-0.6,2.1-1.3,3-2.1
		c0.9-0.8,1.8-1.6,2.6-2.5c0.8-0.9,1.5-1.9,2.1-3c0.6-1,1.1-2.1,1.5-3.3c0.4-1.1,0.7-2.3,0.9-3.5c0.2-1.2,0.3-2.4,0.3-3.6
		c0-1.2-0.1-2.4-0.3-3.6c-0.2-1.2-0.5-2.4-0.9-3.5c-0.4-1.1-0.9-2.2-1.5-3.3c-0.6-1-1.3-2-2.1-3c-0.8-0.9-1.6-1.8-2.6-2.5
		c-0.9-0.8-1.9-1.5-3-2c-1.1-0.6-2.2-1.1-3.3-1.5C155.3,308.8,154.1,308.5,152.9,308.3z"/>
	<path class="st1" d="M134.9,266c-1.9,1.9-3.4,4.2-4.5,6.7c-1,2.5-1.6,5.2-1.5,7.9c0,1.2,0.1,2.4,0.3,3.6c0.2,1.2,0.5,2.4,1,3.5
		s0.9,2.2,1.6,3.3c0.6,1,1.3,2,2.1,3c0.8,0.9,1.7,1.8,2.6,2.5c0.9,0.8,1.9,1.4,3,2c1.1,0.6,2.2,1.1,3.3,1.5c1.2,0.4,2.3,0.7,3.5,0.9
		v-40.7c-2.2,0.3-4.2,1-6.2,2C138.1,263.2,136.4,264.5,134.9,266z"/>
	<path class="st1" d="M41.1,287.2c0,12.8,3.3,45.4,16,45.7c3.9,0,6.9-2.4,9.5-7.4c7.1-13.7,6.3-40-1.4-50.5c-0.6-1.1-1.4-2-2.5-2.6
		c-1.1-0.6-2.2-1-3.5-1C52.5,271.7,44.2,282.5,41.1,287.2z"/>
	<path class="st1" d="M231.3,325.4c2.5,4.9,5.7,7.4,9.3,7.4c12.7-0.3,15.8-32.9,16-45.7c-3.1-4.7-11.3-15.5-17.8-15.8h-0.3
		c-1.2,0.1-2.3,0.4-3.3,1c-1,0.6-1.8,1.4-2.4,2.5C225,285.3,224.3,311.7,231.3,325.4z"/>
	<g>
		<defs>
			<rect id="SVGID_00000008842312556178371770000005231698473917261211_" x="86.8" y="236" width="124.4" height="124.4"/>
		</defs>
		<clipPath id="SVGID_00000075131230376335804960000005508183399050160056_">
			<use xlink:href="#SVGID_00000008842312556178371770000005231698473917261211_"  style="overflow:visible;"/>
		</clipPath>
		<g style="clip-path:url(#SVGID_00000075131230376335804960000005508183399050160056_);">
			<g>
				<defs>
					<path id="SVGID_00000083789128774399382130000000640595545349617801_" d="M149,236c-34.4,0-62.2,27.8-62.2,62.2
						s27.8,62.2,62.2,62.2c34.3,0,62.2-27.8,62.2-62.2S183.3,236,149,236"/>
				</defs>
				<clipPath id="SVGID_00000139266985482603864210000000017857390272594824_">
					<use xlink:href="#SVGID_00000083789128774399382130000000640595545349617801_"  style="overflow:visible;"/>
				</clipPath>
				<g style="clip-path:url(#SVGID_00000139266985482603864210000000017857390272594824_);">
					<path class="st1" d="M86.8,236h124.4v124.4H86.8V236z"/>
				</g>
			</g>
		</g>
	</g>
	<g>
		<defs>
			<rect id="SVGID_00000011742336291819901180000003803138026442238609_" x="109.8" y="236" width="78.2" height="139"/>
		</defs>
		<clipPath id="SVGID_00000137815819749852613620000000258017338901792681_">
			<use xlink:href="#SVGID_00000011742336291819901180000003803138026442238609_"  style="overflow:visible;"/>
		</clipPath>
		<g style="clip-path:url(#SVGID_00000137815819749852613620000000258017338901792681_);">
			<path class="st1" d="M109.8,236h78.2v139h-78.2V236z"/>
		</g>
	</g>
	<g>
		<defs>
			<rect id="SVGID_00000098923535975105817680000018278867586983860109_" x="113.2" y="239.5" width="73" height="81.3"/>
		</defs>
		<clipPath id="SVGID_00000027604108681217637000000004067626467276192952_">
			<use xlink:href="#SVGID_00000098923535975105817680000018278867586983860109_"  style="overflow:visible;"/>
		</clipPath>
		<g style="clip-path:url(#SVGID_00000027604108681217637000000004067626467276192952_);">
			<path class="st7" d="M174.4,247.6c-7.5-5.4-17-8.2-28.2-8.2c-2.9,0-6.1,0.5-9.3,1.4c-9.9,2.7-17.8,10-21.4,19.6l-1,2.7
				c-2.8,7.7,2.9,15.8,11.1,15.8c5.5,0,10.2-3.8,11.5-9.1h0c1-4.3,4.7-7.4,9.1-7.6c0.3,0,0.6,0,0.9,0c4.5,0,7.6,1.1,9.1,3.2
				c1.8,2.5,2.6,5.1,2.6,8.1c0,2.5-0.7,4.8-2.3,6.9l0,0.1c-0.8,1.2-2,2.4-3.5,3.5l-5.2,4c-2,1.6-3.8,3.1-5.2,4.6
				c-3.1,3.1-5.1,7.2-5.7,11.6l-0.4,3.3c-0.8,6.7,4.4,12.6,11.1,12.6h1.8c5.9,0,10.7-4.5,11.2-10.3c0.7-2.2,2.2-4.3,4.5-6l5-3.9
				c5.3-4.2,8.9-7.5,10.8-10.3c3.4-4.7,5.1-10.4,5.1-17.1C186.2,261.6,182.2,253.3,174.4,247.6"/>
		</g>
	</g>
	<g>
		<defs>
			<rect id="SVGID_00000112603513976702425190000007072519191590144909_" x="134.5" y="331.5" width="28" height="25.2"/>
		</defs>
		<clipPath id="SVGID_00000062877206933692281840000003208701280162832011_">
			<use xlink:href="#SVGID_00000112603513976702425190000007072519191590144909_"  style="overflow:visible;"/>
		</clipPath>
		<g style="clip-path:url(#SVGID_00000062877206933692281840000003208701280162832011_);">
			<path class="st7" d="M148.7,331.6h-1.2c-6.9,0-12.6,5.6-12.6,12.6c0,6.9,5.6,12.6,12.6,12.6h1.2c6.9,0,12.6-5.6,12.6-12.6
				C161.2,337.2,155.6,331.6,148.7,331.6"/>
		</g>
	</g>
</g>
</svg>
