<?xml version="1.0" encoding="UTF-8"?><svg id="Layer_1" xmlns="http://www.w3.org/2000/svg" xmlns:xlink="http://www.w3.org/1999/xlink" viewBox="0 0 297.32 394.16"><defs><style>.cls-1{clip-path:url(#clippath);}.cls-2{fill:none;}.cls-2,.cls-3,.cls-4,.cls-5{stroke-width:0px;}.cls-6{clip-path:url(#clippath-1);}.cls-7{clip-path:url(#clippath-3);}.cls-8{clip-path:url(#clippath-2);}.cls-3{fill:#203e5f;}.cls-4{fill:#fff;}.cls-5{fill:#eb3455;}</style><clipPath id="clippath"><rect class="cls-2" x="91.24" y=".04" width="98.67" height="59.78"/></clipPath><clipPath id="clippath-1"><rect class="cls-2" y="158.49" width="297.32" height="210.67"/></clipPath><clipPath id="clippath-2"><rect class="cls-2" x="92.57" y="378.49" width="112" height="15.67"/></clipPath><clipPath id="clippath-3"><rect class="cls-2" x="68.88" y="178.54" width="159.03" height="158.62"/></clipPath></defs><path class="cls-5" d="m94.74,46.79c0-18.03,17.69-44.29,45.77-44.29s45.77,24.69,45.77,44.68c-6.29,4.26-17.19,9.15-45.26,9.15s-39.2-4.29-46.28-9.54"/><g class="cls-1"><path class="cls-3" d="m94.74,46.79h2.5c0-4.1,1.02-8.83,3.01-13.56,2.98-7.11,8.13-14.22,14.97-19.49,6.85-5.28,15.35-8.73,25.29-8.74,6.65,0,12.65,1.46,17.93,3.94,7.93,3.71,14.28,9.76,18.64,16.66,4.36,6.9,6.7,14.65,6.69,21.59h2.51l-1.41-2.07c-2.95,1.99-6.91,4.12-13.67,5.81-6.76,1.69-16.3,2.91-30.19,2.91s-23.53-1.07-30.42-2.73c-6.91-1.67-11.07-3.88-14.36-6.32l-1.49,2.01h2.5-2.5l-1.49,2.01c3.79,2.82,8.73,5.38,16.17,7.17,7.45,1.79,17.44,2.87,31.6,2.87s24.12-1.23,31.4-3.05c7.28-1.81,11.93-4.26,15.26-6.53.69-.46,1.1-1.24,1.1-2.07,0-5.37-1.18-10.96-3.39-16.36-3.32-8.09-8.95-15.77-16.57-21.45C161.22,3.67,151.6,0,140.51,0c-7.41,0-14.17,1.74-20.09,4.64-8.89,4.35-15.9,11.28-20.71,18.88-4.81,7.61-7.46,15.91-7.47,23.28,0,.79.38,1.53,1.01,2.01l1.49-2.01"/></g><path class="cls-5" d="m185.51,39.77c4.98,3.72,4.68,15.69,2.56,22.17-6.79,20.72-88.8,21.53-95.43-.07-1.98-6.44-2.79-17.83,2.11-21.93,6.21-5.18,21.17-12.96,45.44-12.96s38.64,7.78,45.33,12.79"/><path class="cls-3" d="m185.51,39.77l-1.5,2c.42.31.83.77,1.21,1.4.57.93,1.04,2.25,1.34,3.78.31,1.52.46,3.25.46,5.01,0,3.35-.55,6.83-1.33,9.21-.31.95-.85,1.89-1.66,2.83-1.41,1.64-3.66,3.26-6.58,4.67-4.38,2.13-10.22,3.81-16.76,4.92-6.54,1.12-13.77,1.69-20.97,1.69-10.8,0-21.56-1.29-29.82-3.83-4.14-1.26-7.63-2.84-10.18-4.63-1.27-.89-2.3-1.82-3.08-2.78-.78-.95-1.3-1.91-1.61-2.91-.82-2.64-1.44-6.38-1.44-9.89,0-2.14.23-4.19.72-5.84.24-.83.55-1.55.89-2.15.35-.59.73-1.05,1.15-1.41,2.82-2.35,7.88-5.48,15.16-7.97,7.28-2.5,16.81-4.4,28.68-4.4,23.72,0,37.51,7.56,43.83,12.28l3-4c-7.06-5.3-22.03-13.3-46.83-13.29-12.4,0-22.49,1.99-30.31,4.67-7.82,2.69-13.35,6.05-16.73,8.86-.93.78-1.68,1.71-2.27,2.73-.89,1.53-1.44,3.22-1.8,5.01-.35,1.77-.49,3.64-.49,5.5,0,4.09.69,8.18,1.66,11.35.52,1.68,1.39,3.22,2.52,4.6,1.98,2.42,4.72,4.36,7.96,5.99,4.87,2.44,10.93,4.18,17.63,5.34,6.7,1.16,14.02,1.73,21.37,1.73,11.39,0,22.8-1.35,31.99-4.1,4.6-1.38,8.65-3.1,11.9-5.27,1.62-1.09,3.05-2.3,4.21-3.65,1.17-1.36,2.08-2.88,2.63-4.54.99-3.04,1.58-6.89,1.58-10.77,0-2.71-.29-5.43-1.02-7.89-.37-1.23-.85-2.41-1.5-3.48-.65-1.07-1.46-2.05-2.49-2.82l-1.5,2.01"/><path class="cls-5" d="m90.65,274.28h111.25s-3.57-26.77-.97-55.72c2.8-31.14,6.03-67.21-1.67-76.24-18.2-21.34-60.03-21.69-60.03-21.69,0,0-46.64,4.56-54.04,26.28-4.04,11.84.11,44.05,3.34,72.25,3.31,28.89,2.12,55.13,2.12,55.13"/><path class="cls-3" d="m90.65,274.28v2.51h111.25c.72,0,1.4-.31,1.88-.85.48-.55.7-1.26.6-1.98,0,0,0-.05-.02-.15-.2-1.58-1.88-15.25-1.88-32.98,0-6.89.26-14.39.94-22.03,1.49-16.7,3.13-34.85,3.13-49.63,0-6.4-.3-12.17-1.08-16.99-.4-2.41-.91-4.59-1.6-6.51-.69-1.92-1.54-3.59-2.71-4.97-4.85-5.69-11.19-9.89-17.9-13.04-10.06-4.71-21.01-7.06-29.48-8.28-8.47-1.21-14.45-1.26-14.53-1.26-.1,0-.16,0-.27.02-.1.01-11.88,1.16-24.74,5.09-6.43,1.97-13.15,4.64-18.85,8.3-2.85,1.83-5.46,3.93-7.63,6.33-2.17,2.41-3.9,5.15-4.95,8.23-.68,2.02-1.11,4.36-1.4,7.04-.28,2.67-.4,5.68-.4,8.94,0,7.81.69,17.17,1.66,27.08.97,9.91,2.22,20.36,3.36,30.29,1.91,16.68,2.31,32.51,2.31,42.82,0,3.7-.05,6.69-.1,8.74-.02,1.03-.05,1.82-.07,2.36-.01.27-.02.47-.02.61-.01.14-.01.2-.01.2-.03.69.22,1.34.69,1.84s1.12.78,1.81.78v-2.51l2.5.11s.21-4.65.21-12.14c0-10.43-.41-26.44-2.34-43.39-1.14-9.95-2.39-20.38-3.36-30.21-.96-9.83-1.64-19.07-1.64-26.59,0-3.14.12-5.98.38-8.42.26-2.44.66-4.46,1.16-5.95.8-2.34,2.14-4.49,3.94-6.49,3.14-3.49,7.7-6.47,12.82-8.87,7.66-3.61,16.5-5.95,23.39-7.35,3.45-.7,6.41-1.17,8.5-1.46,1.04-.15,1.87-.26,2.44-.32.28-.03.49-.06.64-.07l.16-.02h.05s-.25-2.49-.25-2.49l-.02,2.49h.1c1.13.02,11.55.28,23.76,3.05,6.1,1.39,12.64,3.4,18.66,6.29,6.03,2.89,11.52,6.66,15.63,11.47.62.72,1.26,1.87,1.8,3.41.83,2.3,1.44,5.43,1.83,9.14s.56,8,.56,12.68c0,14.43-1.61,32.49-3.11,49.19-.7,7.82-.96,15.46-.96,22.47,0,19.25,1.93,33.72,1.94,33.79l2.48-.33v-2.5h-111.25v2.5l2.5.11-2.5-.11"/><path class="cls-5" d="m96.94,266.96l5.13-32.88-32.54-22.9,36.76-32.89s2.61-46.38-11.61-42.85c-14.22,3.53-58.61,49.9-53.36,86.3,3.43,23.81,55.64,45.21,55.64,45.21"/><path class="cls-3" d="m96.94,266.96l2.47.38,5.12-32.88c.15-.94-.26-1.89-1.03-2.43l-29.96-21.08,34.41-30.79c.49-.44.79-1.06.83-1.72,0-.03.19-3.42.19-8.31,0-6.33-.31-15.15-1.81-22.61-.76-3.74-1.79-7.15-3.43-9.86-.82-1.35-1.81-2.55-3.08-3.45-1.26-.9-2.83-1.45-4.49-1.45-.69,0-1.4.09-2.1.27h0c-2.12.53-4.38,1.66-6.91,3.27-4.42,2.82-9.59,7.15-14.94,12.58-8.02,8.15-16.42,18.75-22.88,30.35-6.43,11.6-10.95,24.2-10.96,36.4,0,2.18.14,4.34.45,6.48.49,3.4,1.83,6.65,3.72,9.73,3.31,5.39,8.31,10.33,13.93,14.8,8.42,6.69,18.26,12.32,26.03,16.31,7.76,3.98,13.44,6.31,13.49,6.33.71.29,1.51.24,2.18-.14.67-.38,1.13-1.04,1.24-1.8l-2.47-.38.95-2.31s-.04-.02-.14-.06c-1.46-.6-14.41-6.09-27.28-14.2-6.43-4.06-12.84-8.77-17.74-13.78-2.46-2.49-4.54-5.07-6.07-7.63-1.54-2.57-2.53-5.11-2.89-7.58-.27-1.89-.4-3.82-.4-5.77-.01-8.34,2.4-17.23,6.29-25.92,5.83-13.03,14.99-25.54,23.9-35.02,4.44-4.74,8.83-8.72,12.66-11.64,1.92-1.46,3.69-2.65,5.24-3.52,1.55-.88,2.88-1.43,3.8-1.66h.01c.33-.09.63-.12.88-.12.61.01,1.05.16,1.6.53.46.33.97.86,1.47,1.62.89,1.33,1.7,3.32,2.34,5.7.97,3.56,1.58,7.94,1.94,12.29.35,4.36.46,8.7.46,12.24,0,2.38-.05,4.4-.09,5.81-.03.71-.05,1.27-.06,1.65-.01.19-.02.33-.02.43,0,.09-.01.14-.01.14l2.5.14-1.67-1.86-36.76,32.88c-.57.51-.88,1.25-.83,2.01.05.76.44,1.46,1.06,1.9l31.27,22.01-4.88,31.34,2.47.39.95-2.31-.95,2.31"/><path class="cls-5" d="m188.82,265.77l-5.12-32.88,32.54-22.9-36.76-32.88s-2.45-45.19,11.78-41.67c14.23,3.53,58.45,48.71,53.2,85.11-3.44,23.8-55.64,45.2-55.64,45.2"/><path class="cls-3" d="m188.82,265.77l2.47-.39-4.89-31.34,31.27-22.01c.62-.44,1.02-1.14,1.06-1.9.04-.76-.27-1.51-.83-2.01l-36.76-32.88-1.67,1.86,2.5-.14v-.13c-.04-.59-.16-3.3-.16-7.06,0-5.91.31-14.44,1.71-21.27.69-3.41,1.67-6.38,2.83-8.26.58-.95,1.18-1.59,1.72-1.97.55-.38,1.02-.53,1.65-.54.27,0,.57.03.92.12h.01c1.25.3,3.19,1.19,5.43,2.6,3.94,2.46,8.89,6.51,14.02,11.63,7.69,7.67,15.82,17.78,21.97,28.72,6.16,10.94,10.31,22.7,10.3,33.6,0,1.95-.13,3.89-.41,5.78-.36,2.55-1.41,5.18-3.04,7.83-2.83,4.63-7.43,9.26-12.77,13.5-8.01,6.36-17.61,11.88-25.2,15.77-3.8,1.94-7.08,3.49-9.41,4.54-1.17.53-2.1.93-2.73,1.2-.31.14-.56.23-.72.3l-.18.08-.06.03.95,2.31,2.47-.39-2.47.39.95,2.31c.07-.03,13.21-5.41,26.89-13.86,6.84-4.22,13.83-9.22,19.42-14.78,2.79-2.78,5.24-5.71,7.14-8.79,1.89-3.08,3.22-6.33,3.72-9.73.31-2.15.45-4.32.45-6.49,0-9.27-2.64-18.71-6.71-27.73-6.13-13.53-15.54-26.15-24.73-35.79-4.6-4.82-9.15-8.89-13.24-11.94-2.05-1.53-3.99-2.82-5.79-3.82-1.81-1-3.46-1.72-5.04-2.12h0c-.72-.18-1.44-.27-2.14-.27-1.67,0-3.25.54-4.52,1.45-1.13.79-2.03,1.81-2.8,2.96-1.33,2.02-2.28,4.45-3.02,7.14-1.11,4.03-1.73,8.64-2.1,13.14-.37,4.5-.47,8.87-.47,12.36,0,4.41.16,7.42.16,7.45.04.67.33,1.28.83,1.72l34.41,30.78-29.96,21.09c-.78.55-1.18,1.49-1.03,2.43l5.12,32.87c.12.77.57,1.42,1.24,1.8.68.38,1.47.43,2.19.14l-.95-2.31"/><path class="cls-4" d="m119.45,124.11c-5.04,17.85,42.32,23.89,43.23-.36-12.27-5.23-4.59-23.71-4.59-23.71h-35.27s14.31,17.87-3.38,24.07"/><path class="cls-3" d="m119.45,124.11l-2.41-.68c-.32,1.11-.47,2.21-.47,3.29,0,2.59.92,4.98,2.4,6.93,2.23,2.94,5.61,5.03,9.47,6.46,3.86,1.42,8.26,2.17,12.66,2.17,5.67,0,11.39-1.23,15.97-4.17,2.29-1.47,4.27-3.4,5.7-5.8,1.44-2.4,2.3-5.26,2.42-8.47.04-1.04-.57-1.99-1.52-2.4-1.1-.47-1.96-1.05-2.65-1.7-1.02-.98-1.7-2.15-2.15-3.52-.45-1.36-.65-2.92-.65-4.51,0-2.66.54-5.39,1.1-7.42.28-1.02.55-1.86.76-2.44.1-.29.19-.52.24-.66l.06-.17.02-.03h0s-.78-.32-.78-.32l.78.32h0s-.78-.32-.78-.32l.78.32c.32-.78.23-1.66-.23-2.35-.46-.7-1.24-1.11-2.08-1.11h-35.27c-.97,0-1.84.55-2.26,1.42-.42.88-.3,1.89.3,2.65l.68-.54-.68.54.68-.54-.68.54s1.31,1.66,2.54,3.98c1.26,2.32,2.4,5.34,2.38,7.96,0,.82-.1,1.6-.33,2.33-.33,1.1-.92,2.12-1.96,3.12-1.05.98-2.6,1.95-4.88,2.76-.77.27-1.36.9-1.58,1.68l2.41.68.83,2.36c3.72-1.3,6.41-3.17,8.13-5.48.86-1.15,1.47-2.39,1.85-3.66.38-1.26.54-2.54.54-3.78-.02-4.02-1.57-7.69-3.03-10.44-1.48-2.74-2.93-4.54-2.98-4.62l-1.95,1.56v2.5h35.27v-2.5l-2.31-.96c-.03.07-.66,1.59-1.29,3.9s-1.27,5.42-1.28,8.73c0,2.65.41,5.45,1.7,8.05.65,1.3,1.52,2.53,2.65,3.6,1.13,1.08,2.51,1.99,4.13,2.68l.98-2.3-2.5-.09c-.1,2.45-.72,4.43-1.71,6.09-.75,1.25-1.72,2.33-2.89,3.28-1.75,1.41-3.97,2.48-6.46,3.2-2.49.71-5.25,1.06-8.03,1.06-5.1.01-10.27-1.2-13.93-3.22-1.83-1-3.27-2.19-4.2-3.43-.94-1.25-1.39-2.49-1.4-3.92,0-.59.08-1.23.28-1.93l-2.41-.68.83,2.36-.83-2.36"/><path class="cls-4" d="m181.71,60.01c-3.79-10.01-16.7-16.09-41.53-16.09s-37.01,7.68-41.17,16.16c-3.93.63-8.72,5.19-8.72,12.05s9.13,15.42,13.64,16.52c6.61,18.71,19.45,34.28,36.52,34.28s29.48-16,36.19-34.15h0c4.05,0,14.54-9.26,14.54-16.65s-5.45-12.02-9.48-12.12"/><path class="cls-3" d="m181.71,60.01l2.34-.88c-1.08-2.86-2.84-5.47-5.23-7.69-3.59-3.34-8.57-5.82-14.95-7.49-6.4-1.67-14.22-2.54-23.69-2.54-12.91,0-22.5,1.94-29.55,5.13-7.04,3.16-11.52,7.62-13.86,12.44l2.24,1.1-.39-2.47c-1.38.22-2.7.76-3.95,1.53-1.87,1.17-3.57,2.89-4.83,5.09-1.26,2.2-2.06,4.89-2.05,7.91,0,2.28.73,4.45,1.78,6.48,1.59,3.04,3.95,5.81,6.4,8.01,1.23,1.1,2.49,2.05,3.71,2.81,1.24.76,2.42,1.34,3.66,1.65l.6-2.43-2.36.83c3.41,9.63,8.41,18.49,14.92,25.08,3.26,3.29,6.9,6,10.92,7.9,4.01,1.9,8.4,2.97,13.05,2.97,4.6,0,8.94-1.1,12.9-3.04,5.94-2.91,11.05-7.64,15.33-13.34,4.28-5.71,7.73-12.42,10.32-19.41l-2.35-.86-1.39,2.08c.42.28.89.42,1.39.42.98,0,1.84-.25,2.71-.59,1.51-.6,3.04-1.56,4.6-2.77,2.32-1.82,4.67-4.21,6.51-6.9.91-1.34,1.7-2.77,2.28-4.25.57-1.48.94-3.04.94-4.64,0-4.29-1.61-7.9-3.86-10.43-1.13-1.27-2.41-2.28-3.78-2.99-1.36-.72-2.81-1.16-4.29-1.2l-.07,2.5,2.34-.88-2.34.88-.06,2.51c.54,0,1.29.19,2.08.61,1.19.63,2.46,1.76,3.4,3.29.93,1.53,1.56,3.44,1.56,5.71.01,1.25-.47,2.85-1.39,4.52-1.36,2.49-3.64,5.05-5.86,6.89-1.11.92-2.2,1.66-3.1,2.13-.44.24-.84.41-1.15.51-.3.09-.51.11-.53.11v2.5l1.39-2.08h0c-.64-.43-1.43-.53-2.17-.3-.73.23-1.3.79-1.57,1.51-3.26,8.82-7.98,17.08-13.77,23.01-2.89,2.96-6.04,5.35-9.39,6.98-3.35,1.63-6.9,2.53-10.7,2.53s-7.51-.88-10.91-2.48c-5.1-2.4-9.71-6.49-13.66-11.72-3.94-5.23-7.19-11.58-9.6-18.4-.28-.8-.94-1.39-1.76-1.59-.3-.07-.78-.25-1.33-.54-.97-.5-2.18-1.32-3.38-2.35-1.82-1.53-3.65-3.53-4.96-5.57-.66-1.02-1.19-2.05-1.54-3.01-.35-.97-.53-1.86-.53-2.63,0-2.84.98-5.13,2.33-6.79.67-.83,1.44-1.49,2.2-1.96.76-.47,1.49-.74,2.09-.83.8-.13,1.49-.65,1.85-1.37,1.8-3.67,5.25-7.29,11.43-10.08,6.17-2.79,15.08-4.68,27.48-4.68s21.36,1.52,27.71,4.11c3.18,1.3,5.66,2.85,7.52,4.58,1.87,1.74,3.15,3.65,3.96,5.79.36.95,1.26,1.59,2.28,1.62l.06-2.51"/><path class="cls-4" d="m178.93,76.24c2-7.19,3.06-8.95,3.06-15.44-3.69-8.4-16.23-7.73-41.7-7.73s-40.03,2.49-41.36,7.18c0,6.97.99,8.85,2.88,15.99,0,0,13.14,7.57,24.69,5.39,5.39-1.02,8.99-7.24,13.36-7.24,3.44,0,9.44,5.94,13.75,6.64,12.92,2.07,25.32-4.79,25.32-4.79"/><path class="cls-3" d="m178.93,76.24l2.41.67c.98-3.54,1.75-5.76,2.31-8.08.56-2.32.86-4.67.85-8.04,0-.35-.07-.69-.21-1.01-.98-2.24-2.58-4.07-4.61-5.36-1.53-.98-3.28-1.68-5.23-2.2-2.94-.79-6.36-1.19-10.41-1.41-4.04-.22-8.7-.27-14.06-.27-3.01,0-6.23.02-9.69.02-12.82,0-22.92.62-30.16,1.86-3.63.63-6.53,1.41-8.8,2.44-1.14.53-2.12,1.11-2.96,1.86-.83.74-1.52,1.69-1.85,2.83-.06.22-.09.45-.09.68,0,3.59.27,6.06.79,8.46.53,2.4,1.24,4.66,2.17,8.17.17.65.59,1.2,1.17,1.53.08.05,2.69,1.55,6.66,3.06,3.97,1.51,9.28,3.05,14.88,3.06,1.61,0,3.24-.14,4.87-.44,1.76-.33,3.28-1.07,4.61-1.9,1.99-1.26,3.63-2.72,5.05-3.77.71-.52,1.35-.94,1.9-1.19.55-.26.98-.35,1.34-.35.07,0,.3.02.63.14.58.18,1.43.6,2.39,1.17,1.44.84,3.1,1.98,4.82,3,.86.51,1.74.99,2.65,1.4.91.4,1.85.73,2.86.9h0c1.83.3,3.65.42,5.42.42,5.86,0,11.18-1.38,15.07-2.72,3.89-1.36,6.34-2.71,6.43-2.76.58-.33,1.02-.88,1.2-1.52l-2.41-.67-1.21-2.19.24.44-.24-.44.24.44-.24-.44c-.05.03-2.32,1.26-5.83,2.47-3.51,1.21-8.27,2.39-13.26,2.39-1.53,0-3.08-.11-4.63-.35-.61-.09-1.6-.47-2.69-1.06-1.66-.89-3.55-2.19-5.42-3.33-.94-.57-1.89-1.1-2.85-1.52-.97-.41-1.98-.75-3.18-.76-.84,0-1.65.15-2.39.39-1.29.43-2.39,1.1-3.4,1.81-1.52,1.07-2.88,2.28-4.22,3.23-1.34.96-2.6,1.63-3.83,1.85-1.28.24-2.6.35-3.94.35-4.65.01-9.48-1.34-13.09-2.73-1.8-.69-3.31-1.38-4.35-1.9-.53-.25-.93-.47-1.2-.61-.14-.07-.23-.13-.3-.17l-.07-.04h-.02s-1.25,2.16-1.25,2.16l2.42-.64c-.96-3.63-1.67-5.89-2.11-7.96s-.67-4.03-.68-7.4h-2.51l2.41.68s.06-.19.39-.48c.27-.25.74-.57,1.4-.9,1.16-.57,2.88-1.15,5.08-1.65,3.31-.76,7.71-1.34,13.09-1.74s11.73-.6,19-.6c3.47,0,6.69-.01,9.69-.01,9.48-.01,16.62.14,21.47,1.1,2.42.48,4.24,1.15,5.53,1.97,1.29.84,2.11,1.79,2.73,3.17l2.29-1.01h-2.5c0,3.12-.24,4.89-.71,6.88-.47,1.98-1.24,4.24-2.27,7.9l2.42.67-1.21-2.19,1.21,2.19"/><path class="cls-3" d="m170.89,64.8c.45,2.07-4.68,1.03-10.44,2.3s-9.98,4.36-10.43,2.29c-.46-2.07,3.02-8.54,8.78-9.8,5.76-1.27,11.63,3.14,12.09,5.21"/><path class="cls-3" d="m130.87,68.76c-.32,2.1-4.73-.73-10.56-1.62-5.83-.9-10.88.47-10.56-1.63.32-2.09,5.9-6.86,11.72-5.97,5.83.9,9.72,7.13,9.4,9.22"/><path class="cls-3" d="m121.32,386.67h54.58v-25.53h-54.58v25.53"/><path class="cls-3" d="m121.32,386.67v2.5h54.58c.67,0,1.3-.26,1.77-.73s.74-1.1.74-1.77v-25.53c0-.66-.27-1.31-.74-1.77-.46-.47-1.11-.73-1.77-.73h-54.58c-.66,0-1.31.27-1.78.73s-.73,1.11-.73,1.77v25.53c0,.66.27,1.3.73,1.77.47.46,1.11.73,1.78.73v-2.5h2.5v-23.03h49.58v20.53h-52.08v2.51h2.5-2.5"/><path class="cls-3" d="m294.65,352.3c0,7.69-6.24,13.92-13.93,13.92H16.49c-7.69,0-13.93-6.23-13.93-13.92v-176.68c0-7.69,6.24-13.93,13.93-13.93h264.22c7.69,0,13.93,6.23,13.93,13.93v176.68"/><g class="cls-6"><path class="cls-3" d="m294.65,352.3h-2.51c0,3.16-1.27,6-3.35,8.07-2.07,2.07-4.92,3.34-8.08,3.34H16.49c-3.16,0-6.01-1.27-8.08-3.34-2.07-2.07-3.35-4.91-3.35-8.07v-176.68c0-3.16,1.28-6.01,3.35-8.08,2.08-2.07,4.92-3.34,8.08-3.34h264.22c3.16,0,6.01,1.27,8.08,3.34,2.08,2.07,3.35,4.91,3.35,8.08v176.68h5.01v-176.68c0-9.07-7.36-16.43-16.44-16.43H16.49c-4.53,0-8.66,1.84-11.62,4.81-2.97,2.96-4.82,7.08-4.82,11.61v176.68c0,4.53,1.84,8.65,4.82,11.61,2.96,2.97,7.09,4.82,11.62,4.81h264.22c4.53,0,8.66-1.84,11.63-4.81,2.97-2.96,4.82-7.08,4.81-11.61h-2.51"/></g><path class="cls-4" d="m283.3,330.53c0,6.57-5.75,11.91-12.85,11.91H26.77c-7.1,0-12.85-5.33-12.85-11.91v-148.23c0-6.58,5.76-11.91,12.85-11.91h243.68c7.1,0,12.85,5.33,12.85,11.91v148.23"/><path class="cls-3" d="m283.3,330.53h-2.5c0,2.54-1.1,4.85-2.96,6.58-1.86,1.72-4.46,2.82-7.39,2.82H26.77c-2.92,0-5.53-1.09-7.39-2.82-1.86-1.73-2.96-4.04-2.97-6.58v-148.23c0-2.55,1.1-4.85,2.97-6.58,1.86-1.72,4.46-2.82,7.39-2.82h243.68c2.93,0,5.53,1.1,7.39,2.82,1.86,1.73,2.96,4.04,2.96,6.58v148.23h5.01v-148.23c0-4.03-1.78-7.68-4.56-10.26-2.79-2.58-6.61-4.15-10.8-4.15H26.77c-4.18,0-8,1.57-10.79,4.15-2.79,2.58-4.57,6.23-4.57,10.26v148.23c0,4.03,1.78,7.68,4.57,10.25,2.79,2.58,6.61,4.16,10.79,4.16h243.68c4.18,0,8.01-1.57,10.8-4.16,2.79-2.57,4.57-6.22,4.56-10.25h-2.51"/><path class="cls-3" d="m230.3,349.97c0,1.28-1.04,2.32-2.32,2.32h-8.14c-1.28,0-2.32-1.04-2.32-2.32s1.05-2.32,2.32-2.32h8.14c1.28,0,2.32,1.04,2.32,2.32"/><path class="cls-3" d="m250.05,349.97c0,1.28-1.04,2.32-2.32,2.32h-8.14c-1.28,0-2.32-1.04-2.32-2.32s1.04-2.32,2.32-2.32h8.14c1.28,0,2.32,1.04,2.32,2.32"/><path class="cls-3" d="m269.79,349.97c0,1.28-1.04,2.32-2.32,2.32h-8.14c-1.28,0-2.32-1.04-2.32-2.32s1.04-2.32,2.32-2.32h8.14c1.28,0,2.32,1.04,2.32,2.32"/><path class="cls-3" d="m200.9,391.6c.08-.47.14-.95.14-1.45,0-4.65-3.77-8.41-8.42-8.41h-88.01c-4.65,0-8.42,3.77-8.42,8.41,0,.5.05.98.13,1.45h104.58"/><g class="cls-8"><path class="cls-3" d="m200.9,391.6l2.46.43c.1-.58.18-1.21.18-1.88,0-3.01-1.23-5.75-3.2-7.72-1.97-1.97-4.72-3.2-7.72-3.19h-88.01c-6.03,0-10.92,4.88-10.92,10.91,0,.67.07,1.29.17,1.87.2,1.2,1.24,2.08,2.47,2.08h104.58c1.21,0,2.26-.88,2.46-2.07l-2.46-.43v-2.51h-104.58v2.51l2.46-.42c-.06-.37-.09-.71-.09-1.04,0-1.64.66-3.1,1.73-4.18,1.08-1.07,2.54-1.72,4.18-1.73h88.01c1.64,0,3.1.66,4.18,1.73,1.07,1.08,1.73,2.54,1.73,4.18,0,.32-.04.66-.1,1.03l2.47.43v-2.51,2.51"/></g><path class="cls-4" d="m24.51,157.55c5.04-5.79,16.21-2.45,23.43,2.9l5.78,5.39s.16,3.42-4.83,3.13l-5.58-2.15s7.91,15.74-7.19,19.33c-10.56,2.51-14.02-12.01-14.22-19.17-.12-4.41.89-7.46,2.6-9.44"/><path class="cls-3" d="m24.51,157.55l1.89,1.64c.65-.74,1.42-1.26,2.37-1.63s2.08-.55,3.36-.55c2.16,0,4.71.56,7.23,1.54,2.52.97,5.01,2.36,7.09,3.91l1.49-2.01-1.71,1.82,5.79,5.4,1.7-1.83-2.5.05.97-.02h-.97v.02l.97-.02h-.97.67l-.67-.03v.03h.67l-.67-.03h.02-.02.02-.02l-.03.13c-.04.08-.05.12-.18.22-.15.09-.53.3-1.53.3-.13,0-.29,0-.45-.01l-.13,2.5.9-2.33-5.58-2.15c-.97-.37-2.06-.11-2.76.65-.7.77-.84,1.88-.39,2.81l.56-.28-.56.28h0s.56-.28.56-.28l-.56.28s.48,1,.94,2.41.87,3.29.87,5.1c0,.89-.1,1.77-.32,2.58-.34,1.22-.92,2.29-1.96,3.26-1.05.96-2.61,1.85-5.05,2.43-.65.16-1.23.22-1.77.22-.79,0-1.46-.14-2.09-.39-1.09-.43-2.09-1.24-3.02-2.43-1.38-1.76-2.47-4.32-3.17-6.95-.71-2.63-1.05-5.31-1.09-7.26-.01-.22-.02-.43-.02-.63,0-1.81.22-3.29.59-4.44.36-1.16.85-2.01,1.42-2.66l-1.89-1.64-1.89-1.64c-1.06,1.22-1.89,2.72-2.42,4.45-.54,1.73-.81,3.71-.81,5.93,0,.26,0,.51.01.77.05,1.81.29,3.98.76,6.26.71,3.42,1.92,7.1,4.02,10.14,1.05,1.51,2.34,2.88,3.96,3.89,1.6,1,3.54,1.61,5.65,1.6.95,0,1.92-.12,2.92-.35,2.06-.49,3.82-1.2,5.29-2.11,2.22-1.36,3.77-3.2,4.67-5.15.91-1.96,1.22-3.99,1.22-5.88,0-2.64-.59-5.02-1.16-6.78s-1.14-2.89-1.18-2.97l-2.23,1.13-.9,2.33,5.58,2.15c.24.09.51.15.77.16.24.01.48.02.72.02,1.31,0,2.45-.22,3.43-.66.73-.33,1.35-.78,1.82-1.28.72-.75,1.1-1.58,1.29-2.23.19-.67.21-1.18.21-1.45v-.08c-.02-.68-.3-1.31-.8-1.78l-5.78-5.39-.22-.19c-2.46-1.82-5.3-3.4-8.26-4.55-2.96-1.15-6.05-1.87-9.04-1.87-1.77,0-3.51.26-5.14.88-1.64.61-3.15,1.62-4.37,3.02h0l1.89,1.64"/><path class="cls-4" d="m265.2,157.55c-5.04-5.79-16.21-2.45-23.43,2.9l-5.79,5.39s-.15,3.42,4.83,3.13l5.58-2.15s-7.91,15.74,7.19,19.33c10.56,2.51,14.03-12.01,14.22-19.17.13-4.41-.88-7.46-2.6-9.44"/><path class="cls-3" d="m265.2,157.55l1.89-1.64c-1.21-1.4-2.73-2.41-4.36-3.02-1.64-.62-3.38-.88-5.14-.88-2.99,0-6.08.72-9.05,1.87-2.96,1.15-5.8,2.73-8.26,4.55l-.21.19-5.79,5.39c-.47.44-.75,1.03-.79,1.67v.19c0,.24.01.67.15,1.23.1.42.28.91.57,1.43.44.77,1.19,1.58,2.23,2.13,1.05.55,2.32.83,3.79.83.23,0,.47-.01.71-.02.26-.01.53-.07.77-.16l5.58-2.15-.9-2.33-2.24-1.13c-.04.08-.6,1.22-1.18,2.97-.57,1.76-1.16,4.14-1.16,6.78,0,1.26.14,2.57.5,3.9.54,1.98,1.61,3.98,3.4,5.63,1.78,1.64,4.2,2.89,7.29,3.62,1,.23,1.97.35,2.92.35,1.4,0,2.73-.26,3.94-.74,2.12-.84,3.8-2.31,5.12-4.01,1.98-2.56,3.23-5.67,4.06-8.72.82-3.05,1.2-6.05,1.27-8.42,0-.26.01-.52.01-.77,0-2.22-.27-4.19-.81-5.93-.54-1.73-1.36-3.23-2.42-4.45l-3.78,3.28c.57.65,1.06,1.5,1.42,2.66.36,1.15.59,2.63.59,4.44,0,.21,0,.42-.01.63-.04,1.49-.24,3.4-.65,5.39-.61,2.98-1.71,6.13-3.23,8.3-.76,1.09-1.6,1.94-2.49,2.49-.9.55-1.82.84-3,.85-.53,0-1.11-.06-1.77-.22-1.62-.39-2.86-.91-3.82-1.5-1.42-.89-2.23-1.89-2.77-3.02-.53-1.13-.75-2.42-.75-3.76,0-1.88.45-3.81.92-5.23.23-.71.46-1.3.63-1.7.09-.2.16-.35.2-.45l.05-.11v-.02s-.54-.27-.54-.27l.55.28h0s-.55-.28-.55-.28l.55.28c.47-.93.31-2.04-.38-2.81-.7-.77-1.79-1.02-2.76-.65l-5.58,2.15.9,2.33-.13-2.5c-.16.01-.32.01-.45.01-.76,0-1.17-.13-1.38-.22-.16-.07-.21-.13-.25-.16l-.1-.18-.02-.08-.63.03h.63v-.03l-.63.03h.63-2l1.99.13v-.13s-1.99,0-1.99,0l1.99.13-2.5-.16,1.71,1.83,5.78-5.4-1.71-1.82,1.49,2.01c2.09-1.55,4.58-2.93,7.09-3.91,2.52-.98,5.07-1.54,7.23-1.54,1.28,0,2.41.19,3.35.55.95.36,1.72.88,2.37,1.63l1.89-1.64"/><g class="cls-7"><path class="cls-3" d="m221.46,232.43c-9.92-31.74-39.67-53.89-73.07-53.89s-63.15,22.15-73.07,53.89c-3.64.66-6.28,3.64-6.28,7.6v29.76c0,3.64,2.65,6.94,6.28,7.6,9.59,31.41,39.02,53.89,73.07,53.89,14.55,0,28.77-4.3,41-11.9l10.25,14.88c1.65,2.65,5.29,3.31,7.93,1.32l15.21-10.58c2.65-1.66,3.31-5.29,1.32-7.94l-13.22-18.84c4.3-6.28,7.94-13.22,10.25-20.83,3.64-.66,6.28-3.64,6.28-7.6v-29.76c.33-3.96-2.31-6.94-5.95-7.6Zm-7.27,45.96c-.33-.33-.66-.66-.99-.99h1.32c-.33.33-.33.66-.33.99Zm-131.92-.66h23.15c.33,2.65.99,4.96,1.65,7.6h-21.49c-1.32-2.65-2.31-4.96-3.31-7.6Zm29.76,0h33.06v7.6h-31.41c-.66-2.65-.99-5.29-1.65-7.6Zm56.2,0l-.33,7.6h-16.2v-7.6h16.53Zm-23.14,14.22v32.73c-11.91-1.98-22.82-13.89-29.43-32.73h29.43Zm6.61,32.73v-32.73h15.87l-.99,16.53c0,1.98.99,3.97,2.65,4.96-5.29,6.28-11.24,9.92-17.53,11.24Zm19.51-57.86c-1.32.99-2.32,2.65-2.32,4.3h-92.24c-.66,0-.99-.33-.99-.99v-29.76c0-.66.33-.99.99-.99h143.16c.66,0,.99.33.99.99v29.76c0,.66-.33.99-.99.99h-27.77l-16.2-4.96c-1.32-.66-3.31-.33-4.63.66Zm-85.64-41.99h21.49c-.66,2.32-1.32,4.96-1.65,7.6h-23.15c.99-2.64,1.98-5.29,3.31-7.6Zm128.94,7.6h-23.14c-.33-2.64-.99-5.29-1.66-7.6h21.49c1.32,2.32,2.31,4.96,3.3,7.6Zm-29.76,0h-33.06v-7.6h31.41c.66,2.32.99,4.96,1.65,7.6Zm-33.06-14.21v-32.73c12.23,1.98,22.81,14.22,29.43,32.73h-29.43Zm-6.61-32.73v32.73h-29.43c6.61-18.52,17.19-31.08,29.43-32.73Zm0,39.34v7.6h-33.06c.66-2.64.99-5.29,1.65-7.6h31.41Zm62.48-6.61h-19.83c-3.97-12.23-9.92-22.15-16.86-29.09,15.21,4.96,28.1,15.21,36.7,29.09Zm-81.99-29.43c-6.94,6.94-12.89,17.19-16.86,29.43h-19.84c8.6-13.89,21.49-24.14,36.7-29.43Zm-36.36,103.16h19.51c3.97,12.23,9.59,22.15,16.53,29.09-14.88-5.62-27.77-15.87-36.04-29.09Zm81.99,29.09c2.97-2.97,5.62-6.28,7.93-9.92l2.97-1.98,3.64,4.96c-4.63,2.65-9.59,4.96-14.55,6.94Zm33.72,8.6c-.33-.33-18.84-26.78-17.52-25.46-.99-1.32-2.31-1.98-3.64-2.32-1.66-.33-2.98,0-4.3.99-.33.33-6.29,4.3-5.95,3.96.66-10.91,1.32-24.14,1.98-34.38l32.73,9.92-5.95,3.97c-2.65,1.65-3.31,5.29-1.32,7.93.66.66,18.18,26.12,17.52,25.46l-13.56,9.92Zm1.98-37.69h.99c0,.33-.33.33-.33.66l-.66-.66Z"/></g><path class="cls-3" d="m104.09,259.87l-4.96-14.88h-4.3l-4.63,14.88-4.96-14.88h-4.3l6.94,19.51h4.63l4.63-13.22,4.63,13.22h4.63l6.61-19.51h-3.97l-4.96,14.88Z"/><path class="cls-3" d="m137.49,259.87l-4.96-14.88h-3.96l-4.96,14.88-4.96-14.88h-4.3l6.94,19.51h4.63l4.63-13.22,4.63,13.22h4.63l6.94-19.51h-4.3l-4.96,14.88Z"/><path class="cls-3" d="m175.84,244.99l-4.96,14.88-4.63-14.88h-4.3l-4.96,14.88-4.96-14.88h-4.3l6.95,19.51h4.63l4.63-13.22,4.63,13.22h4.63l6.94-19.51h-4.3Z"/><path class="cls-3" d="m184.77,264.83c.66,0,1.32-.33,1.98-.66.66-.66.66-1.32.66-1.98s-.33-1.32-.66-1.98c-.66-.66-1.32-.66-1.98-.66s-1.32.33-1.98.66c-.66.66-.66,1.32-.66,1.98s.33,1.32.66,1.98c.66.33,1.32.66,1.98.66Z"/></svg>