<?xml version="1.0" encoding="utf-8"?>
<!-- Generator: Adobe Illustrator 27.8.1, SVG Export Plug-In . SVG Version: 6.00 Build 0)  -->
<svg version="1.1" id="Layer_1" xmlns="http://www.w3.org/2000/svg" xmlns:xlink="http://www.w3.org/1999/xlink" x="0px" y="0px"
	 viewBox="0 0 421 408" style="enable-background:new 0 0 421 408;" xml:space="preserve">
<style type="text/css">
	.st0{fill:#203E5F;}
	.st1{clip-path:url(#SVGID_00000168094739192718851170000010831276078548952753_);}
	.st2{fill:#FFFFFF;}
	.st3{clip-path:url(#SVGID_00000149368395245085642200000005138031582861966756_);}
	.st4{clip-path:url(#SVGID_00000145047767990752382890000007881688159446353314_);}
	.st5{fill:#EB3455;}
	.st6{clip-path:url(#SVGID_00000101810569688642026320000005046062725597374110_);}
	.st7{clip-path:url(#SVGID_00000115499210819431590310000003684086750657109165_);}
</style>
<path class="st0" d="M103.5,4.1c-39.2,0-70.9,29.2-70.9,65.3v7.6c0,6.1-4,11.6-10.1,14c-9.6,3.6-16.3,12.3-16.3,22.5
	s6.7,18.8,16.3,22.5c6.1,2.3,10.1,7.9,10.1,14v0c0,6.1-4,11.6-10.1,14c-9.6,3.6-16.3,12.3-16.3,22.5c0,13.4,11.8,24.3,26.4,24.3
	h165.9c14.6,0,26.4-10.9,26.4-24.3c0-10.1-6.7-18.8-16.3-22.5c-6.1-2.3-10.1-7.9-10.1-14v0c0-6.1,4-11.6,10.1-14
	c9.6-3.6,16.3-12.3,16.3-22.5s-6.7-18.8-16.3-22.5c-6.1-2.3-10.1-7.9-10.1-14v-7.6c0-36.1-31.8-65.3-70.9-65.3H103.5"/>
<g>
	<defs>
		<rect id="SVGID_1_" x="0.9" width="229.3" height="214.9"/>
	</defs>
	<clipPath id="SVGID_00000048477569904442100210000016915052261337380796_">
		<use xlink:href="#SVGID_1_"  style="overflow:visible;"/>
	</clipPath>
	<g style="clip-path:url(#SVGID_00000048477569904442100210000016915052261337380796_);">
		<path class="st0" d="M103.5,8.2c-36.8,0-66.8,27.5-66.8,61.2v7.6c0,3.9-1.2,7.6-3.5,10.8c-2.3,3.2-5.5,5.6-9.2,7
			c-8.3,3.2-13.7,10.5-13.7,18.6s5.4,15.5,13.7,18.6c3.8,1.4,6.9,3.9,9.2,7c2.3,3.2,3.5,6.9,3.5,10.8v0c0,3.9-1.2,7.6-3.5,10.8
			c-2.3,3.2-5.5,5.6-9.2,7c-8.3,3.2-13.7,10.5-13.7,18.6c0,11.1,10,20.2,22.3,20.2h165.9c12.3,0,22.3-9.1,22.3-20.2
			c0-8.2-5.4-15.5-13.7-18.6c-3.8-1.4-6.9-3.8-9.2-7c-2.3-3.2-3.5-6.9-3.5-10.8v0c0-3.9,1.2-7.6,3.5-10.8c2.3-3.2,5.5-5.6,9.2-7
			c8.3-3.2,13.7-10.5,13.7-18.6s-5.4-15.5-13.7-18.6c-3.8-1.4-6.9-3.9-9.2-7c-2.3-3.2-3.5-6.9-3.5-10.8v-7.6
			c0-33.8-30-61.2-66.8-61.2H103.5z M198.5,214.8H32.6c-8.1,0-15.7-2.9-21.4-8.2c-5.8-5.4-9.1-12.5-9.1-20.2
			c0-5.8,1.9-11.3,5.4-16.1c3.4-4.6,8.1-8.1,13.6-10.2c4.5-1.7,7.4-5.7,7.4-10.1v0c0-4.4-2.9-8.4-7.4-10.1
			c-5.5-2.1-10.2-5.6-13.6-10.2c-3.5-4.7-5.4-10.3-5.4-16.1c0-5.8,1.9-11.4,5.4-16.1c3.4-4.6,8.1-8.1,13.6-10.2
			c4.5-1.7,7.4-5.7,7.4-10.1v-7.6c0-9.4,2-18.5,5.9-27.1c3.8-8.3,9.2-15.7,16.1-22.1c6.9-6.3,14.9-11.3,23.8-14.8
			c9.2-3.6,19-5.4,29.1-5.4h24.1c10.1,0,19.9,1.8,29.1,5.4c8.9,3.5,16.9,8.5,23.8,14.8c6.9,6.4,12.3,13.8,16.1,22.1
			c3.9,8.6,5.9,17.7,5.9,27.1v7.6c0,4.4,2.9,8.4,7.4,10.1c5.5,2.1,10.2,5.6,13.6,10.2c3.5,4.7,5.4,10.3,5.4,16.1
			c0,5.8-1.9,11.4-5.4,16.1c-3.4,4.6-8.1,8.1-13.6,10.2c-4.5,1.7-7.4,5.7-7.4,10.1v0c0,4.4,2.9,8.4,7.4,10.1
			c5.5,2.1,10.2,5.6,13.6,10.2c3.5,4.8,5.4,10.3,5.4,16.1c0,7.7-3.2,14.8-9.1,20.2C214.2,211.9,206.6,214.8,198.5,214.8"/>
	</g>
</g>
<path class="st2" d="M402.3,78H270.8c-8.1,0-14.6,6.5-14.6,14.6v131.2c0,8,6.5,14.6,14.6,14.6h33.5v33.5c0,6.2,7.3,9.6,12.1,5.5
	l45.5-39.1h40.4c8.1,0,14.6-6.5,14.6-14.6V92.6C416.9,84.6,410.3,78,402.3,78"/>
<g>
	<defs>
		<rect id="SVGID_00000031186381988611939300000011400527096369211791_" x="252" y="73.9" width="169" height="209.5"/>
	</defs>
	<clipPath id="SVGID_00000053543320028711746250000008906632504146019479_">
		<use xlink:href="#SVGID_00000031186381988611939300000011400527096369211791_"  style="overflow:visible;"/>
	</clipPath>
	<g style="clip-path:url(#SVGID_00000053543320028711746250000008906632504146019479_);">
		<path class="st0" d="M270.8,82.1c-5.8,0-10.5,4.7-10.5,10.5v131.2c0,5.8,4.7,10.5,10.5,10.5h33.5c2.3,0,4.1,1.8,4.1,4.1v33.5
			c0,1.8,1.3,2.6,1.9,2.9c0.6,0.3,2,0.7,3.4-0.5l45.5-39.1c0.7-0.6,1.7-1,2.7-1h40.4c5.8,0,10.5-4.7,10.5-10.5V92.6
			c0-5.8-4.7-10.5-10.5-10.5H270.8z M311.6,283.3c-1.6,0-3.2-0.3-4.8-1.1c-4.1-1.9-6.7-5.8-6.7-10.3v-29.4h-29.4
			c-10.3,0-18.7-8.4-18.7-18.7V92.6c0-10.3,8.4-18.7,18.7-18.7h131.5c10.3,0,18.7,8.4,18.7,18.7v131.2c0,10.3-8.4,18.7-18.7,18.7
			h-38.9L319,280.6C316.9,282.4,314.3,283.3,311.6,283.3"/>
	</g>
</g>
<path class="st0" d="M226.8,403.6V299.5c0-47.8-36.9-86.9-84.3-88.8l-52.7,0.1c-47.5,1.9-85.4,40.9-85.4,88.7L4.1,403.9L226.8,403.6
	"/>
<g>
	<defs>
		<rect id="SVGID_00000124160797997446419020000003009173531265188736_" x="0" y="206.6" width="230.9" height="201.4"/>
	</defs>
	<clipPath id="SVGID_00000083797268637422696840000015771601624447715479_">
		<use xlink:href="#SVGID_00000124160797997446419020000003009173531265188736_"  style="overflow:visible;"/>
	</clipPath>
	<g style="clip-path:url(#SVGID_00000083797268637422696840000015771601624447715479_);">
		<path class="st0" d="M4.1,408L4.1,408c-2.3,0-4.1-1.8-4.1-4.1l0.2-104.4c0-24.1,9.2-47,26-64.4c8.2-8.5,17.7-15.2,28.4-20.1
			c11-5,22.8-7.8,34.9-8.3c0.1,0,0.1,0,0.2,0l52.7-0.1c0.1,0,0.1,0,0.2,0c24,0.9,46.3,11,62.8,28.4c16.4,17.3,25.5,40.2,25.5,64.4
			v104.2c0,2.3-1.8,4.1-4.1,4.1c-2.3,0-4.1-1.8-4.1-4.1V299.5c0-45.7-35.3-82.8-80.3-84.7l-52.6,0.1c-45.6,1.8-81.4,39-81.4,84.6
			L8.2,403.9C8.2,406.1,6.4,408,4.1,408"/>
	</g>
</g>
<path class="st2" d="M91.8,185.5v17.6c0,13.9,11.3,25.2,25.3,25.2c14,0,25.3-11.3,25.3-25.2v-17.6H91.8"/>
<path class="st0" d="M117.1,232.5c-7.9,0-15.2-3.1-20.8-8.6c-5.6-5.5-8.6-12.9-8.6-20.8v-17.6c0-2.3,1.8-4.1,4.1-4.1
	c2.3,0,4.1,1.8,4.1,4.1v17.6c0,11.7,9.5,21.1,21.2,21.1c11.7,0,21.2-9.5,21.2-21.1v-17.6c0-2.3,1.8-4.1,4.1-4.1
	c2.3,0,4.1,1.8,4.1,4.1v17.6c0,7.8-3.1,15.2-8.6,20.8C132.3,229.4,124.9,232.5,117.1,232.5"/>
<path class="st2" d="M53,133.8c-9.2-3.2-15.6-11.9-15.6-22.2c0-13,10.5-23.5,23.5-23.5l-1.1,0l20.4,0c20,0,36.3-16.2,36.3-36.2v-6v6
	c0,20,16.2,36.2,36.3,36.2l3.9,0H174c12.8,0.2,23.2,10.6,23.2,23.5s-10.4,23.3-23.2,23.5v6.3c0,25.8-21,46.7-46.8,46.7h-19.3
	c-20.7,0-38.2-14.4-44.4-32.9L53,133.8"/>
<path class="st0" d="M127.2,192.2h-19.3c-10.8,0-21.3-3.6-30.1-10.3c-8.4-6.4-14.9-15.4-18.2-25.4c-0.7-2.1,0.4-4.5,2.6-5.2
	c2.2-0.7,4.5,0.4,5.2,2.6c5.9,17.7,22.6,30.1,40.5,30.1h19.3c23.6,0,42.7-19.1,42.7-42.6v-6.2c0-2.2,1.8-4.1,4-4.1
	c10.6-0.2,19.2-8.8,19.2-19.4c0-10.5-8.6-19.2-19.1-19.4h-17.2l-3.9,0c0,0,0,0,0,0c-10.8,0-20.9-4.2-28.6-11.8
	c-3.2-3.2-5.8-6.8-7.7-10.7c-1.9,3.9-4.5,7.6-7.7,10.7c-7.6,7.6-17.8,11.8-28.6,11.8l-20.1,0c-10.3,0.4-18.6,9-18.6,19.4
	c0,8.3,5.1,15.6,12.8,18.3c2.1,0.7,3.3,3.1,2.5,5.2c-0.7,2.1-3.1,3.3-5.2,2.5c-5.4-1.9-9.9-5.3-13.2-9.9c-3.3-4.7-5.1-10.2-5.1-16.1
	c0-14.7,11.5-26.7,26-27.5c0.1,0,0.3,0,0.4,0l0.4,0c0.3,0,0.6,0,0.8,0c0.1,0,0.3,0,0.4,0l18.8,0c17.7,0,32.2-14.4,32.2-32.1v-6
	c0-2.3,1.8-4.1,4.1-4.1c2.3,0,4.1,1.8,4.1,4.1v6c0,17.7,14.4,32.1,32.2,32.1l3.9,0c0,0,0,0,0,0H174c0,0,0,0,0.1,0
	c7.3,0.1,14.2,3,19.3,8.2c5.1,5.2,8,12.1,8,19.4s-2.8,14.2-8,19.4c-4.2,4.2-9.5,6.9-15.2,7.8v2.5c0,6.9-1.3,13.5-4,19.8
	c-2.6,6-6.2,11.5-10.9,16.2c-4.7,4.7-10.1,8.3-16.2,10.9C140.7,190.8,134,192.2,127.2,192.2"/>
<path class="st5" d="M334.5,205.1l-34-29.9c-15-15-17.3-23.7-14.7-33.9c1.9-7.7,7.2-16.6,19.8-20.1c10.5-2.9,21.9,2.5,29.7,10.1
	c0.1,0.1,0.1,0.1,0.2,0.2c0.1-0.1,0.1-0.1,0.2-0.2c7.8-7.7,19.1-13.1,29.7-10.1c12.6,3.5,17.9,12.4,19.8,20.1
	c2.6,10.2,1.2,18-15.1,34.3l-33.6,29.6C335.8,205.5,335,205.5,334.5,205.1"/>
<path class="st0" d="M303.3,172.2l32.1,28.3l31.7-27.9c16-16,15.9-22.4,13.9-30.3c-1.5-6.1-5.7-14-16.9-17.1
	c-9.4-2.6-19.4,3-25.7,9.1l-0.2,0.2l-2.9,2.9l-2.9-2.9c-0.1-0.1-0.1-0.1-0.2-0.2c-6.2-6.1-16.2-11.8-25.7-9.1
	c-11.2,3.1-15.4,11.1-16.9,17.1C287.6,150.7,289.2,158,303.3,172.2z M337.2,202L337.2,202L337.2,202C337.2,202,337.2,202,337.2,202z
	 M335.4,209.5c-1.3,0-2.6-0.5-3.7-1.4l-34.1-30l-0.1-0.1c-7.7-7.7-12.5-14.1-14.9-20.1c-2.3-5.7-2.6-11.2-1-17.7
	c1.3-5.1,3.6-9.6,6.8-13.3c4-4.6,9.4-7.9,15.9-9.7c5.7-1.6,12.1-1.2,18.4,1.2c4.4,1.7,8.7,4.2,12.5,7.5c3.9-3.3,8.1-5.8,12.5-7.5
	c6.3-2.4,12.7-2.8,18.4-1.2c6.5,1.8,11.9,5.1,15.9,9.7c3.2,3.7,5.5,8.2,6.8,13.3c1.2,4.7,2,10.5-0.6,17.4c-2.4,6-7.1,12.4-15.5,20.8
	l-0.2,0.2l-33.6,29.6C338,209,336.7,209.5,335.4,209.5"/>
<path class="st0" d="M335.4,209.5c-2,0-3.7-1.4-4.1-3.4l-4.2-26.3c-0.2-1.1,0.1-2.1,0.7-3l7.8-11l-11.6-13.3
	c-1.1-1.2-1.3-2.9-0.6-4.4l8.4-18.5c0.9-2.1,3.4-3,5.4-2c2.1,0.9,3,3.4,2,5.4l-7.3,16.1l11.9,13.7c1.2,1.4,1.3,3.5,0.3,5.1
	l-8.7,12.3l4,24.6c0.4,2.2-1.2,4.3-3.4,4.7C335.9,209.5,335.7,209.5,335.4,209.5"/>
<path class="st0" d="M158.1,264.9c30.7,23.5,36.5,67.4,12.9,98.1c-23.6,30.6-67.6,36.4-98.3,12.9c-30.7-23.5-36.5-67.4-12.9-98
	S127.4,241.4,158.1,264.9"/>
<path class="st0" d="M115.5,254.6c-19.8,0-39.4,8.8-52.4,25.7c-10.7,13.9-15.4,31.2-13.1,48.7c2.3,17.4,11.2,32.9,25.2,43.6
	c28.8,22.1,70.3,16.7,92.5-12.1c22.2-28.8,16.7-70.2-12.1-92.3C143.7,259,129.5,254.6,115.5,254.6z M115.3,394.4
	c-6.3,0-12.5-0.8-18.6-2.4c-9.6-2.5-18.5-6.8-26.4-12.9c-7.9-6.1-14.5-13.5-19.3-22.2c-4.7-8.3-7.8-17.4-9-26.9
	c-1.3-9.5-0.7-19.1,1.8-28.3c2.5-9.6,6.9-18.5,13-26.4c6.1-7.9,13.6-14.4,22.2-19.3c8.3-4.7,17.4-7.7,27-9s19.1-0.7,28.4,1.8
	c9.6,2.5,18.5,6.9,26.5,12.9c7.9,6.1,14.4,13.5,19.3,22.2c4.7,8.3,7.8,17.4,9,26.9c1.3,9.5,0.7,19.1-1.8,28.3
	c-2.5,9.6-6.9,18.5-13,26.4c-6.1,7.9-13.6,14.4-22.2,19.3c-8.3,4.7-17.4,7.7-27,9C121.8,394.2,118.6,394.4,115.3,394.4"/>
<path class="st0" d="M126.5,359.5h-22.2c-2.3,0-4.1-1.8-4.1-4.1c0-2.3,1.8-4.1,4.1-4.1h22.2c4.6,0,8.4-3.7,8.4-8.3v-10.2
	c0-4.6-3.8-8.3-8.4-8.3h-22.2c-9.1,0-16.6-7.4-16.6-16.5v-10.2c0-9.1,7.4-16.5,16.6-16.5h22.2c2.3,0,4.1,1.8,4.1,4.1
	c0,2.3-1.8,4.1-4.1,4.1h-22.2c-4.6,0-8.3,3.7-8.3,8.3v10.2c0,4.6,3.7,8.3,8.3,8.3h22.2c9.1,0,16.6,7.4,16.6,16.5V343
	C143.1,352.1,135.6,359.5,126.5,359.5"/>
<path class="st0" d="M115.4,376.1c-2.3,0-4.1-1.8-4.1-4.1v-16.6c0-2.3,1.8-4.1,4.1-4.1c2.3,0,4.1,1.8,4.1,4.1V372
	C119.5,374.3,117.7,376.1,115.4,376.1"/>
<path class="st0" d="M115.4,289.4c-2.3,0-4.1-1.8-4.1-4.1v-16.6c0-2.3,1.8-4.1,4.1-4.1c2.3,0,4.1,1.8,4.1,4.1v16.6
	C119.5,287.5,117.7,289.4,115.4,289.4"/>
<path class="st0" d="M66.8,373.6c-1,0-2.1-0.4-2.9-1.2c-1.6-1.6-1.6-4.2,0-5.8l98.5-98.2c1.6-1.6,4.2-1.6,5.8,0
	c1.6,1.6,1.6,4.2,0,5.8l-98.5,98.2C68.9,373.2,67.8,373.6,66.8,373.6"/>
<path class="st2" d="M66.3,155.2c11.4,0,18.5-12.3,12.8-22.1l-12.8-22.1L53.5,133C47.8,142.9,54.9,155.2,66.3,155.2"/>
<path class="st0" d="M66.3,119.1l-9.2,16c-1.9,3.3-1.9,7.3,0,10.7c1.9,3.3,5.4,5.3,9.2,5.3s7.3-2,9.2-5.3c1.9-3.3,1.9-7.3,0-10.7
	L66.3,119.1z M66.3,159.3c-6.8,0-12.9-3.5-16.4-9.4c-3.4-5.9-3.4-13,0-18.9l12.8-22.1c0.7-1.3,2.1-2,3.6-2s2.8,0.8,3.6,2L82.6,131
	c3.4,5.9,3.4,12.9,0,18.9C79.2,155.8,73.1,159.3,66.3,159.3"/>
<path class="st0" d="M99.8,162.1c-1.1,0-2.1-0.4-2.9-1.2c-1.6-1.6-1.6-4.2,0-5.8c10.3-10.2,27-10.2,37.3,0c1.6,1.6,1.6,4.2,0,5.8
	c-1.6,1.6-4.2,1.6-5.8,0c-7.1-7.1-18.6-7.1-25.6,0C101.9,161.7,100.8,162.1,99.8,162.1"/>
<g>
	<defs>
		<rect id="SVGID_00000148624159242618433940000008607313372561487772_" x="42.8" y="253.5" width="140.3" height="140.3"/>
	</defs>
	<clipPath id="SVGID_00000073681460555187234710000012431431953440939438_">
		<use xlink:href="#SVGID_00000148624159242618433940000008607313372561487772_"  style="overflow:visible;"/>
	</clipPath>
	<g style="clip-path:url(#SVGID_00000073681460555187234710000012431431953440939438_);">
		<g>
			<defs>
				<path id="SVGID_00000183962231639812198700000009677650815151753105_" d="M113,253.5c-38.8,0-70.2,31.4-70.2,70.2
					s31.4,70.2,70.2,70.2s70.2-31.4,70.2-70.2S151.7,253.5,113,253.5"/>
			</defs>
			<clipPath id="SVGID_00000098909150818181969470000017531040941688915368_">
				<use xlink:href="#SVGID_00000183962231639812198700000009677650815151753105_"  style="overflow:visible;"/>
			</clipPath>
			<g style="clip-path:url(#SVGID_00000098909150818181969470000017531040941688915368_);">
				<path class="st0" d="M42.8,253.5h140.3v140.3H42.8V253.5z"/>
			</g>
		</g>
	</g>
</g>
</svg>
