<?xml version="1.0" encoding="utf-8"?>
<!-- Generator: Adobe Illustrator 27.8.1, SVG Export Plug-In . SVG Version: 6.00 Build 0)  -->
<svg version="1.1" id="Layer_1" xmlns="http://www.w3.org/2000/svg" xmlns:xlink="http://www.w3.org/1999/xlink" x="0px" y="0px"
	 viewBox="0 0 418 418.8" style="enable-background:new 0 0 418 418.8;" xml:space="preserve">
<style type="text/css">
	.st0{fill:#203E5F;}
	.st1{clip-path:url(#SVGID_00000105408054776216855470000008125374000665105320_);}
	.st2{clip-path:url(#SVGID_00000145047129127144170800000009448832987351342723_);}
	.st3{clip-path:url(#SVGID_00000148661210216071026100000008161634934850275981_);}
	.st4{fill:#EB3455;}
	.st5{clip-path:url(#SVGID_00000083782160599339757840000018015400618813303693_);}
	.st6{clip-path:url(#SVGID_00000123420191213043782230000000074380949919422902_);}
</style>
<path class="st0" d="M350.5,282.6c-4,0-7.9,0.3-11.8,1c-3.9,0.7-7.7,1.7-11.4,3.1s-7.3,3.1-10.7,5.1c-3.4,2-6.6,4.3-9.7,6.9
	l-13.3-13.3c1.2-1.3,2.3-2.6,3.4-3.9c1.1-1.3,2.2-2.7,3.2-4.1c1.1-1.4,2.1-2.8,3.1-4.2c1-1.4,1.9-2.9,2.9-4.4c0.9-1.5,1.8-3,2.7-4.5
	c0.8-1.5,1.7-3.1,2.4-4.6c0.8-1.6,1.5-3.1,2.2-4.7c0.7-1.6,1.4-3.2,2-4.8c0.6-1.6,1.2-3.3,1.8-4.9c0.6-1.7,1.1-3.3,1.6-5
	c0.5-1.7,0.9-3.4,1.3-5.1c0.4-1.7,0.8-3.4,1.1-5.1c0.3-1.7,0.6-3.4,0.8-5.2c0.2-1.7,0.4-3.5,0.6-5.2c0.2-1.7,0.3-3.5,0.4-5.2
	c0.1-1.7,0.1-3.5,0.1-5.2s0-3.5-0.1-5.2c-0.1-1.7-0.2-3.5-0.4-5.2c-0.2-1.7-0.4-3.5-0.6-5.2c-0.2-1.7-0.5-3.4-0.8-5.2
	c-0.3-1.7-0.7-3.4-1.1-5.1c-0.4-1.7-0.8-3.4-1.3-5.1c-0.5-1.7-1-3.3-1.6-5c-0.6-1.7-1.1-3.3-1.8-4.9c-0.6-1.6-1.3-3.2-2-4.8
	c-0.7-1.6-1.4-3.2-2.2-4.7c-0.8-1.6-1.6-3.1-2.4-4.6c-0.8-1.5-1.7-3-2.7-4.5c-0.9-1.5-1.9-2.9-2.9-4.4c-1-1.4-2-2.9-3.1-4.2
	c-1.1-1.4-2.1-2.8-3.2-4.1c-1.1-1.3-2.3-2.7-3.4-3.9l13.2-13.2c1.1,0.9,2.2,1.8,3.4,2.7c1.2,0.9,2.3,1.7,3.6,2.4
	c1.2,0.8,2.4,1.5,3.7,2.2c1.3,0.7,2.5,1.4,3.8,2c1.3,0.6,2.6,1.2,4,1.7c1.3,0.5,2.7,1,4.1,1.5c1.4,0.4,2.8,0.8,4.1,1.2
	c1.4,0.4,2.8,0.7,4.2,0.9c1.4,0.3,2.8,0.5,4.3,0.7c1.4,0.2,2.9,0.3,4.3,0.4s2.9,0.1,4.3,0.1c1.4,0,2.9-0.1,4.3-0.2s2.9-0.2,4.3-0.4
	c1.4-0.2,2.8-0.4,4.3-0.7c1.4-0.3,2.8-0.6,4.2-1c1.4-0.4,2.8-0.8,4.1-1.2c1.4-0.5,2.7-1,4-1.5c1.3-0.5,2.7-1.1,3.9-1.8
	s2.6-1.3,3.8-2c1.3-0.7,2.5-1.5,3.7-2.2c1.2-0.8,2.4-1.6,3.5-2.5c1.2-0.9,2.3-1.8,3.4-2.7c1.1-0.9,2.2-1.9,3.2-2.9c1-1,2-2,3-3.1
	s1.9-2.2,2.8-3.3c0.9-1.1,1.8-2.3,2.6-3.5c0.8-1.2,1.6-2.4,2.4-3.6c0.8-1.2,1.5-2.5,2.1-3.8c0.7-1.3,1.3-2.6,1.9-3.9
	c0.6-1.3,1.1-2.7,1.6-4c0.5-1.3,1-2.7,1.4-4.1c0.4-1.4,0.8-2.8,1.1-4.2c0.3-1.4,0.6-2.8,0.8-4.2c0.2-1.4,0.4-2.8,0.6-4.3
	c0.1-1.4,0.2-2.9,0.3-4.3c0.1-1.4,0.1-2.9,0-4.3c0-1.4-0.1-2.9-0.2-4.3c-0.1-1.4-0.3-2.9-0.5-4.3c-0.2-1.4-0.5-2.8-0.8-4.2
	c-0.3-1.4-0.7-2.8-1.1-4.2c-0.4-1.4-0.8-2.8-1.3-4.1c-0.5-1.4-1-2.7-1.6-4c-0.6-1.3-1.2-2.6-1.8-3.9s-1.4-2.5-2.1-3.8
	c-0.7-1.2-1.5-2.4-2.3-3.6c-0.8-1.2-1.7-2.3-2.6-3.5c-0.9-1.1-1.8-2.2-2.8-3.3c-1-1.1-1.9-2.1-3-3.1c-1-1-2.1-2-3.2-2.9
	s-2.2-1.9-3.3-2.7c-1.1-0.9-2.3-1.7-3.5-2.5c-1.2-0.8-2.4-1.6-3.7-2.3c-1.2-0.7-2.5-1.4-3.8-2c-1.3-0.6-2.6-1.2-3.9-1.8
	c-1.3-0.6-2.7-1.1-4-1.5s-2.7-0.9-4.1-1.3c-1.4-0.4-2.8-0.7-4.2-1s-2.8-0.5-4.3-0.7c-1.4-0.2-2.9-0.4-4.3-0.5
	c-1.4-0.1-2.9-0.2-4.3-0.2c-1.4,0-2.9,0-4.3,0.1s-2.9,0.2-4.3,0.4c-1.4,0.2-2.9,0.4-4.3,0.6c-1.4,0.3-2.8,0.6-4.2,0.9
	c-1.4,0.3-2.8,0.7-4.2,1.2c-1.4,0.4-2.7,0.9-4.1,1.4c-1.3,0.5-2.7,1.1-4,1.7c-1.3,0.6-2.6,1.2-3.9,1.9s-2.5,1.4-3.7,2.2
	s-2.4,1.6-3.6,2.4c-1.2,0.8-2.3,1.7-3.4,2.6c-1.1,0.9-2.2,1.9-3.2,2.8c-1.1,1-2.1,2-3.1,3.1c-1,1-1.9,2.1-2.9,3.2
	c-0.9,1.1-1.8,2.2-2.6,3.4c-0.8,1.2-1.7,2.4-2.4,3.6c-0.8,1.2-1.5,2.5-2.2,3.7s-1.3,2.6-1.9,3.9c-0.6,1.3-1.2,2.6-1.7,4
	c-0.5,1.3-1,2.7-1.4,4.1c-0.4,1.4-0.8,2.8-1.2,4.2c-0.3,1.4-0.7,2.8-0.9,4.2c-0.3,1.4-0.5,2.8-0.6,4.3c-0.2,1.4-0.3,2.9-0.4,4.3
	c-0.1,1.4-0.1,2.9-0.1,4.3c0,1.4,0.1,2.9,0.2,4.3c0.1,1.4,0.3,2.9,0.5,4.3c0.2,1.4,0.4,2.8,0.7,4.3c0.3,1.4,0.6,2.8,1,4.2
	c0.4,1.4,0.8,2.8,1.3,4.1c0.5,1.4,1,2.7,1.5,4c0.6,1.3,1.2,2.6,1.8,3.9c0.6,1.3,1.3,2.6,2,3.8c0.7,1.2,1.5,2.5,2.3,3.7
	c0.8,1.2,1.6,2.4,2.5,3.5c0.9,1.1,1.8,2.3,2.7,3.4l-13.2,13.2c-1.3-1.2-2.6-2.3-3.9-3.4s-2.7-2.2-4.1-3.2c-1.4-1.1-2.8-2.1-4.2-3.1
	s-2.9-1.9-4.4-2.9c-1.5-0.9-3-1.8-4.5-2.7c-1.5-0.8-3.1-1.7-4.6-2.4c-1.6-0.8-3.1-1.5-4.7-2.2c-1.6-0.7-3.2-1.4-4.8-2
	c-1.6-0.6-3.3-1.2-4.9-1.8c-1.7-0.6-3.3-1.1-5-1.6c-1.7-0.5-3.4-0.9-5.1-1.3c-1.7-0.4-3.4-0.8-5.1-1.1c-1.7-0.3-3.4-0.6-5.2-0.8
	c-1.7-0.2-3.5-0.4-5.2-0.6c-1.7-0.2-3.5-0.3-5.2-0.4c-1.7-0.1-3.5-0.1-5.2-0.1c-1.7,0-3.5,0-5.2,0.1c-1.7,0.1-3.5,0.2-5.2,0.4
	c-1.7,0.2-3.5,0.4-5.2,0.6c-1.7,0.2-3.5,0.5-5.2,0.8c-1.7,0.3-3.4,0.7-5.1,1.1c-1.7,0.4-3.4,0.8-5.1,1.3c-1.7,0.5-3.3,1-5,1.6
	c-1.7,0.6-3.3,1.1-4.9,1.8c-1.6,0.6-3.2,1.3-4.8,2c-1.6,0.7-3.2,1.4-4.7,2.2c-1.6,0.8-3.1,1.6-4.6,2.4c-1.5,0.8-3,1.7-4.5,2.7
	c-1.5,0.9-2.9,1.9-4.4,2.9s-2.9,2-4.2,3.1c-1.4,1.1-2.8,2.1-4.1,3.2s-2.7,2.3-3.9,3.4l-13-13.1c0.9-1.1,1.8-2.2,2.7-3.4
	c0.8-1.2,1.7-2.4,2.4-3.6c0.8-1.2,1.5-2.5,2.2-3.7c0.7-1.3,1.3-2.6,2-3.9c0.6-1.3,1.2-2.6,1.7-4c0.5-1.3,1-2.7,1.5-4.1
	s0.8-2.8,1.2-4.2c0.4-1.4,0.7-2.8,0.9-4.2c0.3-1.4,0.5-2.8,0.7-4.3c0.2-1.4,0.3-2.9,0.4-4.3c0.1-1.4,0.1-2.9,0.1-4.3
	c0-1.4-0.1-2.9-0.2-4.3c-0.1-1.4-0.2-2.9-0.4-4.3c-0.2-1.4-0.4-2.9-0.7-4.3c-0.3-1.4-0.6-2.8-1-4.2c-0.4-1.4-0.8-2.8-1.3-4.1
	c-0.5-1.4-1-2.7-1.5-4.1c-0.5-1.3-1.1-2.7-1.8-4c-0.6-1.3-1.3-2.6-2-3.8c-0.7-1.3-1.5-2.5-2.3-3.7c-0.8-1.2-1.6-2.4-2.5-3.5
	s-1.8-2.3-2.7-3.4c-0.9-1.1-1.9-2.2-2.9-3.2c-1-1-2.1-2-3.1-3c-1.1-1-2.2-1.9-3.3-2.8c-1.1-0.9-2.3-1.8-3.5-2.6
	c-1.2-0.8-2.4-1.6-3.6-2.4c-1.2-0.7-2.5-1.5-3.8-2.1C98,7.7,96.7,7,95.3,6.5c-1.3-0.6-2.7-1.1-4-1.6c-1.4-0.5-2.7-0.9-4.1-1.4
	c-1.4-0.4-2.8-0.8-4.2-1.1c-1.4-0.3-2.8-0.6-4.2-0.8c-1.4-0.2-2.9-0.4-4.3-0.6c-1.4-0.1-2.9-0.2-4.3-0.3c-1.4,0-2.9,0-4.3,0
	c-1.4,0-2.9,0.1-4.3,0.3c-1.4,0.1-2.9,0.3-4.3,0.5c-1.4,0.2-2.8,0.5-4.3,0.8c-1.4,0.3-2.8,0.7-4.2,1.1S46,4.3,44.6,4.8
	c-1.4,0.5-2.7,1-4,1.6C39.3,7,38,7.6,36.7,8.3c-1.3,0.7-2.5,1.4-3.8,2.1c-1.2,0.8-2.5,1.5-3.6,2.4c-1.2,0.8-2.3,1.7-3.5,2.6
	c-1.1,0.9-2.2,1.8-3.3,2.8c-1.1,1-2.1,2-3.1,3c-1,1-2,2.1-2.9,3.2c-0.9,1.1-1.8,2.2-2.7,3.4c-0.9,1.2-1.7,2.3-2.5,3.5
	c-0.8,1.2-1.6,2.4-2.3,3.7c-0.7,1.3-1.4,2.5-2,3.8s-1.2,2.6-1.8,4c-0.6,1.3-1.1,2.7-1.5,4.1c-0.5,1.4-0.9,2.8-1.3,4.1
	c-0.4,1.4-0.7,2.8-1,4.2c-0.3,1.4-0.5,2.8-0.7,4.3c-0.2,1.4-0.3,2.9-0.4,4.3C0.1,65.2,0,66.6,0,68.1c0,1.4,0,2.9,0.1,4.3
	c0.1,1.4,0.2,2.9,0.4,4.3c0.2,1.4,0.4,2.9,0.7,4.3c0.3,1.4,0.6,2.8,0.9,4.2c0.4,1.4,0.8,2.8,1.2,4.2s0.9,2.7,1.5,4.1
	c0.5,1.3,1.1,2.7,1.7,4c0.6,1.3,1.3,2.6,2,3.9c0.7,1.3,1.4,2.5,2.2,3.7c0.8,1.2,1.6,2.4,2.4,3.6c0.8,1.2,1.7,2.3,2.7,3.4
	c0.9,1.1,1.9,2.2,2.9,3.2c1,1.1,2,2.1,3.1,3.1c1.1,1,2.1,1.9,3.3,2.9c1.1,0.9,2.3,1.8,3.4,2.6c1.2,0.8,2.4,1.6,3.6,2.4
	s2.5,1.5,3.7,2.2c1.3,0.7,2.6,1.3,3.9,1.9c1.3,0.6,2.6,1.2,4,1.7c1.3,0.5,2.7,1,4.1,1.4c1.4,0.4,2.8,0.8,4.2,1.2
	c1.4,0.3,2.8,0.6,4.2,0.9c1.4,0.2,2.9,0.5,4.3,0.6c1.4,0.2,2.9,0.3,4.3,0.3c1.4,0.1,2.9,0.1,4.3,0.1c1.4,0,2.9-0.1,4.3-0.2
	c1.4-0.1,2.9-0.3,4.3-0.5c1.4-0.2,2.9-0.5,4.3-0.8c1.4-0.3,2.8-0.6,4.2-1c1.4-0.4,2.8-0.8,4.1-1.3s2.7-1,4-1.6
	c1.3-0.6,2.6-1.2,3.9-1.8c1.3-0.6,2.6-1.3,3.8-2.1c1.2-0.7,2.5-1.5,3.7-2.3c1.2-0.8,2.4-1.6,3.5-2.5c1.1-0.9,2.3-1.8,3.4-2.7
	l13.1,13.1c-1.2,1.3-2.3,2.6-3.4,3.9c-1.1,1.3-2.2,2.7-3.2,4.1c-1.1,1.4-2.1,2.8-3.1,4.2c-1,1.4-1.9,2.9-2.9,4.4
	c-0.9,1.5-1.8,3-2.7,4.5c-0.8,1.5-1.7,3.1-2.4,4.6c-0.8,1.6-1.5,3.1-2.2,4.7c-0.7,1.6-1.4,3.2-2,4.8c-0.6,1.6-1.2,3.3-1.8,4.9
	c-0.6,1.7-1.1,3.3-1.5,5c-0.5,1.7-0.9,3.4-1.3,5.1c-0.4,1.7-0.8,3.4-1.1,5.1c-0.3,1.7-0.6,3.4-0.8,5.2c-0.2,1.7-0.4,3.5-0.6,5.2
	c-0.2,1.7-0.3,3.5-0.4,5.2c-0.1,1.7-0.1,3.5-0.1,5.2s0,3.5,0.1,5.2c0.1,1.7,0.2,3.5,0.4,5.2c0.2,1.7,0.4,3.5,0.6,5.2
	c0.2,1.7,0.5,3.4,0.8,5.2c0.3,1.7,0.7,3.4,1.1,5.1c0.4,1.7,0.8,3.4,1.3,5.1c0.5,1.7,1,3.3,1.5,5c0.6,1.7,1.1,3.3,1.8,4.9
	c0.6,1.6,1.3,3.2,2,4.8c0.7,1.6,1.4,3.2,2.2,4.7c0.8,1.6,1.6,3.1,2.4,4.6c0.8,1.5,1.7,3,2.7,4.5c0.9,1.5,1.9,2.9,2.9,4.4
	c1,1.4,2,2.9,3.1,4.2c1.1,1.4,2.1,2.8,3.2,4.1c1.1,1.3,2.3,2.7,3.4,3.9l-13.3,13.1c-1.1-0.9-2.3-1.8-3.4-2.7
	c-1.2-0.8-2.4-1.7-3.6-2.4c-1.2-0.8-2.5-1.5-3.7-2.2c-1.3-0.7-2.6-1.3-3.9-2c-1.3-0.6-2.6-1.2-4-1.7c-1.3-0.5-2.7-1-4.1-1.5
	c-1.4-0.4-2.8-0.8-4.2-1.2c-1.4-0.4-2.8-0.7-4.2-0.9c-1.4-0.3-2.8-0.5-4.3-0.7c-1.4-0.2-2.9-0.3-4.3-0.4c-1.4-0.1-2.9-0.1-4.3-0.1
	c-1.4,0-2.9,0.1-4.3,0.2c-1.4,0.1-2.9,0.3-4.3,0.4c-1.4,0.2-2.9,0.4-4.3,0.7c-1.4,0.3-2.8,0.6-4.2,1c-1.4,0.4-2.8,0.8-4.1,1.3
	s-2.7,1-4.1,1.5c-1.3,0.5-2.7,1.1-4,1.8s-2.6,1.3-3.8,2c-1.3,0.7-2.5,1.5-3.7,2.3c-1.2,0.8-2.4,1.6-3.5,2.5
	c-1.2,0.9-2.3,1.8-3.4,2.7c-1.1,0.9-2.2,1.9-3.2,2.9c-1,1-2,2.1-3,3.1c-1,1.1-1.9,2.2-2.8,3.3c-0.9,1.1-1.8,2.3-2.6,3.5
	s-1.6,2.4-2.4,3.6c-0.7,1.2-1.5,2.5-2.1,3.8c-0.7,1.3-1.3,2.6-1.9,3.9c-0.6,1.3-1.1,2.7-1.6,4c-0.5,1.4-1,2.7-1.4,4.1
	c-0.4,1.4-0.8,2.8-1.1,4.2c-0.3,1.4-0.6,2.8-0.8,4.3s-0.4,2.9-0.6,4.3c-0.1,1.4-0.2,2.9-0.3,4.3c0,1.4,0,2.9,0,4.3
	c0,1.4,0.1,2.9,0.3,4.3c0.1,1.4,0.3,2.9,0.6,4.3s0.5,2.8,0.8,4.2c0.3,1.4,0.7,2.8,1.1,4.2c0.4,1.4,0.9,2.8,1.4,4.1
	c0.5,1.4,1,2.7,1.6,4c0.6,1.3,1.2,2.6,1.9,3.9c0.7,1.3,1.4,2.5,2.1,3.8c0.7,1.2,1.5,2.5,2.4,3.6c0.8,1.2,1.7,2.3,2.6,3.5
	c0.9,1.1,1.8,2.2,2.8,3.3s2,2.1,3,3.1c1,1,2.1,2,3.2,2.9c1.1,0.9,2.2,1.8,3.4,2.7c1.2,0.9,2.3,1.7,3.5,2.5c1.2,0.8,2.4,1.5,3.7,2.3
	c1.3,0.7,2.5,1.4,3.8,2s2.6,1.2,4,1.8c1.3,0.5,2.7,1.1,4.1,1.5c1.4,0.5,2.8,0.9,4.1,1.3c1.4,0.4,2.8,0.7,4.2,1
	c1.4,0.3,2.8,0.5,4.3,0.7c1.4,0.2,2.9,0.3,4.3,0.4c1.4,0.1,2.9,0.2,4.3,0.2c1.4,0,2.9,0,4.3-0.1c1.4-0.1,2.9-0.2,4.3-0.4
	c1.4-0.2,2.9-0.4,4.3-0.7c1.4-0.3,2.8-0.6,4.2-0.9c1.4-0.4,2.8-0.8,4.2-1.2s2.7-0.9,4.1-1.5c1.3-0.5,2.7-1.1,4-1.7
	c1.3-0.6,2.6-1.3,3.9-2c1.3-0.7,2.5-1.4,3.7-2.2c1.2-0.8,2.4-1.6,3.6-2.4c1.2-0.8,2.3-1.7,3.4-2.7c1.1-0.9,2.2-1.9,3.2-2.9
	c1.1-1,2.1-2,3.1-3.1c1-1.1,1.9-2.1,2.9-3.3c0.9-1.1,1.8-2.3,2.6-3.4c0.8-1.2,1.6-2.4,2.4-3.6c0.8-1.2,1.5-2.5,2.2-3.7
	c0.7-1.3,1.3-2.6,1.9-3.9s1.2-2.6,1.7-4c0.5-1.3,1-2.7,1.4-4.1c0.4-1.4,0.8-2.8,1.2-4.2c0.3-1.4,0.6-2.8,0.9-4.2
	c0.2-1.4,0.5-2.9,0.6-4.3c0.2-1.4,0.3-2.9,0.3-4.3c0.1-1.4,0.1-2.9,0.1-4.3c0-1.4-0.1-2.9-0.2-4.3c-0.1-1.4-0.3-2.9-0.5-4.3
	c-0.2-1.4-0.5-2.8-0.8-4.3c-0.3-1.4-0.6-2.8-1-4.2c-0.4-1.4-0.8-2.8-1.3-4.1c-0.5-1.4-1-2.7-1.6-4c-0.6-1.3-1.2-2.6-1.8-3.9
	c-0.6-1.3-1.3-2.6-2.1-3.8c-0.7-1.2-1.5-2.5-2.3-3.7c-0.8-1.2-1.6-2.4-2.5-3.5c-0.9-1.2-1.8-2.3-2.7-3.4l13.3-13.3
	c1.3,1.2,2.6,2.3,3.9,3.4c1.3,1.1,2.7,2.2,4.1,3.2c1.4,1.1,2.8,2.1,4.2,3.1c1.4,1,2.9,1.9,4.4,2.9c1.5,0.9,3,1.8,4.5,2.7
	c1.5,0.8,3.1,1.7,4.6,2.4c1.6,0.8,3.1,1.5,4.7,2.2c1.6,0.7,3.2,1.4,4.8,2c1.6,0.6,3.3,1.2,4.9,1.8c1.7,0.6,3.3,1.1,5,1.5
	c1.7,0.5,3.4,0.9,5.1,1.3c1.7,0.4,3.4,0.8,5.1,1.1c1.7,0.3,3.4,0.6,5.2,0.8c1.7,0.2,3.5,0.4,5.2,0.6c1.7,0.2,3.5,0.3,5.2,0.4
	c1.7,0.1,3.5,0.1,5.2,0.1c1.7,0,3.5,0,5.2-0.1c1.7-0.1,3.5-0.2,5.2-0.4c1.7-0.2,3.5-0.4,5.2-0.6c1.7-0.2,3.5-0.5,5.2-0.8
	c1.7-0.3,3.4-0.7,5.1-1.1c1.7-0.4,3.4-0.8,5.1-1.3c1.7-0.5,3.3-1,5-1.5c1.7-0.6,3.3-1.1,4.9-1.8c1.6-0.6,3.2-1.3,4.8-2
	c1.6-0.7,3.2-1.4,4.7-2.2c1.6-0.8,3.1-1.6,4.6-2.4c1.5-0.9,3-1.7,4.5-2.7c1.5-0.9,2.9-1.9,4.4-2.9c1.4-1,2.9-2,4.2-3.1
	c1.4-1.1,2.8-2.1,4.1-3.2c1.3-1.1,2.7-2.3,3.9-3.4l13.3,13.4c-0.8,1-1.6,2-2.4,3s-1.5,2-2.2,3.1c-0.7,1-1.4,2.1-2,3.2
	c-0.6,1.1-1.3,2.2-1.8,3.3s-1.1,2.3-1.7,3.4c-0.5,1.2-1,2.3-1.5,3.5c-0.5,1.2-0.9,2.4-1.3,3.6c-0.4,1.2-0.7,2.4-1.1,3.6
	c-0.3,1.2-0.6,2.5-0.8,3.7c-0.2,1.2-0.5,2.5-0.6,3.7c-0.2,1.3-0.3,2.5-0.4,3.8c-0.1,1.3-0.2,2.5-0.2,3.8c0,1.3,0,2.5,0,3.8
	c0,1.3,0.1,2.5,0.2,3.8c0.1,1.3,0.2,2.5,0.4,3.8c0.2,1.3,0.4,2.5,0.6,3.7c0.2,1.2,0.5,2.5,0.9,3.7c0.3,1.2,0.7,2.4,1.1,3.6
	c0.4,1.2,0.8,2.4,1.3,3.6c0.5,1.2,0.9,2.3,1.5,3.5c0.5,1.2,1.1,2.3,1.7,3.4c0.6,1.1,1.2,2.2,1.8,3.3c0.7,1.1,1.3,2.2,2,3.2
	c0.7,1.1,1.4,2.1,2.2,3.1c0.8,1,1.6,2,2.4,3c0.8,1,1.7,1.9,2.5,2.8c0.9,0.9,1.8,1.8,2.7,2.7c0.9,0.9,1.9,1.7,2.8,2.5
	c1,0.8,2,1.6,3,2.3c1,0.8,2.1,1.5,3.1,2.2c1.1,0.7,2.1,1.4,3.2,2c1.1,0.6,2.2,1.2,3.3,1.8c1.1,0.6,2.3,1.1,3.4,1.6
	c1.2,0.5,2.3,1,3.5,1.4c1.2,0.4,2.4,0.8,3.6,1.2c1.2,0.4,2.4,0.7,3.7,1c1.2,0.3,2.5,0.6,3.7,0.8c1.2,0.2,2.5,0.4,3.8,0.6
	c1.3,0.2,2.5,0.3,3.8,0.4c1.3,0.1,2.5,0.2,3.8,0.2c1.3,0,2.5,0,3.8,0c1.3,0,2.5-0.1,3.8-0.2c1.3-0.1,2.5-0.3,3.8-0.5
	c1.2-0.2,2.5-0.4,3.7-0.7c1.2-0.3,2.5-0.6,3.7-0.9c1.2-0.3,2.4-0.7,3.6-1.1c1.2-0.4,2.4-0.8,3.6-1.3c1.2-0.5,2.3-1,3.5-1.5
	c1.2-0.5,2.3-1.1,3.4-1.7c1.1-0.6,2.2-1.2,3.3-1.9c1.1-0.7,2.1-1.3,3.2-2.1c1-0.7,2.1-1.5,3.1-2.2c1-0.8,2-1.6,2.9-2.4
	c1-0.8,1.9-1.7,2.8-2.6c0.9-0.9,1.8-1.8,2.6-2.7c0.9-0.9,1.7-1.9,2.5-2.9c0.8-1,1.6-2,2.3-3c0.7-1,1.5-2.1,2.1-3.1
	c0.7-1.1,1.3-2.1,2-3.2c0.6-1.1,1.2-2.2,1.8-3.4c0.6-1.1,1.1-2.3,1.6-3.4c0.5-1.2,1-2.3,1.4-3.5c0.4-1.2,0.8-2.4,1.2-3.6
	c0.4-1.2,0.7-2.4,1-3.7c0.3-1.2,0.6-2.5,0.8-3.7c0.2-1.2,0.4-2.5,0.6-3.8c0.2-1.3,0.3-2.5,0.3-3.8c0.1-1.3,0.1-2.5,0.1-3.8
	c0-1.3,0-2.5-0.1-3.8c-0.1-1.3-0.2-2.5-0.3-3.8c-0.1-1.3-0.3-2.5-0.5-3.8s-0.4-2.5-0.7-3.7c-0.3-1.2-0.6-2.5-0.9-3.7
	c-0.3-1.2-0.7-2.4-1.1-3.6c-0.4-1.2-0.9-2.4-1.3-3.6c-0.5-1.2-1-2.3-1.5-3.5c-0.5-1.1-1.1-2.3-1.7-3.4c-0.6-1.1-1.2-2.2-1.9-3.3
	c-0.7-1.1-1.4-2.1-2.1-3.2c-0.7-1-1.5-2.1-2.3-3c-0.8-1-1.6-2-2.4-2.9c-0.8-0.9-1.7-1.9-2.6-2.8c-0.9-0.9-1.8-1.8-2.8-2.6
	c-0.9-0.8-1.9-1.7-2.9-2.5c-1-0.8-2-1.6-3-2.3c-1-0.7-2.1-1.4-3.2-2.1c-1.1-0.7-2.2-1.3-3.3-1.9c-1.1-0.6-2.2-1.2-3.4-1.8
	c-1.1-0.6-2.3-1.1-3.5-1.6c-1.2-0.5-2.4-0.9-3.5-1.4c-1.2-0.4-2.4-0.8-3.6-1.2c-1.2-0.3-2.4-0.7-3.7-0.9s-2.5-0.5-3.7-0.7
	c-1.2-0.2-2.5-0.4-3.8-0.5c-1.3-0.1-2.5-0.2-3.8-0.3c-1.3-0.1-2.5-0.1-3.8-0.1H350.5z M350.5,11.8c1.9,0,3.7,0.1,5.6,0.3
	c1.8,0.2,3.7,0.5,5.5,0.8c1.8,0.4,3.6,0.8,5.4,1.3c1.8,0.5,3.5,1.2,5.2,1.9c1.7,0.7,3.4,1.5,5,2.4c1.6,0.9,3.2,1.8,4.8,2.9
	c1.5,1,3,2.1,4.5,3.3c1.4,1.2,2.8,2.4,4.1,3.7s2.6,2.7,3.7,4.1c1.2,1.4,2.3,2.9,3.3,4.5s2,3.1,2.9,4.8c0.9,1.6,1.7,3.3,2.4,5
	c0.7,1.7,1.3,3.5,1.9,5.2c0.5,1.8,1,3.6,1.4,5.4c0.4,1.8,0.6,3.7,0.8,5.5s0.3,3.7,0.3,5.6s-0.1,3.7-0.3,5.6
	c-0.2,1.8-0.5,3.7-0.8,5.5c-0.4,1.8-0.8,3.6-1.4,5.4c-0.5,1.8-1.2,3.5-1.9,5.2c-0.7,1.7-1.5,3.4-2.4,5c-0.9,1.6-1.8,3.2-2.9,4.8
	c-1,1.5-2.1,3-3.3,4.5s-2.4,2.8-3.7,4.1c-1.3,1.3-2.7,2.6-4.1,3.7c-1.4,1.2-2.9,2.3-4.5,3.3c-1.5,1-3.1,2-4.8,2.9
	c-1.6,0.9-3.3,1.7-5,2.4c-1.7,0.7-3.5,1.3-5.2,1.9c-1.8,0.5-3.6,1-5.4,1.4c-1.8,0.4-3.7,0.6-5.5,0.8c-1.8,0.2-3.7,0.3-5.6,0.3
	c-1.9,0-3.7-0.1-5.6-0.3c-1.8-0.2-3.7-0.5-5.5-0.8c-1.8-0.4-3.6-0.8-5.4-1.4c-1.8-0.5-3.5-1.2-5.2-1.9c-1.7-0.7-3.4-1.5-5-2.4
	c-1.6-0.9-3.2-1.8-4.8-2.9c-1.5-1-3-2.1-4.5-3.3c-1.4-1.2-2.8-2.4-4.1-3.7s-2.6-2.7-3.7-4.1c-1.2-1.4-2.3-2.9-3.3-4.5
	c-1-1.5-2-3.1-2.9-4.8c-0.9-1.6-1.7-3.3-2.4-5c-0.7-1.7-1.3-3.5-1.9-5.2c-0.5-1.8-1-3.6-1.4-5.4c-0.4-1.8-0.6-3.7-0.8-5.5
	c-0.2-1.8-0.3-3.7-0.3-5.6c0-1.9,0.1-3.7,0.3-5.6c0.2-1.8,0.5-3.7,0.8-5.5c0.4-1.8,0.8-3.6,1.4-5.4c0.5-1.8,1.2-3.5,1.9-5.2
	c0.7-1.7,1.5-3.4,2.4-5c0.9-1.6,1.8-3.2,2.9-4.8c1-1.5,2.1-3,3.3-4.5c1.2-1.4,2.4-2.8,3.7-4.1s2.7-2.6,4.1-3.7
	c1.4-1.2,2.9-2.3,4.5-3.3c1.5-1,3.1-2,4.8-2.9c1.6-0.9,3.3-1.7,5-2.4c1.7-0.7,3.5-1.3,5.2-1.9c1.8-0.5,3.6-1,5.4-1.4
	c1.8-0.4,3.7-0.6,5.5-0.8C346.8,11.9,348.6,11.8,350.5,11.8z M12.2,68.5c0-1.9,0.1-3.7,0.3-5.6c0.2-1.8,0.5-3.7,0.8-5.5
	c0.4-1.8,0.8-3.6,1.3-5.4c0.5-1.8,1.2-3.5,1.9-5.2c0.7-1.7,1.5-3.4,2.4-5c0.9-1.6,1.8-3.2,2.9-4.8c1-1.5,2.1-3,3.3-4.5
	c1.2-1.4,2.4-2.8,3.7-4.1c1.3-1.3,2.7-2.6,4.1-3.7c1.4-1.2,2.9-2.3,4.5-3.3c1.5-1,3.1-2,4.8-2.9c1.6-0.9,3.3-1.7,5-2.4
	c1.7-0.7,3.5-1.3,5.2-1.9c1.8-0.5,3.6-1,5.4-1.4c1.8-0.4,3.7-0.6,5.5-0.8c1.8-0.2,3.7-0.3,5.6-0.3c1.9,0,3.7,0.1,5.6,0.3
	s3.7,0.5,5.5,0.8c1.8,0.4,3.6,0.8,5.4,1.3c1.8,0.5,3.5,1.2,5.2,1.9c1.7,0.7,3.4,1.5,5,2.4c1.6,0.9,3.2,1.8,4.8,2.9
	c1.5,1,3,2.1,4.5,3.3c1.4,1.2,2.8,2.4,4.1,3.7c1.3,1.3,2.6,2.7,3.7,4.1c1.2,1.4,2.3,2.9,3.3,4.5c1,1.5,2,3.1,2.9,4.8
	c0.9,1.6,1.7,3.3,2.4,5c0.7,1.7,1.3,3.5,1.9,5.2c0.5,1.8,1,3.6,1.4,5.4c0.4,1.8,0.6,3.7,0.8,5.5c0.2,1.8,0.3,3.7,0.3,5.6
	c0,1.9-0.1,3.7-0.3,5.6c-0.2,1.8-0.5,3.7-0.8,5.5c-0.4,1.8-0.8,3.6-1.4,5.4c-0.5,1.8-1.2,3.5-1.9,5.2c-0.7,1.7-1.5,3.4-2.4,5
	c-0.9,1.6-1.8,3.2-2.9,4.8c-1,1.5-2.1,3-3.3,4.5c-1.2,1.4-2.4,2.8-3.7,4.1s-2.7,2.6-4.1,3.7c-1.4,1.2-2.9,2.3-4.5,3.3
	c-1.5,1-3.1,2-4.8,2.9c-1.6,0.9-3.3,1.7-5,2.4c-1.7,0.7-3.5,1.3-5.2,1.9c-1.8,0.5-3.6,1-5.4,1.4c-1.8,0.4-3.7,0.6-5.5,0.8
	c-1.8,0.2-3.7,0.3-5.6,0.3c-1.9,0-3.7-0.1-5.5-0.3c-1.8-0.2-3.7-0.5-5.5-0.8c-1.8-0.4-3.6-0.8-5.4-1.4c-1.8-0.5-3.5-1.2-5.2-1.9
	c-1.7-0.7-3.4-1.5-5-2.4c-1.6-0.9-3.2-1.8-4.8-2.9c-1.5-1-3-2.1-4.5-3.3c-1.4-1.2-2.8-2.4-4.1-3.7c-1.3-1.3-2.6-2.7-3.7-4.1
	c-1.2-1.4-2.3-2.9-3.3-4.5c-1-1.5-2-3.1-2.9-4.8c-0.9-1.6-1.7-3.3-2.4-5c-0.7-1.7-1.3-3.5-1.9-5.2c-0.5-1.8-1-3.6-1.4-5.4
	c-0.4-1.8-0.6-3.7-0.8-5.5C12.3,72.2,12.2,70.4,12.2,68.5z M68.9,406.7c-1.9,0-3.7-0.1-5.6-0.3c-1.8-0.2-3.7-0.5-5.5-0.8
	s-3.6-0.8-5.4-1.3c-1.8-0.5-3.5-1.2-5.2-1.9c-1.7-0.7-3.4-1.5-5-2.4c-1.6-0.9-3.2-1.8-4.8-2.9c-1.5-1-3-2.1-4.5-3.3
	c-1.4-1.2-2.8-2.4-4.1-3.7s-2.6-2.7-3.7-4.1c-1.2-1.4-2.3-2.9-3.3-4.5c-1-1.5-2-3.1-2.9-4.8c-0.9-1.6-1.7-3.3-2.4-5
	c-0.7-1.7-1.3-3.5-1.9-5.2c-0.5-1.8-1-3.6-1.4-5.4c-0.4-1.8-0.6-3.7-0.8-5.5c-0.2-1.8-0.3-3.7-0.3-5.6c0-1.9,0.1-3.7,0.3-5.6
	c0.2-1.8,0.5-3.7,0.8-5.5c0.4-1.8,0.8-3.6,1.3-5.4c0.5-1.8,1.2-3.5,1.9-5.2c0.7-1.7,1.5-3.4,2.4-5c0.9-1.6,1.8-3.2,2.9-4.8
	c1-1.5,2.1-3,3.3-4.5c1.2-1.4,2.4-2.8,3.7-4.1s2.7-2.6,4.1-3.7c1.4-1.2,2.9-2.3,4.5-3.3c1.5-1,3.1-2,4.8-2.9c1.6-0.9,3.3-1.7,5-2.4
	c1.7-0.7,3.5-1.3,5.2-1.9c1.8-0.5,3.6-1,5.4-1.4c1.8-0.4,3.7-0.6,5.5-0.8c1.8-0.2,3.7-0.3,5.6-0.3c1.9,0,3.7,0.1,5.6,0.3
	c1.8,0.2,3.7,0.5,5.5,0.8c1.8,0.4,3.6,0.8,5.4,1.3c1.8,0.5,3.5,1.2,5.2,1.9c1.7,0.7,3.4,1.5,5,2.4c1.6,0.9,3.2,1.8,4.8,2.9
	c1.5,1,3,2.1,4.5,3.3c1.4,1.2,2.8,2.4,4.1,3.7c1.3,1.3,2.6,2.7,3.7,4.1c1.2,1.4,2.3,2.9,3.3,4.5c1,1.5,2,3.1,2.9,4.8
	c0.9,1.6,1.7,3.3,2.4,5c0.7,1.7,1.3,3.5,1.9,5.2c0.5,1.8,1,3.6,1.3,5.4c0.4,1.8,0.6,3.7,0.8,5.5c0.2,1.8,0.3,3.7,0.3,5.6
	c0,1.9-0.1,3.7-0.3,5.6c-0.2,1.8-0.5,3.7-0.8,5.5c-0.4,1.8-0.8,3.6-1.4,5.4c-0.5,1.8-1.2,3.5-1.9,5.2c-0.7,1.7-1.5,3.4-2.4,5
	s-1.8,3.2-2.9,4.8c-1,1.5-2.1,3-3.3,4.5c-1.2,1.4-2.4,2.8-3.7,4.1c-1.3,1.3-2.7,2.6-4.1,3.7c-1.4,1.2-2.9,2.3-4.5,3.3
	c-1.5,1-3.1,2-4.8,2.9c-1.6,0.9-3.3,1.7-5,2.4c-1.7,0.7-3.5,1.3-5.2,1.9c-1.8,0.5-3.6,1-5.4,1.4c-1.8,0.4-3.7,0.6-5.5,0.8
	C72.6,406.6,70.7,406.7,68.9,406.7z M106.8,209.2c0-1.7,0-3.4,0.1-5c0.1-1.7,0.2-3.4,0.4-5c0.2-1.7,0.4-3.3,0.6-5
	c0.2-1.7,0.5-3.3,0.9-5c0.3-1.7,0.7-3.3,1.1-4.9c0.4-1.6,0.8-3.2,1.3-4.9c0.5-1.6,1-3.2,1.6-4.8s1.2-3.2,1.8-4.7
	c0.6-1.6,1.3-3.1,2-4.6c0.7-1.5,1.5-3,2.3-4.5c0.8-1.5,1.6-2.9,2.5-4.4c0.9-1.4,1.8-2.9,2.7-4.3c0.9-1.4,1.9-2.8,2.9-4.1
	c1-1.4,2-2.7,3.1-4c1.1-1.3,2.2-2.6,3.3-3.8c1.1-1.2,2.3-2.5,3.5-3.7c1.2-1.2,2.4-2.3,3.7-3.5c1.2-1.1,2.5-2.2,3.8-3.3
	c1.3-1.1,2.6-2.1,4-3.1c1.3-1,2.7-2,4.1-2.9c1.4-0.9,2.8-1.8,4.3-2.7c1.4-0.9,2.9-1.7,4.4-2.5c1.5-0.8,3-1.6,4.5-2.3
	c1.5-0.7,3.1-1.4,4.6-2c1.6-0.6,3.1-1.3,4.7-1.8s3.2-1.1,4.8-1.6c1.6-0.5,3.2-0.9,4.9-1.4c1.6-0.4,3.3-0.8,4.9-1.1
	c1.6-0.3,3.3-0.6,5-0.9c1.7-0.2,3.3-0.5,5-0.6c1.7-0.2,3.3-0.3,5-0.4c1.7-0.1,3.4-0.1,5-0.1c1.7,0,3.4,0,5,0.1
	c1.7,0.1,3.4,0.2,5,0.4c1.7,0.2,3.3,0.4,5,0.6c1.7,0.2,3.3,0.5,5,0.9c1.7,0.3,3.3,0.7,4.9,1.1c1.6,0.4,3.2,0.9,4.9,1.3
	c1.6,0.5,3.2,1,4.8,1.6c1.6,0.6,3.2,1.2,4.7,1.8c1.6,0.6,3.1,1.3,4.6,2c1.5,0.7,3,1.5,4.5,2.3s2.9,1.6,4.4,2.5
	c1.4,0.9,2.9,1.8,4.3,2.7c1.4,0.9,2.8,1.9,4.1,2.9c1.3,1,2.7,2,4,3.1c1.3,1.1,2.6,2.2,3.8,3.3c1.2,1.1,2.5,2.3,3.7,3.5
	c1.2,1.2,2.3,2.4,3.5,3.7c1.1,1.2,2.2,2.5,3.3,3.8c1.1,1.3,2.1,2.6,3.1,4c1,1.3,2,2.7,2.9,4.1c0.9,1.4,1.8,2.8,2.7,4.3
	c0.9,1.4,1.7,2.9,2.5,4.4c0.8,1.5,1.6,3,2.3,4.5c0.7,1.5,1.4,3.1,2.1,4.6c0.6,1.6,1.2,3.1,1.8,4.7c0.6,1.6,1.1,3.2,1.6,4.8
	c0.5,1.6,0.9,3.2,1.3,4.9c0.4,1.6,0.8,3.3,1.1,4.9c0.3,1.6,0.6,3.3,0.9,5c0.2,1.7,0.5,3.3,0.6,5c0.2,1.7,0.3,3.4,0.4,5
	c0.1,1.7,0.1,3.4,0.1,5c0,1.7,0,3.4-0.1,5c-0.1,1.7-0.2,3.4-0.4,5c-0.2,1.7-0.4,3.3-0.6,5c-0.2,1.7-0.5,3.3-0.9,5
	c-0.3,1.7-0.7,3.3-1.1,4.9c-0.4,1.6-0.9,3.2-1.3,4.9c-0.5,1.6-1,3.2-1.6,4.8c-0.6,1.6-1.2,3.2-1.8,4.7c-0.6,1.6-1.3,3.1-2,4.6
	c-0.7,1.5-1.5,3-2.3,4.5c-0.8,1.5-1.6,2.9-2.5,4.4c-0.9,1.4-1.8,2.9-2.7,4.3c-0.9,1.4-1.9,2.8-2.9,4.1c-1,1.3-2,2.7-3.1,4
	c-1.1,1.3-2.2,2.6-3.3,3.8c-1.1,1.2-2.3,2.5-3.5,3.7c-1.2,1.2-2.4,2.3-3.7,3.5c-1.2,1.1-2.5,2.2-3.8,3.3c-1.3,1.1-2.6,2.1-4,3.1
	c-1.3,1-2.7,2-4.1,2.9c-1.4,0.9-2.8,1.8-4.3,2.7c-1.4,0.9-2.9,1.7-4.4,2.5c-1.5,0.8-3,1.5-4.5,2.3c-1.5,0.7-3.1,1.4-4.6,2
	c-1.6,0.6-3.1,1.2-4.7,1.8c-1.6,0.6-3.2,1.1-4.8,1.6c-1.6,0.5-3.2,0.9-4.9,1.3c-1.6,0.4-3.3,0.8-4.9,1.1c-1.7,0.3-3.3,0.6-5,0.9
	c-1.7,0.2-3.3,0.5-5,0.6c-1.7,0.2-3.3,0.3-5,0.4c-1.7,0.1-3.4,0.1-5,0.1c-1.7,0-3.4,0-5-0.1c-1.7-0.1-3.4-0.2-5-0.4
	c-1.7-0.2-3.3-0.4-5-0.6c-1.7-0.2-3.3-0.5-5-0.9c-1.6-0.3-3.3-0.7-4.9-1.1c-1.6-0.4-3.2-0.9-4.9-1.3c-1.6-0.5-3.2-1-4.8-1.6
	c-1.6-0.6-3.1-1.2-4.7-1.8c-1.6-0.6-3.1-1.3-4.6-2c-1.5-0.7-3-1.5-4.5-2.3c-1.5-0.8-2.9-1.6-4.4-2.5c-1.4-0.9-2.9-1.8-4.3-2.7
	c-1.4-0.9-2.8-1.9-4.1-2.9c-1.3-1-2.7-2-4-3.1c-1.3-1.1-2.6-2.2-3.8-3.3c-1.2-1.1-2.5-2.3-3.7-3.5c-1.2-1.2-2.3-2.4-3.5-3.6
	c-1.1-1.2-2.2-2.5-3.3-3.8c-1.1-1.3-2.1-2.6-3.1-4s-2-2.7-2.9-4.1c-0.9-1.4-1.8-2.8-2.7-4.2c-0.9-1.4-1.7-2.9-2.5-4.4
	c-0.8-1.5-1.6-3-2.3-4.5c-0.7-1.5-1.4-3.1-2.1-4.6c-0.6-1.6-1.2-3.1-1.8-4.7c-0.6-1.6-1.1-3.2-1.6-4.8c-0.5-1.6-0.9-3.2-1.4-4.9
	c-0.4-1.6-0.8-3.3-1.1-4.9c-0.3-1.6-0.6-3.3-0.9-5c-0.2-1.7-0.5-3.3-0.6-5c-0.2-1.7-0.3-3.3-0.4-5
	C106.9,212.6,106.9,210.9,106.8,209.2z M350.5,406.7c-1.9,0-3.7-0.1-5.6-0.3c-1.8-0.2-3.7-0.5-5.5-0.8c-1.8-0.4-3.6-0.8-5.4-1.3
	c-1.8-0.5-3.5-1.2-5.2-1.9c-1.7-0.7-3.4-1.5-5-2.4c-1.6-0.9-3.2-1.8-4.8-2.9c-1.5-1-3-2.1-4.5-3.3c-1.4-1.2-2.8-2.4-4.1-3.7
	s-2.6-2.7-3.7-4.1c-1.2-1.4-2.3-2.9-3.3-4.5c-1-1.5-2-3.1-2.9-4.8c-0.9-1.6-1.7-3.3-2.4-5c-0.7-1.7-1.3-3.5-1.9-5.2
	c-0.5-1.8-1-3.6-1.4-5.4c-0.4-1.8-0.6-3.7-0.8-5.5c-0.2-1.8-0.3-3.7-0.3-5.6c0-1.9,0.1-3.7,0.3-5.6c0.2-1.8,0.5-3.7,0.8-5.5
	c0.4-1.8,0.8-3.6,1.4-5.4c0.5-1.8,1.2-3.5,1.9-5.2c0.7-1.7,1.5-3.4,2.4-5c0.9-1.6,1.8-3.2,2.9-4.8c1-1.5,2.1-3,3.3-4.5
	c1.2-1.4,2.4-2.8,3.7-4.1s2.7-2.6,4.1-3.7c1.4-1.2,2.9-2.3,4.5-3.3c1.5-1,3.1-2,4.8-2.9c1.6-0.9,3.3-1.7,5-2.4
	c1.7-0.7,3.5-1.3,5.2-1.9c1.8-0.5,3.6-1,5.4-1.4c1.8-0.4,3.7-0.6,5.5-0.8c1.8-0.2,3.7-0.3,5.6-0.3c1.9,0,3.7,0.1,5.6,0.3
	c1.8,0.2,3.7,0.5,5.5,0.8c1.8,0.4,3.6,0.8,5.4,1.3c1.8,0.5,3.5,1.2,5.2,1.9c1.7,0.7,3.4,1.5,5,2.4c1.6,0.9,3.2,1.8,4.8,2.9
	c1.5,1,3,2.1,4.5,3.3c1.4,1.2,2.8,2.4,4.1,3.7c1.3,1.3,2.6,2.7,3.7,4.1c1.2,1.4,2.3,2.9,3.3,4.5c1,1.5,2,3.1,2.9,4.8
	c0.9,1.6,1.7,3.3,2.4,5c0.7,1.7,1.3,3.5,1.9,5.2c0.5,1.8,1,3.6,1.4,5.4c0.4,1.8,0.6,3.7,0.8,5.5c0.2,1.8,0.3,3.7,0.3,5.6
	c0,1.9-0.1,3.7-0.3,5.6c-0.2,1.8-0.5,3.7-0.8,5.5c-0.4,1.8-0.8,3.6-1.4,5.4c-0.5,1.8-1.2,3.5-1.9,5.2c-0.7,1.7-1.5,3.4-2.4,5
	c-0.9,1.6-1.8,3.2-2.9,4.8c-1,1.5-2.1,3-3.3,4.5c-1.2,1.4-2.4,2.8-3.7,4.1s-2.7,2.6-4.1,3.7c-1.4,1.2-2.9,2.3-4.5,3.3
	c-1.5,1-3.1,2-4.8,2.9c-1.6,0.9-3.3,1.7-5,2.4c-1.7,0.7-3.5,1.3-5.2,1.9c-1.8,0.5-3.6,1-5.4,1.4c-1.8,0.4-3.7,0.6-5.5,0.8
	C354.2,406.6,352.3,406.7,350.5,406.7z"/>
<path class="st0" d="M238.9,138.2h-58.7c-1,0-2,0.1-3,0.3c-1,0.2-1.9,0.5-2.9,0.9c-0.9,0.4-1.8,0.9-2.6,1.4
	c-0.8,0.6-1.6,1.2-2.3,1.9c-0.7,0.7-1.3,1.5-1.9,2.3c-0.6,0.8-1,1.7-1.4,2.6c-0.4,0.9-0.7,1.9-0.9,2.9c-0.2,1-0.3,2-0.3,3v111.1
	c0,1,0.1,2,0.3,3c0.2,1,0.5,1.9,0.9,2.9c0.4,0.9,0.9,1.8,1.4,2.6c0.6,0.8,1.2,1.6,1.9,2.3c0.7,0.7,1.5,1.3,2.3,1.9
	c0.8,0.6,1.7,1,2.6,1.4c0.9,0.4,1.9,0.7,2.9,0.9c1,0.2,2,0.3,3,0.3h58.7c1,0,2-0.1,3-0.3c1-0.2,1.9-0.5,2.9-0.9
	c0.9-0.4,1.8-0.9,2.6-1.4c0.8-0.6,1.6-1.2,2.3-1.9c0.7-0.7,1.3-1.5,1.9-2.3c0.6-0.8,1-1.7,1.4-2.6c0.4-0.9,0.7-1.9,0.9-2.9
	c0.2-1,0.3-2,0.3-3V153.5c0-1-0.1-2-0.3-3c-0.2-1-0.5-1.9-0.9-2.9c-0.4-0.9-0.9-1.8-1.4-2.6c-0.6-0.8-1.2-1.6-1.9-2.3
	c-0.7-0.7-1.5-1.3-2.3-1.9c-0.8-0.6-1.7-1-2.6-1.4c-0.9-0.4-1.9-0.7-2.9-0.9C240.9,138.3,240,138.2,238.9,138.2z M180.2,148.9h58.7
	c0.6,0,1.2,0.1,1.8,0.3c0.6,0.2,1.1,0.6,1.5,1c0.4,0.4,0.8,0.9,1,1.5c0.2,0.6,0.3,1.1,0.3,1.8v82.2h-67.9v-82.2
	c0-0.6,0.1-1.2,0.4-1.8c0.2-0.6,0.6-1.1,1-1.5c0.4-0.4,0.9-0.8,1.5-1C179,149,179.6,148.9,180.2,148.9z M238.9,269.3h-58.7
	c-0.6,0-1.2-0.1-1.8-0.4s-1.1-0.6-1.5-1c-0.4-0.4-0.8-0.9-1-1.5c-0.2-0.6-0.3-1.2-0.3-1.8v-18.2h67.9v18.2c0,0.6-0.1,1.2-0.3,1.8
	c-0.2,0.6-0.6,1.1-1,1.5c-0.4,0.4-0.9,0.8-1.5,1C240.2,269.2,239.6,269.3,238.9,269.3z"/>
<path class="st0" d="M215,257.3c0,0.4,0,0.7-0.1,1s-0.2,0.7-0.3,1c-0.1,0.3-0.3,0.6-0.5,0.9c-0.2,0.3-0.4,0.6-0.7,0.8
	c-0.2,0.2-0.5,0.5-0.8,0.7c-0.3,0.2-0.6,0.4-0.9,0.5c-0.3,0.1-0.7,0.2-1,0.3c-0.3,0.1-0.7,0.1-1,0.1c-0.4,0-0.7,0-1-0.1
	c-0.3-0.1-0.7-0.2-1-0.3c-0.3-0.1-0.6-0.3-0.9-0.5c-0.3-0.2-0.6-0.4-0.8-0.7c-0.2-0.2-0.5-0.5-0.7-0.8c-0.2-0.3-0.4-0.6-0.5-0.9
	c-0.1-0.3-0.2-0.7-0.3-1c-0.1-0.3-0.1-0.7-0.1-1c0-0.3,0-0.7,0.1-1c0.1-0.3,0.2-0.7,0.3-1c0.1-0.3,0.3-0.6,0.5-0.9
	c0.2-0.3,0.4-0.6,0.7-0.8s0.5-0.5,0.8-0.7c0.3-0.2,0.6-0.4,0.9-0.5c0.3-0.1,0.7-0.2,1-0.3c0.3-0.1,0.7-0.1,1-0.1c0.4,0,0.7,0,1,0.1
	c0.3,0.1,0.7,0.2,1,0.3c0.3,0.1,0.6,0.3,0.9,0.5c0.3,0.2,0.6,0.4,0.8,0.7c0.2,0.2,0.5,0.5,0.7,0.8c0.2,0.3,0.4,0.6,0.5,0.9
	c0.1,0.3,0.2,0.7,0.3,1C214.9,256.7,215,257,215,257.3z"/>
<path class="st0" d="M85.1,32.3h-9.4c-1.1,0-2.2,0.1-3.2,0.3c-1.1,0.2-2.1,0.5-3.1,0.9c-1,0.4-2,0.9-2.9,1.5
	c-0.9,0.6-1.7,1.3-2.5,2.1c-0.8,0.8-1.5,1.6-2.1,2.5c-0.6,0.9-1.1,1.9-1.5,2.9c-0.4,1-0.7,2-0.9,3.1c-0.2,1.1-0.3,2.1-0.3,3.2v10.7
	h-6.5c-0.3,0-0.7,0-1,0.1c-0.3,0.1-0.7,0.2-1,0.3c-0.3,0.1-0.6,0.3-0.9,0.5c-0.3,0.2-0.6,0.4-0.8,0.7s-0.5,0.5-0.7,0.8
	c-0.2,0.3-0.4,0.6-0.5,0.9c-0.1,0.3-0.2,0.7-0.3,1s-0.1,0.7-0.1,1s0,0.7,0.1,1s0.2,0.7,0.3,1c0.1,0.3,0.3,0.6,0.5,0.9
	c0.2,0.3,0.4,0.6,0.7,0.8s0.5,0.5,0.8,0.7c0.3,0.2,0.6,0.4,0.9,0.5c0.3,0.1,0.7,0.2,1,0.3c0.3,0.1,0.7,0.1,1,0.1h6.5v29.2
	c0,0.3,0,0.7,0.1,1c0.1,0.3,0.2,0.7,0.3,1c0.1,0.3,0.3,0.6,0.5,0.9c0.2,0.3,0.4,0.6,0.7,0.8c0.2,0.2,0.5,0.5,0.8,0.7
	c0.3,0.2,0.6,0.4,0.9,0.5c0.3,0.1,0.7,0.2,1,0.3c0.3,0.1,0.7,0.1,1,0.1c0.4,0,0.7,0,1-0.1c0.3-0.1,0.7-0.2,1-0.3
	c0.3-0.1,0.6-0.3,0.9-0.5c0.3-0.2,0.6-0.4,0.8-0.7s0.5-0.5,0.7-0.8c0.2-0.3,0.4-0.6,0.5-0.9c0.1-0.3,0.2-0.7,0.3-1
	c0.1-0.3,0.1-0.7,0.1-1V70.2h6.5c0.3,0,0.7,0,1-0.1c0.3-0.1,0.7-0.2,1-0.3c0.3-0.1,0.6-0.3,0.9-0.5c0.3-0.2,0.6-0.4,0.8-0.7
	s0.5-0.5,0.7-0.8c0.2-0.3,0.4-0.6,0.5-0.9c0.1-0.3,0.2-0.7,0.3-1c0.1-0.3,0.1-0.7,0.1-1c0-0.3,0-0.7-0.1-1c-0.1-0.3-0.2-0.7-0.3-1
	c-0.1-0.3-0.3-0.6-0.5-0.9c-0.2-0.3-0.4-0.6-0.7-0.8s-0.5-0.5-0.8-0.7c-0.3-0.2-0.6-0.4-0.9-0.5c-0.3-0.1-0.7-0.2-1-0.3
	c-0.3-0.1-0.7-0.1-1-0.1h-6.5V48.7c0-0.4,0-0.8,0.1-1.1c0.1-0.4,0.2-0.7,0.3-1.1c0.1-0.3,0.3-0.7,0.5-1c0.2-0.3,0.5-0.6,0.7-0.9
	c0.3-0.3,0.6-0.5,0.9-0.7c0.3-0.2,0.7-0.4,1-0.5c0.4-0.1,0.7-0.3,1.1-0.3s0.8-0.1,1.1-0.1h9.4c0.3,0,0.7,0,1-0.1
	c0.3-0.1,0.7-0.2,1-0.3c0.3-0.1,0.6-0.3,0.9-0.5c0.3-0.2,0.6-0.4,0.8-0.7s0.5-0.5,0.7-0.8c0.2-0.3,0.4-0.6,0.5-0.9
	c0.1-0.3,0.2-0.7,0.3-1c0.1-0.3,0.1-0.7,0.1-1c0-0.4,0-0.7-0.1-1c-0.1-0.3-0.2-0.7-0.3-1c-0.1-0.3-0.3-0.6-0.5-0.9
	c-0.2-0.3-0.4-0.6-0.7-0.8s-0.5-0.5-0.8-0.7c-0.3-0.2-0.6-0.4-0.9-0.5c-0.3-0.1-0.7-0.2-1-0.3c-0.3-0.1-0.7-0.1-1-0.1V32.3z"/>
<path class="st0" d="M88,315H49.8c-1,0-2.1,0.1-3.1,0.3c-1,0.2-2,0.5-3,0.9c-1,0.4-1.9,0.9-2.8,1.5c-0.9,0.6-1.7,1.2-2.4,2
	c-0.7,0.7-1.4,1.5-2,2.4c-0.6,0.9-1.1,1.8-1.5,2.7c-0.4,1-0.7,2-0.9,3c-0.2,1-0.3,2.1-0.3,3.1V369c0,1,0.1,2.1,0.3,3.1
	c0.2,1,0.5,2,0.9,3c0.4,1,0.9,1.9,1.5,2.8c0.6,0.9,1.2,1.7,2,2.4c0.7,0.7,1.5,1.4,2.4,2c0.9,0.6,1.8,1.1,2.8,1.5s2,0.7,3,0.9
	s2.1,0.3,3.1,0.3H88c1,0,2.1-0.1,3.1-0.3c1-0.2,2-0.5,3-0.9c1-0.4,1.9-0.9,2.8-1.5c0.9-0.6,1.7-1.2,2.4-2c0.7-0.7,1.4-1.6,2-2.4
	c0.6-0.9,1.1-1.8,1.5-2.8s0.7-2,0.9-3c0.2-1,0.3-2.1,0.3-3.1v-38.1c0-1-0.1-2.1-0.3-3.1c-0.2-1-0.5-2-0.9-3c-0.4-1-0.9-1.9-1.5-2.7
	c-0.6-0.9-1.2-1.7-2-2.4c-0.7-0.7-1.5-1.4-2.4-2c-0.9-0.6-1.8-1.1-2.8-1.5c-1-0.4-2-0.7-3-0.9C90.1,315.1,89,315,88,315z M93.2,369
	c0,0.3,0,0.7-0.1,1c-0.1,0.3-0.2,0.7-0.3,1c-0.1,0.3-0.3,0.6-0.5,0.9c-0.2,0.3-0.4,0.6-0.7,0.8c-0.2,0.2-0.5,0.5-0.8,0.7
	c-0.3,0.2-0.6,0.4-0.9,0.5c-0.3,0.1-0.6,0.2-1,0.3c-0.3,0.1-0.7,0.1-1,0.1H49.8c-0.7,0-1.4-0.1-2-0.4c-0.6-0.3-1.2-0.6-1.7-1.1
	c-0.5-0.5-0.9-1.1-1.1-1.7c-0.3-0.6-0.4-1.3-0.4-2v-38.2c0-0.3,0-0.7,0.1-1c0.1-0.3,0.2-0.7,0.3-1c0.1-0.3,0.3-0.6,0.5-0.9
	c0.2-0.3,0.4-0.5,0.7-0.8c0.2-0.2,0.5-0.5,0.8-0.7c0.3-0.2,0.6-0.3,0.9-0.5c0.3-0.1,0.6-0.2,1-0.3c0.3-0.1,0.7-0.1,1-0.1H88
	c0.7,0,1.3,0.1,2,0.4c0.6,0.3,1.2,0.6,1.7,1.1c0.5,0.5,0.9,1.1,1.1,1.7c0.3,0.6,0.4,1.3,0.4,2L93.2,369z"/>
<path class="st0" d="M68.9,332.7c-1.1,0-2.3,0.1-3.4,0.3c-1.1,0.2-2.2,0.5-3.3,1c-1.1,0.4-2.1,1-3,1.6c-0.9,0.6-1.8,1.3-2.6,2.1
	c-0.8,0.8-1.5,1.7-2.2,2.6c-0.6,0.9-1.2,1.9-1.6,3c-0.4,1-0.8,2.1-1,3.2c-0.2,1.1-0.3,2.2-0.3,3.4c0,1.1,0.1,2.3,0.3,3.4
	c0.2,1.1,0.5,2.2,1,3.2c0.4,1.1,1,2.1,1.6,3c0.6,0.9,1.3,1.8,2.2,2.6c0.8,0.8,1.7,1.5,2.6,2.2c0.9,0.6,1.9,1.2,3,1.6
	c1.1,0.4,2.1,0.8,3.2,1c1.1,0.2,2.2,0.3,3.4,0.3c1.1,0,2.3-0.1,3.4-0.3c1.1-0.2,2.2-0.6,3.2-1c1-0.4,2-1,3-1.6
	c0.9-0.6,1.8-1.4,2.6-2.2c0.8-0.8,1.5-1.7,2.2-2.6c0.6-0.9,1.2-1.9,1.6-3c0.4-1.1,0.8-2.1,1-3.2s0.3-2.2,0.3-3.4
	c0-1.1-0.1-2.3-0.3-3.4c-0.2-1.1-0.6-2.2-1-3.2c-0.4-1-1-2-1.6-3c-0.6-0.9-1.3-1.8-2.1-2.6c-0.8-0.8-1.7-1.5-2.6-2.2
	c-0.9-0.6-1.9-1.2-3-1.6c-1-0.4-2.1-0.8-3.2-1C71.1,332.8,70,332.7,68.9,332.7z M68.9,356.6c-0.4,0-0.9,0-1.3-0.1
	c-0.4-0.1-0.8-0.2-1.2-0.4c-0.4-0.2-0.8-0.4-1.1-0.6c-0.4-0.2-0.7-0.5-1-0.8c-0.3-0.3-0.6-0.6-0.8-1c-0.2-0.4-0.4-0.7-0.6-1.1
	c-0.2-0.4-0.3-0.8-0.4-1.2c-0.1-0.4-0.1-0.9-0.1-1.3c0-0.4,0-0.9,0.1-1.3c0.1-0.4,0.2-0.8,0.4-1.2c0.2-0.4,0.4-0.8,0.6-1.1
	c0.2-0.4,0.5-0.7,0.8-1c0.3-0.3,0.6-0.6,1-0.8s0.7-0.4,1.1-0.6c0.4-0.2,0.8-0.3,1.2-0.4c0.4-0.1,0.8-0.1,1.3-0.1
	c0.4,0,0.9,0,1.3,0.1c0.4,0.1,0.8,0.2,1.2,0.4c0.4,0.2,0.8,0.4,1.1,0.6c0.4,0.2,0.7,0.5,1,0.8c0.3,0.3,0.6,0.6,0.8,1
	c0.2,0.4,0.4,0.7,0.6,1.1c0.2,0.4,0.3,0.8,0.4,1.2c0.1,0.4,0.1,0.9,0.1,1.3c0,0.4,0,0.9-0.1,1.3c-0.1,0.4-0.2,0.8-0.4,1.2
	c-0.2,0.4-0.4,0.8-0.6,1.1c-0.2,0.4-0.5,0.7-0.8,1c-0.3,0.3-0.6,0.6-1,0.8c-0.4,0.2-0.7,0.4-1.1,0.6c-0.4,0.2-0.8,0.3-1.2,0.4
	C69.7,356.5,69.3,356.6,68.9,356.6z"/>
<path class="st0" d="M373.6,337l-31.7-17.6c-0.6-0.3-1.1-0.6-1.7-0.8c-0.6-0.2-1.2-0.4-1.8-0.6c-0.6-0.2-1.3-0.3-1.9-0.4
	s-1.3-0.1-1.9-0.1c-0.6,0-1.3,0.1-1.9,0.1c-0.6,0.1-1.3,0.2-1.9,0.4c-0.6,0.2-1.2,0.4-1.8,0.6c-0.6,0.3-1.2,0.5-1.7,0.9
	c-0.6,0.3-1.1,0.7-1.6,1.1c-0.5,0.4-1,0.8-1.4,1.3c-0.5,0.5-0.9,0.9-1.3,1.5s-0.7,1.1-1.1,1.6c-0.3,0.6-0.6,1.1-0.8,1.7
	c-0.2,0.6-0.5,1.2-0.6,1.8c-0.2,0.6-0.3,1.3-0.4,1.9c-0.1,0.6-0.1,1.3-0.1,1.9v35.2c0,0.6,0,1.3,0.1,1.9c0.1,0.6,0.2,1.3,0.4,1.9
	c0.2,0.6,0.4,1.2,0.6,1.8c0.2,0.6,0.5,1.2,0.8,1.7c0.3,0.6,0.7,1.1,1.1,1.6s0.8,1,1.3,1.5c0.5,0.5,0.9,0.9,1.4,1.3
	c0.5,0.4,1,0.8,1.6,1.1c0.6,0.3,1.1,0.6,1.7,0.9c0.6,0.3,1.2,0.5,1.8,0.6s1.3,0.3,1.9,0.4c0.6,0.1,1.3,0.1,1.9,0.1
	c0.6,0,1.3,0,1.9-0.1s1.3-0.2,1.9-0.4c0.6-0.2,1.2-0.4,1.8-0.6c0.6-0.2,1.2-0.5,1.7-0.8l31.7-17.6c1.2-0.6,2.2-1.4,3.2-2.4
	c1-0.9,1.8-2,2.4-3.1c0.7-1.1,1.2-2.4,1.5-3.6c0.3-1.3,0.5-2.6,0.5-3.9s-0.2-2.6-0.5-3.9c-0.4-1.3-0.9-2.5-1.5-3.6
	c-0.7-1.1-1.5-2.2-2.4-3.1C375.8,338.4,374.7,337.6,373.6,337z M368.3,353.6l-31.6,17.6c-0.3,0.2-0.7,0.3-1,0.4
	c-0.3,0.1-0.7,0.1-1.1,0.1c-0.4,0-0.7-0.1-1.1-0.1c-0.3-0.1-0.7-0.2-1-0.4c-0.3-0.2-0.6-0.4-0.8-0.7c-0.3-0.2-0.5-0.5-0.7-0.8
	c-0.2-0.3-0.3-0.6-0.4-1c-0.1-0.3-0.2-0.7-0.2-1.1v-35.2c0-0.4,0.1-0.7,0.1-1.1c0.1-0.3,0.2-0.7,0.4-1c0.2-0.3,0.4-0.6,0.7-0.8
	c0.3-0.3,0.5-0.5,0.9-0.7c0.3-0.2,0.6-0.3,1-0.4c0.3-0.1,0.7-0.1,1.1-0.1s0.7,0,1.1,0.1c0.3,0.1,0.7,0.2,1,0.4l31.6,17.6
	c0.3,0.2,0.6,0.4,0.9,0.7c0.3,0.3,0.5,0.5,0.7,0.9c0.2,0.3,0.3,0.7,0.4,1s0.1,0.7,0.1,1.1s0,0.7-0.1,1.1c-0.1,0.4-0.2,0.7-0.4,1
	c-0.2,0.3-0.4,0.6-0.7,0.9C368.9,353.2,368.7,353.4,368.3,353.6z"/>
<path class="st0" d="M312.3,96.3c-0.1,0.6,0,1.2,0.2,1.8c0.2,0.6,0.4,1.2,0.8,1.7s0.8,1,1.3,1.3c0.5,0.4,1.1,0.6,1.7,0.8
	c9.2,2.6,18.5,4.1,28,4.3c2.7,0.1,5.3,0,8-0.3c2.7-0.4,5.2-0.9,7.8-1.8c2.5-0.8,5-1.9,7.4-3.1c2.4-1.3,4.6-2.7,6.7-4.4
	c13.5-11.5,14-29.3,13.7-35.1l5.7-9.6c0.1-0.2,0.2-0.4,0.2-0.5c0.3-0.6,0.5-1.3,0.6-2c0.1-0.7,0.1-1.4,0-2c-0.1-0.7-0.3-1.3-0.5-2
	c-0.3-0.6-0.6-1.2-1-1.8s-0.9-1-1.5-1.4c-0.6-0.4-1.2-0.7-1.8-1c-0.6-0.2-1.3-0.4-2-0.5c-0.7-0.1-1.4,0-2,0.1l-7.8,1.3
	c-0.7-0.6-1.5-1.2-2.3-1.7c-0.8-0.5-1.7-1-2.6-1.4c-0.9-0.4-1.8-0.7-2.7-1c-0.9-0.3-1.9-0.4-2.8-0.6c-1-0.1-1.9-0.2-2.9-0.2
	c-1,0-1.9,0.1-2.9,0.3c-1,0.2-1.9,0.4-2.8,0.7c-0.9,0.3-1.8,0.7-2.7,1.1c-1.5,0.6-2.8,1.4-4.1,2.4c-1.3,1-2.4,2.1-3.3,3.4
	c-1,1.3-1.8,2.6-2.4,4.1c-0.6,1.5-1,3-1.3,4.6c-7.5-3.7-13.8-8.7-19.1-15.1c-0.3-0.5-0.6-0.9-1-1.2c-0.4-0.4-0.8-0.6-1.3-0.9
	c-0.5-0.2-1-0.4-1.5-0.5c-0.5-0.1-1.1-0.1-1.6,0c-1,0.1-1.9,0.5-2.7,1.2c-0.8,0.6-1.3,1.4-1.7,2.4c-5.4,17.2-1.6,28.1,2.5,34.3
	c2.8,4.2,6.3,7.4,10.7,9.7c-1.7,1.8-3.5,3.4-5.7,4.6c-2.1,1.2-4.4,2.2-6.8,2.7c-0.6,0.1-1.2,0.3-1.7,0.6s-1,0.7-1.4,1.1
	c-0.4,0.5-0.7,1-1,1.6C312.5,95.1,312.4,95.7,312.3,96.3z M327.6,68.3c-1.4-2.3-2.5-4.8-3-7.5c-0.6-2.7-0.6-5.4-0.2-8.1
	c8.4,7.4,20.6,15,27.8,12.6c0.7-0.2,1.2-0.6,1.8-1c0.5-0.4,1-1,1.3-1.6c0.3-0.6,0.5-1.2,0.6-1.9c0.1-0.7,0.1-1.4-0.1-2
	c-0.1-0.5-0.2-1-0.3-1.5c0-0.5,0-1,0-1.5s0.1-1,0.3-1.5c0.1-0.5,0.3-1,0.5-1.4c0.2-0.5,0.5-0.9,0.8-1.3c0.3-0.4,0.6-0.8,1-1.1
	c0.4-0.3,0.8-0.7,1.2-0.9c0.4-0.3,0.9-0.5,1.3-0.7c0.9-0.5,1.9-0.8,2.9-1c1-0.2,2.1-0.1,3.1,0.1c1,0.2,2,0.6,2.9,1.1
	c0.9,0.5,1.7,1.2,2.4,2c0.6,0.7,1.4,1.3,2.3,1.6c0.9,0.3,1.8,0.4,2.8,0.2l3.9-0.6l-3.1,5.2c-0.6,1-0.8,2.1-0.7,3.2
	c0,0.2,1.7,17.9-9.9,27.8c-7.2,6.2-18.5,8.2-33.2,6.2c3.8-3,6.9-6.5,9.4-10.6c0.2-0.4,0.4-0.8,0.5-1.2c0.1-0.4,0.2-0.9,0.2-1.3
	c0-0.4,0-0.9-0.1-1.3c-0.1-0.4-0.3-0.9-0.5-1.3c-0.2-0.4-0.5-0.8-0.8-1.1c-0.3-0.3-0.6-0.6-1-0.9c-0.4-0.2-0.8-0.5-1.2-0.6
	s-0.9-0.2-1.3-0.3c-2.4-0.5-4.5-1.4-6.5-2.7C330.6,72,328.9,70.4,327.6,68.3z"/>
<g>
	<defs>
		<rect id="SVGID_1_" x="101.6" y="102" width="215.2" height="215.2"/>
	</defs>
	<clipPath id="SVGID_00000160177668295520406780000007515449580563086239_">
		<use xlink:href="#SVGID_1_"  style="overflow:visible;"/>
	</clipPath>
	<g style="clip-path:url(#SVGID_00000160177668295520406780000007515449580563086239_);">
		<g>
			<defs>
				<path id="SVGID_00000020388570459807183280000012495605802645046922_" d="M209.2,102c-59.4,0-107.6,48.2-107.6,107.6
					s48.2,107.6,107.6,107.6c59.4,0,107.6-48.2,107.6-107.6S268.7,102,209.2,102"/>
			</defs>
			<clipPath id="SVGID_00000083046571266666330960000017963013513670692280_">
				<use xlink:href="#SVGID_00000020388570459807183280000012495605802645046922_"  style="overflow:visible;"/>
			</clipPath>
			<g style="clip-path:url(#SVGID_00000083046571266666330960000017963013513670692280_);">
				<path class="st0" d="M101.6,102h215.2v215.2H101.6V102z"/>
			</g>
		</g>
	</g>
</g>
<g>
	<defs>
		<rect id="SVGID_00000023248828046502216550000009172338565355505830_" x="127.8" y="126.5" width="132" height="198.8"/>
	</defs>
	<clipPath id="SVGID_00000174598916054103517620000007244466216851330455_">
		<use xlink:href="#SVGID_00000023248828046502216550000009172338565355505830_"  style="overflow:visible;"/>
	</clipPath>
	<g style="clip-path:url(#SVGID_00000174598916054103517620000007244466216851330455_);">
		<path class="st4" d="M162.3,218.2c-5,1.7-8.6,6.1-9.4,11.3l-9,62.4c-1.1,7.7,4.2,14.8,11.9,15.9c0.7,0.1,1.4,0.1,2,0.1
			c6.9,0,12.9-5,13.9-12l7.8-53.8l33.3-11.3l-13,21.4c-2.8,4.6-2.7,10.3,0.1,14.8l32.7,51.9c2.7,4.2,7.2,6.6,11.9,6.6
			c2.6,0,5.2-0.7,7.5-2.2c6.6-4.1,8.6-12.8,4.4-19.4l-28.1-44.5l7.7-12.6l0.4-1.9c-5.6-6.8-16.2-21-16.3-30.8
			c-0.1-9.7,3.2-17.4,6.1-24.2c0.7-1.7,1.4-3.2,2-4.8c1-2.6,2.2-4.8,3.3-6.7c1.5-2.7,2.1-4,2.1-4.8c-0.1-0.3-0.3-0.6-0.4-0.9
			c-0.2-0.2-0.3-0.3-0.6-0.5c-1.7-1.3-7.4-2.1-11.6-2.7c-7.5-1-12.3-1.8-14.3-4.8c-0.8-1.2-1.1-2.6-0.8-4c0,0,0,0,0,0
			c-5.9-7.5-8.4-25.9-9.2-33.5l-7.6,2c-0.1,0-0.3,0.1-0.4,0.1c-2.2,0.4-4.3,1.7-5.7,3.7L162,162.7l-28.9-6.1
			c-1.2,0.8-2.3,1.6-2.8,2.3c-0.3,0.4-1.2,1.6-1.5,2.2c0.4,0.6,1.4,1.8,2.4,2.9l0.3,0.4c1,1.1,2.6,2.4,4.5,3.9
			c2.9,2.3,6.6,5.3,10.1,9.4l18.1,3.8c0.6,0.1,1.2,0.2,1.9,0.2c2.9,0,5.7-1.4,7.4-3.8l14.2-20.3l12.6,47.7L162.3,218.2z"/>
	</g>
</g>
<path class="st4" d="M254.5,265.5h50.2v1.9h-50.2V265.5z"/>
<path class="st4" d="M265,277.2h50.2v1.9H265V277.2z"/>
<g>
	<defs>
		<rect id="SVGID_00000093150812692571378920000009298920137258413223_" x="273.1" y="270.5" width="73.7" height="4"/>
	</defs>
	<clipPath id="SVGID_00000160905253018648918820000002970399614196209065_">
		<use xlink:href="#SVGID_00000093150812692571378920000009298920137258413223_"  style="overflow:visible;"/>
	</clipPath>
	<g style="clip-path:url(#SVGID_00000160905253018648918820000002970399614196209065_);">
		<path class="st4" d="M274.4,271.4h72.1v1.9h-72.1V271.4z"/>
	</g>
</g>
<path class="st4" d="M208.7,129.2c-1.8,0-3.6-0.2-5.3-0.5l0.2,6.9l0.4,0.4c2.1,0.9,4.4,1,6.5,0.5c2.1-0.6,4-1.9,5.2-3.8l0.2-0.6
	l-2-3.4c-0.3,0.1-0.7,0.1-1,0.2C211.5,129.1,210.1,129.2,208.7,129.2z"/>
<path class="st4" d="M211.4,139.7L211.4,139.7c-1.5,0.4-3,0.6-4.6,0.4l2.3,16.3c0.1-0.1,0.3-0.2,0.4-0.2c2.7-1.4,6.7-2.3,10.6-3.1
	c0.6-0.1,1.3-0.3,1.9-0.4l-6.6-15.1C214.3,138.6,212.9,139.3,211.4,139.7L211.4,139.7z"/>
<path class="st4" d="M223.4,213.9c0.1,9.8,13.2,25.9,16.6,30l-1,4.8c-0.5,2.4,1,4.8,3.4,5.3c2.4,0.5,4.8-1,5.3-3.4l1-4.5
	c6.4,0.1,16.2-1.2,27.8-7.9c10.7-6.2,16.2-12.2,19.1-16.6l4.7,1.9c2.3,0.9,4.9-0.2,5.8-2.5c0.9-2.3-0.2-4.9-2.5-5.8l-5.1-2.1
	c-0.3-5.9-2.4-26-15.2-33.6c-10.2-6.1-19.3-6.7-26.1-6.9l-5.4,4.8c-2.1,1.9-4.8,2.9-7.7,2.9c-3,0-5.9-1.2-8.1-3.3
	c-1.2,2.5-3.2,5.5-4.7,9.3C228.1,194.2,223.3,202.6,223.4,213.9z M262.2,190.3l-2.5,4.9c-2.4-0.7-4.3-0.4-6.4,0.7
	c-2.6,1.4-3.6,3.4-2.6,5.4c0.6,1.1,1.6,1.8,3,2c1.2,0.2,1.7,0.2,5.9,0c7.9-0.3,10.9,0.8,12.8,4.4c2.1,4,0.4,8.3-4.8,11.7l1.7,3.1
	l-3.1,1.6l-1.6-3.1c-3.5,1.5-7.2,1.8-10.8,0.8l2.6-4.8c3.7,0.8,5.6,0.7,8-0.6c2.5-1.3,3.4-3.4,2.3-5.4c-0.6-1.1-1.7-1.8-3.2-2.1
	c-1.4-0.2-2.2-0.3-6.5-0.1c-7.2,0.2-10.1-0.8-11.8-4.1c-2-3.7-0.3-8.2,4.5-11.4l-1.3-2.5l3.1-1.6l1.3,2.5
	C255.9,190.1,259,189.8,262.2,190.3z"/>
<path class="st4" d="M228,151.5c7.7,4.9-17.7,4.4-18.8,9.8c-1,4.8,15.9,4.1,23.4,7c0.1-3.1,1.4-6.2,3.9-8.4l10.3-9.1
	c0.6-2.1,0.8-3.9,0.2-5.3C244.8,140.8,220.3,146.6,228,151.5z"/>
<path class="st4" d="M222.4,125.6c2.2,5,4.8,11.5,6.3,17.5c3.9-1.8,9.8-3,14.3-2.7l1-1.5l15.1,4.4l-20.9,18.4
	c-3.7,3.3-4.1,9-0.8,12.7c1.8,2,4.3,3,6.8,3c2.1,0,4.2-0.7,5.9-2.2l33.2-29.2c2.5-2.2,3.5-5.5,2.8-8.7c-0.7-3.2-3.1-5.8-6.3-6.7
	l-25.1-7.3l-17.8-5.2c-0.8-0.2-1.5-0.3-2.3-0.3c-1.1-0.2-2.3-0.2-3.5,0.1C228.7,121.1,225.8,123.7,222.4,125.6z"/>
<path class="st4" d="M212.5,126.3c13.8-2.1,23.3-15,21.3-28.8c-2.1-13.8-15-23.3-28.8-21.2c-13.8,2.1-23.3,15-21.3,28.8
	C185.8,118.9,198.7,128.4,212.5,126.3z M227.7,106.9l-0.4,3.3c-0.1,0-11-1.2-18.8,4.5l-2-2.7C215.4,105.4,227.2,106.8,227.7,106.9z"
	/>
<g>
	<defs>
		<rect id="SVGID_00000142160222792828826950000016976416336678026166_" x="71.8" y="133.1" width="82.7" height="108"/>
	</defs>
	<clipPath id="SVGID_00000049224038126007164940000011475901824280107691_">
		<use xlink:href="#SVGID_00000142160222792828826950000016976416336678026166_"  style="overflow:visible;"/>
	</clipPath>
	<g style="clip-path:url(#SVGID_00000049224038126007164940000011475901824280107691_);">
		<path class="st4" d="M128.9,166.6c-4.4-5-4.8-5.2-1.3-9.7c3.4-4.5,14.7-7.6,15.9-12.6c1.1-5-21.8-15.3-18.7-6.7
			c3.1,8.6-16.7-7.3-20.9-3.7c-4.2,3.6,13.6,15.3,15.3,22s-5.5,6.7-12.9,11.1c-7.4,4.5-16.4,8.2-23.2,17.2
			c-5.9,7.8-5.4,28.6-5.1,33.9l-3.7,3.2c-1.9,1.6-2.1,4.4-0.5,6.3c1.6,1.9,4.4,2.1,6.3,0.5l3.5-3c5,4,13.6,8.9,26.9,10.7
			c12.3,1.6,20.3,0.2,25.3-1.6l2.5,4.3c1.2,2.1,4,2.8,6.1,1.6c2.1-1.2,2.8-4,1.6-6.1l-2.8-4.7c3.3-4.9,13.9-22.1,8.4-35.9
			C145.1,177.1,133.3,171.7,128.9,166.6z M113.6,194.3c0.9,0.9,1.3,1.2,4.7,3.6c6.4,4.6,8.2,7.2,7.5,11.3c-0.8,4.5-4.8,6.8-11,6.4
			l-0.6,3.5l-3.4-0.6l0.6-3.5c-3.7-0.9-6.8-3-9-5.9l5-2.2c2.4,2.9,4,3.9,6.8,4.4c2.8,0.5,4.8-0.7,5.2-2.9c0.2-1.2-0.2-2.5-1.2-3.6
			c-1-1.1-1.6-1.5-5.1-4.1c-5.8-4.2-7.5-6.8-6.9-10.4c0.7-4.2,4.8-6.7,10.5-6.3l0.5-2.8l3.4,0.6l-0.5,2.8c3.3,0.8,6,2.4,8.2,4.8
			l-5,2.3c-1.5-2-3.1-2.9-5.5-3.3c-2.9-0.5-5,0.5-5.3,2.7C112.2,192.1,112.6,193.3,113.6,194.3z"/>
	</g>
</g>
</svg>
