<?xml version="1.0" encoding="UTF-8"?><svg id="Layer_1" xmlns="http://www.w3.org/2000/svg" xmlns:xlink="http://www.w3.org/1999/xlink" viewBox="0 0 304.59 408.38"><defs><style>.cls-1{clip-path:url(#clippath);}.cls-2{fill:none;}.cls-2,.cls-3,.cls-4,.cls-5{stroke-width:0px;}.cls-6{clip-path:url(#clippath-1);}.cls-7{clip-path:url(#clippath-4);}.cls-8{clip-path:url(#clippath-3);}.cls-9{clip-path:url(#clippath-2);}.cls-3{fill-rule:evenodd;}.cls-3,.cls-5{fill:#eb3455;}.cls-4{fill:#203e5f;}</style><clipPath id="clippath"><rect class="cls-2" width="262.67" height="294.56"/></clipPath><clipPath id="clippath-1"><rect class="cls-2" x="29.33" y="275.9" width="204" height="24.1"/></clipPath><clipPath id="clippath-2"><rect class="cls-2" x="51.59" y="108.38" width="253" height="300"/></clipPath><clipPath id="clippath-3"><rect class="cls-2" x="159.74" y="180.74" width="36.67" height="98.64"/></clipPath><clipPath id="clippath-4"><rect class="cls-2" x="164" y="291.9" width="28" height="28.84"/></clipPath></defs><path class="cls-3" d="m53.4,294.05h156.66v-103.15c0-2.96-2.41-5.37-5.37-5.37H58.77c-2.96,0-5.37,2.41-5.37,5.37v103.15Zm78.33-7.54c-25.73,0-46.66-20.96-46.66-46.72s20.93-46.72,46.66-46.72,46.66,20.96,46.66,46.72-20.94,46.72-46.66,46.72Zm0-87.59c-22.51,0-40.82,18.34-40.82,40.87s18.31,40.87,40.82,40.87,40.81-18.33,40.81-40.87-18.31-40.87-40.81-40.87Zm0,75.67c-19.16,0-34.75-15.61-34.75-34.8s15.59-34.8,34.75-34.8,34.75,15.61,34.75,34.8-15.59,34.8-34.75,34.8Zm0-63.74c-15.94,0-28.91,12.98-28.91,28.94s12.96,28.94,28.91,28.94,28.9-12.98,28.9-28.94-12.96-28.94-28.9-28.94Zm0,53.16c-1.61,0-2.93-1.31-2.93-2.93v-.52c-5.21-1.31-9.08-6.05-9.08-11.67,0-1.62,1.3-2.93,2.92-2.93s2.92,1.31,2.92,2.93c0,2.34,1.31,4.39,3.24,5.43v-11.97c-5.21-1.3-9.08-6.04-9.08-11.66s3.87-10.36,9.08-11.67v-.52c0-1.61,1.31-2.93,2.93-2.93s2.92,1.31,2.92,2.93v.52c5.21,1.31,9.09,6.04,9.09,11.67,0,1.61-1.31,2.93-2.93,2.93s-2.92-1.31-2.92-2.93c0-2.35-1.31-4.39-3.24-5.43v11.97c5.21,1.31,9.09,6.04,9.09,11.67s-3.88,10.35-9.09,11.67v.52c0,1.62-1.31,2.93-2.92,2.93Zm-2.93-27.88v-10.86c-1.93,1.04-3.24,3.08-3.24,5.43s1.31,4.39,3.24,5.43Zm5.85,7.33v10.87c1.93-1.05,3.24-3.09,3.24-5.43s-1.31-4.39-3.24-5.44Z"/><g class="cls-1"><path class="cls-3" d="m24.73,293.35c-8.91-1.59-14.99-4.68-18.83-9.48-6.67-8.34-5.43-20.45-3.28-34.25l8.67-55.45c4.98-31.86,15.27-36.49,35.78-45.7,4.89-2.2,10.38-4.67,16.61-7.85-.66-1.98-1.39-4.12-2.15-6.31-5.69-16.51-12.78-37.05-6.38-47.49L99.17,15.06C104.81,5.85,117.53.15,132.38.15s27.57,5.71,33.21,14.91l44,71.76c6.4,10.44-.68,30.98-6.38,47.49-.83,2.4-1.63,4.73-2.33,6.88,5.78,2.92,10.91,5.22,15.5,7.28,20.51,9.22,30.8,13.84,35.78,45.71l8.67,55.45c2.17,13.8,3.41,25.91-3.27,34.25-3.84,4.8-9.93,7.89-18.84,9.48-1.22-11.63-10.2-21.19-21.96-22.92l-.85-.13v-79.41c0-6.19-5.03-11.23-11.21-11.23H58.76c-6.18,0-11.21,5.04-11.21,11.23v79.41l-.84.13c-11.77,1.73-20.75,11.29-21.97,22.92Zm125.74-135.25h-40.36c-.07,0-.15,0-.23,0-10.64-.86-14.56-9.59-14.72-9.96l-13.38-30.83c-.36-.82-.72-1.64-1.07-2.42-4.68-10.55-9.1-20.5,9.02-28.73,5.22-2.36,9.65-4.45,13.55-6.28,13.26-6.23,19.92-9.35,27.02-9.35s13.75,3.13,27.01,9.35c3.91,1.83,8.34,3.92,13.55,6.28,18.12,8.23,13.7,18.18,9.02,28.73-.35.78-.71,1.59-1.06,2.42l-13.39,30.83c-.17.38-4.09,9.1-14.72,9.96-.08,0-.16,0-.23,0Zm-40.23-5.86h40.11c7.1-.63,9.69-6.39,9.72-6.45l13.38-30.82c.37-.84.73-1.67,1.09-2.46,4.77-10.74,6.74-15.19-6.09-21.02-5.24-2.38-9.69-4.46-13.61-6.31-12.47-5.86-18.74-8.8-24.53-8.8s-12.06,2.94-24.53,8.8c-3.92,1.85-8.38,3.94-13.62,6.31-12.83,5.83-10.86,10.28-6.09,21.02.36.8.72,1.62,1.09,2.46l13.39,30.83c.1.21,2.73,5.83,9.71,6.44Z"/></g><g class="cls-6"><path class="cls-3" d="m230.1,299.91h-14.2v-23.68c9.67,1.42,17.12,9.78,17.12,19.85v.9c0,1.63-1.31,2.93-2.92,2.93Zm-182.55,0h-14.19c-1.61,0-2.93-1.3-2.93-2.93v-.9c0-10.07,7.45-18.43,17.11-19.85v23.68Z"/></g><g class="cls-9"><path class="cls-4" d="m301.84,152.12c-3.74-4.24-9.95-3.13-14.95-4.27-36.18-5.96-70.16-20.75-102.63-37.32-1.54-.74-3.16-1.37-4.77-1.93h-2.34c-5.64,1.69-10.63,4.91-15.94,7.36-28.47,13.99-58.33,26.05-89.73,31.56-4.52.92-9.22.84-13.64,2.17-3.51,1.55-6.08,5.22-5.89,9.11-.36,21.66.42,43.33,2.11,64.92,2.45,27.47,6.4,55.1,15.64,81.21,4.48,12.11,10.18,24.01,18.76,33.78,23.43,27.74,52.53,50.48,84.38,67.78,1.35.68,2.77,1.23,4.22,1.67h2.04c5.68-1.6,10.38-5.39,15.57-8.05,24.68-14.61,47.25-32.8,66.68-53.9,5.88-6.65,11.91-13.31,16.11-21.17,9.78-17.38,14.94-36.89,18.79-56.31,6.65-35.41,8.36-71.55,8.17-107.51.1-3.21-.14-6.73-2.58-9.11Zm-13.73,108.66c-3.98,21.81-9.15,44.02-20.86,63.12-10.41,15.07-23.82,27.78-37.55,39.77-15.84,13.53-33.26,25.11-51.53,35.09-32.05-17.41-61.41-40.3-84.58-68.59-11.94-15.28-17.59-34.3-22.06-52.88-8.63-38.97-10.68-79.11-10.11-118.93,41.35-4.67,79.99-21.7,116.77-40.34,36.76,18.67,75.45,35.65,116.82,40.32.52,34.24-1.12,68.63-6.89,102.44Z"/></g><path class="cls-4" d="m79.98,174.62c.69,36.85,2.81,74.09,12.54,109.8,3.81,13.17,8.71,26.54,18.1,36.82,18.89,22.6,42.32,41.03,67.56,56.04,26.85-15.97,51.65-35.9,71.15-60.44,9.24-12.68,13.61-28.08,17.23-43.15,7.28-32.47,9.24-65.88,9.78-99.06-34.36-6.64-66.98-20.02-98.17-35.61-31.21,15.58-63.81,28.99-98.19,35.6Z"/><g class="cls-8"><path class="cls-5" d="m178.05,180.74c-11.05,0-19.62,9.78-18.14,20.8l10.27,70.25c.52,3.96,3.9,6.95,7.9,6.95s7.37-2.98,7.91-6.95l10.27-70.25c1.42-11.02-7.13-20.8-18.2-20.8"/></g><g class="cls-7"><path class="cls-5" d="m178.05,292.73c-7.71,0-13.94,6.27-13.94,14.01s6.23,14,13.94,14,13.94-6.27,13.94-14-6.23-14.01-13.94-14.01"/></g></svg>