<?xml version="1.0" encoding="UTF-8"?><svg id="Layer_1" xmlns="http://www.w3.org/2000/svg" xmlns:xlink="http://www.w3.org/1999/xlink" viewBox="0 0 367.03 367.67"><defs><style>.cls-1{clip-path:url(#clippath);}.cls-2{fill:none;}.cls-2,.cls-3,.cls-4{stroke-width:0px;}.cls-5{clip-path:url(#clippath-1);}.cls-6{clip-path:url(#clippath-4);}.cls-7{clip-path:url(#clippath-3);}.cls-8{clip-path:url(#clippath-2);}.cls-9{clip-path:url(#clippath-7);}.cls-10{clip-path:url(#clippath-8);}.cls-11{clip-path:url(#clippath-6);}.cls-12{clip-path:url(#clippath-5);}.cls-13{clip-path:url(#clippath-9);}.cls-14{clip-path:url(#clippath-14);}.cls-15{clip-path:url(#clippath-13);}.cls-16{clip-path:url(#clippath-12);}.cls-17{clip-path:url(#clippath-10);}.cls-18{clip-path:url(#clippath-11);}.cls-3{fill:#203e5f;}.cls-4{fill:#eb3455;}</style><clipPath id="clippath"><rect class="cls-2" y="350.66" width="367.03" height="17.01"/></clipPath><clipPath id="clippath-1"><rect class="cls-2" x="124.35" y="96.06" width="128" height="127.93"/></clipPath><clipPath id="clippath-2"><rect class="cls-2" x="64.35" width="230.67" height="177.33"/></clipPath><clipPath id="clippath-3"><rect class="cls-2" x="127.71" y="-64.14" width="131.08" height="270.55" transform="translate(64.7 232) rotate(-71.58)"/></clipPath><clipPath id="clippath-4"><rect class="cls-2" x=".06" y="27.89" width="325.08" height="270.55" transform="translate(-43.58 265.87) rotate(-71.58)"/></clipPath><clipPath id="clippath-5"><rect class="cls-2" x="133.95" y="103.5" width="109.26" height="82.73"/></clipPath><clipPath id="clippath-6"><path class="cls-2" d="m133.95,144.87c0-22.85,24.46-41.37,54.63-41.37s54.63,18.52,54.63,41.37-24.46,41.36-54.63,41.36-54.63-18.52-54.63-41.36"/></clipPath><clipPath id="clippath-7"><rect class="cls-2" x="159.02" y="96" width="92" height="86.67"/></clipPath><clipPath id="clippath-8"><rect class="cls-2" x="167.41" y="89.88" width="75.27" height="99.4" transform="translate(-30.85 216.25) rotate(-52.25)"/></clipPath><clipPath id="clippath-9"><path class="cls-2" d="m165.75,109.16c12.72-16.43,40.64-16.13,62.33.68,21.7,16.81,28.98,43.75,16.26,60.19-12.72,16.43-40.64,16.13-62.34-.68-21.7-16.81-28.98-43.75-16.25-60.19"/></clipPath><clipPath id="clippath-10"><rect class="cls-2" x="123.02" y="96" width="76" height="86.67"/></clipPath><clipPath id="clippath-11"><rect class="cls-2" x="116.49" y="105.6" width="89.76" height="67.97" transform="translate(-41.04 207.08) rotate(-59.3)"/></clipPath><clipPath id="clippath-12"><path class="cls-2" d="m138.45,178.18c-16.14-9.58-18.96-34.63-6.31-55.94,12.66-21.31,35.99-30.82,52.14-21.24,16.14,9.58,18.96,34.63,6.31,55.94-12.66,21.31-35.99,30.82-52.14,21.24"/></clipPath><clipPath id="clippath-13"><rect class="cls-2" x="137.86" y="96.06" width="89.76" height="67.96"/></clipPath><clipPath id="clippath-14"><path class="cls-2" d="m137.86,130.04c0-18.77,20.09-33.98,44.88-33.98s44.88,15.21,44.88,33.98-20.09,33.98-44.88,33.98-44.88-15.21-44.88-33.98"/></clipPath></defs><g class="cls-1"><path class="cls-3" d="m294.72,351.31c-5.01,11.72-16.6,19.46-29.52,19.46s-24.48-7.76-29.52-19.46h-93.85c-5.03,11.7-16.69,19.46-29.52,19.46s-24.51-7.73-29.52-19.46H0v67.71h377.52v-67.71h-82.8Z"/></g><path class="cls-3" d="m144.19,345.13h89.15l-25.65-68.81c-6.34,2.3-12.7,3.47-18.93,3.47s-12.59-1.17-18.93-3.47l-25.65,68.81h0Z"/><path class="cls-3" d="m283.2,314.54c.62,1.59-.17,3.39-1.76,4.01s-3.39-.17-4.01-1.76l-43.8-112.39c-2.1-5.39-6.18-9.64-11.48-11.95-5.3-2.32-11.18-2.43-16.57-.32-10.91,4.28-16.45,16.69-12.36,27.67l47.68,127.91c3.76,10.09,13.53,16.88,24.3,16.88s20.88-6.98,24.48-17.38c8.72-25.13,22.38-71.64,15.83-100.81-3.81-16.96-13.47-30.08-28.72-38.99-7.54-4.41-14.66-6.65-18.72-7.68-.44,11.18-2.75,22.82-6.65,33.29l31.77,81.52h.01Z"/><g class="cls-5"><path class="cls-3" d="m138.12,202.16c2.7-6.93,7.95-12.4,14.77-15.38,6.82-2.98,14.39-3.13,21.31-.41,6.54,2.56,11.58,7.4,14.56,13.27,2.98-5.86,8.02-10.7,14.56-13.27,6.92-2.72,14.49-2.57,21.31.41,6.82,2.98,12.06,8.44,14.77,15.38l8.5,21.82c2.64-9.13,4.06-18.83,4.06-28.06,0-27.3,0-99.83-63.2-99.83s-63.21,72.53-63.21,99.83c0,9.22,1.43,18.93,4.07,28.06l8.5-21.82h0Z"/></g><path class="cls-3" d="m205.53,270.53l-16.77-44.98-16.77,44.98c5.65,2.04,11.27,3.08,16.77,3.08s11.12-1.04,16.77-3.08Z"/><path class="cls-3" d="m72.01,246.41c-6.55,29.16,7.11,75.67,15.83,100.8,3.6,10.39,13.44,17.38,24.48,17.38s20.54-6.78,24.3-16.87l47.68-127.92c4.09-10.97-1.45-23.39-12.36-27.67-5.39-2.11-11.27-2-16.57.32s-9.38,6.57-11.48,11.96l-43.8,112.38c-.62,1.59-2.42,2.38-4.01,1.76-1.59-.62-2.38-2.42-1.76-4.01l31.77-81.52c-3.89-10.47-6.21-22.11-6.64-33.3-4.06,1.03-11.19,3.28-18.73,7.68-15.24,8.91-24.91,22.03-28.71,38.99v.02Z"/><path class="cls-3" d="m289.62,170.54c3.54,1.32,7.22,2.93,10.35,4.82,5.19,3.12,8.83,7.77,12.36,12.26,2.92,3.72,5.68,7.23,8.95,9.32,4.5,2.87,11.82,4.01,17.41,2.72,2.39-.56,5.62-1.83,7.41-4.77,1.81-2.97,2.11-6.43.86-9.76-2.18-5.77-8.49-10.53-17.76-13.41-10.84-3.36-27.7-2.46-39.57-1.18h0Z"/><path class="cls-3" d="m303.25,140.62c2.94,1.79,5.71,3.47,9.81,4.38,4.28.95,8.91.13,12.08-2.16,1.38-.99,3.07-2.7,3.33-5.18.23-2.27-.56-4.48-2.26-6.21-2.95-3.03-8.22-4.4-14.81-3.88-7.05.56-16.28,4.49-23.55,8.16,1.68.06,3.36.2,4.94.45,4.29.7,7.42,2.6,10.45,4.43h.01Z"/><path class="cls-3" d="m38.84,199.66c5.58,1.29,12.9.15,17.4-2.72,3.27-2.09,6.03-5.6,8.95-9.32,3.53-4.49,7.17-9.14,12.36-12.26,3.13-1.89,6.82-3.5,10.35-4.82-5.76-.63-12.69-1.16-19.54-1.16-7.28,0-14.45.6-20.04,2.33-9.27,2.88-15.58,7.64-17.76,13.41-1.26,3.33-.95,6.79.86,9.76,1.79,2.94,5.02,4.21,7.41,4.77h.01Z"/><path class="cls-3" d="m52.39,142.85c3.17,2.28,7.8,3.1,12.08,2.16,4.09-.91,6.86-2.59,9.81-4.38,3.03-1.83,6.16-3.73,10.45-4.43,1.57-.26,3.25-.39,4.93-.45-7.27-3.66-16.51-7.6-23.54-8.16-.92-.08-1.81-.11-2.68-.11-5.34,0-9.59,1.39-12.14,3.99-1.69,1.73-2.49,3.94-2.25,6.21.26,2.48,1.95,4.19,3.33,5.18h.01Z"/><g class="cls-8"><g class="cls-7"><g class="cls-6"><path class="cls-4" d="m210.5,157.23c-9.13-1.88-18.23-2.16-26.91-1.02l-2.82-94.81,6.55-.23c5.6-.2,10.07-4.78,10.15-10.4v-.02c.07-5.53-4.36-10.06-9.88-10.12l-30.87-.3,8.2-2.99c11.71-4.28,24.42-4.06,35.76.33l9.83,119.56h0Zm6.31,1.55l-9.7-118.09c1.81,1.01,3.56,2.14,5.26,3.38l12.52,9.18c.51.38,1.04.7,1.59.98l15.18,112.39c-9.9-3.06-17.04-5.32-21.42-6.78-1.14-.38-2.28-.73-3.42-1.06h0Zm31.33,9.83l-15.28-113.15c3.21-.29,6.29-1.9,8.37-4.7,3.88-5.21,2.92-12.56-2.16-16.58l-19.79-15.67C202.2,4.98,180.61-1.51,158.91.35l-24.26,2.08c-6.35.55-12.72.77-19.09.66l-35.46-.59c-3.12-.05-5.7,1.67-7.73,5.16-1.17,2-3.33,8.18-6.51,18.54-2.22,7.22.98,15,7.62,18.55l29.44,15.73c8.63,4.61,18.55,6.24,28.21,4.63l2.95-.49c4.48-.74,8.98-1.33,13.5-1.74l-2.49,110.79c-7.35,6.75-13.04,15.21-16.33,25.07-.16.47-.69,2.04-6.22,18.51l-.1.31c-2.55,7.57-4.08,12.14-5.13,15.25-3.9,11.63-7.42,22.1-10.66,31.78-9.32,27.85-9.17,27.43-12.49,37.66l-6.81-2.27c-2.33-.78-4.84.49-5.62,2.82s.48,4.85,2.8,5.63l109.95,36.62c2.33.77,4.84-.49,5.62-2.82.78-2.34-.48-4.85-2.8-5.63l-12.42-4.14,9.71-29.17,20.09,6.69c8.84,2.94,18.4-1.86,21.35-10.73l5.48-16.45,5.35,1.78c1.53.51,3.17.63,4.77.35,5.32-.93,8.88-6.01,7.96-11.34l-5.98-34.51c4.31-14.36,6.9-24.24,7.8-29.9h.05c2.31.02,6.04.64,11.07,1.86,8.7,2.12,17.59-2.81,20.43-11.34.05-.15.09-.29.14-.44,2.6-8.6-2.24-17.67-10.82-20.26-13.38-4.04-24.76-7.5-34.15-10.39h.01Zm-96.79,0l2.39-106.19c1.46-.09,2.91-.16,4.37-.21l16.52-.59,2.85,95.66c-9.59,2.06-18.49,5.92-26.12,11.33h-.01Z"/></g></g></g><g class="cls-12"><g class="cls-11"><path class="cls-3" d="m133.95,186.24v-82.73h109.26v82.73h-109.26Z"/></g></g><g class="cls-9"><g class="cls-10"><g class="cls-13"><path class="cls-3" d="m142.71,138.92l46.09-59.52,78.59,60.86-46.08,59.52-78.59-60.86h0Z"/></g></g></g><g class="cls-17"><g class="cls-18"><g class="cls-16"><path class="cls-3" d="m167.68,195.53l-58.44-34.7,45.82-77.18,58.44,34.7-45.82,77.18h0Z"/></g></g></g><g class="cls-15"><g class="cls-14"><path class="cls-3" d="m137.86,164.02v-67.96h89.76v67.96h-89.76Z"/></g></g></svg>