<?xml version="1.0" encoding="UTF-8"?><svg id="Layer_1" xmlns="http://www.w3.org/2000/svg" xmlns:xlink="http://www.w3.org/1999/xlink" viewBox="0 0 289 354.02"><defs><style>.cls-1{clip-path:url(#clippath);}.cls-2{fill:none;}.cls-2,.cls-3,.cls-4,.cls-5{stroke-width:0px;}.cls-6{clip-path:url(#clippath-1);}.cls-7{clip-path:url(#clippath-4);}.cls-8{clip-path:url(#clippath-3);}.cls-9{clip-path:url(#clippath-2);}.cls-10{clip-path:url(#clippath-5);}.cls-3{fill:#203e5f;}.cls-4{fill:#fff;}.cls-5{fill:#eb3455;}</style><clipPath id="clippath"><rect class="cls-2" y="212.75" width="65.83" height="141.27"/></clipPath><clipPath id="clippath-1"><rect class="cls-2" x="207.17" y="208.75" width="81.83" height="121.33"/></clipPath><clipPath id="clippath-2"><rect class="cls-2" x="283.17" y="338.09" width="5.83" height="15.94"/></clipPath><clipPath id="clippath-3"><rect class="cls-2" x="141.83" y="324.75" width="6.67" height="29.27"/></clipPath><clipPath id="clippath-4"><rect class="cls-2" x="43.17" y="310.09" width="6.67" height="43.94"/></clipPath><clipPath id="clippath-5"><rect class="cls-2" x="237.83" y="310.09" width="6.67" height="43.94"/></clipPath></defs><path class="cls-3" d="m285.99,351.3v-52.89c0-31.81-17.7-61.1-46.07-75.42-13.68-6.92-33.38-12.68-56.34-15.91,0,.55,2.87,36.73-38.62,36.73-37.27,0-37.56-30.68-37.76-37.34-21.69,2.67-41.39,7.61-54.8,13.63-30.33,13.68-49.5,44.26-49.26,77.55l.78,53.65h282.07Z"/><path class="cls-3" d="m228.88,180.2s-28.33-39.42-84.12-39.55h-.32c-55.76.15-84.12,39.55-84.12,39.55,0,0,24.78,41.13,43.75,76.47l20.58,1.93s-10.24,11.6-14.09,14.77l33.86,56.27.16-.3.16.3,33.86-56.27c-3.86-3.17-13.44-14.77-13.44-14.77l19.94-1.93c18.98-35.33,43.79-76.47,43.79-76.47Z"/><path class="cls-3" d="m143.74,254.39c-34.93-28.01-37.36-47.92-37.36-47.92l3.73-27.32h67.46l5.18,27.93s-1.78,17.64-39.02,47.31Z"/><path class="cls-3" d="m104.84,172.86c10.45,12.93,24.33,21.57,40.94,21.57,38.78,0,60.29-47.12,60.29-85.92s-21.68-70.25-60.46-70.25-62.54,31.46-62.54,70.26c.15,18.52,4.96,36.71,13.99,52.88l7.78,11.46Z"/><path class="cls-3" d="m182.52,7.34c-10.49-9.79-24.82-1.54-32.54,4.35-3.14,2.42-7.52,2.4-10.64-.06-7.43-5.91-21.42-14.17-32.72-4.29-10.99,9.58-24.24,74.89-24.24,74.89l62.19-2.43,62.19,2.43s-13.58-64.95-24.24-74.89Z"/><path class="cls-3" d="m213.84,87.86H75.3c-5.7,0-10.32-4.63-10.32-10.33s4.63-10.33,10.32-10.33h138.54c5.7,0,10.32,4.63,10.32,10.33s-4.63,10.33-10.32,10.33Z"/><path class="cls-5" d="m190.33,123.32c0,1.5-.07,2.99-.22,4.48-.15,1.49-.37,2.97-.66,4.45-.29,1.47-.66,2.92-1.09,4.36-.44,1.43-.94,2.84-1.52,4.23s-1.21,2.74-1.92,4.06c-.71,1.32-1.48,2.6-2.31,3.85-.83,1.24-1.72,2.45-2.67,3.61-.95,1.16-1.96,2.27-3.02,3.33s-2.17,2.07-3.33,3.02c-1.16.95-2.36,1.84-3.61,2.68-1.24.83-2.53,1.6-3.85,2.31s-2.68,1.35-4.06,1.92c-1.38.57-2.79,1.08-4.22,1.51-1.44.44-2.89.8-4.36,1.09s-2.95.51-4.44.66c-1.49.15-2.98.22-4.48.22s-2.99-.07-4.48-.22c-1.49-.15-2.97-.37-4.44-.66s-2.92-.66-4.35-1.09c-1.44-.43-2.84-.94-4.23-1.51s-2.74-1.21-4.06-1.92c-1.32-.71-2.61-1.48-3.85-2.31s-2.45-1.72-3.61-2.68c-1.16-.95-2.27-1.95-3.32-3.02-1.06-1.06-2.07-2.17-3.02-3.33-.95-1.16-1.84-2.36-2.68-3.61-.83-1.25-1.6-2.53-2.31-3.85-.71-1.32-1.35-2.68-1.92-4.06s-1.08-2.8-1.51-4.23c-.44-1.44-.8-2.89-1.09-4.36-.29-1.47-.51-2.95-.66-4.45-.15-1.49-.22-2.98-.22-4.48s.07-2.99.22-4.49c.15-1.49.36-2.97.66-4.44.29-1.47.66-2.93,1.09-4.36.43-1.44.94-2.85,1.51-4.23s1.21-2.74,1.92-4.06c.7-1.32,1.47-2.6,2.31-3.85.83-1.24,1.72-2.45,2.68-3.61.95-1.16,1.95-2.27,3.02-3.33s2.17-2.06,3.32-3.02c1.16-.95,2.36-1.84,3.61-2.68s2.53-1.6,3.85-2.31c1.32-.7,2.67-1.34,4.06-1.92,1.39-.58,2.79-1.08,4.23-1.52,1.43-.44,2.89-.8,4.35-1.09s2.95-.51,4.44-.66c1.49-.15,2.98-.22,4.48-.22s2.99.07,4.48.22c1.49.15,2.97.36,4.44.66s2.92.66,4.36,1.09c1.43.43,2.84.94,4.22,1.52,1.39.57,2.74,1.21,4.06,1.92,1.32.71,2.6,1.48,3.85,2.31,1.25.83,2.45,1.72,3.61,2.68s2.27,1.96,3.33,3.02c1.06,1.06,2.06,2.17,3.02,3.33.95,1.16,1.84,2.36,2.67,3.61.83,1.25,1.6,2.54,2.31,3.85.7,1.32,1.34,2.68,1.92,4.06s1.08,2.8,1.52,4.23c.43,1.43.8,2.89,1.09,4.36.29,1.47.52,2.95.66,4.44s.22,2.99.22,4.49Z"/><g class="cls-1"><path class="cls-4" d="m3.93,354.02c-1.48,0-2.7-1.19-2.72-2.68l-.78-53.65c-.23-34.61,19.76-66.05,50.85-80.07,2.91-1.31,6.16-2.59,9.67-3.8,1.4-.54,2.98.15,3.53,1.55.54,1.41-.15,2.98-1.55,3.53-.06.03-.13.05-.19.07-3.33,1.16-6.42,2.38-9.19,3.63-29.17,13.14-47.88,42.61-47.68,75.04l.78,53.63c.03,1.51-1.18,2.74-2.68,2.77h-.05Z"/></g><g class="cls-6"><path class="cls-4" d="m285.99,330.06c-1.51,0-2.72-1.22-2.72-2.72v-28.93c0-31.11-17.08-59.11-44.57-72.99-7.93-4.01-18.1-7.65-29.39-10.54-1.45-.39-2.33-1.88-1.94-3.33.38-1.45,1.87-2.33,3.32-1.94,11.83,3.03,22.11,6.71,30.48,10.95,14.36,7.26,26.41,18.41,34.77,32.17,8.38,13.76,12.8,29.57,12.79,45.68v28.93c0,1.51-1.22,2.72-2.72,2.72h-.03Z"/></g><g class="cls-9"><path class="cls-4" d="m285.99,354.02c-1.51,0-2.72-1.22-2.72-2.72v-9.39c0-1.51,1.22-2.72,2.72-2.72s2.72,1.22,2.72,2.72v9.4c0,1.51-1.22,2.72-2.72,2.72Z"/></g><g class="cls-8"><path class="cls-4" d="m144.57,354.02c-1.51,0-2.72-1.22-2.72-2.72v-23.69c0-1.51,1.22-2.72,2.72-2.72s2.72,1.22,2.72,2.72v23.69c0,1.51-1.22,2.72-2.72,2.72Z"/></g><path class="cls-4" d="m203.37,69.93c-1.26,0-2.35-.85-2.65-2.07-.96-4.05-1.88-7.76-2.77-11.35-.38-1.46.49-2.95,1.94-3.33,1.46-.39,2.95.49,3.33,1.94.93,3.63,1.85,7.36,2.82,11.45.35,1.46-.56,2.93-2.02,3.28-.21.05-.42.07-.63.07l-.03.02Z"/><path class="cls-4" d="m85.69,69.93c-1.51-.02-2.71-1.26-2.69-2.76,0-.2.03-.4.07-.58,5.64-24.2,13.99-54.49,21.79-61.3,9.51-8.3,22.37-6.79,36.21,4.22,2.15,1.67,5.15,1.67,7.3,0,14.36-10.97,27.17-12.45,36.04-4.15,4.55,4.24,9.67,16.59,15.62,37.82.46,1.43-.32,2.97-1.75,3.43-1.43.46-2.96-.32-3.43-1.75-.02-.07-.04-.14-.06-.21-7.38-26.15-12.02-33.36-14.13-35.32-9.05-8.43-22.07-.79-29.03,4.52-4.13,3.18-9.89,3.14-13.97-.09-6.69-5.32-19.4-12.96-29.24-4.38-5.16,4.5-12.44,25.8-20.04,58.43-.29,1.25-1.41,2.13-2.69,2.11Z"/><path class="cls-4" d="m205.08,126.05h-14.75c-1.51,0-2.72-1.22-2.72-2.72s1.22-2.72,2.72-2.72h14.74c1.51,0,2.72,1.22,2.72,2.72s-1.22,2.72-2.72,2.72h.01Z"/><path class="cls-4" d="m98.81,126.05h-14.64c-1.51,0-2.72-1.22-2.72-2.72s1.22-2.72,2.72-2.72h14.64c1.51,0,2.72,1.22,2.72,2.72s-1.22,2.72-2.72,2.72h0Z"/><path class="cls-4" d="m131.11,116.16c-1.51,0-2.72-1.22-2.72-2.72v-6.56c0-1.51,1.22-2.72,2.72-2.72s2.72,1.22,2.72,2.72v6.52c.02,1.5-1.18,2.74-2.68,2.77h-.04Z"/><path class="cls-4" d="m156.41,116.16c-1.5,0-2.72-1.22-2.72-2.72v-6.6c0-1.51,1.22-2.72,2.72-2.72s2.72,1.22,2.72,2.72v6.56c.02,1.5-1.18,2.74-2.68,2.77h-.04Z"/><path class="cls-4" d="m145.64,144.2c-9.58-.06-19.01-2.5-27.41-7.11-1.23-.87-1.52-2.57-.66-3.8.77-1.09,2.22-1.46,3.42-.88.26.16,24.05,13.96,47.58,0,1.26-.82,2.95-.46,3.77.8.82,1.26.47,2.95-.79,3.77-.07.04-.14.08-.21.13-7.77,4.66-16.65,7.1-25.7,7.09Z"/><g class="cls-7"><path class="cls-4" d="m46.32,354.02c-1.51,0-2.72-1.22-2.72-2.72v-38.26c0-1.5,1.22-2.72,2.72-2.72s2.72,1.22,2.72,2.72v38.26c0,1.51-1.22,2.72-2.72,2.72Z"/></g><g class="cls-10"><path class="cls-4" d="m241.04,354.02c-1.5,0-2.72-1.22-2.72-2.72v-38.26c0-1.5,1.22-2.72,2.72-2.72s2.72,1.22,2.72,2.72v38.26c0,1.51-1.22,2.72-2.72,2.72Z"/></g><path class="cls-4" d="m143.74,276.01c-1.51,0-2.72-1.22-2.72-2.72v-18.89c0-1.51,1.21-2.73,2.72-2.73,1.51,0,2.72,1.21,2.73,2.72h0v18.91c0,1.5-1.22,2.72-2.72,2.72Z"/><path class="cls-4" d="m143.74,295.62c-1.51,0-2.72-1.22-2.72-2.72v-8.71c0-1.51,1.21-2.72,2.72-2.73,1.51,0,2.72,1.22,2.73,2.72h0v8.72c0,1.5-1.22,2.72-2.72,2.72Z"/><path class="cls-4" d="m144.73,332.35h-.31c-.95,0-1.84-.5-2.33-1.32l-33.86-56.26c-.7-1.16-.44-2.66.61-3.52,2.24-1.84,6.91-6.84,10.18-10.45l-15.2-1.43c-.91-.08-1.71-.62-2.14-1.42-18.73-34.88-43.43-75.95-43.68-76.36-.56-.94-.51-2.11.13-2.99.3-.42,7.53-10.37,21.8-20.36,3.92-2.74,8-5.24,12.23-7.47,1.34-.7,2.98-.19,3.69,1.15s.19,2.99-1.15,3.69c-4.03,2.13-7.91,4.5-11.64,7.11-7.23,5.01-13.76,10.96-19.42,17.7,4.69,7.84,25.57,42.92,42.15,73.7l19.16,1.8c1.49.14,2.59,1.47,2.45,2.97-.06.57-.29,1.11-.67,1.55-.38.42-8.06,9.11-12.65,13.48l30.5,50.7,30.54-50.73c-4.49-4.4-11.71-13.14-12.06-13.54-.96-1.16-.79-2.88.37-3.84.42-.34.93-.56,1.47-.61l18.5-1.79c16.58-30.77,37.46-65.85,42.15-73.7-8.43-9.94-18.66-18.19-30.15-24.33-1.3-.77-1.73-2.44-.97-3.73.72-1.23,2.27-1.69,3.55-1.06,21.67,11.69,32.61,26.7,33.07,27.33.64.89.68,2.06.13,2.99-.25.41-24.95,41.49-43.68,76.36-.43.8-1.23,1.33-2.14,1.42l-14.79,1.43c3.29,3.84,7.6,8.71,9.74,10.45,1.04.85,1.3,2.35.6,3.51l-33.86,56.26c-.49.82-1.38,1.32-2.33,1.32Z"/><path class="cls-4" d="m143.74,257.11c-.62,0-1.22-.21-1.7-.6-35.39-28.35-38.26-48.85-38.36-49.71-.03-.23-.03-.46,0-.69l3.72-27.33c.27-1.48,1.68-2.46,3.16-2.2,1.39.25,2.36,1.53,2.23,2.94l-3.67,26.91c.49,2.43,4.99,20.18,34.61,44.47,31.3-25.36,35.73-41.39,36.24-43.8l-4.42-24.74c-.33-1.47.59-2.93,2.06-3.26,1.47-.33,2.93.59,3.26,2.06.02.08.03.16.04.24l4.5,25.21c.04.25.04.51,0,.76-.07.77-2.33,19.14-40.02,49.16-.47.38-1.06.58-1.66.58Z"/><path class="cls-4" d="m213.84,90.58h-40.32c-.63,0-1.23-.21-1.72-.61-15.84-12.95-38.61-12.95-54.45,0-.48.4-1.09.61-1.72.61h-40.32c-7.2,0-13.04-5.84-13.04-13.05s5.84-13.05,13.04-13.05h138.54c7.2,0,13.04,5.84,13.04,13.05s-5.84,13.05-13.04,13.05Zm-39.39-5.45h39.39c4.2,0,7.6-3.41,7.6-7.6s-3.4-7.6-7.6-7.6H75.3c-4.2,0-7.6,3.4-7.6,7.6s3.4,7.6,7.6,7.6h39.39c17.56-13.77,42.25-13.77,59.81,0h-.05Z"/><path class="cls-4" d="m144.57,171.84c-26.78,0-48.48-21.72-48.48-48.51s21.71-48.51,48.48-48.51,48.48,21.72,48.48,48.51c0,9.1-2.56,18.02-7.38,25.73-8.83,14.21-24.38,22.83-41.1,22.78Zm0-91.58c-23.78.02-43.04,19.32-43.02,43.11s19.31,43.06,43.09,43.04c23.78-.02,43.03-19.32,43.02-43.11-.01-12.94-5.83-25.19-15.86-33.36-7.69-6.27-17.31-9.68-27.23-9.68Z"/><path class="cls-4" d="m145.78,197.16c-16.22,0-31.09-7.81-43.06-22.58-.95-1.17-.78-2.89.39-3.84,1.17-.95,2.89-.78,3.84.39,7.6,9.39,20.47,20.57,38.82,20.57,35.56,0,57.57-43.18,57.57-83.2.02-6.27-.6-12.53-1.85-18.67-.36-1.46.52-2.94,1.97-3.31s2.94.52,3.31,1.97c.02.08.04.16.05.23,1.32,6.52,1.97,13.14,1.96,19.79,0,20.6-5.98,42.64-16.01,58.93-11.77,19.18-28.46,29.72-47,29.72Z"/><path class="cls-4" d="m97.07,164.12c-.98,0-1.88-.53-2.36-1.39-9.27-16.57-14.21-35.23-14.35-54.22-.02-6.67.7-13.31,2.13-19.82.36-1.46,1.84-2.35,3.3-1.99,1.41.35,2.3,1.74,2.02,3.17-1.34,6.13-2.01,12.39-1.99,18.67.14,18.05,4.82,35.77,13.63,51.53.74,1.31.29,2.97-1.02,3.71-.41.23-.88.36-1.34.36v-.02Z"/></svg>