<?xml version="1.0" encoding="utf-8"?>
<!-- Generator: Adobe Illustrator 27.8.1, SVG Export Plug-In . SVG Version: 6.00 Build 0)  -->
<svg version="1.1" id="Layer_1" xmlns="http://www.w3.org/2000/svg" xmlns:xlink="http://www.w3.org/1999/xlink" x="0px" y="0px"
	 viewBox="0 0 432 445.7" style="enable-background:new 0 0 432 445.7;" xml:space="preserve">
<style type="text/css">
	.st0{fill:#203E5F;}
	.st1{clip-path:url(#SVGID_00000019645597215030856480000016812585363746784921_);}
	.st2{clip-path:url(#SVGID_00000078038107795580424560000012400655123741804448_);}
	.st3{clip-path:url(#SVGID_00000178917353082868345070000003886140459681643667_);}
	.st4{clip-path:url(#SVGID_00000174565905898033051540000010412183310763346826_);}
	.st5{clip-path:url(#SVGID_00000139269481810289614920000013252765185037339576_);}
	.st6{clip-path:url(#SVGID_00000109024593854676914530000017855825543931675784_);}
	.st7{fill-rule:evenodd;clip-rule:evenodd;fill:#FFFFFF;}
	.st8{clip-path:url(#SVGID_00000155127052217656544350000009443916042789568393_);}
	.st9{clip-path:url(#SVGID_00000056396192696972945650000006255732042286258108_);}
	.st10{clip-path:url(#SVGID_00000161599620566797689400000005281950626861863842_);}
	.st11{fill-rule:evenodd;clip-rule:evenodd;fill:#EB3455;}
	.st12{clip-path:url(#SVGID_00000135661281565388582260000005100997366445736089_);}
	.st13{clip-path:url(#SVGID_00000091706856325917294250000010910696301129776543_);}
	.st14{clip-path:url(#SVGID_00000114795212470796199670000009068367733348372139_);}
	.st15{clip-path:url(#SVGID_00000086687561078026296350000016126235155113192576_);}
	.st16{clip-path:url(#SVGID_00000067228374526447960580000017538477922778182027_);}
	.st17{clip-path:url(#SVGID_00000166673178188148863150000011676713569009826973_);}
	.st18{clip-path:url(#SVGID_00000003816680176768581360000003803624460312825239_);}
	.st19{clip-path:url(#SVGID_00000062152250297198622120000014589404031739927699_);}
	.st20{clip-path:url(#SVGID_00000011715614683145781370000003235504564012159667_);}
	.st21{clip-path:url(#SVGID_00000147205819195418163810000017531352216671984551_);}
	.st22{clip-path:url(#SVGID_00000163776970000722425060000011101140696420268427_);}
	.st23{clip-path:url(#SVGID_00000067941538252217376310000013340967476152779965_);}
	.st24{clip-path:url(#SVGID_00000047748215640920556370000011623321831535084205_);}
	.st25{clip-path:url(#SVGID_00000008836600592364702530000008491014414270125207_);}
	.st26{clip-path:url(#SVGID_00000052798962029653382710000010663274507999106229_);}
	.st27{clip-path:url(#SVGID_00000170250163682520788870000014104472459025327781_);}
	.st28{clip-path:url(#SVGID_00000103966773584089889140000007247128858965344676_);}
	.st29{clip-path:url(#SVGID_00000149342723117749483110000011437333326763037327_);}
</style>
<path class="st0" d="M383.7,283.3c0-0.9-0.4-1.8-1-2.5L165.3,63.7c-1.4-1.4-3.6-1.4-5,0c-3.6,3.6-8.3,5.5-13.4,5.5
	c-5.1,0-9.8-2-13.4-5.5c-1.4-1.4-3.6-1.4-5,0l-82.1,82.1c-0.7,0.7-1,1.6-1,2.5c0,0.9,0.4,1.8,1,2.5c6.6,6.6,7.4,16.8,2,24.3
	c-1,1.4-0.8,3.3,0.4,4.6L228,358.8c0,0,0,0,0,0l38.5,38.5c1.2,1.2,3.1,1.4,4.5,0.4c7.6-5.4,17.8-4.5,24.4,2c0.7,0.7,1.6,1,2.5,1
	c0.9,0,1.8-0.3,2.5-1l82.1-82.1c0.7-0.7,1-1.6,1-2.5c0-0.9-0.4-1.8-1-2.5c-7.4-7.4-7.4-19.4,0-26.8
	C383.3,285.2,383.7,284.3,383.7,283.3z M276.1,236.9c0,15.1-5.9,29.4-16.6,40c0,0,0,0,0,0c-10.7,10.7-24.9,16.6-40,16.6
	s-29.4-5.9-40.1-16.6c-22.1-22.1-22.1-58,0-80.1c11.1-11,25.6-16.6,40.1-16.6s29,5.5,40,16.6C270.2,207.6,276.1,221.8,276.1,236.9z"
	/>
<g>
	<defs>
		<rect id="SVGID_1_" width="432" height="445.7"/>
	</defs>
	<clipPath id="SVGID_00000052822792080005487660000014284154791286368181_">
		<use xlink:href="#SVGID_1_"  style="overflow:visible;"/>
	</clipPath>
	<g style="clip-path:url(#SVGID_00000052822792080005487660000014284154791286368181_);">
		<path class="st0" d="M431.2,64.3c-0.5-0.8-1.2-1.4-2.1-1.7L269.7,18.8L265,2.6c-0.6-1.9-2.5-2.9-4.4-2.4L162.4,29l-12.9-12.9
			c-1.4-1.4-3.6-1.4-5,0l-25.7,25.7L76.9,54c-0.9,0.3-1.7,0.9-2.1,1.7c-0.4,0.8-0.5,1.8-0.3,2.7l6.2,21.3L1.3,159
			c-0.7,0.7-1,1.6-1,2.5c0,0.9,0.4,1.8,1,2.5l147.4,147.3l17.8,60.5c0,0,0,0,0,0l13.8,46.8c0.5,1.5,1.9,2.5,3.4,2.5
			c0.3,0,0.7,0,1-0.1l57.1-16.8l40.4,40.4c0.7,0.7,1.6,1,2.5,1s1.8-0.3,2.5-1l143.1-143c0.7-0.7,1-1.6,1-2.5s-0.4-1.8-1-2.5
			l-48.6-48.6L431.6,67C431.8,66.1,431.7,65.1,431.2,64.3z M259.2,8l48.9,166.6l-20.9-20.9L256.5,49.3c-0.5-1.9-2.5-2.9-4.4-2.4
			c-4.5,1.3-9.3,0.8-13.5-1.5c-4.2-2.3-7.2-6-8.5-10.5c-0.3-0.9-0.9-1.7-1.7-2.1c-0.8-0.5-1.8-0.6-2.7-0.3l-46.3,13.6l-11.4-11.4
			L259.2,8z M82.3,59.8l25.9-7.6L86.5,74L82.3,59.8z M186.1,413.3l-12.8-43.3c0,0,0,0,0,0l-14.1-48.1l76.9,76.8L186.1,413.3z
			 M284.7,437.2L8.8,161.6L123,47.5c0,0,0.1,0,0.1-0.1l23.9-23.9l29,29c0,0,0.1,0,0.1,0.1l246.7,246.5L284.7,437.2z M376.6,239.8
			l-0.7,2.6l-11-10.9l35.9-130.3c0.2-0.9,0.1-1.9-0.3-2.7c-0.5-0.8-1.2-1.4-2.1-1.7c-4.4-1.2-8-4-10.3-8c-2.2-3.9-2.8-8.5-1.6-12.9
			c0.2-0.9,0.1-1.9-0.3-2.7c-0.5-0.8-1.2-1.4-2.1-1.7L281.8,43.4c-1.8-0.5-3.6,0.5-4.2,2.2l-5.5-18.8l151.8,41.7L376.6,239.8z"/>
	</g>
</g>
<path class="st0" d="M242.5,208.9l-6.2,6.3c-2.5-1.6-5.3-2.4-8.3-2.4c-4.1,0-8.1,1.7-11,4.5c-2.9,2.9-4.6,6.9-4.6,11
	c0,4.1,1.7,8.1,4.6,11c1.6,1.6,2.5,3.8,2.5,6c0,2.2-0.9,4.4-2.5,6c-3.2,3.2-8.9,3.2-12,0c-1.6-1.6-2.5-3.8-2.5-6
	c0-2.2,0.9-4.4,2.5-6c1.4-1.4,1.4-3.6,0-5c-1.4-1.4-3.6-1.4-5,0c-2.9,2.9-4.5,6.9-4.5,11c0,2.9,0.8,5.8,2.4,8.2l-6.3,6.3
	c-1.4,1.4-1.4,3.6,0,5c0.7,0.7,1.6,1,2.5,1c0.9,0,1.8-0.3,2.5-1l6.3-6.3c2.4,1.5,5.2,2.4,8.2,2.4c4.2,0,8.1-1.6,11-4.6
	c2.9-3,4.6-6.9,4.6-11c0-4.1-1.7-8.1-4.6-11c-1.6-1.6-2.5-3.8-2.5-6s0.9-4.4,2.5-6c3.1-3.2,8.7-3.2,12.1,0.1c3.2,3.3,3.2,8.7-0.1,12
	c-1.4,1.4-1.4,3.6,0,5c1.4,1.4,3.6,1.4,5,0c5.1-5.1,5.9-13,2.2-19.1l6.3-6.5c1.4-1.4,1.3-3.6-0.1-5
	C246.1,207.5,243.8,207.5,242.5,208.9z"/>
<g>
	<defs>
		<rect id="SVGID_00000152972452451874878290000000047296374133943222_" x="159.5" y="174.9" width="124.8" height="124.8"/>
	</defs>
	<clipPath id="SVGID_00000064336002466324331430000007935606785174023300_">
		<use xlink:href="#SVGID_00000152972452451874878290000000047296374133943222_"  style="overflow:visible;"/>
	</clipPath>
	<g style="clip-path:url(#SVGID_00000064336002466324331430000007935606785174023300_);">
		<g>
			<defs>
				<path id="SVGID_00000145043922290517435620000012705836921899514536_" d="M221.9,174.9c-34.5,0-62.4,27.9-62.4,62.4
					c0,34.5,27.9,62.4,62.4,62.4s62.4-27.9,62.4-62.4C284.3,202.9,256.4,174.9,221.9,174.9"/>
			</defs>
			<clipPath id="SVGID_00000155117697799806989620000011125615445020013471_">
				<use xlink:href="#SVGID_00000145043922290517435620000012705836921899514536_"  style="overflow:visible;"/>
			</clipPath>
			<g style="clip-path:url(#SVGID_00000155117697799806989620000011125615445020013471_);">
				<path class="st0" d="M159.5,174.9h124.8v124.8H159.5V174.9z"/>
			</g>
		</g>
	</g>
</g>
<g>
	<defs>
		<rect id="SVGID_00000066498313799994769700000015759757171683877522_" x="158.7" y="174.7" width="110.7" height="110.7"/>
	</defs>
	<clipPath id="SVGID_00000112602546403165178550000003497268849318508171_">
		<use xlink:href="#SVGID_00000066498313799994769700000015759757171683877522_"  style="overflow:visible;"/>
	</clipPath>
	<g style="clip-path:url(#SVGID_00000112602546403165178550000003497268849318508171_);">
		<g>
			<defs>
				
					<rect id="SVGID_00000111186394294933410550000010853374650250999973_" x="159.8" y="183.9" transform="matrix(0.7071 -0.7071 0.7071 0.7071 -98.2851 219.4636)" width="112" height="89"/>
			</defs>
			<clipPath id="SVGID_00000147222111085292982370000003483575693364617645_">
				<use xlink:href="#SVGID_00000111186394294933410550000010853374650250999973_"  style="overflow:visible;"/>
			</clipPath>
			<g style="clip-path:url(#SVGID_00000147222111085292982370000003483575693364617645_);">
				<g>
					<defs>
						
							<rect id="SVGID_00000147918765107274020160000016200461850921711274_" x="159.8" y="183.9" transform="matrix(0.7071 -0.7071 0.7071 0.7071 -98.2851 219.4636)" width="112" height="89"/>
					</defs>
					<clipPath id="SVGID_00000029732774264635581130000008418173213272302000_">
						<use xlink:href="#SVGID_00000147918765107274020160000016200461850921711274_"  style="overflow:visible;"/>
					</clipPath>
					<g style="clip-path:url(#SVGID_00000029732774264635581130000008418173213272302000_);">
						<path class="st7" d="M248.5,195.6c-13.5-13.5-35.5-13.4-49.1,0.2c-6.3,6.3-9.7,14.5-10.2,22.7c-0.1,1-0.4,2-1,2.8L169,246.3
							l28.8,28.8l25.1-19.2c0.8-0.6,1.8-1,2.8-1c8.3-0.5,16.4-3.9,22.7-10.2C261.9,231.1,262,209.2,248.5,195.6z M192.4,188.8
							c17.5-17.5,45.8-17.6,63.1-0.2c17.4,17.4,17.3,45.6-0.2,63.1c-7.7,7.7-17.6,12.1-27.6,13L203.8,283c-4,3-9.5,2.7-13-0.8
							l-28.8-28.8c-3.5-3.5-3.9-9.1-0.8-13l18.3-23.9C180.3,206.4,184.7,196.5,192.4,188.8z"/>
					</g>
				</g>
			</g>
		</g>
	</g>
</g>
<g>
	<defs>
		<rect id="SVGID_00000178201566143904426330000000473363175508799671_" x="202.7" y="188" width="25.3" height="32"/>
	</defs>
	<clipPath id="SVGID_00000029016249507379713230000001367705195017085084_">
		<use xlink:href="#SVGID_00000178201566143904426330000000473363175508799671_"  style="overflow:visible;"/>
	</clipPath>
	<g style="clip-path:url(#SVGID_00000029016249507379713230000001367705195017085084_);">
		<g>
			<defs>
				
					<rect id="SVGID_00000006675535582792301300000009687986118122768265_" x="159.8" y="183.9" transform="matrix(0.7071 -0.7071 0.7071 0.7071 -98.2851 219.4636)" width="112" height="89"/>
			</defs>
			<clipPath id="SVGID_00000068678277052622180030000004649204306793851789_">
				<use xlink:href="#SVGID_00000006675535582792301300000009687986118122768265_"  style="overflow:visible;"/>
			</clipPath>
			<g style="clip-path:url(#SVGID_00000068678277052622180030000004649204306793851789_);">
				<g>
					<defs>
						
							<rect id="SVGID_00000088092182836513285750000000775460490897719990_" x="159.8" y="183.9" transform="matrix(0.7071 -0.7071 0.7071 0.7071 -98.2851 219.4636)" width="112" height="89"/>
					</defs>
					<clipPath id="SVGID_00000161605636148704600790000008782313409272251822_">
						<use xlink:href="#SVGID_00000088092182836513285750000000775460490897719990_"  style="overflow:visible;"/>
					</clipPath>
					<g style="clip-path:url(#SVGID_00000161605636148704600790000008782313409272251822_);">
						<path class="st11" d="M214.6,201.1c-1.1,2.2-1.6,4.7-1.6,5.7c0,1.2,0.9,2.1,2.1,2.1c1.2,0,2.1-1,2.1-2.1c0-1-0.5-3.5-1.6-5.7
							c-0.2-0.4-0.4-0.7-0.5-1C215,200.4,214.8,200.7,214.6,201.1z M216.2,198.8C216.2,198.8,216.2,198.8,216.2,198.8
							C216.2,198.8,216.2,198.8,216.2,198.8z M214.2,198.8C214.2,198.8,214.1,198.8,214.2,198.8
							C214.1,198.8,214.2,198.8,214.2,198.8z M208.8,192.1c1.3-1.4,3.4-3,6.4-3c2.9,0,5.1,1.6,6.3,3c1.3,1.4,2.4,3.1,3.1,4.8
							c1.5,3.1,2.5,7.1,2.5,10c0,6.7-5.4,12.1-12.1,12.1c-6.7,0-12-5.4-12-12c0-2.9,1.1-6.8,2.6-10
							C206.4,195.3,207.5,193.5,208.8,192.1z"/>
					</g>
				</g>
			</g>
		</g>
	</g>
</g>
<g>
	<defs>
		<rect id="SVGID_00000044897090194613405450000017403310126042304664_" x="224" y="216" width="30.7" height="25.3"/>
	</defs>
	<clipPath id="SVGID_00000106133046762469444500000008277663185115805629_">
		<use xlink:href="#SVGID_00000044897090194613405450000017403310126042304664_"  style="overflow:visible;"/>
	</clipPath>
	<g style="clip-path:url(#SVGID_00000106133046762469444500000008277663185115805629_);">
		<g>
			<defs>
				
					<rect id="SVGID_00000132781003790698297420000001355203277414929313_" x="159.8" y="183.9" transform="matrix(0.7071 -0.7071 0.7071 0.7071 -98.2851 219.4636)" width="112" height="89"/>
			</defs>
			<clipPath id="SVGID_00000122710183782769908110000007204419412659373480_">
				<use xlink:href="#SVGID_00000132781003790698297420000001355203277414929313_"  style="overflow:visible;"/>
			</clipPath>
			<g style="clip-path:url(#SVGID_00000122710183782769908110000007204419412659373480_);">
				<g>
					<defs>
						
							<rect id="SVGID_00000145769813567633339500000000633648658581599374_" x="159.8" y="183.9" transform="matrix(0.7071 -0.7071 0.7071 0.7071 -98.2851 219.4636)" width="112" height="89"/>
					</defs>
					<clipPath id="SVGID_00000059995832026879812610000014369975431778659495_">
						<use xlink:href="#SVGID_00000145769813567633339500000000633648658581599374_"  style="overflow:visible;"/>
					</clipPath>
					<g style="clip-path:url(#SVGID_00000059995832026879812610000014369975431778659495_);">
						<path class="st11" d="M242.5,229c-2.3,1.1-4.7,1.6-5.7,1.6c-1.2,0-2.1-0.9-2.1-2.1c0-1.2,1-2.1,2.1-2.1c1,0,3.5,0.5,5.7,1.6
							c0.4,0.2,0.7,0.4,1,0.5C243.2,228.6,242.9,228.8,242.5,229z M244.8,227.4C244.8,227.4,244.8,227.5,244.8,227.4
							C244.8,227.5,244.8,227.4,244.8,227.4z M244.8,229.4C244.8,229.5,244.8,229.5,244.8,229.4
							C244.8,229.5,244.8,229.5,244.8,229.4z M251.5,234.8c1.4-1.3,3-3.4,3-6.4c0-2.9-1.6-5.1-3-6.3c-1.4-1.3-3.1-2.4-4.8-3.1
							c-3.1-1.5-7.1-2.5-10-2.5c-6.7,0-12.1,5.4-12.1,12.1c0,6.7,5.4,12,12,12c2.9,0,6.8-1.1,10-2.6
							C248.3,237.2,250.1,236.1,251.5,234.8z"/>
					</g>
				</g>
			</g>
		</g>
	</g>
</g>
<g>
	<defs>
		<rect id="SVGID_00000064339354548428098000000013328755736644751747_" x="182.7" y="254.7" width="24" height="24"/>
	</defs>
	<clipPath id="SVGID_00000102524861756702960620000009291427722752513974_">
		<use xlink:href="#SVGID_00000064339354548428098000000013328755736644751747_"  style="overflow:visible;"/>
	</clipPath>
	<g style="clip-path:url(#SVGID_00000102524861756702960620000009291427722752513974_);">
		<g>
			<defs>
				
					<rect id="SVGID_00000084497332013448073920000001036046722740707205_" x="159.8" y="183.9" transform="matrix(0.7071 -0.7071 0.7071 0.7071 -98.2851 219.4636)" width="112" height="89"/>
			</defs>
			<clipPath id="SVGID_00000116221515297286033210000011222068679557607562_">
				<use xlink:href="#SVGID_00000084497332013448073920000001036046722740707205_"  style="overflow:visible;"/>
			</clipPath>
			<g style="clip-path:url(#SVGID_00000116221515297286033210000011222068679557607562_);">
				<g>
					<defs>
						
							<rect id="SVGID_00000058578939365772313460000006932079918841738155_" x="159.8" y="183.9" transform="matrix(0.7071 -0.7071 0.7071 0.7071 -98.2851 219.4636)" width="112" height="89"/>
					</defs>
					<clipPath id="SVGID_00000009553706785375784450000002992150919460136627_">
						<use xlink:href="#SVGID_00000058578939365772313460000006932079918841738155_"  style="overflow:visible;"/>
					</clipPath>
					<g style="clip-path:url(#SVGID_00000009553706785375784450000002992150919460136627_);">
						<path class="st7" d="M204.5,257.2c1.9,1.9,1.9,5.1,0,7l-12.3,12.3c-1.9,1.9-5.1,2-7,0c-1.9-1.9-1.9-5.1,0-7l12.3-12.3
							C199.4,255.3,202.5,255.2,204.5,257.2z"/>
					</g>
				</g>
			</g>
		</g>
	</g>
</g>
<g>
	<defs>
		<rect id="SVGID_00000056392696033718157830000015407404851556030613_" x="174.7" y="246.7" width="22.7" height="22.7"/>
	</defs>
	<clipPath id="SVGID_00000149381788403150113780000013824731088374360239_">
		<use xlink:href="#SVGID_00000056392696033718157830000015407404851556030613_"  style="overflow:visible;"/>
	</clipPath>
	<g style="clip-path:url(#SVGID_00000149381788403150113780000013824731088374360239_);">
		<g>
			<defs>
				
					<rect id="SVGID_00000005977853078686662130000003338184956592244129_" x="159.8" y="183.9" transform="matrix(0.7071 -0.7071 0.7071 0.7071 -98.2851 219.4636)" width="112" height="89"/>
			</defs>
			<clipPath id="SVGID_00000163755988635484299660000008327844527531464083_">
				<use xlink:href="#SVGID_00000005977853078686662130000003338184956592244129_"  style="overflow:visible;"/>
			</clipPath>
			<g style="clip-path:url(#SVGID_00000163755988635484299660000008327844527531464083_);">
				<g>
					<defs>
						
							<rect id="SVGID_00000044898936027560892170000006172949895740402332_" x="159.8" y="183.9" transform="matrix(0.7071 -0.7071 0.7071 0.7071 -98.2851 219.4636)" width="112" height="89"/>
					</defs>
					<clipPath id="SVGID_00000111900521134995519360000010146180098197772955_">
						<use xlink:href="#SVGID_00000044898936027560892170000006172949895740402332_"  style="overflow:visible;"/>
					</clipPath>
					<g style="clip-path:url(#SVGID_00000111900521134995519360000010146180098197772955_);">
						<path class="st7" d="M195.7,248.4c1.9,1.9,1.9,5.1,0,7l-12.3,12.3c-1.9,1.9-5.1,2-7,0c-1.9-1.9-1.9-5.1,0-7l12.3-12.3
							C190.6,246.5,193.8,246.5,195.7,248.4z"/>
					</g>
				</g>
			</g>
		</g>
	</g>
</g>
<g>
	<defs>
		<rect id="SVGID_00000003096504613809661990000005177312723270190238_" x="165.3" y="237.3" width="24" height="24"/>
	</defs>
	<clipPath id="SVGID_00000090280662922301952240000009757124065287050431_">
		<use xlink:href="#SVGID_00000003096504613809661990000005177312723270190238_"  style="overflow:visible;"/>
	</clipPath>
	<g style="clip-path:url(#SVGID_00000090280662922301952240000009757124065287050431_);">
		<g>
			<defs>
				
					<rect id="SVGID_00000013883620516495579020000005982660788244833427_" x="159.8" y="183.9" transform="matrix(0.7071 -0.7071 0.7071 0.7071 -98.2851 219.4636)" width="112" height="89"/>
			</defs>
			<clipPath id="SVGID_00000070112588943222331860000003731760872527289476_">
				<use xlink:href="#SVGID_00000013883620516495579020000005982660788244833427_"  style="overflow:visible;"/>
			</clipPath>
			<g style="clip-path:url(#SVGID_00000070112588943222331860000003731760872527289476_);">
				<g>
					<defs>
						
							<rect id="SVGID_00000096041187594675398890000009486611653046703789_" x="159.8" y="183.9" transform="matrix(0.7071 -0.7071 0.7071 0.7071 -98.2851 219.4636)" width="112" height="89"/>
					</defs>
					<clipPath id="SVGID_00000094586580531816681930000006411874201108817553_">
						<use xlink:href="#SVGID_00000096041187594675398890000009486611653046703789_"  style="overflow:visible;"/>
					</clipPath>
					<g style="clip-path:url(#SVGID_00000094586580531816681930000006411874201108817553_);">
						<path class="st7" d="M187,239.7c1.9,1.9,1.9,5.1,0,7L174.6,259c-1.9,1.9-5.1,2-7,0c-1.9-1.9-1.9-5.1,0-7l12.3-12.3
							C181.9,237.8,185,237.8,187,239.7z"/>
					</g>
				</g>
			</g>
		</g>
	</g>
</g>
<g>
	<defs>
		<rect id="SVGID_00000104664106293743798490000013488443045805484961_" x="200" y="221.3" width="14.7" height="10.7"/>
	</defs>
	<clipPath id="SVGID_00000030469782680827238050000009806683407285110659_">
		<use xlink:href="#SVGID_00000104664106293743798490000013488443045805484961_"  style="overflow:visible;"/>
	</clipPath>
	<g style="clip-path:url(#SVGID_00000030469782680827238050000009806683407285110659_);">
		<g>
			<defs>
				
					<rect id="SVGID_00000066473734023797878060000007427206310485105810_" x="159.8" y="183.9" transform="matrix(0.7071 -0.7071 0.7071 0.7071 -98.2851 219.4636)" width="112" height="89"/>
			</defs>
			<clipPath id="SVGID_00000149351171658683011560000008640615572731395717_">
				<use xlink:href="#SVGID_00000066473734023797878060000007427206310485105810_"  style="overflow:visible;"/>
			</clipPath>
			<g style="clip-path:url(#SVGID_00000149351171658683011560000008640615572731395717_);">
				<g>
					<defs>
						
							<rect id="SVGID_00000129198640047027713420000003826187464677489308_" x="159.8" y="183.9" transform="matrix(0.7071 -0.7071 0.7071 0.7071 -98.2851 219.4636)" width="112" height="89"/>
					</defs>
					<clipPath id="SVGID_00000070103368024567203100000005225596657501831059_">
						<use xlink:href="#SVGID_00000129198640047027713420000003826187464677489308_"  style="overflow:visible;"/>
					</clipPath>
					<g style="clip-path:url(#SVGID_00000070103368024567203100000005225596657501831059_);">
						<path class="st11" d="M213.9,226.4c0,2.7-2.2,5-5,5l-3.5,0c-2.7,0-5-2.2-4.9-4.9c0-2.7,2.2-5,5-5l3.5,0
							C211.7,221.5,213.9,223.7,213.9,226.4z"/>
					</g>
				</g>
			</g>
		</g>
	</g>
</g>
<g>
	<defs>
		<rect id="SVGID_00000065792734349698994580000009771186033819648413_" x="212" y="229.3" width="10.7" height="14.7"/>
	</defs>
	<clipPath id="SVGID_00000076583460185731202000000006945228309021426598_">
		<use xlink:href="#SVGID_00000065792734349698994580000009771186033819648413_"  style="overflow:visible;"/>
	</clipPath>
	<g style="clip-path:url(#SVGID_00000076583460185731202000000006945228309021426598_);">
		<g>
			<defs>
				
					<rect id="SVGID_00000051342673100617099660000013398067230552234404_" x="159.8" y="183.9" transform="matrix(0.7071 -0.7071 0.7071 0.7071 -98.2851 219.4636)" width="112" height="89"/>
			</defs>
			<clipPath id="SVGID_00000066483035274820923350000010156716013808536480_">
				<use xlink:href="#SVGID_00000051342673100617099660000013398067230552234404_"  style="overflow:visible;"/>
			</clipPath>
			<g style="clip-path:url(#SVGID_00000066483035274820923350000010156716013808536480_);">
				<g>
					<defs>
						
							<rect id="SVGID_00000116199012054977779260000015219196850602632339_" x="159.8" y="183.9" transform="matrix(0.7071 -0.7071 0.7071 0.7071 -98.2851 219.4636)" width="112" height="89"/>
					</defs>
					<clipPath id="SVGID_00000084506326717063716470000006442578685441967506_">
						<use xlink:href="#SVGID_00000116199012054977779260000015219196850602632339_"  style="overflow:visible;"/>
					</clipPath>
					<g style="clip-path:url(#SVGID_00000084506326717063716470000006442578685441967506_);">
						<path class="st11" d="M217.7,230.2c-2.7,0-5,2.2-5,5l0,3.5c0,2.7,2.2,5,4.9,4.9c2.7,0,5-2.2,5-5l0-3.5
							C222.7,232.4,220.4,230.2,217.7,230.2z"/>
					</g>
				</g>
			</g>
		</g>
	</g>
</g>
</svg>
