<?xml version="1.0" encoding="utf-8"?>
<!-- Generator: Adobe Illustrator 27.8.1, SVG Export Plug-In . SVG Version: 6.00 Build 0)  -->
<svg version="1.1" id="Layer_1" xmlns="http://www.w3.org/2000/svg" xmlns:xlink="http://www.w3.org/1999/xlink" x="0px" y="0px"
	 viewBox="0 0 377 373" style="enable-background:new 0 0 377 373;" xml:space="preserve">
<style type="text/css">
	.st0{clip-path:url(#SVGID_00000019638347624124057370000017370863227226187682_);}
	.st1{clip-path:url(#SVGID_00000124148485064323522020000003749470006074836865_);}
	.st2{fill:#EB3455;}
	.st3{clip-path:url(#SVGID_00000055699919700997976350000005062620258743730323_);}
	.st4{clip-path:url(#SVGID_00000163769966957152668680000003167090056341869755_);}
	.st5{fill:#203E5F;}
	.st6{clip-path:url(#SVGID_00000156584301970760707260000017447713134933233542_);}
</style>
<g>
	<defs>
		<rect id="SVGID_1_" x="107.3" y="24.6" width="162" height="162"/>
	</defs>
	<clipPath id="SVGID_00000015347964847073459000000010538609657313927605_">
		<use xlink:href="#SVGID_1_"  style="overflow:visible;"/>
	</clipPath>
	<g style="clip-path:url(#SVGID_00000015347964847073459000000010538609657313927605_);">
		<g>
			<defs>
				<path id="SVGID_00000079487251278556706540000010476792756148265151_" d="M188.3,24.6c-44.7,0-81,36.3-81,81s36.3,81,81,81
					s81-36.3,81-81S233,24.6,188.3,24.6"/>
			</defs>
			<clipPath id="SVGID_00000004548134398480064350000012471054036599059385_">
				<use xlink:href="#SVGID_00000079487251278556706540000010476792756148265151_"  style="overflow:visible;"/>
			</clipPath>
			<g style="clip-path:url(#SVGID_00000004548134398480064350000012471054036599059385_);">
				<path class="st2" d="M107.3,24.6h162v162h-162V24.6z"/>
			</g>
		</g>
	</g>
</g>
<g>
	<defs>
		<rect id="SVGID_00000078017839614144970190000014678511265714308272_" x="121.9" y="229.2" width="132.8" height="132.8"/>
	</defs>
	<clipPath id="SVGID_00000086692518819232526440000002050455074455885989_">
		<use xlink:href="#SVGID_00000078017839614144970190000014678511265714308272_"  style="overflow:visible;"/>
	</clipPath>
	<g style="clip-path:url(#SVGID_00000086692518819232526440000002050455074455885989_);">
		<g>
			<defs>
				<path id="SVGID_00000045586938890021581110000001016668657824768160_" d="M188.3,229.2c-36.7,0-66.4,29.7-66.4,66.4
					s29.7,66.4,66.4,66.4s66.4-29.7,66.4-66.4S225,229.2,188.3,229.2"/>
			</defs>
			<clipPath id="SVGID_00000095321999255047891100000012212034773977441719_">
				<use xlink:href="#SVGID_00000045586938890021581110000001016668657824768160_"  style="overflow:visible;"/>
			</clipPath>
			<g style="clip-path:url(#SVGID_00000095321999255047891100000012212034773977441719_);">
				<path class="st2" d="M121.9,229.2h132.8V362H121.9V229.2z"/>
			</g>
		</g>
	</g>
</g>
<path class="st5" d="M169.3,70.1h12.8v6.4h-12.8V70.1z"/>
<path class="st5" d="M188.5,70.1h12.8v6.4h-12.8V70.1z"/>
<path class="st5" d="M180.7,108.7l12.8-6.4l2.9,5.7l-12.8,6.4L180.7,108.7z"/>
<g>
	<defs>
		<rect id="SVGID_00000078767408664330504700000000994379894079052679_" width="377" height="373"/>
	</defs>
	<clipPath id="SVGID_00000075134498183473471760000009154771428054463655_">
		<use xlink:href="#SVGID_00000078767408664330504700000000994379894079052679_"  style="overflow:visible;"/>
	</clipPath>
	<g style="clip-path:url(#SVGID_00000075134498183473471760000009154771428054463655_);">
		<path class="st5" d="M373.8,0H3.2C1.5,0,0.1,1.4,0.1,3.2v280.5c0,1.8,1.4,3.2,3.2,3.2h109.2c-0.4,3.1-0.6,6.3-0.6,9.6
			c0,42.2,34.3,76.5,76.7,76.5c42.3,0,76.7-34.3,76.7-76.5c0-3.3-0.2-6.5-0.6-9.6h109.2c1.8,0,3.2-1.4,3.2-3.2V3.2
			C376.9,1.4,375.5,0,373.8,0z M252.4,25.5h57.5c1.8,0,3.2,1.4,3.2,3.2c0,19.4,15.7,35.1,35.1,35.1c1.8,0,3.2,1.4,3.2,3.2v76.5
			c0,1.8-1.4,3.2-3.2,3.2c-19.4,0-35.1,15.7-35.1,35.1c0,1.8-1.4,3.2-3.2,3.2h-57.5v-6.4h54.5c1.5-20.3,17.9-36.6,38.2-38.1V70.1
			c-20.4-1.5-36.7-17.9-38.2-38.1h-54.5V25.5z M217.2,225.6v-15.1h153.3v19.1H225.6C222.9,228,220.1,226.7,217.2,225.6z M124.1,255
			H6.4v-19.1h135.3C134.8,241.3,128.8,247.7,124.1,255z M151.4,229.5H6.4v-19.1h153.3v15.1C156.9,226.7,154.1,228,151.4,229.5z
			 M188.1,127.5c0.2,0,0.2,0,0.4,0c0.3,0,0.6,0,0.9,0c4.1-0.2,8-1.3,11.4-3.3l2.9,5.7c-8.8,7.2-21.6,7.2-30.4,0l2.7-5.4
			C179.7,126.4,183.8,127.4,188.1,127.5z M188.5,188.1c-10.1,0-19.9-1.8-28.9-5.2l2.9-3.8c2.1-2.7,3.8-5.6,5.4-8.6h41.3
			c1.5,2.9,3.4,5.9,5.3,8.6l2.9,3.8C208.4,186.3,198.6,188.1,188.5,188.1z M203,149h-29c0.3-3.7,0.2-7.3-0.1-11
			c4.6,2.5,9.6,3.7,14.6,3.7s10.1-1.3,14.6-3.7C202.7,141.7,202.7,145.4,203,149z M173.1,155.4h30.8c0.6,2.9,1.4,5.9,2.5,8.8h-35.8
			C171.7,161.3,172.5,158.4,173.1,155.4z M223.5,180.4l-3.8-5.1c-8.8-11.7-12.2-26.5-9.6-40.7l16.7,4.1c2.7,0.7,5,2.5,6.2,5
			l11.4,22.8C238.2,172.2,231.1,176.9,223.5,180.4z M166.9,134.6c2.7,14.3-0.7,29-9.6,40.7l-3.8,5.1c-7.7-3.6-14.8-8.3-20.9-13.9
			l11.4-22.8c1.3-2.5,3.5-4.3,6.2-5L166.9,134.6z M166.1,210.4h44.7v12.9c-7.1-2.2-14.6-3.3-22.4-3.3c-7.7,0-15.2,1.2-22.4,3.3
			V210.4z M290.7,108.4V102H329v6.4H290.7z M188.5,22.3c45.8,0,83,37.1,83,82.9c0,21.9-8.5,41.8-22.4,56.6l-10.5-20.9
			c-2.1-4.1-5.9-7.2-10.4-8.4l-18.4-4.6l-3.9-7.8c0.2-0.2,0.5-0.5,0.7-0.8c1.7-1.9,3-4,4.1-6.3l12.4,6.1c6.1,3,13.4,1.8,18.2-2.9
			c6.1-6.1,6.1-16.1,0-22.2c-5.3-5.3-8.9-11.8-10.8-19l-2.3-9.1c-4.6-18.1-21-30.8-39.8-30.8c-18.8,0-35.1,12.8-39.7,30.9l-2.3,9.1
			c-0.2,0.5-0.2,1-0.4,1.4h20v-3.4c0.1-8.7,7.3-15.7,16.1-15.7h5.2c8.5,0,15.6,6.4,16.4,14.9l2.6,28.9c0.5,5.1-1.2,10.2-4.6,13.9
			c-3.3,3.7-7.8,5.8-12.7,6c-0.3,0-0.6,0-1,0c-10.7-0.2-19.7-8.2-21.6-18.7l-25.4-7.3c-1.6-0.5-3-1.4-4.2-2.5
			c-0.4,0.4-0.8,0.9-1.2,1.3c-6.2,6.1-6.2,16.1,0,22.2c4.8,4.8,12.1,6,18.2,2.9l10.5-5.2c1.7,2.6,3.8,5,6.2,7l-3.4,6.9l-18.4,4.6
			c-4.6,1.1-8.3,4.1-10.4,8.4l-10.6,20.8c-13.9-14.8-22.4-34.8-22.4-56.6C105.5,59.5,142.7,22.3,188.5,22.3z M25.6,66.9
			c0-1.8,1.4-3.2,3.2-3.2c19.4,0,35.1-15.7,35.1-35.1c0-1.8,1.4-3.2,3.2-3.2h57.5v6.4H70.2C68.6,52.2,52.3,68.5,32,70v70.4
			c20.4,1.5,36.7,17.9,38.2,38.1h54.5v6.4H67.1c-1.8,0-3.2-1.4-3.2-3.2c0-19.4-15.7-35.1-35.1-35.1c-1.8,0-3.2-1.4-3.2-3.2V66.9z
			 M86.3,102v6.4H48V102H86.3z M6.4,280.5v-19.1h113.9c-3.1,6-5.4,12.4-6.9,19.1H6.4z M233.2,322l-19.2,19.1l-25.6-25.5l-25.6,25.5
			L143.8,322l25.6-25.5L143.8,271l19.2-19.1l25.6,25.5l25.6-25.5l19.2,19.1l-25.6,25.5L233.2,322z M235.3,235.9h135.3V255H252.9
			C248.2,247.7,242.2,241.3,235.3,235.9z M263.5,280.5c-1.4-6.8-3.8-13.2-6.9-19.1h113.9v19.1H263.5z"/>
	</g>
</g>
<path class="st5" d="M142.9,89.1l35,10c5.3,1.5,10.6-2.5,10.6-8c0-4.5-3.8-8.3-8.3-8.3h-36.3c-1.4,0-2.6,0.8-3.1,2.1
	C140.1,86.8,141.2,88.6,142.9,89.1z"/>
</svg>
