<?xml version="1.0" encoding="utf-8"?>
<!-- Generator: Adobe Illustrator 27.8.1, SVG Export Plug-In . SVG Version: 6.00 Build 0)  -->
<svg version="1.1" id="Layer_1" xmlns="http://www.w3.org/2000/svg" xmlns:xlink="http://www.w3.org/1999/xlink" x="0px" y="0px"
	 viewBox="0 0 435.2 435.8" style="enable-background:new 0 0 435.2 435.8;" xml:space="preserve">
<style type="text/css">
	.st0{clip-path:url(#SVGID_00000140725200535944375760000015427549431604256438_);}
	.st1{clip-path:url(#SVGID_00000143590121875877966000000012283522696669095332_);}
	.st2{fill:#EB3455;}
	.st3{fill:#203E5F;}
	.st4{clip-path:url(#SVGID_00000050633269763660149730000016897513619160897925_);}
</style>
<g>
	<defs>
		<rect id="SVGID_1_" x="144.1" y="22" width="148" height="196.1"/>
	</defs>
	<clipPath id="SVGID_00000067946768915648994640000012953914701957710521_">
		<use xlink:href="#SVGID_1_"  style="overflow:visible;"/>
	</clipPath>
	<g style="clip-path:url(#SVGID_00000067946768915648994640000012953914701957710521_);">
		<g>
			<defs>
				<path id="SVGID_00000039855828871153785490000016498332623248113557_" d="M218.1,22c-40.9,0-74,43.9-74,98.1
					c0,54.2,33.1,98.1,74,98.1s74-43.9,74-98.1C292.1,65.9,259,22,218.1,22"/>
			</defs>
			<clipPath id="SVGID_00000170279134395133217160000002919550019283604130_">
				<use xlink:href="#SVGID_00000039855828871153785490000016498332623248113557_"  style="overflow:visible;"/>
			</clipPath>
			<g style="clip-path:url(#SVGID_00000170279134395133217160000002919550019283604130_);">
				<path class="st2" d="M144.1,22h148v196.1h-148V22z"/>
			</g>
		</g>
	</g>
</g>
<path class="st3" d="M209.2,137.9l8.5-8.5l-36.9-22.1l-3.6,10.8c-2.3,6.9-0.6,14.6,4.7,19.8C189.5,145.4,201.7,145.4,209.2,137.9z"
	/>
<path class="st3" d="M253.5,137.9c5.2-5.2,7-12.8,4.7-19.8l-3.6-10.8l-36.9,22.1l8.5,8.5C233.8,145.4,245.9,145.4,253.5,137.9z"/>
<path class="st3" d="M339.5,158.9c-2,0-3.7,1.7-3.7,3.7v7.4c0,2,1.7,3.7,3.7,3.7h44.3c2,0,3.7-1.7,3.7-3.7v-7.4c0-2-1.7-3.7-3.7-3.7
	h-11.1v-55.3c0-2-1.7-3.7-3.7-3.7h-22.1c-2,0-3.7,1.7-3.7,3.7v7.4c0,2,1.7,3.7,3.7,3.7h3.7v44.3H339.5z"/>
<path class="st3" d="M369,85.1c2,0,3.7-1.7,3.7-3.7V74c0-2-1.7-3.7-3.7-3.7h-14.8c-2,0-3.7,1.7-3.7,3.7v7.4c0,2,1.7,3.7,3.7,3.7H369
	z"/>
<path class="st3" d="M239.8,350.8c0,0.7,0,1.4-0.1,2.2c-0.1,0.7-0.2,1.4-0.3,2.1c-0.1,0.7-0.3,1.4-0.5,2.1c-0.2,0.7-0.5,1.4-0.7,2
	c-0.3,0.7-0.6,1.3-0.9,2c-0.3,0.6-0.7,1.3-1.1,1.9c-0.4,0.6-0.8,1.2-1.3,1.7c-0.5,0.6-0.9,1.1-1.5,1.6c-0.5,0.5-1,1-1.6,1.5
	c-0.6,0.5-1.1,0.9-1.7,1.3c-0.6,0.4-1.2,0.8-1.9,1.1c-0.6,0.3-1.3,0.7-2,0.9c-0.7,0.3-1.3,0.5-2,0.7c-0.7,0.2-1.4,0.4-2.1,0.5
	c-0.7,0.1-1.4,0.2-2.2,0.3c-0.7,0.1-1.4,0.1-2.2,0.1c-0.7,0-1.5,0-2.2-0.1c-0.7-0.1-1.4-0.2-2.2-0.3c-0.7-0.1-1.4-0.3-2.1-0.5
	c-0.7-0.2-1.4-0.5-2-0.7c-0.7-0.3-1.3-0.6-2-0.9c-0.6-0.3-1.3-0.7-1.9-1.1c-0.6-0.4-1.2-0.8-1.7-1.3c-0.6-0.5-1.1-0.9-1.6-1.5
	c-0.5-0.5-1-1.1-1.5-1.6c-0.5-0.6-0.9-1.1-1.3-1.7c-0.4-0.6-0.8-1.2-1.1-1.9c-0.3-0.6-0.7-1.3-0.9-2c-0.3-0.7-0.5-1.4-0.7-2
	c-0.2-0.7-0.4-1.4-0.5-2.1c-0.1-0.7-0.2-1.4-0.3-2.1c-0.1-0.7-0.1-1.4-0.1-2.2c0-0.7,0-1.4,0.1-2.2c0.1-0.7,0.2-1.4,0.3-2.1
	c0.1-0.7,0.3-1.4,0.5-2.1c0.2-0.7,0.5-1.4,0.7-2c0.3-0.7,0.6-1.3,0.9-2c0.3-0.6,0.7-1.3,1.1-1.9c0.4-0.6,0.8-1.2,1.3-1.7
	c0.5-0.6,0.9-1.1,1.5-1.6c0.5-0.5,1-1,1.6-1.5c0.6-0.5,1.1-0.9,1.7-1.3c0.6-0.4,1.2-0.8,1.9-1.1c0.6-0.3,1.3-0.7,2-0.9
	c0.7-0.3,1.3-0.5,2-0.7c0.7-0.2,1.4-0.4,2.1-0.5c0.7-0.1,1.4-0.2,2.2-0.3c0.7-0.1,1.4-0.1,2.2-0.1c0.7,0,1.4,0,2.2,0.1
	c0.7,0.1,1.4,0.2,2.2,0.3c0.7,0.1,1.4,0.3,2.1,0.5c0.7,0.2,1.4,0.5,2,0.7c0.7,0.3,1.3,0.6,2,0.9c0.6,0.3,1.3,0.7,1.9,1.1
	c0.6,0.4,1.2,0.8,1.7,1.3c0.6,0.5,1.1,0.9,1.6,1.5c0.5,0.5,1,1.1,1.5,1.6c0.5,0.6,0.9,1.1,1.3,1.7c0.4,0.6,0.8,1.2,1.1,1.9
	c0.3,0.6,0.7,1.3,0.9,2c0.3,0.7,0.5,1.4,0.7,2c0.2,0.7,0.4,1.4,0.5,2.1c0.1,0.7,0.2,1.4,0.3,2.1C239.8,349.3,239.8,350,239.8,350.8z
	"/>
<g>
	<defs>
		<rect id="SVGID_00000158713959354078724870000013253921799502074760_" width="391.5" height="435.8"/>
	</defs>
	<clipPath id="SVGID_00000110442456256574698740000004244868951356697233_">
		<use xlink:href="#SVGID_00000158713959354078724870000013253921799502074760_"  style="overflow:visible;"/>
	</clipPath>
	<g style="clip-path:url(#SVGID_00000110442456256574698740000004244868951356697233_);">
		<path class="st3" d="M377.3,293.9c-5.5-26.1-23.2-48.4-47.5-59.6l-51.2-23.6c7.8-7.9,14.5-17.2,19.6-27.4l0.5-0.9
			c7.4-14.8,11.3-31.4,11.3-47.9v-24.8c0-43.4-25.8-82.1-65.9-98.8l-25-10.4c-0.9-0.4-1.9-0.4-2.9,0l-25,10.4
			c-39.9,16.7-65.8,55.4-65.8,98.8v24.8c0,16.5,3.9,33.1,11.3,47.9l0.5,0.9c5.2,10.2,11.8,19.5,19.6,27.4L132.4,222l-6-42.2l-7.3,1
			l5.2,36.4l-35.1-25.1c-0.7-0.6-1.7-0.7-2.6-0.6c-3,0.4-6,0.6-9,0.6c-38.7,0-70.1-31.5-70.1-70.1s31.5-70.1,70.1-70.1
			c15.3,0,29.9,4.9,42.1,14l4.4-5.9c-13.5-10.1-29.6-15.4-46.5-15.4C34.8,44.5,0,79.3,0,122s34.8,77.5,77.5,77.5
			c2.9,0,5.7-0.2,8.5-0.5l37.7,26.9l-18.2,8.4c-24.2,11.3-42,33.5-47.4,59.6l-12.6,60c-5.4,25.6,5.9,52.2,28.1,66.1l16.9,10.5
			c5.3,3.3,11.3,5.1,17.6,5.1h219.2c6.3,0,12.4-1.8,17.6-5.1l16.9-10.5c22.2-13.9,33.6-40.5,28.1-66.1L377.3,293.9z M155,118.4V95.8
			l125.5-13.9v32.7c0,28-20.9,51.2-48,54.9c-0.3-7.9-6.7-14.3-14.8-14.3c-8.1,0-14.8,6.6-14.8,14.8c0,8.1,6.6,14.8,14.8,14.8
			c5.5,0,10.4-3,12.9-7.7c17.4-1.6,32.8-10.2,43.3-23.1c-7.3,19-20.3,35.6-37.8,47.2l-18.4,12.3l-18.4-12.3
			C171.6,182.7,155,151.8,155,118.4z M332.7,417.6c-0.3,5.9-5.2,10.6-11.1,10.6H113.7c-5.9,0-10.8-4.6-11.1-10.6l-6-132.8
			c-0.2-3,0.9-5.9,3-8.1c2.1-2.2,5-3.4,8-3.4h220c3,0,5.9,1.2,8,3.4c2.1,2.2,3.2,5.1,3,8.1L332.7,417.6z"/>
	</g>
</g>
<path class="st3" d="M33.2,85.1c-4.1,0-7.4,3.3-7.4,7.4v51.7c0,4.1,3.3,7.4,7.4,7.4H107c4.1,0,7.4-3.3,7.4-7.4V92.5
	c0-4.1-3.3-7.4-7.4-7.4H33.2z M55.3,133.1H40.6v-7.4h14.8V133.1z M55.3,110.9H40.6v-7.4h14.8V110.9z M77.5,133.1H62.7v-7.4h14.8
	V133.1z M99.6,133.1H84.9v-7.4h14.8V133.1z"/>
<path class="st3" d="M412.7,67.2c-15-15-35-23.1-56.3-22.7c-16.3,0.3-31.9,5.7-45,15.6l4.4,5.9c11.9-8.9,25.9-13.8,40.7-14.1
	c19.2-0.4,37.4,6.9,50.9,20.5c13.6,13.6,20.8,31.6,20.5,50.9c-0.4,18.2-7.7,35.2-20.7,48.2c-12.9,12.9-30.1,20.2-48.2,20.6
	c-2.7,0-5.3-0.1-8-0.3c-0.6-0.1-1.2,0-1.8,0.3l-30.2,12.3l5.1-17.4c0.5-1.7-0.2-3.4-1.7-4.2c-2.4-1.4-4.7-2.9-6.8-4.5l-4.4,5.9
	c1.7,1.2,3.3,2.4,5.1,3.5l-6.5,22c-0.4,1.4,0,2.9,1.1,3.8c0.6,0.6,1.6,0.9,2.5,0.9c0.5,0,0.9-0.1,1.4-0.3l36.3-14.8
	c2.6,0.2,5.3,0.3,7.9,0.3c20-0.4,39-8.4,53.3-22.7s22.4-33.2,22.8-53.3C435.8,102.2,427.7,82.2,412.7,67.2z"/>
</svg>
