<?xml version="1.0" encoding="utf-8"?>
<!-- Generator: Adobe Illustrator 27.8.1, SVG Export Plug-In . SVG Version: 6.00 Build 0)  -->
<svg version="1.1" id="Layer_1" xmlns="http://www.w3.org/2000/svg" xmlns:xlink="http://www.w3.org/1999/xlink" x="0px" y="0px"
	 viewBox="0 0 276 276" style="enable-background:new 0 0 276 276;" xml:space="preserve">
<style type="text/css">
	.st0{fill:#203E5F;}
	.st1{clip-path:url(#SVGID_00000054254132412924023540000012198279844629832331_);}
	.st2{clip-path:url(#SVGID_00000021087005551762133600000014899917307020284307_);}
	.st3{clip-path:url(#SVGID_00000128476501532135749680000012763788341879838887_);}
	.st4{clip-path:url(#SVGID_00000030481453775416298300000011436608259549907120_);}
	.st5{clip-path:url(#SVGID_00000144296958378723705790000012054368233948190637_);}
	.st6{fill:#FFFFFF;}
	.st7{clip-path:url(#SVGID_00000176016120401769667430000011673411499386800015_);}
	.st8{clip-path:url(#SVGID_00000151514511346394872790000015781453481445908157_);}
	.st9{clip-path:url(#SVGID_00000029754349906622076440000016660764874686098600_);}
	.st10{fill:#EB3455;}
</style>
<path class="st0" d="M173.3,180.8l7.5-7.5l55.1,55.1l-7.5,7.5L173.3,180.8z"/>
<g>
	<defs>
		<rect id="SVGID_1_" y="54.2" width="222.2" height="221.8"/>
	</defs>
	<clipPath id="SVGID_00000025414109152311887500000011442273242041881736_">
		<use xlink:href="#SVGID_1_"  style="overflow:visible;"/>
	</clipPath>
	<g style="clip-path:url(#SVGID_00000025414109152311887500000011442273242041881736_);">
		<path class="st0" d="M165.4,188.7c-4.2,4.2-9.7,6.4-15.6,6.4c-5.9,0-11.4-2.3-15.6-6.4l-47-47c-4.1-4.1-6.4-9.8-6.4-15.5
			s2.3-11.5,6.4-15.6l1.1-1.1L33.3,54.3L8.7,78.9C3.1,84.5,0,92,0,99.9s3.1,15.4,8.7,21l146.4,146.4c5.6,5.6,13.1,8.7,21,8.7
			s15.4-3.1,21-8.7l24.6-24.6l-55.1-55.1L165.4,188.7z"/>
	</g>
</g>
<path class="st0" d="M40,47.6l7.5-7.5l55.1,55.1l-7.5,7.5L40,47.6z"/>
<path class="st0" d="M190.3,57.1c-2.6,0-4.8,2.1-4.8,4.8v14.3h9.5V61.9C195.1,59.2,193,57.1,190.3,57.1z"/>
<g>
	<defs>
		<rect id="SVGID_00000142168547452340213520000004152759526495861154_" x="132.8" width="143.2" height="143.5"/>
	</defs>
	<clipPath id="SVGID_00000129903278209611601100000006747850087133966485_">
		<use xlink:href="#SVGID_00000142168547452340213520000004152759526495861154_"  style="overflow:visible;"/>
	</clipPath>
	<g style="clip-path:url(#SVGID_00000129903278209611601100000006747850087133966485_);">
		<path class="st0" d="M204.6,0c-39.4,0-71.4,32-71.4,71.4c0,15.2,4.8,29.7,13.8,42c0.9,1.3,1.2,3,0.6,4.5l-6.3,16.7l16.7-6.3
			c0.5-0.2,1.1-0.3,1.7-0.3c1,0,2,0.3,2.8,0.9c12.3,9,26.9,13.8,42,13.8c39.4,0,71.4-32,71.4-71.4S244,0,204.6,0z M171.3,57.1H157
			v14.3h14.3v9.5H157v14.3h-9.5V52.3c0-2.6,2.1-4.8,4.8-4.8h19V57.1z M204.6,95.2h-9.5v-9.5h-9.5v9.5h-9.5V61.9
			c0-7.9,6.4-14.3,14.3-14.3c7.9,0,14.3,6.4,14.3,14.3V95.2z M237.9,52.3c0,7.8-3.8,14.7-9.7,19c5.8,4.3,9.7,11.2,9.7,19v4.8h-9.5
			v-4.8c0-6.2-4-11.4-9.5-13.4v18.2h-9.5V47.6h9.5v18.2c5.5-2,9.5-7.2,9.5-13.4v-4.8h9.5V52.3z M266.5,66.6v9.5h-14.3v9.5h14.3v9.5
			h-19c-2.6,0-4.8-2.1-4.8-4.8V52.3c0-2.6,2.1-4.8,4.8-4.8h19v9.5h-14.3v9.5H266.5z"/>
	</g>
</g>
<g>
	<defs>
		<rect id="SVGID_00000113324837365591211810000003542829277639934393_" x="138.2" y="13.1" width="135.1" height="118.5"/>
	</defs>
	<clipPath id="SVGID_00000137837039601129473750000016986720430382604421_">
		<use xlink:href="#SVGID_00000113324837365591211810000003542829277639934393_"  style="overflow:visible;"/>
	</clipPath>
	<g style="clip-path:url(#SVGID_00000137837039601129473750000016986720430382604421_);">
		<g>
			<defs>
				<path id="SVGID_00000171715727891971289630000018284175707625918907_" d="M205.7,13.1c-37.3,0-67.5,26.5-67.5,59.3
					c0,32.7,30.2,59.3,67.5,59.3c37.3,0,67.5-26.5,67.5-59.3C273.2,39.6,243,13.1,205.7,13.1"/>
			</defs>
			<clipPath id="SVGID_00000151541867123218200070000017875396966697225123_">
				<use xlink:href="#SVGID_00000171715727891971289630000018284175707625918907_"  style="overflow:visible;"/>
			</clipPath>
			<g style="clip-path:url(#SVGID_00000151541867123218200070000017875396966697225123_);">
				<path class="st0" d="M138.2,13.1h135.1v118.5H138.2V13.1z"/>
			</g>
		</g>
	</g>
</g>
<path class="st0" d="M235.1,90.2c-4.6,0-8.4-3.7-8.4-8.3c0-4.6,3.8-8.3,8.4-8.3c6.9,0,8.3,2,8.3,5.1
	C243.4,83.7,239.4,90.2,235.1,90.2z"/>
<g>
	<defs>
		<rect id="SVGID_00000008867925853422977030000010768958123194819459_" x="224.8" y="71.5" width="20" height="21.3"/>
	</defs>
	<clipPath id="SVGID_00000110448892971097908610000007574309953757525411_">
		<use xlink:href="#SVGID_00000008867925853422977030000010768958123194819459_"  style="overflow:visible;"/>
	</clipPath>
	<g style="clip-path:url(#SVGID_00000110448892971097908610000007574309953757525411_);">
		<path class="st6" d="M235.1,75c7,0,7,2,7,3.7c0,4.2-3.6,10.1-7,10.1c-3.8,0-7-3.1-7-6.9C228.1,78.1,231.2,75,235.1,75 M235.1,72.2
			c-5.4,0-9.7,4.3-9.7,9.7c0,5.3,4.4,9.7,9.7,9.7c5.4,0,9.7-7.6,9.7-12.9C244.8,73.3,240.5,72.2,235.1,72.2z"/>
	</g>
</g>
<path class="st0" d="M176.6,90.2c-4.3,0-8.3-6.5-8.3-11.5c0-3,1.4-5.1,8.3-5.1c4.6,0,8.3,3.7,8.3,8.3
	C185,86.5,181.2,90.2,176.6,90.2z"/>
<g>
	<defs>
		<rect id="SVGID_00000108295805425313530300000005280688958310412733_" x="166.9" y="71.5" width="20.6" height="21.3"/>
	</defs>
	<clipPath id="SVGID_00000020388797268984277500000016115315836087293613_">
		<use xlink:href="#SVGID_00000108295805425313530300000005280688958310412733_"  style="overflow:visible;"/>
	</clipPath>
	<g style="clip-path:url(#SVGID_00000020388797268984277500000016115315836087293613_);">
		<path class="st6" d="M176.6,75c3.8,0,7,3.1,7,6.9c0,3.8-3.1,6.9-7,6.9c-3.4,0-7-5.9-7-10.1C169.7,77,169.7,75,176.6,75
			 M176.6,72.2c-5.4,0-9.7,1.1-9.7,6.4c0,5.3,4.4,12.9,9.7,12.9c5.4,0,9.7-4.3,9.7-9.7C186.4,76.6,182,72.2,176.6,72.2z"/>
	</g>
</g>
<path class="st6" d="M205.9,123.3c-3.5,0-6.8-1.5-9.2-4.1l-0.2-0.2l-0.3-0.1c-11.6-4.1-19.4-15.1-19.4-27.3V51.2
	c0-7.2,5.9-13.1,13.2-13.1h32.1c7.3,0,13.2,5.9,13.2,13.1v40.4c0,12.2-7.8,23.2-19.4,27.3l-0.3,0.1l-0.2,0.2
	C212.7,121.9,209.4,123.3,205.9,123.3z"/>
<g>
	<defs>
		<rect id="SVGID_00000137840083687966146800000016246654716363971473_" x="174.2" y="35.5" width="62.7" height="89.2"/>
	</defs>
	<clipPath id="SVGID_00000082361367419312134270000016673877548812334235_">
		<use xlink:href="#SVGID_00000137840083687966146800000016246654716363971473_"  style="overflow:visible;"/>
	</clipPath>
	<g style="clip-path:url(#SVGID_00000082361367419312134270000016673877548812334235_);">
		<path class="st6" d="M221.9,39.5c6.5,0,11.8,5.3,11.8,11.7v40.4c0,11.6-7.4,22.1-18.5,26l-0.7,0.2l-0.5,0.5
			c-2.2,2.4-5.1,3.6-8.2,3.6c-3.1,0-6-1.3-8.2-3.6l-0.5-0.5l-0.7-0.2c-11.1-3.9-18.5-14.4-18.5-26V51.2c0-6.5,5.3-11.7,11.8-11.7
			H221.9 M221.9,36.7h-32.1c-8.1,0-14.6,6.5-14.6,14.5v40.4c0,13.2,8.5,24.4,20.4,28.6c2.5,2.8,6.2,4.5,10.3,4.5
			c4.1,0,7.7-1.8,10.3-4.5c11.9-4.2,20.4-15.4,20.4-28.6V51.2C236.5,43.2,229.9,36.7,221.9,36.7z"/>
	</g>
</g>
<path class="st0" d="M235.1,84.7V66.2c0-15.7-11.9-20.1-12.1-20.1l-0.9-0.3l-0.6,0.7c-0.1,0.1-9.4,10.6-27,10.6
	c-11.5,0-17.9,5.8-17.9,16.4v11.3h-0.5c-1.6-3.9-7.9-20.2-7.9-32.1c0-15.4,13-31.4,34.8-31.4c11.3,0,17.3,5.6,19.9,9l0.4,0.5h0.7
	c5,0,19.4,4.2,19.4,22.9c0,9.3-6.4,27-7.9,31.1L235.1,84.7L235.1,84.7z"/>
<g>
	<defs>
		<rect id="SVGID_00000160902126295720468540000012807953599052779140_" x="166.9" y="19.7" width="78" height="66.4"/>
	</defs>
	<clipPath id="SVGID_00000106130911817053360640000005394518704711051915_">
		<use xlink:href="#SVGID_00000160902126295720468540000012807953599052779140_"  style="overflow:visible;"/>
	</clipPath>
	<g style="clip-path:url(#SVGID_00000106130911817053360640000005394518704711051915_);">
		<path class="st6" d="M203.1,22.5c10.7,0,16.4,5.3,18.8,8.4l0.8,1.1h1.4c4.7,0,18,3.9,18,21.5c0,6.5-3.2,17.1-5.6,24.3V66.2
			c0-16.6-12.5-21.2-13-21.4l-1.8-0.6l-1.2,1.4c-0.4,0.4-9,10.1-25.9,10.1c-12.4,0-19.3,6.3-19.3,17.7v4.9
			c-2.4-6.8-5.6-17.4-5.6-25.7C169.7,38,181.4,22.5,203.1,22.5 M203.1,19.7c-23.2,0-36.2,16.9-36.2,32.8c0,13.9,8.3,33.5,8.3,33.5
			h2.8c0,0,0-8.8,0-12.7c0-11.8,8.1-15,16.5-15c18.5,0,28-11.1,28-11.1s11.1,3.9,11.1,18.8c0,4.2,0,19.9,0,19.9h2.8
			c0,0,8.3-21.6,8.3-32.5c0-19.3-14.9-24.2-20.8-24.2C222.6,27.3,216.4,19.7,203.1,19.7z"/>
	</g>
</g>
<path class="st10" d="M222.7,95.7c-6.8,0-9.7-4-11.9-7.3c-1.5-2.1-2.8-3.9-4.9-3.9c-2.1,0-3.3,1.8-4.8,3.9c-2.3,3.3-5.2,7.3-12,7.3
	c-9.2,0-15.2-8.9-17.7-26.5c5.6,2,20.8,6.8,34.6,6.8c13.8,0,29-4.8,34.6-6.8C237.9,86.8,231.9,95.7,222.7,95.7z"/>
<path class="st6" d="M238.8,71.2c-2.6,15.3-8,23.1-16.1,23.1c-6.1,0-8.6-3.6-10.8-6.7c-1.6-2.2-3.2-4.5-6-4.5
	c-2.8,0-4.4,2.3-5.9,4.5c-2.2,3.2-4.8,6.8-10.9,6.8c-8,0-13.4-7.8-16-23.1c6.8,2.2,20.4,6.1,32.9,6.1
	C218.3,77.4,231.9,73.5,238.8,71.2 M242.2,67.1c0,0-19.5,7.5-36.3,7.5c-16.8,0-36.3-7.5-36.3-7.5c0.7,4.7,3.2,30,19.4,30
	c11.8,0,13.1-11.2,16.8-11.2c3.8,0,5,11.2,16.8,11.2C238.9,97.1,241.5,71.8,242.2,67.1z"/>
<path class="st6" d="M221.2,81.9c-0.4,0-0.7,0.1-1.1,0.2c-0.3,0.1-0.6,0.3-0.9,0.6c-0.3,0.3-0.5,0.6-0.6,0.9
	c-0.1,0.3-0.2,0.7-0.2,1.1c0,0.4,0.1,0.7,0.2,1.1s0.3,0.6,0.6,0.9c0.3,0.3,0.6,0.5,0.9,0.6c0.3,0.1,0.7,0.2,1.1,0.2
	c0.4,0,0.7-0.1,1.1-0.2c0.3-0.1,0.6-0.3,0.9-0.6c0.3-0.3,0.5-0.6,0.6-0.9s0.2-0.7,0.2-1.1c0-0.4-0.1-0.7-0.2-1.1
	c-0.1-0.3-0.3-0.6-0.6-0.9c-0.3-0.3-0.6-0.5-0.9-0.6C221.9,82,221.5,81.9,221.2,81.9z"/>
<path class="st6" d="M221.2,83.3c0.8,0,1.4,0.6,1.4,1.4c0,0.8-0.6,1.4-1.4,1.4c-0.8,0-1.4-0.6-1.4-1.4
	C219.8,83.9,220.4,83.3,221.2,83.3 M221.2,80.5c-2.3,0-4.2,1.9-4.2,4.1c0,2.3,1.9,4.1,4.2,4.1c2.3,0,4.2-1.9,4.2-4.1
	C225.3,82.4,223.5,80.5,221.2,80.5z"/>
<path class="st6" d="M190.5,81.9c-0.4,0-0.7,0.1-1.1,0.2c-0.3,0.1-0.6,0.3-0.9,0.6c-0.3,0.3-0.5,0.6-0.6,0.9
	c-0.1,0.3-0.2,0.7-0.2,1.1c0,0.4,0.1,0.7,0.2,1.1s0.3,0.6,0.6,0.9c0.3,0.3,0.6,0.5,0.9,0.6c0.3,0.1,0.7,0.2,1.1,0.2
	c0.4,0,0.7-0.1,1.1-0.2c0.3-0.1,0.6-0.3,0.9-0.6c0.3-0.3,0.5-0.6,0.6-0.9s0.2-0.7,0.2-1.1c0-0.4-0.1-0.7-0.2-1.1
	c-0.1-0.3-0.3-0.6-0.6-0.9c-0.3-0.3-0.6-0.5-0.9-0.6C191.3,82,190.9,81.9,190.5,81.9z"/>
<path class="st6" d="M190.5,83.3c0.8,0,1.4,0.6,1.4,1.4c0,0.8-0.6,1.4-1.4,1.4c-0.8,0-1.4-0.6-1.4-1.4
	C189.2,83.9,189.8,83.3,190.5,83.3 M190.5,80.5c-2.3,0-4.2,1.9-4.2,4.1c0,2.3,1.9,4.1,4.2,4.1c2.3,0,4.2-1.9,4.2-4.1
	C194.7,82.4,192.9,80.5,190.5,80.5z"/>
</svg>
