<?xml version="1.0" encoding="utf-8"?>
<!-- Generator: Adobe Illustrator 27.8.1, SVG Export Plug-In . SVG Version: 6.00 Build 0)  -->
<svg version="1.1" id="Layer_1" xmlns="http://www.w3.org/2000/svg" xmlns:xlink="http://www.w3.org/1999/xlink" x="0px" y="0px"
	 viewBox="0 0 304.6 408.4" style="enable-background:new 0 0 304.6 408.4;" xml:space="preserve">
<style type="text/css">
	.st0{fill-rule:evenodd;clip-rule:evenodd;fill:#EB3455;}
	.st1{clip-path:url(#SVGID_00000057125021226547360080000009206133408039781523_);}
	.st2{clip-path:url(#SVGID_00000068637485591685971930000014727431180038055325_);}
	.st3{clip-path:url(#SVGID_00000062151079890894005580000000791829063140983685_);}
	.st4{fill:#203E5F;}
	.st5{clip-path:url(#SVGID_00000136411766777885905460000006100649415304390810_);}
	.st6{fill:#EB3455;}
	.st7{clip-path:url(#SVGID_00000165936039363178961900000016720560337352128689_);}
</style>
<path class="st0" d="M53.4,294.1h156.7V190.9c0-3-2.4-5.4-5.4-5.4H58.8c-3,0-5.4,2.4-5.4,5.4V294.1z M131.7,286.5
	c-25.7,0-46.7-21-46.7-46.7s20.9-46.7,46.7-46.7c25.7,0,46.7,21,46.7,46.7S157.5,286.5,131.7,286.5z M131.7,198.9
	c-22.5,0-40.8,18.3-40.8,40.9c0,22.5,18.3,40.9,40.8,40.9c22.5,0,40.8-18.3,40.8-40.9S154.2,198.9,131.7,198.9z M131.7,274.6
	c-19.2,0-34.8-15.6-34.8-34.8s15.6-34.8,34.8-34.8s34.8,15.6,34.8,34.8S150.9,274.6,131.7,274.6z M131.7,210.8
	c-15.9,0-28.9,13-28.9,28.9c0,16,13,28.9,28.9,28.9c15.9,0,28.9-13,28.9-28.9S147.7,210.8,131.7,210.8z M131.7,264
	c-1.6,0-2.9-1.3-2.9-2.9v-0.5c-5.2-1.3-9.1-6-9.1-11.7c0-1.6,1.3-2.9,2.9-2.9c1.6,0,2.9,1.3,2.9,2.9c0,2.3,1.3,4.4,3.2,5.4v-12
	c-5.2-1.3-9.1-6-9.1-11.7c0-5.6,3.9-10.4,9.1-11.7v-0.5c0-1.6,1.3-2.9,2.9-2.9c1.6,0,2.9,1.3,2.9,2.9v0.5c5.2,1.3,9.1,6,9.1,11.7
	c0,1.6-1.3,2.9-2.9,2.9c-1.6,0-2.9-1.3-2.9-2.9c0-2.3-1.3-4.4-3.2-5.4v12c5.2,1.3,9.1,6,9.1,11.7c0,5.6-3.9,10.4-9.1,11.7v0.5
	C134.7,262.7,133.3,264,131.7,264z M128.8,236.1v-10.9c-1.9,1-3.2,3.1-3.2,5.4C125.6,233,126.9,235.1,128.8,236.1z M134.7,243.5
	v10.9c1.9-1,3.2-3.1,3.2-5.4C137.9,246.5,136.6,244.5,134.7,243.5z"/>
<g>
	<defs>
		<rect id="SVGID_1_" width="262.7" height="294.6"/>
	</defs>
	<clipPath id="SVGID_00000021095866110304171710000017993968308470687137_">
		<use xlink:href="#SVGID_1_"  style="overflow:visible;"/>
	</clipPath>
	<g style="clip-path:url(#SVGID_00000021095866110304171710000017993968308470687137_);">
		<path class="st0" d="M24.7,293.4c-8.9-1.6-15-4.7-18.8-9.5c-6.7-8.3-5.4-20.4-3.3-34.2l8.7-55.5c5-31.9,15.3-36.5,35.8-45.7
			c4.9-2.2,10.4-4.7,16.6-7.9c-0.7-2-1.4-4.1-2.1-6.3c-5.7-16.5-12.8-37-6.4-47.5l44-71.8c5.6-9.2,18.4-14.9,33.2-14.9
			c14.8,0,27.6,5.7,33.2,14.9l44,71.8c6.4,10.4-0.7,31-6.4,47.5c-0.8,2.4-1.6,4.7-2.3,6.9c5.8,2.9,10.9,5.2,15.5,7.3
			c20.5,9.2,30.8,13.8,35.8,45.7l8.7,55.5c2.2,13.8,3.4,25.9-3.3,34.2c-3.8,4.8-9.9,7.9-18.8,9.5c-1.2-11.6-10.2-21.2-22-22.9
			l-0.9-0.1v-79.4c0-6.2-5-11.2-11.2-11.2H58.8c-6.2,0-11.2,5-11.2,11.2v79.4l-0.8,0.1C34.9,272.2,26,281.7,24.7,293.4z
			 M150.5,158.1h-40.4c-0.1,0-0.2,0-0.2,0c-10.6-0.9-14.6-9.6-14.7-10l-13.4-30.8c-0.4-0.8-0.7-1.6-1.1-2.4
			c-4.7-10.5-9.1-20.5,9-28.7c5.2-2.4,9.6-4.4,13.6-6.3c13.3-6.2,19.9-9.4,27-9.4s13.8,3.1,27,9.4c3.9,1.8,8.3,3.9,13.6,6.3
			c18.1,8.2,13.7,18.2,9,28.7c-0.3,0.8-0.7,1.6-1.1,2.4l-13.4,30.8c-0.2,0.4-4.1,9.1-14.7,10C150.6,158.1,150.6,158.1,150.5,158.1z
			 M110.2,152.2h40.1c7.1-0.6,9.7-6.4,9.7-6.4l13.4-30.8c0.4-0.8,0.7-1.7,1.1-2.5c4.8-10.7,6.7-15.2-6.1-21
			c-5.2-2.4-9.7-4.5-13.6-6.3c-12.5-5.9-18.7-8.8-24.5-8.8c-5.8,0-12.1,2.9-24.5,8.8c-3.9,1.8-8.4,3.9-13.6,6.3
			c-12.8,5.8-10.9,10.3-6.1,21c0.4,0.8,0.7,1.6,1.1,2.5l13.4,30.8C100.6,146,103.3,151.6,110.2,152.2z"/>
	</g>
</g>
<g>
	<defs>
		<rect id="SVGID_00000027580679139902001550000003895944732855046299_" x="29.3" y="275.9" width="204" height="24.1"/>
	</defs>
	<clipPath id="SVGID_00000027593450093717810280000008699419982900783234_">
		<use xlink:href="#SVGID_00000027580679139902001550000003895944732855046299_"  style="overflow:visible;"/>
	</clipPath>
	<g style="clip-path:url(#SVGID_00000027593450093717810280000008699419982900783234_);">
		<path class="st0" d="M230.1,299.9h-14.2v-23.7c9.7,1.4,17.1,9.8,17.1,19.8v0.9C233,298.6,231.7,299.9,230.1,299.9z M47.5,299.9
			H33.4c-1.6,0-2.9-1.3-2.9-2.9v-0.9c0-10.1,7.5-18.4,17.1-19.8V299.9z"/>
	</g>
</g>
<g>
	<defs>
		<rect id="SVGID_00000072246012802007275330000016410587524085749178_" x="51.6" y="108.4" width="253" height="300"/>
	</defs>
	<clipPath id="SVGID_00000094612328167627943720000005617431924913958579_">
		<use xlink:href="#SVGID_00000072246012802007275330000016410587524085749178_"  style="overflow:visible;"/>
	</clipPath>
	<g style="clip-path:url(#SVGID_00000094612328167627943720000005617431924913958579_);">
		<path class="st4" d="M301.8,152.1c-3.7-4.2-10-3.1-14.9-4.3c-36.2-6-70.2-20.8-102.6-37.3c-1.5-0.7-3.2-1.4-4.8-1.9h-2.3
			c-5.6,1.7-10.6,4.9-15.9,7.4c-28.5,14-58.3,26-89.7,31.6c-4.5,0.9-9.2,0.8-13.6,2.2c-3.5,1.5-6.1,5.2-5.9,9.1
			c-0.4,21.7,0.4,43.3,2.1,64.9c2.4,27.5,6.4,55.1,15.6,81.2c4.5,12.1,10.2,24,18.8,33.8c23.4,27.7,52.5,50.5,84.4,67.8
			c1.4,0.7,2.8,1.2,4.2,1.7h2c5.7-1.6,10.4-5.4,15.6-8.1c24.7-14.6,47.2-32.8,66.7-53.9c5.9-6.6,11.9-13.3,16.1-21.2
			c9.8-17.4,14.9-36.9,18.8-56.3c6.6-35.4,8.4-71.6,8.2-107.5C304.5,158,304.3,154.5,301.8,152.1z M288.1,260.8
			c-4,21.8-9.1,44-20.9,63.1c-10.4,15.1-23.8,27.8-37.6,39.8c-15.8,13.5-33.3,25.1-51.5,35.1c-32.1-17.4-61.4-40.3-84.6-68.6
			c-11.9-15.3-17.6-34.3-22.1-52.9c-8.6-39-10.7-79.1-10.1-118.9c41.4-4.7,80-21.7,116.8-40.3c36.8,18.7,75.4,35.7,116.8,40.3
			C295.5,192.6,293.9,227,288.1,260.8z"/>
	</g>
</g>
<path class="st4" d="M80,174.6c0.7,36.8,2.8,74.1,12.5,109.8c3.8,13.2,8.7,26.5,18.1,36.8c18.9,22.6,42.3,41,67.6,56
	c26.8-16,51.6-35.9,71.2-60.4c9.2-12.7,13.6-28.1,17.2-43.2c7.3-32.5,9.2-65.9,9.8-99.1c-34.4-6.6-67-20-98.2-35.6
	C147,154.6,114.4,168,80,174.6z"/>
<g>
	<defs>
		<rect id="SVGID_00000054986101964757313140000008414955425891332997_" x="159.7" y="180.7" width="36.7" height="98.6"/>
	</defs>
	<clipPath id="SVGID_00000027601892203972894540000018161370854774774403_">
		<use xlink:href="#SVGID_00000054986101964757313140000008414955425891332997_"  style="overflow:visible;"/>
	</clipPath>
	<g style="clip-path:url(#SVGID_00000027601892203972894540000018161370854774774403_);">
		<path class="st6" d="M178.1,180.7c-11.1,0-19.6,9.8-18.1,20.8l10.3,70.3c0.5,4,3.9,6.9,7.9,6.9c4,0,7.4-3,7.9-6.9l10.3-70.3
			C197.7,190.5,189.1,180.7,178.1,180.7"/>
	</g>
</g>
<g>
	<defs>
		<rect id="SVGID_00000161589324028662095860000006973180342234868626_" x="164" y="291.9" width="28" height="28.8"/>
	</defs>
	<clipPath id="SVGID_00000091003697587329354460000003517598652632095881_">
		<use xlink:href="#SVGID_00000161589324028662095860000006973180342234868626_"  style="overflow:visible;"/>
	</clipPath>
	<g style="clip-path:url(#SVGID_00000091003697587329354460000003517598652632095881_);">
		<path class="st6" d="M178.1,292.7c-7.7,0-13.9,6.3-13.9,14c0,7.7,6.2,14,13.9,14c7.7,0,13.9-6.3,13.9-14
			C192,299,185.8,292.7,178.1,292.7"/>
	</g>
</g>
</svg>
