<?xml version="1.0" encoding="utf-8"?>
<!-- Generator: Adobe Illustrator 27.8.1, SVG Export Plug-In . SVG Version: 6.00 Build 0)  -->
<svg version="1.1" id="Layer_1" xmlns="http://www.w3.org/2000/svg" xmlns:xlink="http://www.w3.org/1999/xlink" x="0px" y="0px"
	 viewBox="0 0 375.8 445.7" style="enable-background:new 0 0 375.8 445.7;" xml:space="preserve">
<style type="text/css">
	.st0{clip-path:url(#SVGID_00000047740385936356421270000007209308477603508362_);}
	.st1{clip-path:url(#SVGID_00000105390236453365140800000008559369445143465877_);}
	.st2{fill:#EB3455;}
	.st3{fill:#203E5F;}
	.st4{clip-path:url(#SVGID_00000078733756590162397200000017579279614241471649_);}
</style>
<g>
	<defs>
		<rect id="SVGID_1_" x="245.5" y="19.9" width="65.4" height="65.4"/>
	</defs>
	<clipPath id="SVGID_00000091009292227133395530000005255174075142606270_">
		<use xlink:href="#SVGID_1_"  style="overflow:visible;"/>
	</clipPath>
	<g style="clip-path:url(#SVGID_00000091009292227133395530000005255174075142606270_);">
		<g>
			<defs>
				<path id="SVGID_00000152947998326087233380000010215145558364964022_" d="M278.2,19.9c-18.1,0-32.7,14.6-32.7,32.7
					s14.6,32.7,32.7,32.7c18.1,0,32.7-14.6,32.7-32.7S296.2,19.9,278.2,19.9"/>
			</defs>
			<clipPath id="SVGID_00000048461919850668289980000009595511966600674702_">
				<use xlink:href="#SVGID_00000152947998326087233380000010215145558364964022_"  style="overflow:visible;"/>
			</clipPath>
			<g style="clip-path:url(#SVGID_00000048461919850668289980000009595511966600674702_);">
				<path class="st2" d="M245.5,19.9h65.4v65.4h-65.4V19.9z"/>
			</g>
		</g>
	</g>
</g>
<path class="st3" d="M246,164.2c2.5,7.7,5.9,15.1,10.7,21.9c1.8,2.5,3.7,4.9,5.8,7c-5,7-10.8,12.4-17.8,16.4
	c-19.7,11.3-40.5,5.8-59.6-2.2c-0.6-0.2-1.2-0.4-1.8-0.3h-16.1c-8.9,0-16.1-7.1-16.1-16c0-8.9,7.2-16,16.1-16h18.8
	c2.3,0,4.6,0.4,6.7,1.4c7.8,3.5,16.2,6.9,24.7,7.3c8.5,0.4,17.4-2.7,24-11.2C243.4,169.8,244.6,167.9,246,164.2z"/>
<path class="st3" d="M325.5,0c-11,0.1-21.3,4.1-29.2,11c7.1,0.5,13.4-0.3,21.2,1.3c5.2,1.1,9.8,3.5,12.7,7.5c2.9,4,3.5,9.1,2.4,13.2
	c-5.8,21.5-13.7,39.8-24.3,53.1c3.1,1.3,6.3,2.2,9.8,2.8c24.4,4.2,47.7-12.1,51.9-36.4c4.2-24.4-12.2-47.6-36.6-51.9
	C330.8,0.2,328.2,0,325.5,0z"/>
<g>
	<defs>
		<rect id="SVGID_00000040573043884756572620000000146741257348266428_" x="240.3" y="4.4" width="135.4" height="441.3"/>
	</defs>
	<clipPath id="SVGID_00000161624271463579146350000007484510589787663286_">
		<use xlink:href="#SVGID_00000040573043884756572620000000146741257348266428_"  style="overflow:visible;"/>
	</clipPath>
	<g style="clip-path:url(#SVGID_00000161624271463579146350000007484510589787663286_);">
		<path class="st3" d="M246.7,10c-5.7,21.5-7.8,40.8-5.2,56c2.2,12.4,7.8,22.2,17.1,27.2l0.6,0.2c-1.2,1.5-2.1,3.3-2.7,5.2
			l-4.9,16.3c-3.6,11.7-2.6,22.9-0.3,34.5c2.3,11.5,6.2,22.3,12.7,31.7c8.4,12.2,21.8,18.5,35.9,18.1c13.6-0.4,29.1-9.9,35-25.2
			l9.4-24.6c0.9-2.3,3.5-3.4,5.8-2.5c2.3,0.9,3.4,3.4,2.6,5.7l-9.5,24.6c-7.3,18.9-25.5,30.4-43,30.9c-7.9,0.2-15.7-1.4-22.8-4.6
			v201c0,0.8-0.2,1.6-0.6,2.2l-11,19.8c-2.7,4.9-2.9,9.9-1.5,13.4c1.4,3.5,3.9,5.6,8.6,5.6h37.9c-0.4-0.7-0.8-1.5-1.1-2.2
			c-2.6-6.4-2.1-14.2,1.9-21.2l10.5-18.7V267c0-2.5,2-4.5,4.5-4.5s4.5,2,4.5,4.5v137.5c0,0.8-0.2,1.6-0.6,2.2l-11,19.8
			c-2.7,4.9-2.9,9.9-1.5,13.4c1.4,3.5,4,5.7,8.6,5.7h35.9c5.2,0,8-1.6,10-4.3c2-2.7,3.2-7,3.2-12.3V127.2
			c0-15.9-12.4-28.6-30.7-28.6l-48.5,0.1c0.7,3.6,0.7,7.5-0.4,11.2l-5.2,17c-0.1,0.3-0.2,3.4-0.2,4.6c0,2.8,0.3,6.4,1,9.7
			c1.3,6.4,4.4,13.2,5.8,15.6l15.1-39.9c0.9-2.3,3.5-3.5,5.8-2.6c2.3,0.9,3.5,3.5,2.6,5.8l-16.1,42.4c-1.7,4.4-4.9,5.9-10.5,3.5
			c-1.4-0.6-2.7-1.5-3.9-3.2c-2.9-4.1-5.9-11.7-7.6-19.8c-0.8-4.1-1.3-8.2-1.2-11.4c0.1-2.3-0.1-4.9,0.6-7.3l4.9-16.3
			c1.2-4,0.8-8.1-1.1-12c-0.3-0.6-0.7-1.2-1.1-1.8c5.6-2.5,10.8-6.8,15.5-12.3c9.9-11.8,17.8-29.6,23.6-51c1-3.8-0.9-8.1-8.3-9.7
			c-7.4-1.6-17.1,0.6-29.9-2.9c-12.9-3.5-19.9-9.7-26.4-12.3C253,3.5,248,5.2,246.7,10z M261.7,34.5c1.4,0,2.9,0.2,4.5,0.8
			c4.3,1.5,6.9,5,7.8,9.3c0.4,1.6,0.1,3.1-0.6,4c-0.8,1-1.8,0.9-2.8-0.1c-4.6-4.5-8.6-6.1-15.9-6.6c-1.9-0.1-1.6-3.8,0.8-5.4
			C257.3,35.2,259.4,34.5,261.7,34.5L261.7,34.5z M292.5,42.4c0.5,0,1,0,1.5,0.1c0.5,0.1,1,0.1,1.5,0.3c3.3,0.8,6.1,3.2,7.8,6.6
			c1.3,2.7-0.3,5.9-2,5.1c-6.6-3.2-10.8-3.8-17.1-2.2c-1.4,0.3-2.3-0.1-2.5-1.3c-0.2-1.2,0.3-2.6,1.4-3.8
			C285.6,44.2,289,42.5,292.5,42.4z M255.2,61.4c0.8-0.1,1.5,0.4,2.1,0.8c2.3,1.7,8.6,7.4,14.5,9c5.8,1.6,14.2,0,17-0.6
			c2.7-0.5,3.7,2.3,1.7,4.2c-6.1,6-14.6,8.4-21.5,6.6c-6.8-1.8-13-8.2-15.3-16.5C253.2,63,254.3,61.5,255.2,61.4L255.2,61.4z"/>
	</g>
</g>
<path class="st3" d="M42.3,98.6h35.3c9.5,0,3.3,0.1,28.5,0.1c12.2,0,21.2,6.1,27.5,16.7c6.2,10.7,9.1,25.9,7.5,42.8
	c-3,30.2,0.5,60.4,6.4,80.1c0.5,1.6,0.7,3.2,0.7,4.9v38.5c0,9.4-7.5,16.9-16.9,16.9c-9.4,0-17.2-7.6-17-16.9l0.8-32.3
	c0-0.5,0-0.9-0.1-1.4c-8.1-27.1-13-64.6-8-101.7c0.3-2.4-1.4-4.7-3.8-5s-4.7,1.4-5,3.8c-5.2,38.3-0.4,76.5,8,104.7l-0.8,31.7
	c-0.3,12.9,9.2,23.5,21.4,25.6v97.5c0,0.8,0.2,1.5,0.6,2.2l11.1,19.8c2.7,4.9,2.9,9.9,1.5,13.5c-1.4,3.5-4,5.6-8.5,5.6H95.6
	c-5.2,0-7.9-1.6-10-4.3c-2-2.7-3.3-6.9-3.3-12.3L82,267c0-2.5-2-4.5-4.5-4.5s-4.5,2-4.5,4.5L73.4,429c0,6.2,1.2,12,4.3,16.6H41.8
	c-5.2,0-8-1.6-10-4.3c-2-2.7-3.3-7-3.3-12.3V145.1c0-2.5-2-4.5-4.5-4.5c-2.5,0-4.5,2-4.5,4.5v159c-6.3-2.1-10.9-7.9-10.8-14.8
	l0.5-33.7c0-0.5-0.1-1-0.2-1.5c-10-29.3-10.3-64.3-7.5-98.3c1.2-14.2,5.2-29.1,12.6-39.7C21,106.3,29.4,98.6,42.3,98.6z"/>
<path class="st3" d="M81.7,0.7c24.4,4.2,40.8,27.5,36.6,51.9S90.7,93.2,66.3,89c-24.4-4.2-40.8-27.5-36.6-51.8S57.3-3.6,81.7,0.7z"
	/>
</svg>
