<?xml version="1.0" encoding="UTF-8"?><svg id="Layer_1" xmlns="http://www.w3.org/2000/svg" xmlns:xlink="http://www.w3.org/1999/xlink" viewBox="0 0 328.93 49"><defs><style>.cls-1{clip-path:url(#clippath);}.cls-2{fill:none;}.cls-2,.cls-3,.cls-4{stroke-width:0px;}.cls-5{clip-path:url(#clippath-1);}.cls-6{clip-path:url(#clippath-3);}.cls-7{clip-path:url(#clippath-2);}.cls-3{fill:#fff;}.cls-4{fill:#eb3455;}</style><clipPath id="clippath"><rect class="cls-2" y="21.52" width="18.31" height="9.43"/></clipPath><clipPath id="clippath-1"><path class="cls-2" d="m2,21.52h14.31c.53,0,1.04.21,1.42.58s.58.89.58,1.42v5.43c0,.53-.21,1.04-.58,1.41s-.89.59-1.42.59H2c-.53,0-1.04-.21-1.42-.59s-.58-.89-.58-1.41v-5.43c0-.53.21-1.04.58-1.42s.89-.58,1.42-.58"/></clipPath><clipPath id="clippath-2"><rect class="cls-2" x="314.91" y="26.31" width="14.03" height="14.03"/></clipPath><clipPath id="clippath-3"><path class="cls-2" d="m321.92,26.31c-3.87,0-7.01,3.14-7.01,7.02s3.14,7.01,7.01,7.01,7.02-3.14,7.02-7.01-3.14-7.02-7.02-7.02"/></clipPath></defs><path class="cls-3" d="m36.09,9.81c3.76,0,6.94.74,9.54,2.21,2.61,1.47,3.92,3.75,3.92,6.83h-9.83c0-1.03-.46-1.75-1.38-2.17-.64-.36-1.44-.54-2.4-.54-2.56,0-3.83.6-3.83,1.81,0,.67.44,1.15,1.33,1.44.89.28,2.34.58,4.35.9,2.48.36,4.55.78,6.21,1.25,1.67.47,3.11,1.32,4.35,2.54,1.25,1.22,1.88,2.94,1.88,5.15,0,3.57-1.34,6.12-4.02,7.65-2.67,1.53-6.16,2.29-10.48,2.29-2.49,0-4.83-.35-7.02-1.04-2.2-.69-3.99-1.76-5.38-3.21-1.38-1.46-2.06-3.3-2.06-5.54h9.83v.21c.03,1.21.53,2.06,1.5,2.54.97.47,2.01.71,3.13.71,2.93,0,4.4-.69,4.4-2.06,0-.71-.46-1.22-1.38-1.54-.92-.32-2.43-.66-4.52-1.02-2.52-.43-4.58-.89-6.19-1.38-1.61-.5-3.02-1.34-4.23-2.52-1.21-1.19-1.81-2.85-1.81-4.98,0-3.43,1.3-5.88,3.9-7.33,2.61-1.46,6.01-2.19,10.19-2.19Z"/><path class="cls-3" d="m70.26,10.46v7.17h-5.96v10.69c0,1.28.21,2.21.65,2.79.43.58,1.21.88,2.33.88h2.98v6.23c-.85.28-1.95.51-3.29.69-1.35.18-2.52.27-3.52.27-3.11,0-5.51-.57-7.19-1.71-1.68-1.14-2.52-3.07-2.52-5.79v-14.04h-3.94v-7.17h4.35l2.29-8.5h7.85v8.5h5.96Z"/><path class="cls-3" d="m85.97,9.81c4.93,0,8.8,1.25,11.63,3.75,2.82,2.5,4.23,6.15,4.23,10.94s-1.41,8.42-4.23,10.92c-2.82,2.5-6.7,3.75-11.63,3.75s-8.78-1.24-11.58-3.73c-2.79-2.48-4.19-6.13-4.19-10.94s1.4-8.47,4.19-10.96c2.8-2.48,6.67-3.73,11.58-3.73Zm0,7.19c-3.47,0-5.21,2-5.21,6v3.04c0,3.96,1.73,5.94,5.21,5.94s5.27-1.98,5.27-5.94v-3.04c0-4-1.76-6-5.27-6Z"/><path class="cls-3" d="m121.74,9.81c3.79,0,6.71,1.24,8.77,3.73,2.05,2.49,3.08,6.16,3.08,11s-1.03,8.47-3.08,10.94c-2.06,2.46-4.98,3.69-8.77,3.69-3.27,0-5.89-1.06-7.88-3.19v13.02h-10.56V10.46h8.6l.9,3.98c2.05-3.08,5.03-4.63,8.94-4.63Zm-3.29,7.81c-1.57,0-2.74.56-3.52,1.67-.78,1.1-1.17,2.53-1.17,4.29v1.75c0,1.78.39,3.23,1.17,4.35.78,1.11,1.95,1.67,3.52,1.67,3.04,0,4.56-1.82,4.56-5.48v-2.81c0-3.63-1.52-5.44-4.56-5.44Z"/><path class="cls-3" d="m148.34,9.81c3.76,0,6.94.74,9.54,2.21,2.61,1.47,3.92,3.75,3.92,6.83h-9.83c0-1.03-.46-1.75-1.38-2.17-.64-.36-1.44-.54-2.4-.54-2.56,0-3.83.6-3.83,1.81,0,.67.44,1.15,1.33,1.44.89.28,2.34.58,4.35.9,2.48.36,4.55.78,6.21,1.25,1.67.47,3.11,1.32,4.35,2.54,1.25,1.22,1.88,2.94,1.88,5.15,0,3.57-1.34,6.12-4.02,7.65-2.67,1.53-6.16,2.29-10.48,2.29-2.49,0-4.83-.35-7.02-1.04-2.2-.69-3.99-1.76-5.38-3.21-1.38-1.46-2.06-3.3-2.06-5.54h9.83v.21c.03,1.21.53,2.06,1.5,2.54.97.47,2.01.71,3.13.71,2.93,0,4.4-.69,4.4-2.06,0-.71-.46-1.22-1.38-1.54-.92-.32-2.43-.66-4.52-1.02-2.52-.43-4.58-.89-6.19-1.38-1.61-.5-3.02-1.34-4.23-2.52-1.21-1.19-1.81-2.85-1.81-4.98,0-3.43,1.3-5.88,3.9-7.33,2.61-1.46,6.01-2.19,10.19-2.19Z"/><path class="cls-3" d="m171.23,38.52l-10.63-28.06h11.38l5.15,17.48h.38l5.17-17.48h10.42l-10.75,28.06h-11.1Z"/><path class="cls-3" d="m192.96,7.17V0h10.58v7.17h-10.58Zm0,31.35V10.46h10.58v28.06h-10.58Z"/><path class="cls-3" d="m225.97,9.81c3.25,0,5.69.91,7.31,2.73,1.64,1.81,2.46,4.41,2.46,7.81v18.17h-10.58v-16.9c0-1.21-.31-2.17-.94-2.9-.61-.73-1.49-1.1-2.63-1.1-1.31,0-2.37.43-3.19,1.29-.81.85-1.21,1.89-1.21,3.13v16.48h-10.58V10.46h8.67l.69,4.25c1.09-1.48,2.54-2.67,4.33-3.56,1.79-.89,3.68-1.33,5.67-1.33Z"/><path class="cls-3" d="m258.8,38.52l-.92-3.98c-2.06,3.08-5.03,4.63-8.92,4.63s-6.72-1.24-8.77-3.73c-2.06-2.48-3.08-6.15-3.08-11s1.03-8.46,3.08-10.92c2.05-2.47,4.98-3.71,8.77-3.71,3.22,0,5.84,1.08,7.85,3.25V0h10.58v38.52h-8.6Zm-6.54-20.9c-3.06,0-4.58,1.83-4.58,5.48v2.81c0,3.63,1.53,5.44,4.58,5.44,1.55,0,2.72-.55,3.5-1.65.78-1.11,1.17-2.55,1.17-4.31v-1.75c0-1.78-.39-3.22-1.17-4.33-.78-1.13-1.95-1.69-3.5-1.69Z"/><path class="cls-3" d="m284.65,9.81c5.14,0,9.06,1.21,11.77,3.63,2.72,2.41,4.08,6.09,4.08,11.06v1.79h-21.06c0,2.03.45,3.56,1.35,4.58.92,1.03,2.34,1.54,4.29,1.54,1.76,0,3.06-.38,3.9-1.13s1.25-1.74,1.25-2.98h10.27c0,3.41-1.3,6.06-3.9,7.98-2.58,1.92-6.35,2.88-11.31,2.88-5.21,0-9.25-1.21-12.13-3.65-2.86-2.43-4.29-6.1-4.29-11.02s1.4-8.47,4.19-10.96c2.8-2.48,6.67-3.73,11.58-3.73Zm.44,6.75c-3.33,0-5.2,1.58-5.58,4.73h10.31c0-1.44-.42-2.59-1.25-3.44-.83-.86-1.99-1.29-3.48-1.29Z"/><path class="cls-3" d="m302.29,38.52V0h10.58v38.52h-10.58Z"/><g class="cls-1"><g class="cls-5"><path class="cls-3" d="m0,21.52h18.31v9.43H0v-9.43Z"/></g></g><g class="cls-7"><g class="cls-6"><path class="cls-4" d="m314.91,26.31h14.03v14.03h-14.03v-14.03Z"/></g></g></svg>